<?xml version="1.0" encoding="utf-8"?>
<!-- Generator: Adobe Illustrator 24.1.1, SVG Export Plug-In . SVG Version: 6.00 Build 0)  -->
<svg version="1.1" id="Layer_1" xmlns="http://www.w3.org/2000/svg" xmlns:xlink="http://www.w3.org/1999/xlink" x="0px" y="0px"
	 viewBox="0 0 500 500" style="enable-background:new 0 0 500 500;" xml:space="preserve">
<style type="text/css">
	.st0{fill:#F5F5F5;}
	.st1{fill:#E0E0E0;}
	.st2{fill:#E6E6E6;}
	.st3{opacity:0.1;enable-background:new    ;}
	.st4{fill:#EBEBEB;}
	.st5{fill:#FAFAFA;}
	.st6{fill:#FFFFFF;}
	.st7{fill:#F0F0F0;}
	.st8{fill:#6161C1;}
	.st9{opacity:0.45;enable-background:new    ;}
	.st10{fill:#00005C;}
	.st11{opacity:0.3;enable-background:new    ;}
	.st12{fill:#2A2A9B;}
	.st13{opacity:0.2;enable-background:new    ;}
	.st14{opacity:0.25;enable-background:new    ;}
	.st15{fill:#BA68C8;}
	.st16{fill:#801B12;}
	.st17{fill:#6D1713;}
	.st18{fill:#455A64;}
	.st19{opacity:0.25;}
	.st20{fill:#37474F;}
	.st21{fill:#263238;}
	.st22{opacity:0.15;enable-background:new    ;}
	.st23{fill:#000042;}
	.st24{fill:#CCCCCC;}
	.st25{opacity:0.35;fill:#FFFFFF;enable-background:new    ;}
	.st26{fill:#2A2A2A;}
	.st27{fill:#FFA8A7;}
	.st28{fill:#494949;}
	.st29{fill:#F28F8F;}
	.st30{fill:#B16668;}
	.st31{fill:#334349;}
	.st32{fill:#96211B;}
</style>
<g id="freepik--Floor--inject-2">
	<path id="freepik--floor--inject-2" class="st0" d="M77.7,454c-95.2-55-95.2-144,0-199s249.5-54.9,344.7,0s95.2,144,0,199
		S172.8,509,77.7,454z"/>
</g>
<g id="freepik--Shadows--inject-2">
	<path id="freepik--Shadow--inject-2" class="st1" d="M240.1,460.5l-21.4-12.3c-2.4-1.4-2.4-3.6,0-5l36.3-20.9
		c2.7-1.4,5.9-1.4,8.7,0l21.2,12.4c2.4,1.4,2.4,3.6,0,5l-36,20.8C246,461.9,242.8,461.9,240.1,460.5z"/>
	<path id="freepik--shadow--inject-2" class="st1" d="M88.6,432.5c-0.3,1.6-1,3.1-1.9,4.5c-1.9,2.6-4.3,4.8-7.2,6.4
		c-12.4,7.1-32.5,7.1-44.9,0c-2.8-1.5-5.3-3.7-7.2-6.4c-0.9-1.3-1.6-2.8-1.9-4.4l0,0c-1.1-5.4,1.9-11,9.1-15.1
		c12.4-7.2,32.5-7.2,44.9,0C86.6,421.6,89.7,427.2,88.6,432.5z"/>
	<polygon id="freepik--shadow--inject-2_1_" class="st1" points="91.5,466.7 34.7,433.9 241.8,314.3 298.7,347.1 	"/>
	<path id="freepik--shadow--inject-2_2_" class="st1" d="M352.5,457.7c26.8,5.3,104.6,6.5,108.2-30.3c1.9-21.3-22.1-37.2-41.3-37.4
		c-7.6-0.1-20.1,0.5-21.1,9.4c-1.6,14.6-16.6,16.5-32.8,16.5c-9.6,0-25.8-0.7-35.5-0.2c-7.6,0.4-18.3,2.9-23.5,8.8
		C294.4,438.5,325.7,452.5,352.5,457.7z"/>
</g>
<g id="freepik--Gears--inject-2">
	<g id="freepik--Gear--inject-2">
		<path class="st2" d="M294.7,107.8c-0.3-0.2-0.4-0.5-0.4-0.9l0.2-5.4c0-0.7-0.5-1.3-1.3-1.4c-0.5,0-0.9-0.1-1.4-0.2
			c-0.8-0.2-1.6,0-2.1,0.6l-0.8,1l-0.1,2.3c0,0.3,0.1,0.7,0.4,0.9l0,0L294.7,107.8z M311.4,74.2c0.8-6-1.8-9.8-6.1-9.5
			c0.8,2,1.1,4.2,0.7,6.3c-0.9,7-6.1,14.2-11.5,16.2c-0.7,0.3-1.4,0.4-2.1,0.5c1.3,2.8,4,3.9,7.5,2.7
			C305.4,88.4,310.5,81.2,311.4,74.2z M284.2,105.8c-0.1-0.1-0.2-0.1-0.3-0.2l-2.4-2.6c-0.5-0.6-0.6-1.4-0.2-2.1l3.6-5.8
			c0.2-0.3,0.3-0.6,0.3-1c0.1-0.5,0-0.9-0.1-1.4c-0.2-0.7-0.4-1.4-0.5-2.2c-0.1-0.6-0.7-1.1-1.3-1c0,0-0.1,0-0.1,0l-3.3,0.7
			c0,0.2,0,0.4,0,0.7l0,0c0,0.4-0.2,0.7-0.3,1l-3.7,5.8c-0.4,0.7-0.3,1.5,0.2,2.1l2.4,2.6c0.1,0.1,0.2,0.2,0.3,0.2l0,0L284.2,105.8z
			 M319.1,62.2L319.1,62.2c-0.2-0.1-0.5-0.2-0.7-0.1l-0.5,0.1c0,0.2,0,0.5,0.1,0.7c0.2,0.7,0.4,1.4,0.5,2.2c0.1,0.6,0.6,1.1,1.3,1
			c0.1,0,0.1,0,0.2,0l3.8-0.9c0.2-0.1,0.4-0.1,0.6,0L319.1,62.2z M278.7,90.2c-0.3-0.2-0.5-0.6-0.4-1l0.8-6.4c0.1-0.5,0.3-1,0.7-1.4
			c0.2-0.2,0.4-0.4,0.6-0.5l4.3-2.1c0.7-0.4,1.3-1.1,1.6-1.8c0.4-1.2,0.9-2.4,1.5-3.6c0.2-0.4,0.2-0.9,0.2-1.4
			c0-0.3-0.1-0.6-0.3-0.9l-1.8-2.8c-0.3-0.4-0.3-0.9-0.3-1.4c0-0.3,0.2-0.5,0.3-0.8l4.3-6c0.4-0.6,1.2-0.7,1.8-0.3c0,0,0,0,0,0
			l2.3,1.8c0.6,0.4,1.4,0.4,2-0.1c0.8-0.8,1.7-1.5,2.6-2.2c0.6-0.5,1.1-1.3,1.3-2.1v-0.1l1.2-5.9c0.1-0.5,0.4-0.9,0.7-1.3
			c0.2-0.2,0.5-0.4,0.8-0.5l4.6-1.7c0.2-0.1,0.5-0.1,0.7,0l-5.3-3.2c-0.2-0.1-0.5-0.1-0.8,0l-4.6,1.7c-0.5,0.2-1,0.6-1.2,1.1
			c-0.1,0.1-0.1,0.2-0.2,0.3l0,0c0,0.1-0.1,0.2-0.1,0.3l-1.3,6V54c-0.2,0.8-0.7,1.5-1.4,2.1c-0.9,0.7-1.7,1.4-2.5,2.1
			c-0.2,0.2-0.5,0.4-0.9,0.4l-3.6-2.2c-0.6-0.3-1.3-0.2-1.7,0.4l-4.3,6.1c-0.2,0.2-0.3,0.5-0.3,0.8c0,0.2,0,0.4,0,0.6
			c0,0.1,0,0.2,0,0.3l0,0c0,0.1,0,0.2,0.1,0.2c0,0.1,0.1,0.2,0.1,0.2V65l1.8,2.8c0.1,0.1,0.1,0.2,0.1,0.3c0,0.1,0.1,0.1,0.1,0.2
			c0.1,0.1,0.1,0.3,0.1,0.5c0.1,0.5,0,1-0.2,1.4c-0.5,1.2-1,2.4-1.5,3.6c-0.3,0.8-0.9,1.4-1.6,1.8l-4.3,2.1
			c-0.2,0.1-0.5,0.3-0.6,0.5l0,0l-0.1,0.2c-0.2,0.2-0.3,0.5-0.5,0.8c0,0.1,0,0.1-0.1,0.2c0,0.1,0,0.2-0.1,0.3l-0.8,6.5
			c0,0.2,0,0.5,0.1,0.7c0.1,0.1,0.2,0.2,0.3,0.3L278.7,90.2z M317.5,50c0.3-0.4,0.9-0.6,1.4-0.3l-5.4-3.2l0,0
			c-0.5-0.3-1.1-0.2-1.4,0.3l-3.4,4.2l-0.1,3.1c0,0.7,0.5,1.3,1.3,1.4c0.5,0,0.9,0.1,1.4,0.2c0.8,0.2,1.6,0,2.1-0.6L317.5,50z"/>
		<path class="st3" d="M294.7,107.8c-0.3-0.2-0.4-0.5-0.4-0.9l0.2-5.4c0-0.7-0.5-1.3-1.3-1.4c-0.5,0-0.9-0.1-1.4-0.2
			c-0.8-0.2-1.6,0-2.1,0.6l-0.8,1l-0.1,2.3c0,0.3,0.1,0.7,0.4,0.9l0,0L294.7,107.8z M311.4,74.2c0.8-6-1.8-9.8-6.1-9.5
			c0.8,2,1.1,4.2,0.7,6.3c-0.9,7-6.1,14.2-11.5,16.2c-0.7,0.3-1.4,0.4-2.1,0.5c1.3,2.8,4,3.9,7.5,2.7
			C305.4,88.4,310.5,81.2,311.4,74.2z M284.2,105.8c-0.1-0.1-0.2-0.1-0.3-0.2l-2.4-2.6c-0.5-0.6-0.6-1.4-0.2-2.1l3.6-5.8
			c0.2-0.3,0.3-0.6,0.3-1c0.1-0.5,0-0.9-0.1-1.4c-0.2-0.7-0.4-1.4-0.5-2.2c-0.1-0.6-0.7-1.1-1.3-1c0,0-0.1,0-0.1,0l-3.3,0.7
			c0,0.2,0,0.4,0,0.7l0,0c0,0.4-0.2,0.7-0.3,1l-3.7,5.8c-0.4,0.7-0.3,1.5,0.2,2.1l2.4,2.6c0.1,0.1,0.2,0.2,0.3,0.2l0,0L284.2,105.8z
			 M319.1,62.2L319.1,62.2c-0.2-0.1-0.5-0.2-0.7-0.1l-0.5,0.1c0,0.2,0,0.5,0.1,0.7c0.2,0.7,0.4,1.4,0.5,2.2c0.1,0.6,0.6,1.1,1.3,1
			c0.1,0,0.1,0,0.2,0l3.8-0.9c0.2-0.1,0.4-0.1,0.6,0L319.1,62.2z M278.7,90.2c-0.3-0.2-0.5-0.6-0.4-1l0.8-6.4c0.1-0.5,0.3-1,0.7-1.4
			c0.2-0.2,0.4-0.4,0.6-0.5l4.3-2.1c0.7-0.4,1.3-1.1,1.6-1.8c0.4-1.2,0.9-2.4,1.5-3.6c0.2-0.4,0.2-0.9,0.2-1.4
			c0-0.3-0.1-0.6-0.3-0.9l-1.8-2.8c-0.3-0.4-0.3-0.9-0.3-1.4c0-0.3,0.2-0.5,0.3-0.8l4.3-6c0.4-0.6,1.2-0.7,1.8-0.3c0,0,0,0,0,0
			l2.3,1.8c0.6,0.4,1.4,0.4,2-0.1c0.8-0.8,1.7-1.5,2.6-2.2c0.6-0.5,1.1-1.3,1.3-2.1v-0.1l1.2-5.9c0.1-0.5,0.4-0.9,0.7-1.3
			c0.2-0.2,0.5-0.4,0.8-0.5l4.6-1.7c0.2-0.1,0.5-0.1,0.7,0l-5.3-3.2c-0.2-0.1-0.5-0.1-0.8,0l-4.6,1.7c-0.5,0.2-1,0.6-1.2,1.1
			c-0.1,0.1-0.1,0.2-0.2,0.3l0,0c0,0.1-0.1,0.2-0.1,0.3l-1.3,6V54c-0.2,0.8-0.7,1.5-1.4,2.1c-0.9,0.7-1.7,1.4-2.5,2.1
			c-0.2,0.2-0.5,0.4-0.9,0.4l-3.6-2.2c-0.6-0.3-1.3-0.2-1.7,0.4l-4.3,6.1c-0.2,0.2-0.3,0.5-0.3,0.8c0,0.2,0,0.4,0,0.6
			c0,0.1,0,0.2,0,0.3l0,0c0,0.1,0,0.2,0.1,0.2c0,0.1,0.1,0.2,0.1,0.2V65l1.8,2.8c0.1,0.1,0.1,0.2,0.1,0.3c0,0.1,0.1,0.1,0.1,0.2
			c0.1,0.1,0.1,0.3,0.1,0.5c0.1,0.5,0,1-0.2,1.4c-0.5,1.2-1,2.4-1.5,3.6c-0.3,0.8-0.9,1.4-1.6,1.8l-4.3,2.1
			c-0.2,0.1-0.5,0.3-0.6,0.5l0,0l-0.1,0.2c-0.2,0.2-0.3,0.5-0.5,0.8c0,0.1,0,0.1-0.1,0.2c0,0.1,0,0.2-0.1,0.3l-0.8,6.5
			c0,0.2,0,0.5,0.1,0.7c0.1,0.1,0.2,0.2,0.3,0.3L278.7,90.2z M317.5,50c0.3-0.4,0.9-0.6,1.4-0.3l-5.4-3.2l0,0
			c-0.5-0.3-1.1-0.2-1.4,0.3l-3.4,4.2l-0.1,3.1c0,0.7,0.5,1.3,1.3,1.4c0.5,0,0.9,0.1,1.4,0.2c0.8,0.2,1.6,0,2.1-0.6L317.5,50z"/>
		<path class="st1" d="M300.3,57.1l1.2-5.9c0.1-0.5,0.4-0.9,0.7-1.3l-5.3-3.2c-0.2,0.2-0.3,0.4-0.5,0.6c-0.1,0.1-0.1,0.2-0.2,0.3
			l0,0c0,0.1-0.1,0.2-0.1,0.3l-1.3,6L300.3,57.1z"/>
		<path class="st1" d="M288,72c0-0.3-0.1-0.6-0.3-0.9l-1.8-2.8c-0.3-0.4-0.3-0.9-0.3-1.4l-5.3-3.2c0,0.2,0,0.4,0,0.6
			c0,0.1,0,0.2,0,0.3l0,0c0,0.1,0,0.2,0.1,0.2c0,0.1,0.1,0.2,0.1,0.2v0.1l1.8,2.8c0.1,0.1,0.1,0.2,0.1,0.3c0,0.1,0.1,0.1,0.1,0.2
			c0,0.1,0.1,0.3,0.1,0.4l0,0L288,72z"/>
		<path class="st1" d="M294.7,107.8c-0.3-0.2-0.4-0.5-0.4-0.9l0.3-5.4c0-0.7-0.5-1.3-1.3-1.4c-0.5,0-0.9-0.1-1.4-0.2
			c-0.8-0.2-1.6,0-2.1,0.6l-0.8,0.9l-0.1,2.3c0,0.3,0.1,0.7,0.4,0.9l0,0L294.7,107.8z"/>
		<path class="st1" d="M284.2,105.8c-0.1-0.1-0.2-0.1-0.3-0.2l-2.4-2.6c-0.5-0.6-0.6-1.4-0.2-2.1l3.6-5.8c0.2-0.3,0.3-0.6,0.3-1
			l-5.4-3.2c0,0.4-0.2,0.7-0.3,1l-3.6,5.8c-0.4,0.7-0.3,1.5,0.2,2.1l2.4,2.6c0.1,0.1,0.2,0.2,0.3,0.2l0,0L284.2,105.8z"/>
		<path class="st1" d="M278.7,90.2c-0.3-0.2-0.5-0.6-0.4-1l0.8-6.4c0.1-0.5,0.3-1,0.7-1.4l-5.3-3.2l-0.1,0.2
			c-0.2,0.2-0.3,0.5-0.5,0.8c0,0.1,0,0.1-0.1,0.2c0,0.1,0,0.2-0.1,0.3l-0.8,6.5c0,0.2,0,0.5,0.1,0.7c0.1,0.1,0.2,0.2,0.3,0.3
			L278.7,90.2z"/>
		<path class="st4" d="M301.6,104.4l1.3-6c0.2-0.8,0.7-1.5,1.4-2.1c0.9-0.7,1.7-1.4,2.5-2.1c0.6-0.5,1.4-0.5,2-0.1l2.3,1.8
			c0.6,0.4,1.4,0.3,1.8-0.2c0,0,0,0,0,0l4.3-6.1c0.4-0.7,0.4-1.5,0-2.2l-1.8-2.8c-0.4-0.7-0.5-1.6-0.1-2.3c0.5-1.2,1-2.4,1.5-3.6
			c0.3-0.8,0.9-1.4,1.6-1.8l4.3-2.1c0.7-0.4,1.3-1.1,1.4-1.9l0.8-6.4c0.1-0.5-0.2-0.9-0.7-1c-0.2,0-0.3,0-0.5,0l-3.8,0.9
			c-0.6,0.1-1.3-0.3-1.4-0.9c0-0.1,0-0.1,0-0.2c-0.1-0.7-0.3-1.5-0.5-2.2c-0.2-0.8-0.1-1.7,0.3-2.4l3.6-5.8c0.4-0.7,0.3-1.5-0.2-2.1
			l-2.4-2.6c-0.4-0.5-1.1-0.6-1.6-0.2c-0.1,0-0.1,0.1-0.2,0.2l-4.1,5.1c-0.5,0.6-1.3,0.8-2.1,0.6c-0.4-0.1-0.9-0.2-1.4-0.2
			c-0.7,0-1.3-0.7-1.3-1.4l0.3-5.4c0.1-0.4-0.2-0.9-0.6-1c-0.2,0-0.4,0-0.5,0.1l-4.6,1.7c-0.7,0.3-1.3,1-1.5,1.8l-1.3,6
			c-0.2,0.8-0.7,1.6-1.3,2.1c-0.9,0.7-1.7,1.4-2.5,2.1c-0.6,0.5-1.4,0.5-2,0.1l-2.3-1.8c-0.6-0.4-1.4-0.3-1.8,0.2c0,0,0,0,0,0
			l-4.4,6c-0.4,0.7-0.4,1.5,0,2.2l1.7,2.8c0.4,0.7,0.5,1.6,0.1,2.3c-0.5,1.2-1,2.4-1.5,3.6c-0.3,0.8-0.9,1.4-1.6,1.8l-4.3,2.1
			c-0.7,0.4-1.2,1.1-1.4,1.9l-0.8,6.4c-0.1,0.5,0.2,0.9,0.7,1c0.2,0,0.3,0,0.5,0l3.8-0.9c0.6-0.1,1.3,0.2,1.4,0.9c0,0,0,0.1,0,0.1
			c0.1,0.7,0.3,1.5,0.5,2.2c0.2,0.8,0.1,1.7-0.3,2.4l-3.6,5.8c-0.4,0.7-0.3,1.5,0.2,2.1l2.4,2.6c0.4,0.5,1.1,0.6,1.6,0.2
			c0.1,0,0.1-0.1,0.2-0.2l4.1-5.1c0.5-0.6,1.3-0.8,2.1-0.6c0.4,0.1,0.9,0.2,1.4,0.2c0.7,0,1.3,0.7,1.3,1.4l-0.3,5.4
			c-0.1,0.4,0.2,0.9,0.6,1c0.2,0,0.4,0,0.5-0.1l4.6-1.7C300.8,105.7,301.4,105.1,301.6,104.4z M299.9,90.4c-5.4,2-9.1-2.1-8.2-9
			s6.1-14.2,11.5-16.2s9.1,2.1,8.2,9S305.4,88.4,299.9,90.4L299.9,90.4z"/>
	</g>
	<g id="freepik--gear--inject-2">
		<path class="st2" d="M318.6,141.2c-0.2-0.2-0.3-0.4-0.3-0.7l0.2-4.3c0-0.6-0.4-1.1-1-1.1c-0.4,0-0.7-0.1-1.1-0.2
			c-0.6-0.2-1.2,0-1.7,0.5l-0.6,0.8l-0.1,1.9c0,0.3,0.1,0.5,0.3,0.7l0,0L318.6,141.2z M332,114.5c0.6-4.8-1.5-7.8-4.8-7.6
			c0.7,1.6,0.9,3.3,0.6,5.1c-0.7,5.6-4.8,11.3-9.2,12.9c-0.5,0.2-1.1,0.3-1.7,0.4c1,2.2,3.2,3.1,6,2.1
			C327.1,125.8,331.3,120,332,114.5z M310.3,139.7c-0.1,0-0.2-0.1-0.2-0.2l-1.9-2.1c-0.4-0.5-0.5-1.1-0.2-1.7l2.9-4.6
			c0.1-0.3,0.2-0.5,0.3-0.8c0.1-0.4,0-0.7-0.1-1.1c-0.2-0.6-0.3-1.1-0.4-1.7c0-0.5-0.5-0.9-1-0.9c0,0-0.1,0-0.1,0l-2.7,0.6
			c0,0.2,0,0.3,0,0.5l0,0c0,0.3-0.1,0.6-0.3,0.8l-2.9,4.6c-0.3,0.5-0.2,1.2,0.2,1.7l1.8,2.1c0.1,0.1,0.2,0.1,0.2,0.2l0,0
			L310.3,139.7z M338.1,104.9L338.1,104.9c-0.2-0.1-0.4-0.1-0.6-0.1l-0.4,0.1c0,0.2,0,0.4,0.1,0.6c0.2,0.6,0.3,1.1,0.4,1.7
			c0,0.5,0.5,0.9,1,0.9c0,0,0.1,0,0.1,0l3-0.7c0.2-0.1,0.3-0.1,0.5,0L338.1,104.9z M305.9,127.2c-0.2-0.2-0.4-0.5-0.3-0.8l0.7-5.1
			c0.1-0.4,0.3-0.8,0.6-1.1c0.1-0.2,0.3-0.3,0.5-0.4l3.4-1.7c0.6-0.3,1-0.9,1.3-1.5c0.4-1,0.7-1.9,1.2-2.9c0.1-0.4,0.2-0.7,0.1-1.1
			c0-0.3-0.1-0.5-0.3-0.7l-1.4-2.2c-0.2-0.3-0.3-0.7-0.2-1.1c0-0.2,0.1-0.4,0.2-0.6l3.5-4.8c0.3-0.5,0.9-0.6,1.4-0.3
			c0,0,0,0,0.1,0.1l1.8,1.4c0.5,0.4,1.2,0.3,1.6-0.1c0.6-0.6,1.3-1.2,2-1.7c0.5-0.4,0.9-1,1.1-1.7l0,0l1-4.7c0.1-0.4,0.3-0.7,0.6-1
			c0.2-0.2,0.4-0.3,0.6-0.4l3.7-1.4c0.2-0.1,0.4-0.1,0.6,0l-4.2-2.5c-0.2-0.1-0.4-0.1-0.6,0l-3.7,1.3c-0.4,0.2-0.8,0.5-1,0.9
			c-0.1,0.1-0.1,0.2-0.1,0.2l0,0c0,0.1-0.1,0.2-0.1,0.2l-1,4.7v0.1c-0.2,0.6-0.6,1.2-1.1,1.6c-0.7,0.5-1.4,1.1-2,1.7
			c-0.2,0.2-0.4,0.3-0.7,0.3l-2.9-1.7c-0.5-0.3-1-0.2-1.3,0.3l-3.4,4.9c-0.1,0.2-0.2,0.4-0.3,0.6c0,0.1,0,0.3,0,0.4
			c0,0.1,0,0.2,0,0.2l0,0l0.1,0.2l0.1,0.2l0,0l1.4,2.2c0,0.1,0.1,0.1,0.1,0.2c0,0.1,0,0.1,0.1,0.2c0,0.1,0.1,0.2,0.1,0.4
			c0.1,0.4,0,0.8-0.1,1.1c-0.4,0.9-0.8,1.9-1.2,2.9c-0.2,0.6-0.7,1.1-1.3,1.5l-3.4,1.7c-0.2,0.1-0.4,0.2-0.5,0.4l0,0l-0.1,0.1
			c-0.1,0.2-0.3,0.4-0.4,0.6c0,0.1,0,0.1,0,0.2c0,0.1,0,0.1,0,0.2l-0.7,5.1c0,0.2,0,0.4,0.1,0.5c0.1,0.1,0.1,0.2,0.2,0.2
			L305.9,127.2z M336.8,95.2c0.3-0.3,0.7-0.4,1.1-0.2l-4.3-2.5l0,0c-0.4-0.2-0.9-0.1-1.1,0.2l-2.7,3.3l-0.1,2.5c0,0.6,0.4,1.1,1,1.1
			c0.4,0,0.7,0.1,1.1,0.2c0.6,0.2,1.2,0,1.7-0.5L336.8,95.2z"/>
		<path class="st3" d="M318.6,141.2c-0.2-0.2-0.3-0.4-0.3-0.7l0.2-4.3c0-0.6-0.4-1.1-1-1.1c-0.4,0-0.7-0.1-1.1-0.2
			c-0.6-0.2-1.2,0-1.7,0.5l-0.6,0.8l-0.1,1.9c0,0.3,0.1,0.5,0.3,0.7l0,0L318.6,141.2z M332,114.5c0.6-4.8-1.5-7.8-4.8-7.6
			c0.7,1.6,0.9,3.3,0.6,5.1c-0.7,5.6-4.8,11.3-9.2,12.9c-0.5,0.2-1.1,0.3-1.7,0.4c1,2.2,3.2,3.1,6,2.1
			C327.1,125.8,331.3,120,332,114.5z M310.3,139.7c-0.1,0-0.2-0.1-0.2-0.2l-1.9-2.1c-0.4-0.5-0.5-1.1-0.2-1.7l2.9-4.6
			c0.1-0.3,0.2-0.5,0.3-0.8c0.1-0.4,0-0.7-0.1-1.1c-0.2-0.6-0.3-1.1-0.4-1.7c0-0.5-0.5-0.9-1-0.9c0,0-0.1,0-0.1,0l-2.7,0.6
			c0,0.2,0,0.3,0,0.5l0,0c0,0.3-0.1,0.6-0.3,0.8l-2.9,4.6c-0.3,0.5-0.2,1.2,0.2,1.7l1.8,2.1c0.1,0.1,0.2,0.1,0.2,0.2l0,0
			L310.3,139.7z M338.1,104.9L338.1,104.9c-0.2-0.1-0.4-0.1-0.6-0.1l-0.4,0.1c0,0.2,0,0.4,0.1,0.6c0.2,0.6,0.3,1.1,0.4,1.7
			c0,0.5,0.5,0.9,1,0.9c0,0,0.1,0,0.1,0l3-0.7c0.2-0.1,0.3-0.1,0.5,0L338.1,104.9z M305.9,127.2c-0.2-0.2-0.4-0.5-0.3-0.8l0.7-5.1
			c0.1-0.4,0.3-0.8,0.6-1.1c0.1-0.2,0.3-0.3,0.5-0.4l3.4-1.7c0.6-0.3,1-0.9,1.3-1.5c0.4-1,0.7-1.9,1.2-2.9c0.1-0.4,0.2-0.7,0.1-1.1
			c0-0.3-0.1-0.5-0.3-0.7l-1.4-2.2c-0.2-0.3-0.3-0.7-0.2-1.1c0-0.2,0.1-0.4,0.2-0.6l3.5-4.8c0.3-0.5,0.9-0.6,1.4-0.3
			c0,0,0,0,0.1,0.1l1.8,1.4c0.5,0.4,1.2,0.3,1.6-0.1c0.6-0.6,1.3-1.2,2-1.7c0.5-0.4,0.9-1,1.1-1.7l0,0l1-4.7c0.1-0.4,0.3-0.7,0.6-1
			c0.2-0.2,0.4-0.3,0.6-0.4l3.7-1.4c0.2-0.1,0.4-0.1,0.6,0l-4.2-2.5c-0.2-0.1-0.4-0.1-0.6,0l-3.7,1.3c-0.4,0.2-0.8,0.5-1,0.9
			c-0.1,0.1-0.1,0.2-0.1,0.2l0,0c0,0.1-0.1,0.2-0.1,0.2l-1,4.7v0.1c-0.2,0.6-0.6,1.2-1.1,1.6c-0.7,0.5-1.4,1.1-2,1.7
			c-0.2,0.2-0.4,0.3-0.7,0.3l-2.9-1.7c-0.5-0.3-1-0.2-1.3,0.3l-3.4,4.9c-0.1,0.2-0.2,0.4-0.3,0.6c0,0.1,0,0.3,0,0.4
			c0,0.1,0,0.2,0,0.2l0,0l0.1,0.2l0.1,0.2l0,0l1.4,2.2c0,0.1,0.1,0.1,0.1,0.2c0,0.1,0,0.1,0.1,0.2c0,0.1,0.1,0.2,0.1,0.4
			c0.1,0.4,0,0.8-0.1,1.1c-0.4,0.9-0.8,1.9-1.2,2.9c-0.2,0.6-0.7,1.1-1.3,1.5l-3.4,1.7c-0.2,0.1-0.4,0.2-0.5,0.4l0,0l-0.1,0.1
			c-0.1,0.2-0.3,0.4-0.4,0.6c0,0.1,0,0.1,0,0.2c0,0.1,0,0.1,0,0.2l-0.7,5.1c0,0.2,0,0.4,0.1,0.5c0.1,0.1,0.1,0.2,0.2,0.2
			L305.9,127.2z M336.8,95.2c0.3-0.3,0.7-0.4,1.1-0.2l-4.3-2.5l0,0c-0.4-0.2-0.9-0.1-1.1,0.2l-2.7,3.3l-0.1,2.5c0,0.6,0.4,1.1,1,1.1
			c0.4,0,0.7,0.1,1.1,0.2c0.6,0.2,1.2,0,1.7-0.5L336.8,95.2z"/>
		<path class="st1" d="M323.1,100.8l1-4.7c0.1-0.4,0.3-0.7,0.6-1l-4.3-2.5c-0.1,0.1-0.3,0.3-0.4,0.5c-0.1,0.1-0.1,0.2-0.1,0.2l0,0
			c0,0.1-0.1,0.2-0.1,0.2l-1,4.7L323.1,100.8z"/>
		<path class="st1" d="M313.3,112.7c0-0.3-0.1-0.5-0.3-0.7l-1.4-2.2c-0.2-0.3-0.3-0.7-0.2-1.1l-4.3-2.5c0,0.1,0,0.3,0,0.4
			c0,0.1,0,0.2,0,0.2l0,0l0.1,0.2l0.1,0.2l0,0l1.4,2.2c0,0.1,0.1,0.1,0.1,0.2l0.1,0.2c0,0.1,0.1,0.2,0.1,0.3l0,0L313.3,112.7z"/>
		<path class="st1" d="M318.6,141.2c-0.2-0.2-0.3-0.4-0.3-0.7l0.2-4.3c0-0.6-0.4-1.1-1-1.1c-0.4,0-0.7-0.1-1.1-0.2
			c-0.6-0.2-1.2,0-1.7,0.5l-0.6,0.8l-0.1,1.8c0,0.3,0.1,0.5,0.3,0.7l0,0L318.6,141.2z"/>
		<path class="st1" d="M310.3,139.7c-0.1,0-0.2-0.1-0.2-0.2l-1.9-2.1c-0.4-0.5-0.5-1.1-0.2-1.7l2.9-4.6c0.1-0.3,0.2-0.5,0.3-0.8
			l-4.3-2.5c0,0.3-0.1,0.6-0.3,0.8l-2.9,4.6c-0.3,0.5-0.2,1.2,0.2,1.7l1.9,2.1c0.1,0.1,0.2,0.1,0.2,0.2l0,0L310.3,139.7z"/>
		<path class="st1" d="M305.9,127.2c-0.2-0.2-0.4-0.5-0.3-0.8l0.7-5.1c0.1-0.4,0.3-0.8,0.6-1.1l-4.3-2.5l-0.1,0.1
			c-0.1,0.2-0.3,0.4-0.4,0.6c0,0.1,0,0.1,0,0.2c0,0.1,0,0.1,0,0.2l-0.7,5.1c0,0.2,0,0.4,0.1,0.5c0.1,0.1,0.1,0.2,0.2,0.2
			L305.9,127.2z"/>
		<path class="st4" d="M324.1,138.5l1-4.8c0.2-0.6,0.6-1.2,1.1-1.6c0.7-0.5,1.4-1.1,2-1.7c0.4-0.4,1.1-0.4,1.6-0.1l1.8,1.4
			c0.4,0.4,1.1,0.3,1.4-0.1c0,0,0,0,0.1-0.1l3.5-4.9c0.3-0.5,0.3-1.2,0-1.8l-1.4-2.2c-0.3-0.6-0.4-1.3-0.1-1.9
			c0.4-0.9,0.8-1.9,1.2-2.9c0.2-0.6,0.7-1.1,1.3-1.5l3.4-1.7c0.6-0.3,1-0.9,1.1-1.5l0.7-5.1c0.1-0.4-0.1-0.7-0.5-0.8
			c-0.1,0-0.3,0-0.4,0l-3,0.7c-0.5,0.1-1-0.2-1.1-0.7c0,0,0-0.1,0-0.1c-0.1-0.6-0.2-1.2-0.4-1.7c-0.2-0.6-0.1-1.3,0.2-1.9l2.9-4.6
			c0.3-0.5,0.2-1.2-0.2-1.7l-1.9-2.1c-0.3-0.4-0.9-0.4-1.3-0.1c-0.1,0-0.1,0.1-0.1,0.1l-3.3,4c-0.4,0.5-1.1,0.6-1.7,0.5
			c-0.4-0.1-0.7-0.2-1.1-0.2c-0.6,0-1-0.5-1-1.1l0.2-4.3c0.1-0.4-0.2-0.7-0.5-0.8c-0.1,0-0.3,0-0.4,0.1l-3.7,1.3
			c-0.6,0.3-1,0.8-1.2,1.4l-1,4.8c-0.2,0.7-0.6,1.2-1.1,1.7c-0.7,0.5-1.4,1.1-2,1.7c-0.5,0.4-1.1,0.4-1.6,0.1l-1.8-1.4
			c-0.4-0.4-1.1-0.3-1.4,0.1c0,0,0,0-0.1,0.1l-3.4,5c-0.3,0.5-0.3,1.2,0,1.8l1.4,2.2c0.3,0.6,0.4,1.3,0.1,1.9
			c-0.4,0.9-0.8,1.9-1.2,2.9c-0.2,0.6-0.7,1.1-1.3,1.5l-3.4,1.7c-0.6,0.3-1,0.9-1.1,1.5l-0.7,5.1c-0.1,0.4,0.1,0.8,0.5,0.8
			c0.1,0,0.3,0,0.4,0l3-0.7c0.5-0.1,1,0.2,1.1,0.7c0,0,0,0.1,0,0.1c0.1,0.6,0.2,1.2,0.4,1.7c0.2,0.6,0.1,1.3-0.2,1.9l-2.9,4.6
			c-0.3,0.5-0.2,1.2,0.2,1.7l1.9,2.1c0.3,0.4,0.9,0.4,1.3,0.1c0.1,0,0.1-0.1,0.1-0.1l3.3-4c0.4-0.4,1.1-0.6,1.7-0.5
			c0.4,0.1,0.7,0.2,1.1,0.2c0.6,0,1,0.5,1,1.1l-0.2,4.3c-0.1,0.4,0.2,0.7,0.5,0.8c0.1,0,0.3,0,0.4-0.1l3.7-1.3
			C323.5,139.7,324,139.2,324.1,138.5z M322.8,127.4c-4.3,1.6-7.3-1.7-6.5-7.2s4.8-11.3,9.2-12.9s7.3,1.7,6.5,7.2
			S327.1,125.8,322.8,127.4L322.8,127.4z"/>
	</g>
</g>
<g id="freepik--Pictures--inject-2">
	<g id="freepik--Picture--inject-2">
		<g id="freepik--Frame--inject-2">
			<polygon class="st5" points="33.4,222.7 36.1,224.3 90.8,192.7 88.2,191.1 			"/>
			<polygon class="st6" points="88.2,191.1 36.1,221.2 36.1,97.6 88.2,67.6 			"/>
			<path class="st7" d="M95.9,57.3L31,94.7v138.3l64.8-37.4L95.9,57.3z M90.9,192.7l-54.8,31.6V97.6L90.8,66L90.9,192.7z"/>
			<polygon class="st1" points="90.8,192.7 88.2,191.1 88.2,67.6 90.8,66 			"/>
			<polygon class="st5" points="95.9,57.3 93.2,55.8 28.3,93.2 31,94.7 			"/>
			<polygon class="st1" points="28.3,93.2 31,94.7 31,233.1 28.3,231.5 			"/>
		</g>
		<g id="freepik--Land--inject-2">
			<polygon class="st7" points="84.3,188 40,213.6 40,102.3 84.3,76.8 			"/>
		</g>
		<g id="freepik--land--inject-2">
			<polygon class="st7" points="84.3,188 40,213.6 40,102.3 84.3,76.8 			"/>
		</g>
		<path class="st5" d="M40,169.4c2.1,0.2,4.2,0.2,6.3,0c7.4-0.6,14.6-2.1,21.6-4.7c5.4-2,10.7-4.6,16.4-4.7v28l-6,3.5
			c-2.4-2.2-5.2-3.7-8.3-4.6c-8.5-2.2-17.3,2-26,3c-1.3,0.1-2.7,0.2-4,0.2V169.4z"/>
		<path class="st5" d="M40,145.4c9.9-2.9,20-5.4,27.1-12.6c5.7-5.9,8.4-14,10.3-21.9s3.2-16.2,6.8-23.5l0.1-0.2v46
			c-0.6,0.8-1.1,1.7-1.7,2.5c-6.5,8.8-16.1,16.2-27,16.8c-5.1,0.3-10.5-0.9-15.5-0.9L40,145.4z"/>
		<path class="st5" d="M40,126.7c7.6-6.7,11.7-17.5,9.8-27.5c-0.1-0.7-0.3-1.5-0.5-2.2l17-9.8c-0.1,1.1-0.1,2.2-0.2,3.4
			c-0.2,6.5,0,13.1-1.4,19.4c-2.5,10.8-9.6,19.9-19.4,25.1c-1.7,0.9-3.5,1.7-5.4,2.3V126.7z"/>
	</g>
	<g id="freepik--picture--inject-2">
		<g id="freepik--frame--inject-2">
			<polygon class="st5" points="112.8,90 115.1,91.3 161.9,64.3 159.6,62.9 			"/>
			<polygon class="st6" points="159.6,62.9 115.1,88.7 115.1,50.7 159.6,25 			"/>
			<path class="st7" d="M166.3,16.2l-55.5,32.1v50.6l55.5-32V16.2z M161.9,64.3l-46.9,27.1V50.7l46.9-27.1V64.3z"/>
			<polygon class="st1" points="161.9,64.3 159.6,62.9 159.6,25 161.9,23.6 			"/>
			<polygon class="st5" points="166.3,16.2 163.9,14.9 108.4,46.9 110.7,48.2 			"/>
			<polygon class="st1" points="108.4,46.9 110.7,48.2 110.7,98.8 108.4,97.5 			"/>
		</g>
		<g id="freepik--land--inject-2_1_">
			<polygon class="st7" points="157.9,61.5 116.8,85.3 116.8,82.2 127.1,58.4 133.5,64.4 132.6,69.9 145.4,43.9 157.9,58.4 			"/>
			<path class="st7" d="M133.1,47c-1.8,1.2-2.9,3.1-3,5.3c0,1.9,1.4,2.7,3,1.8c1.8-1.2,2.9-3.1,3-5.3C136.1,46.8,134.8,46,133.1,47z
				"/>
		</g>
	</g>
</g>
<g id="freepik--Window--inject-2">
	<g id="freepik--window--inject-2">
		<polygon class="st6" points="354.1,159.5 469.3,225.9 469.3,103.4 354.1,37 		"/>
		<polygon class="st5" points="471.5,227.3 469.3,228.6 351.9,160.8 354.1,159.5 		"/>
		<path class="st7" d="M347.6,163.3L473.5,236V101L347.6,28.3V163.3z M351.9,35.7l117.4,67.8v125.2l-117.4-67.8V35.7z"/>
		<polygon class="st1" points="351.9,160.8 354.1,159.5 354.1,37 351.9,35.7 		"/>
		<polygon class="st5" points="347.6,28.3 349.9,27 475.8,99.7 473.5,101 		"/>
		<polygon class="st1" points="475.8,99.7 473.5,101 473.5,236 475.8,234.7 		"/>
		<polygon class="st5" points="467.4,128.1 467.4,130.8 351.9,64 354.1,62.7 		"/>
		<polygon class="st1" points="414.2,71.7 411.9,70.3 411.9,195.5 414.2,194.2 		"/>
		<polygon class="st7" points="407.6,67.9 411.9,70.3 411.9,195.5 407.6,193 		"/>
		<polygon class="st7" points="351.9,64 351.9,68.9 469.3,137 469.3,132.1 		"/>
		<polygon class="st5" points="411.9,98.8 414.2,97.4 469.3,129.2 469.3,132.1 		"/>
	</g>
</g>
<g id="freepik--Clipboard--inject-2">
	<g id="freepik--clipboard--inject-2">
		<g id="freepik--Board--inject-2">
			<g id="freepik--window--inject-2_1_">
				<path class="st8" d="M276.3,19.6l-190.7,110c-2.1,1.4-3.4,3.7-3.6,6.2V451c0.1,2.5,1.5,4.8,3.6,6.2l0.7,0.4
					c2.2,1.1,4.9,1.1,7.1,0l190.7-110.1c2.1-1.4,3.4-3.7,3.6-6.2V26.2c-0.1-2.5-1.5-4.8-3.6-6.2l-0.7-0.4
					C281.2,18.5,278.5,18.5,276.3,19.6z"/>
				<path class="st9" d="M276.3,19.6l-190.7,110c-2.1,1.4-3.4,3.7-3.6,6.2V451c0.1,2.5,1.5,4.8,3.6,6.2l0.7,0.4
					c2.2,1.1,4.9,1.1,7.1,0l190.7-110.1c2.1-1.4,3.4-3.7,3.6-6.2V26.2c-0.1-2.5-1.5-4.8-3.6-6.2l-0.7-0.4
					C281.2,18.5,278.5,18.5,276.3,19.6z"/>
				<path class="st10" d="M287.7,341.5c0,3.1-2.2,5.1-4.9,6.7l-188,108.5c-2.7,1.6-4.9,0.3-4.9-2.9V141.8l0,0c0-3.5,1.9-6.7,4.9-8.5
					l188-108.6c1.6-0.9,3.6-0.4,4.5,1.2c0.3,0.5,0.4,1.1,0.4,1.7l0,0L287.7,341.5z"/>
				<path class="st11" d="M287.7,341.5c0,3.1-2.2,5.1-4.9,6.7l-188,108.5c-2.7,1.6-4.9,0.3-4.9-2.9V141.8l0,0c0-3.5,1.9-6.7,4.9-8.5
					l188-108.6c1.6-0.9,3.6-0.4,4.5,1.2c0.3,0.5,0.4,1.1,0.4,1.7l0,0L287.7,341.5z"/>
				<path class="st12" d="M287.7,26.2v1.4c0-1.8-1.5-3.3-3.3-3.3c-0.6,0-1.1,0.2-1.6,0.4l-188,108.6c-1.5,0.9-2.7,2.1-3.6,3.6
					l-0.1,0.1l-8.1-4.7c0.6-1.1,1.5-2.1,2.6-2.7l190.7-110c2.2-1.1,4.9-1.1,7.1,0l0.7,0.4C286.2,21.4,287.6,23.7,287.7,26.2z"/>
				<path class="st13" d="M287.7,26.2v1.4c0-1.8-1.5-3.3-3.3-3.3c-0.6,0-1.1,0.2-1.6,0.4l-188,108.6c-1.5,0.9-2.7,2.1-3.6,3.6
					l-0.1,0.1l-8.1-4.7c0.6-1.1,1.5-2.1,2.6-2.7l190.7-110c2.2-1.1,4.9-1.1,7.1,0l0.7,0.4C286.2,21.4,287.6,23.7,287.7,26.2z"/>
			</g>
		</g>
		<path id="freepik--shadow--inject-2_3_" class="st14" d="M283,334.3c0,3.2-2.3,5.3-5.1,6.9L100.3,443.7c-2.8,1.6-5.1,0.3-5.1-2.9
			V160l0,0c0-3.6,1.9-6.9,5-8.8L278,48.6c1.6-0.9,3.7-0.4,4.6,1.2c0.3,0.5,0.4,1.1,0.5,1.7L283,334.3L283,334.3z"/>
		<g id="freepik--Form--inject-2">
			<g id="freepik--Paper--inject-2">
				<path class="st0" d="M99.8,155.1l177-102.2c0.9-0.5,2.1-0.5,3,0l1.7,1c0.9,0.6,1.5,1.6,1.5,2.6v283.4c-0.1,1.1-0.6,2-1.5,2.6
					l-177,102.2c-0.9,0.5-2.1,0.5-3,0l-1.7-1c-0.9-0.6-1.5-1.6-1.5-2.6V157.7C98.3,156.6,98.9,155.7,99.8,155.1z"/>
				<path class="st1" d="M104.2,444.9c-0.2,0.1-0.4,0.1-0.6,0.1h-0.3c-0.3,0-0.6,0-0.9,0c-0.2,0-0.4-0.1-0.6-0.1
					c-0.1,0-0.2-0.1-0.3-0.2l-1.7-1c-0.9-0.6-1.5-1.6-1.5-2.6V157.7c0-0.5,0.2-1,0.4-1.5l4.7,2.7c-0.3,0.5-0.4,1-0.4,1.5v283.4
					C103,444.7,103.5,445.1,104.2,444.9z"/>
				<path class="st15" d="M281.5,53.9l-1.7-1c-0.9-0.5-2.1-0.5-3,0l-177,102.2c-0.9,0.6-1.5,1.6-1.5,2.6v19.1l4.7,2.8l180.1-104
					V56.5C283,55.4,282.5,54.4,281.5,53.9z"/>
				<path class="st16" d="M281.5,53.9l-1.7-1c-0.9-0.5-2.1-0.5-3,0l-177,102.2c-0.9,0.6-1.5,1.6-1.5,2.6v19.1l4.7,2.8l180.1-104
					V56.5C283,55.4,282.5,54.4,281.5,53.9z"/>
				<path class="st15" d="M283,56c-0.2-0.6-0.8-0.8-1.5-0.4l-177,102.2c-0.4,0.3-0.8,0.7-1.1,1.1l-4.7-2.7c0.3-0.5,0.6-0.9,1.1-1.1
					l177-102.2c0.9-0.5,2.1-0.5,3,0l1.7,1C282.3,54.3,282.8,55.1,283,56z"/>
				<path class="st17" d="M283,56c-0.2-0.6-0.8-0.8-1.5-0.4l-177,102.2c-0.4,0.3-0.8,0.7-1.1,1.1l-4.7-2.7c0.3-0.5,0.6-0.9,1.1-1.1
					l177-102.2c0.9-0.5,2.1-0.5,3,0l1.7,1C282.3,54.3,282.8,55.1,283,56z"/>
				<path class="st17" d="M98.3,157.7v19.1l4.7,2.7v-19.1c0-0.5,0.2-1,0.4-1.5l-4.7-2.7C98.4,156.7,98.3,157.2,98.3,157.7z"/>
			</g>
			<g id="freepik--Forms--inject-2">
				<polygon class="st10" points="248.5,105 272.9,90.9 272.9,94.6 248.5,108.6 				"/>
				<polygon class="st10" points="239.4,117.5 272.9,98.2 272.9,101.8 239.4,121.1 				"/>
				<polygon class="st10" points="248.8,119.4 272.9,105.5 272.9,109.2 248.8,123.1 				"/>
				<polygon class="st10" points="110.4,184.7 148.3,162.8 148.3,166.5 110.4,188.4 				"/>
				<polygon class="st10" points="110.4,192 167.3,159.2 167.3,162.8 110.4,195.7 				"/>
				<polygon class="st10" points="110.4,199.3 160.9,170.1 160.9,173.8 110.4,202.9 				"/>
				<polygon class="st15" points="110.4,212.9 272.9,119.1 272.9,128.4 110.4,222.2 				"/>
				<polygon class="st16" points="110.4,212.9 272.9,119.1 272.9,128.4 110.4,222.2 				"/>
				<path class="st16" d="M271.9,130.2v35.2L111.4,258v-35.2L271.9,130.2 M272.9,128.4l-162.5,93.8v37.5L272.9,166V128.4
					L272.9,128.4z"/>
				
					<rect x="98.4" y="193.6" transform="matrix(0.8661 -0.4998 0.4998 0.8661 -71.3692 121.779)" class="st16" width="186.5" height="1"/>
				<rect x="195.2" y="191.8" class="st16" width="1" height="18.2"/>
				<polygon class="st15" points="110.4,269.1 272.9,175.3 272.9,184.7 110.4,278.5 				"/>
				<polygon class="st16" points="110.4,269.1 272.9,175.3 272.9,184.7 110.4,278.5 				"/>
				<path class="st16" d="M271.9,186.4v35.2l-160.5,92.6v-35.2L271.9,186.4 M272.9,184.7l-162.5,93.8V316l162.5-93.8V184.7z"/>
				
					<rect x="98.4" y="249.9" transform="matrix(0.8659 -0.5003 0.5003 0.8659 -99.5596 129.4654)" class="st16" width="186.5" height="1"/>
				<rect x="163.1" y="267" class="st16" width="1" height="18.3"/>
				<rect x="237.4" y="205.5" class="st16" width="1" height="18.2"/>
				<polygon class="st15" points="110.4,325.4 272.9,231.6 272.9,241 110.4,334.8 				"/>
				<polygon class="st16" points="110.4,325.4 272.9,231.6 272.9,241 110.4,334.8 				"/>
				<path class="st16" d="M271.9,242.7v16.4l-160.5,92.7v-16.5L271.9,242.7 M272.9,241l-162.5,93.8v18.8l162.5-93.8V241L272.9,241z"
					/>
				<rect x="163.9" y="304.3" class="st16" width="1" height="17.5"/>
				<rect x="217.5" y="273.3" class="st16" width="1" height="17.6"/>
				<polygon class="st15" points="110.4,353.6 272.9,259.8 272.9,269.1 110.4,363 				"/>
				<polygon class="st16" points="110.4,353.6 272.9,259.8 272.9,269.1 110.4,363 				"/>
				<path class="st16" d="M271.9,270.9v16.5L111.4,380v-16.5L271.9,270.9 M272.9,269.1L110.4,363v18.8l162.5-93.9V269.1L272.9,269.1
					z"/>
				<rect x="163.9" y="332.5" class="st16" width="1" height="17.5"/>
				<rect x="217.5" y="301.4" class="st16" width="1" height="17.6"/>
				<polygon class="st15" points="110.4,381.7 272.9,287.9 272.9,297.3 110.4,391.1 				"/>
				<polygon class="st16" points="110.4,381.7 272.9,287.9 272.9,297.3 110.4,391.1 				"/>
				<path class="st16" d="M271.9,299v16.5l-160.5,92.7v-16.4L271.9,299 M272.9,297.3l-162.5,93.8v18.8L272.9,316V297.3L272.9,297.3z
					"/>
				<rect x="163.9" y="360.6" class="st16" width="1" height="17.5"/>
				<rect x="217.5" y="329.6" class="st16" width="1" height="17.6"/>
				<path class="st16" d="M271.9,316.6v16.5l-53.4,30.8v-16.5L271.9,316.6 M272.9,314.9l-55.4,31.9v18.8l55.4-31.9V314.9z"/>
				<polygon class="st10" points="110.4,419 192.5,371.6 192.5,379.5 110.4,426.9 				"/>
			</g>
		</g>
		<path class="st18" d="M130.6,218.8c0.4-0.8,0.5-1.7,0.2-2.5c-0.5-0.7-1.5-0.9-2.2-0.5c-2,1.1-3.7,2.7-4.7,4.8
			c-1.1,1.9-1.6,4-1.6,6.2c0,0.8,0.2,1.5,1,1.7c0.8,0.1,1.7-0.2,2.3-0.8c1.9-1.6,2.6-4.2,3.2-6.5c0.1-0.3-0.4-0.7-0.5-0.3
			c-0.5,1.3-0.8,2.6-0.8,4c-0.1,0.5,0.3,0.9,0.8,1c0.2,0,0.4,0,0.6-0.1c0.8-0.5,1.4-1.3,1.9-2.1c0.5-0.7,0.8-1.5,1-2.4
			c0.1-0.5,0.1-1.2-0.4-1.5s-1,0.4-1.2,0.9c-0.3,0.7-0.3,1.5-0.1,2.3c0.3,0.9,1.2,1.4,2.1,1.2c1.2-0.3,2-1.6,2.5-2.7
			c0.6-1.2,1-2.6,1.1-4c0-0.2-0.3-0.6-0.5-0.3c-0.6,0.9-0.8,2-0.7,3.1c0.2,0.7,0.8,1.2,1.5,0.7c0.8-0.6,1.5-1.5,1.9-2.4
			c0.5-1,0.8-2.2,0.9-3.4c0-0.1-0.2-0.6-0.4-0.3c-0.5,0.6-0.7,1.4-0.8,2.2c-0.2,0.6-0.1,1.3,0.2,1.9c0.4,0.6,1.1,0.1,1.5-0.3
			c0.8-0.9,1.4-1.9,1.6-3.1h-0.4c0.4,0.8,0.7,1.6,0.9,2.5c0,0.2,0.4,0.4,0.4,0.1c0.1-0.9,0.3-1.9,0.7-2.7c0.2-0.5,0.5-0.9,0.8-1.3
			c0.1-0.2,0.4-0.7,0.7-0.8s0.2,0.1,0.3,0.3c0,0.3,0.1,0.5,0.1,0.8c0,0.5,0,1,0.1,1.6c0,0.2,0.4,0.5,0.4,0.2
			c0.3-1.7,1.1-3.2,2.2-4.5c0.3-0.5,0.7-0.8,1.2-1.1c0.1,0,0.1,0,0-0.1c0,0.1,0,0.1,0,0.2l-0.1,0.3c-0.1,0.3-0.1,0.5-0.2,0.8
			c-0.1,0.5,0,1,0.4,1.4c0.5,0.6,1.1,0.1,1.5-0.3c1.4-1.4,2.4-3,3.1-4.8c0.2-0.5,0.2-1-0.1-1.5c-0.3-0.3-0.8-0.4-1.1-0.1
			c-0.1,0.1-0.1,0.1-0.2,0.2c-0.5,0.7-0.7,1.6-0.8,2.5c-0.1,0.6,0.1,1.3,0.4,1.8c0.2,0.5,0.7,0.8,1.2,0.9c0.8,0,1.3-0.7,1.7-1.3
			c0.9-1.4,1.8-2.9,2.5-4.5c0.2-0.4,0.5-0.8,0.7-1.1c0.1-0.2,0.4-0.7,0.7-0.7s0.2,0.7,0.3,1c0,1.3-0.2,2.6-0.2,3.9
			c0,0.2,0.4,0.6,0.4,0.3c0.3-1.1,0.7-2.2,1.2-3.3c0.4-1,1-2,1.7-2.8c0.1-0.1,0.6-0.7,0.8-0.6s0.1,0.8,0.1,1c0,0.8-0.2,1.7-0.2,2.5
			c0,0.2,0.3,0.6,0.4,0.2c0.4-1.9,1.2-3.8,2.3-5.4c0.3-0.4,0.6-0.6,1-0.8c0.1-0.1,0.5-0.2,0.7-0.1s0.2,0.6,0.2,0.9
			c-0.1,0.6,0.2,1.1,0.8,1.3c0.7,0.2,1.4-0.1,1.9-0.6c0.7-0.7,1.3-1.5,1.8-2.3c0.5-0.9,1.5-2.7,0.1-3.4c-0.1-0.1-0.2-0.1-0.2,0
			c-0.6,0.8-1,1.8-1.2,2.8c-0.1,0.7-0.3,1.8,0.4,2.3s1.4,0,2-0.4c0.8-0.6,1.4-1.4,1.8-2.3c0.1-0.2-0.3-0.6-0.4-0.4
			c-0.3,0.6-0.7,1.2-1.2,1.7c-0.4,0.4-1,1-1.6,1c-0.9,0-0.5-1.6-0.3-2.1c0.2-0.8,0.5-1.5,1-2.1h-0.2c1.2,0.6-1.6,4-2.1,4.6
			c-0.3,0.3-0.7,0.6-1.1,0.7c-0.1,0-0.3,0-0.4,0l-0.4-0.6c0-0.1,0.1-0.4,0.1-0.6c0-0.4-0.2-0.8-0.6-1c-1.2-0.4-2.3,1.2-2.8,2.1
			c-0.8,1.4-1.3,3-1.7,4.6l0.4,0.2c0-0.6,0.8-4.9-0.8-4.2c-0.9,0.4-1.6,1.7-2,2.6c-0.7,1.3-1.3,2.7-1.7,4.2l0.4,0.3
			c0-1,0.1-2,0.2-3.1c0.1-0.8,0-1.6-0.3-2.4c-1-1.3-3.4,4-3.7,4.5c-0.5,0.9-2.3,4.3-3.3,2.2c-0.3-0.9-0.3-2,0.1-2.9
			c0.1-0.2,0.2-0.4,0.3-0.6c0.1-0.1,0.2-0.3,0.3-0.3s0.4,0.3,0.5,0.3c0.1,0.4-0.2,1-0.4,1.3c-0.4,0.9-0.9,1.7-1.4,2.4
			c-0.3,0.4-0.5,0.7-0.8,1s-0.8,1.1-1.3,1c-0.2,0-0.3-0.5-0.3-0.7c0-0.1,0-0.3,0-0.4c0-0.2,0.1-0.5,0.2-0.7c0.1-0.3,0.1-0.7-0.1-1
			c-0.6-0.8-1.9,1.1-2.2,1.5c-1,1.2-1.7,2.7-2,4.3l0.4,0.2c-0.1-0.7,0-1.4-0.1-2.2c0-0.4-0.1-1.1-0.7-1.2s-1.3,1.1-1.5,1.6
			c-0.6,1.1-1,2.3-1.1,3.6l0.4,0.1c-0.2-0.9-0.5-1.8-0.9-2.6c-0.1-0.2-0.3-0.3-0.4,0c-0.2,0.9-0.6,1.8-1.1,2.5
			c-0.2,0.3-1.1,1.2-1.3,0.7c-0.1-0.5-0.1-1.1,0.1-1.6c0.1-0.6,0.3-1.1,0.7-1.6l-0.4-0.3c-0.1,1.6-0.6,3.1-1.5,4.3
			c-0.2,0.3-0.5,0.6-0.7,0.9c-0.1,0.1-0.4,0.4-0.6,0.4c-0.3,0.1-0.6-0.2-0.7-0.5c0,0,0,0,0,0c0-0.9,0.2-1.8,0.7-2.6l-0.4-0.3
			c-0.1,2.2-0.9,4.2-2.4,5.8c-0.4,0.4-0.9,0.6-1.5,0.5c-0.6-0.2-1-0.8-0.9-1.5c0-0.5,0.2-1.6,0.6-1.9s0.1,1.3,0,1.5
			c-0.3,0.8-0.7,1.5-1.3,2.2c-0.2,0.3-0.4,0.6-0.7,0.8c-0.2,0.2-0.4,0.3-0.6,0.4c-0.5,0.2-0.5-0.2-0.5-0.6c0.1-1.2,0.4-2.4,0.8-3.5
			l-0.5-0.3c-0.4,1.7-1,3.3-1.8,4.8c-0.4,0.7-1,1.4-1.6,1.9c-0.7,0.5-1.9,0.9-2.1-0.3c-0.1-0.9,0-1.7,0.2-2.6
			c0.2-0.9,0.4-1.7,0.8-2.6c0.7-1.6,1.7-3,2.9-4.2c0.7-0.7,1.5-1.3,2.4-1.6c0.7-0.2,1.4-0.1,1.6,0.7c0,0.5-0.1,1.1-0.3,1.6
			C130.4,218.8,130.5,219,130.6,218.8L130.6,218.8z"/>
		<path class="st18" d="M182.4,189.7c-0.5-1.6-0.2-3.3,0.9-4.6c0.4-0.6,0.9-1.1,1.4-1.5c0.5-0.3,1.1-0.5,1.3,0.1
			c0.1,0.4,0.1,0.8,0,1.2c-0.2,1.4-0.6,2.7-0.8,4.1c-0.2,1.4-0.5,2.8-0.9,4.2l0.4,0.3c0.2-1.4,0.7-2.8,1.6-4
			c0.2-0.3,0.4-0.6,0.7-0.9c0.4-0.2,0.4,0.1,0.4,0.4s0,0.4,0,0.6c0,0.9-0.1,1.7-0.2,2.6c0,0.2,0.3,0.5,0.4,0.2
			c0.1-0.6,0.2-1.2,0.5-1.8c0.2-0.5,0.5-1.2,1.1-1.4l-0.2-0.2c0.2,0.5,0.2,0.9,0.2,1.4c0,0.1,0.2,0.5,0.3,0.2
			c0.1-0.8,0.5-1.6,1.2-2.2l-0.2-0.2c0,0.5-0.1,1.5,0.4,1.8s1.3-0.6,1.6-0.9c0.6-0.8,1.1-1.6,1.5-2.5c0.5-0.8,0.8-1.7,0.9-2.6
			c0-0.1-0.1-0.4-0.3-0.3c-0.6,0.2-1,1.1-1.2,1.6c-0.3,0.7-0.5,1.5-0.5,2.3c-0.1,1.7,0.3,3.5-0.4,5.1c-0.1,0.2,0.2,0.5,0.3,0.3
			c0.5-1.3,0.6-2.8,0.5-4.2c0-0.8,0-1.6,0.2-2.4c0.2-0.6,0.6-2,1.3-2.2l-0.3-0.3c-0.2,1.3-0.7,2.6-1.5,3.7c-0.3,0.5-0.7,1.1-1.1,1.5
			c-0.1,0.1-0.2,0.2-0.3,0.3c-0.1,0.2-0.4,0.2-0.6,0c-0.1-0.1-0.1-0.1-0.1-0.2c-0.1-0.3-0.1-0.7-0.1-1c0-0.1-0.1-0.3-0.2-0.2
			c-0.7,0.6-1.1,1.4-1.3,2.3l0.3,0.2c0-0.6,0-1.1-0.2-1.6c0-0.1-0.1-0.2-0.2-0.2c-1.2,0.4-1.7,2.3-1.8,3.4l0.4,0.2
			c0.2-1.2,0.2-2.3,0.2-3.5c0-0.6-0.4-1.1-0.9-0.6c-0.7,0.7-1.2,1.5-1.6,2.3c-0.4,0.9-0.7,1.8-0.9,2.8c0,0.2,0.3,0.6,0.4,0.3
			c0.7-2,0.7-4.2,1.2-6.2c0.3-1.1,1.1-3.3,0.1-4.3s-2.8,1.4-3.3,2.1c-1,1.4-1.2,3.2-0.6,4.8C182.3,190.1,182.5,189.9,182.4,189.7
			L182.4,189.7z"/>
		<path class="st18" d="M195,186.6c2-0.4,3.3-2.2,4.3-3.9c0.6-0.9,1-1.9,1.3-2.9c0.1-0.5-0.2-1-0.8-0.8c-0.7,0.4-1.2,1-1.4,1.8
			c-0.3,0.8-0.4,1.7-0.3,2.5c0,0.7,0.3,1.3,0.9,1.6c0.8,0.3,1.6-0.3,2.2-0.9c1.5-1.5,2.4-3.6,2.5-5.7c0-0.2-0.4-0.5-0.4-0.2
			c-0.2,1.1-0.2,2.2,0,3.4c0,0.1,0.3,0.4,0.4,0.2c0.4-1.2,1.1-2.2,2-3l-0.3-0.2c0.2,0.7,0.3,1.5,0.5,2.2c0,0.2,0.3,0.4,0.4,0.1
			c0.2-1,0.6-1.9,1.1-2.8c0.2-0.3,0.8-1.4,1.2-1.1c0.1,0.1,0,0.5,0.1,0.6l0.1,1c0,0.2,0.3,0.4,0.4,0.1c0.5-2,1.5-3.8,2.8-5.3
			c0.1-0.2,0.3-0.3,0.5-0.4c0.4-0.1,0.3,0.5,0.2,0.7c-0.1,0.5-0.2,1-0.3,1.4c-0.1,0.5,0.2,1.1,0.8,1.2c0,0,0,0,0,0
			c0.8,0.1,1.3-0.8,1.6-1.3c1.6-2.5,2.4-5.3,2.2-8.3c0-0.2-0.2-0.4-0.4-0.3c-0.5,0.2-0.6,0.8-0.8,1.3c-0.2,0.6-0.3,1.3-0.5,2
			c-0.3,1.3-0.4,2.7-0.2,4c0.2,0.8,0.8,1.8,1.8,1.4c0.6-0.3,1-0.7,1.4-1.3c0.5-0.6,0.9-1.2,1.2-1.9c0.1-0.2-0.2-0.6-0.4-0.4
			c-0.5,0.9-1.1,1.7-1.8,2.5c-0.4,0.4-1,0.8-1.5,0.3c-0.3-0.5-0.4-1.1-0.3-1.7c0-1,0.1-1.9,0.3-2.9c0.1-0.5,0.2-1,0.4-1.5
			s0.2-1.1,0.7-1.3l-0.4-0.3c0.1,2-0.3,4-1.1,5.9c-0.4,1-0.9,1.9-1.5,2.7c-0.1,0.2-0.3,0.3-0.5,0.4c-0.3,0.2-0.5,0-0.7-0.4
			c0-0.2,0-0.3,0.1-0.5c0.1-0.5,0.2-0.9,0.3-1.4s0-1-0.5-1s-1.2,0.8-1.5,1.3c-1,1.5-1.8,3.1-2.3,4.8l0.4,0.1c0-0.5,0-1-0.1-1.4
			c0-0.2-0.1-0.4-0.2-0.5c-0.3-0.4-0.8-0.2-1,0.1c-0.9,1.1-1.6,2.4-1.9,3.9l0.4,0.1c-0.1-0.7-0.3-1.5-0.5-2.2c0-0.1-0.2-0.3-0.3-0.2
			c-1,0.8-1.7,1.8-2.1,3l0.4,0.2c-0.2-1-0.2-2.1,0-3.1l-0.4-0.2c-0.1,1.8-0.8,3.6-2.1,5c-0.5,0.6-1.7,1.8-2.5,1
			c-0.6-0.6-0.3-2.1-0.1-2.8c0.1-0.4,0.2-0.8,0.4-1.1c0.1-0.1,1-1.3,1.1-0.6c-0.1,0.3-0.2,0.6-0.3,0.9c-0.1,0.2-0.2,0.4-0.3,0.6
			c-0.2,0.4-0.4,0.8-0.6,1.2c-0.9,1.6-2.1,3.4-4,4C194.9,186.3,194.9,186.5,195,186.6L195,186.6z"/>
		<path class="st18" d="M127.4,238.2c-0.1-1-1.2-0.9-1.9-0.5c-1,0.6-1.9,1.4-2.6,2.3c-1.4,1.8-2.2,4-2.1,6.2
			c0.1,0.8,0.4,1.8,1.3,1.8c0.5,0,1-0.3,1.4-0.6c0.5-0.4,1-0.7,1.5-1.1c2.1-1.5,3.7-3.7,4.7-6.1c0.4-1.1,0.6-2.3,0.5-3.4
			c-0.1-1-1-1.2-1.7-0.6c-1.8,1.6-2.7,4-2.7,6.4c-0.1,0.9,0.5,1.8,1.4,2c1.1,0.1,2.1-0.4,2.8-1.2c0.9-0.8,1.7-1.8,2.3-2.9
			c0.3-0.6,1.3-1.9,0.6-2.6s-1.7,0.7-1.8,1.3s-0.2,2.1,0.7,2.4c1.2,0.5,2.2-1,2.7-1.9c0.7-1.2,1-2.5,1-3.9c0-0.2-0.2-0.4-0.3-0.1
			c-0.7,1.4-0.6,3.1,0.3,4.4c0.1,0.1,0.2,0.1,0.2,0c0.3-1.3,0.9-2.6,1.6-3.7c0.1-0.2,0.3-0.5,0.5-0.7s0.4-0.8,0.8-0.7
			s0.3,0.5,0.3,0.9l0.1,0.5c0,0.4,0.1,0.8,0.1,1.2c0,0.1,0.2,0.4,0.3,0.1c0.3-1.1,0.7-2.2,1.3-3.2c0.2-0.2,0.3-0.5,0.6-0.6
			c0.1-0.1,0.2-0.2,0.4-0.3c0.3-0.2,0.3-0.2,0.6-0.1s0.3,0.3,0.3,0.6l0.1,0.5l0.1,1.2c0,0.1,0.1,0.2,0.2,0.3c0.9,0,1.5-0.8,1.9-1.5
			c0.7-1.1,1.3-2.3,1.8-3.5c1-2.2,1.3-4.6,1-6.9c0-0.1-0.3-0.4-0.4-0.2c-0.8,1.6-1.3,3.3-1.7,5c-0.2,0.8-0.3,1.7-0.3,2.5
			c-0.1,0.6,0,1.2,0.3,1.6c1,1.1,2.4-0.6,3-1.3c0.9-1.4,1.7-2.9,2.3-4.4l-0.3-0.3c-0.5,1.5-0.5,3.2,0,4.8c0,0.1,0.2,0.3,0.3,0.1
			c0.7-1.6,1.6-3,2.6-4.4c0.3-0.4,0.6-0.8,0.9-1.1s0.6-0.9,1-0.9c0.5-0.1,0.5,0.8,0.6,1.1c0.1,0.5,0.1,1.1,0.1,1.6
			c0,0.2,0.3,0.5,0.4,0.2c0.6-2.7,2-5.1,4-6.9l-0.3-0.1c0.6,1.1-0.3,2.6,0.7,3.5s2-0.3,2.5-1.1c0.1-0.2-0.2-0.6-0.3-0.4
			c-0.2,0.5-0.7,1-1.2,1.2c-0.7,0.2-1.1-0.4-1.1-1c-0.1-0.9,0.2-1.7-0.3-2.6c0-0.1-0.2-0.2-0.3-0.1c-2.1,1.9-3.5,4.4-4.1,7.1
			l0.4,0.2c0-0.5,0-1.1-0.1-1.6c0-0.5-0.2-1-0.4-1.4c-0.5-0.9-1.4,0.1-1.7,0.6c-1.5,1.7-2.8,3.7-3.7,5.8l0.3,0.1
			c-0.5-1.4-0.5-3,0-4.4c0-0.2-0.2-0.6-0.3-0.3c-0.4,1.2-1,2.3-1.6,3.4c-0.3,0.6-0.7,1.1-1.1,1.6c-0.2,0.3-0.5,0.5-0.7,0.7
			c-0.1,0.1-0.3,0.2-0.5,0.3c-0.4,0.1-0.4,0.1-0.7-0.2s-0.3-0.6-0.3-1.1s0.1-0.7,0.1-1.1c0.1-0.7,0.2-1.4,0.4-2.1
			c0.3-1.4,0.8-2.8,1.5-4.1l-0.4-0.2c0.3,2.2,0,4.5-0.9,6.6c-0.4,1-0.9,1.9-1.4,2.8c-0.4,0.8-1,2-2,2l0.2,0.2c-0.1-1-0.1-4-1.8-2.6
			c-1.3,1-1.7,2.7-2.1,4.2l0.3,0.1c-0.1-0.6-0.1-1.1-0.2-1.6c0-0.4,0-0.7-0.1-1.1c-0.2-0.5-0.7-0.4-1,0c-1.2,1.5-2.1,3.2-2.6,5.1
			h0.2c-0.7-1.2-0.8-2.7-0.2-3.9l-0.3-0.1c0.1,1.9-0.8,3.8-2.2,5.1c-0.6,0.4-1.3,0.5-1.6-0.3c-0.1-0.4-0.1-0.8,0-1.2
			c0.1-0.4,0.2-0.7,0.5-1c0.1-0.1,0.4-0.3,0.6-0.3c0.4,0.2,0.1,0.6,0,0.9c-0.7,1.6-1.8,2.9-3.1,4c-0.6,0.7-1.5,1-2.4,0.8
			c-1.1-0.4-0.9-1.9-0.7-2.8c0.3-1.7,1.1-3.2,2.3-4.4c0.1-0.1,0.3-0.4,0.6-0.4c0.6-0.1,0.6,0.4,0.6,0.7c0,0.5,0,0.9-0.1,1.4
			c-0.2,0.9-0.5,1.9-0.9,2.7c-0.8,1.5-1.9,2.9-3.3,4c-0.7,0.6-1.4,1.1-2.1,1.6c-0.3,0.3-0.6,0.5-1,0.6c-0.8,0.2-1.1-0.5-1.1-1.1
			c0-1.8,0.5-3.5,1.4-5c0.5-0.8,1.1-1.5,1.8-2.1c0.4-0.4,2.6-2.2,2.8-0.9C127.3,238.4,127.5,238.3,127.4,238.2L127.4,238.2z"/>
		<path class="st18" d="M209.3,190.4c0.2-0.3,0.2-0.8-0.1-1c-0.5-0.4-1.1,0-1.5,0.4c-1.4,1.4-2.6,2.9-3.5,4.7
			c-0.6,1.3-1.3,3.5-0.2,4.7c0.5,0.5,1.3,0.7,1.9,0.4c0.9-0.4,1.6-1,2.1-1.8c1.3-1.8,2.6-3.8,2.8-6.1c0-0.2-0.4-0.6-0.4-0.2
			c-0.2,1.6-0.2,3.1,0,4.7c0,0.2,0.3,0.5,0.4,0.2c0.9-1.7,1.7-3.4,2.3-5.2l-0.4-0.2l0.1,2c0,0.4,0,0.8,0.2,1.2
			c0.3,0.6,0.9,0.7,1.3,0.2c0.5-0.8,0.8-1.7,1-2.6c0.3-1,0.8-2,1.5-2.8l-0.3-0.1c0.4,1.1,0.6,2.4,0.5,3.6c0,0.2,0.4,0.5,0.4,0.2
			c0.2-1.7,0.6-3.4,1.3-5l-0.4-0.2v1.8c0,0.3,0,0.7,0.1,1c0.3,0.8,0.9,0.3,1.3-0.1c1.3-1.4,2.1-3.2,2.3-5.1c0-0.2-0.1-0.5-0.3-0.3
			c-0.7,0.4-1,1.2-0.9,2c0.1,0.5,0.5,1.2,1.2,1c0.8-0.2,1.4-1.5,1.7-2.1c0.5-0.9,0.9-2,1.1-3c0.1-0.2-0.3-0.6-0.4-0.3
			c-0.4,1.6-0.7,3.2-0.8,4.9c-0.1,1,0.3,2,1.5,1.9s1.9-1.8,2.5-2.8c0.9-1.5,1.7-3.1,2.4-4.7l-0.4-0.2c0.2,1.3,0.5,2.6,0.7,3.9
			c0,0.2,0.4,0.4,0.4,0.1c0.3-2,1.3-3.8,2.8-5.1l-0.3-0.1c0.4,0.8,0.6,1.8,0.7,2.7c0,0.2,0.3,0.4,0.4,0.1c0.3-2.2,1.3-4.2,2.8-5.7
			l-0.3-0.1c0.5,1-0.4,2.4,0.6,3.1s2.3-0.5,2.9-1.2c1-1.1,1.8-2.4,2.3-3.8c0.3-0.8,0.4-1.8-0.4-2.3c-0.1-0.1-0.1-0.1-0.2,0
			c-1.4,1.2-1.8,3.2-1,4.9c0.3,0.7,1.1,1.1,1.8,0.8c0.9-0.6,1.7-1.4,2.2-2.4c0.1-0.2-0.2-0.6-0.4-0.4c-0.4,0.6-1,1.2-1.6,1.8
			c-0.4,0.3-0.8,0.7-1.3,0.5c-0.4-0.3-0.7-0.7-0.8-1.1c-0.3-1.3,0.2-2.7,1.3-3.6h-0.2c0.9,0.5-0.3,2.4-0.6,2.9
			c-0.5,0.9-1.2,1.7-1.9,2.5c-0.3,0.4-0.8,0.7-1.2,0.9c-0.7,0.2-1.1-0.3-1.1-1c0.1-0.7,0-1.4-0.2-2.1c0-0.1-0.2-0.2-0.3-0.1
			c-1.6,1.6-2.7,3.6-3,5.9l0.4,0.1c-0.1-1-0.4-1.9-0.8-2.8c-0.1-0.1-0.2-0.3-0.3-0.1c-1.6,1.4-2.6,3.2-2.9,5.3l0.4,0.1l-0.7-3.9
			c0-0.1-0.3-0.4-0.4-0.2c-0.6,1.1-1.1,2.3-1.7,3.4c-0.3,0.6-0.6,1.1-0.9,1.7c-0.3,0.6-0.7,1.2-1.1,1.7c-0.4,0.4-1.1,0.8-1.6,0.3
			s-0.1-1.6-0.1-2.2c0.2-1.2,0.4-2.5,0.7-3.7l-0.4-0.3c-0.2,1.3-0.7,2.5-1.4,3.6c-0.3,0.5-1,1.8-1.7,1.1c-0.3-0.2-0.1-0.9,0-1.1
			c0.2-0.3,0.4-0.6,0.7-0.8l-0.3-0.3c-0.1,1.4-0.6,2.7-1.4,3.8c-0.2,0.3-0.4,0.6-0.7,0.9c-0.2,0.2-0.7,0.7-0.9,0.4s0-0.9,0-1.1
			s0-0.8,0-1.3c0-0.1-0.3-0.5-0.4-0.2c-0.7,1.6-1.2,3.3-1.4,5.1l0.4,0.2c0.1-1.3-0.1-2.6-0.5-3.8c0-0.1-0.2-0.3-0.3-0.1
			c-0.9,1-1.5,2.3-1.8,3.6c-0.1,0.4-0.3,0.8-0.4,1.1s-0.4,1.2-0.9,0.7c-0.2-0.3-0.1-1-0.1-1.3l-0.1-1.6c0-0.1-0.3-0.5-0.4-0.2
			c-0.6,1.8-1.4,3.5-2.3,5.2l0.4,0.2c-0.2-1.5-0.2-3.1,0-4.6l-0.4-0.2c-0.3,1.9-1,3.6-2.2,5.1c-0.5,0.8-1.1,1.5-1.7,2.1
			c-0.8,0.7-2.3,0.8-2.6-0.5c-0.4-1.7,0.6-3.6,1.5-5c0.5-0.7,1-1.4,1.6-2.1c0.3-0.3,0.5-0.6,0.8-0.9c0.1-0.2,0.3-0.3,0.5-0.4
			c0.1-0.1,0.2-0.1,0.3-0.1c0.4-0.1,0.6,0.1,0.6,0.6C209.1,190.2,209.2,190.4,209.3,190.4L209.3,190.4z"/>
		<path class="st18" d="M125.3,277.7c3.1-0.3,6-2.1,7.7-4.8c0.3-0.4,0.6-0.9,0.5-1.5c-0.3-1.1-1.6-1-2.3-0.4c-2.1,1.7-3.6,4-4.3,6.6
			c-0.3,0.9-0.6,2.2-0.1,3.1c0.6,1.1,1.8,0.7,2.6,0c1-1.1,1.9-2.4,2.6-3.7c0.3-0.5,0.9-1.5,1.6-1.6c0.9-0.2,0.8,2.4,0.7,3
			c0,0.2,0.3,0.5,0.4,0.2c0.2-1,0.5-1.9,0.9-2.8c0.1-0.2,0.2-0.4,0.3-0.5c0.1-0.3,0.4-0.3,0.8,0v0.3c0,0.3,0.1,0.6,0.3,0.9
			c0.1,0.2,0.3,0.2,0.3-0.1c0-1.3,0.7-2.5,1.8-3.2l-0.3-0.2c0.1,0.5,0.3,1.1,0.4,1.7c0,0.2,0.3,0.3,0.3,0.1c0.3-0.8,0.7-1.6,1.2-2.4
			h-0.3c0.4,0.4,0.1,1.1,0.7,1.4s1.4-0.7,1.8-1.2c1.2-1.3,2.1-2.8,2.8-4.5c0.5-1.3-1.1-1.9-1.7-0.6c-0.2,0.8-0.3,1.6-0.2,2.4
			c0,0.6,0,1.4,0.5,1.8s1.3,0,1.8-0.4c0.8-0.7,1.4-1.5,1.8-2.5c0.1-0.2-0.3-0.6-0.4-0.4c-0.3,0.7-0.6,1.3-1.1,1.9
			c-0.2,0.3-0.5,0.5-0.7,0.7c-0.1,0.1-0.4,0.4-0.6,0.4c-0.3-0.1-0.6-0.3-0.7-0.5c-0.1-0.7-0.1-1.5,0-2.3c0-0.4,0.1-0.8,0.4-1.1
			c0.1-0.1,0.4-0.3,0.6-0.2l0.3,0.5c-0.1,0.1-0.1,0.3-0.2,0.4c-0.6,1.3-1.3,2.5-2.2,3.5c-0.3,0.3-0.5,0.6-0.8,0.9s-0.6,0.8-1,0.6
			s-0.3-0.4-0.3-0.7c0-0.2-0.1-0.4-0.3-0.5c-0.1-0.1-0.2-0.1-0.3,0c-0.5,0.8-0.9,1.6-1.2,2.5l0.3,0.1L139,273c0-0.1-0.1-0.3-0.3-0.2
			c-1.2,0.8-1.9,2.1-1.9,3.5l0.3-0.1c-0.4-0.5-0.1-1.2-0.5-1.6c-0.2-0.3-0.6-0.3-0.8-0.1c0,0-0.1,0.1-0.1,0.1
			c-0.4,0.5-0.7,1.1-0.9,1.7c-0.3,0.7-0.5,1.4-0.6,2.1l0.4,0.2c0-0.7,0-1.3-0.1-2c0-0.5-0.1-0.9-0.3-1.3c-0.5-0.8-1.3-0.2-1.8,0.3
			c-0.8,0.9-1.4,1.8-2,2.9c-0.6,0.9-1.5,2.5-2.7,2.5c-1.4,0.1-0.6-2.5-0.4-3.2c0.4-1.2,0.9-2.3,1.6-3.4c0.6-1,1.5-1.9,2.4-2.7
			c0.2-0.2,0.5-0.3,0.9-0.4c0.9,0,0.5,0.8,0.3,1.2c-0.3,0.5-0.6,0.9-1,1.4c-1.7,1.9-3.9,3.1-6.4,3.6
			C125,277.4,125.1,277.8,125.3,277.7L125.3,277.7z"/>
		<path class="st18" d="M150.6,265.8c0.3-0.4,0.6-0.8,1-1.2c0.4-0.4,1.2-1.3,1.5-0.4c0.2,0.6,0.2,1.3,0.1,2c0,0.6-0.1,1.2-0.3,1.9
			l0.5,0.2c0.1-1.6,1-3.1,2.3-4.1l-0.3-0.1c0.4,0.4,0.5,1,0.4,1.6l0.4,0.2c0-0.4,0.1-0.9,0.3-1.3c0.1-0.2,0.2-0.4,0.3-0.5
			c0.2-0.2,0.6-0.5,0.6,0c0,0.1,0.2,0.5,0.3,0.2c0.3-0.6,0.5-1.1,0.8-1.7l-0.3-0.3c-0.2,0.5,0.1,1,0.6,1.2c0.1,0,0.2,0,0.2,0.1
			c0.9,0,1.6-1.3,2-1.9c0.6-0.8,1.1-1.8,1.2-2.8c0.1-0.6-0.2-1.2-0.8-1.4c-0.1,0-0.1,0.1-0.1,0.1c-0.7,1.4-0.8,3-0.4,4.5
			c0.2,0.4,0.5,0.9,1,0.8s1-1,1.3-1.4c1.9-2.8,3.7-5.9,3.4-9.4c0-0.2-0.3-0.4-0.4-0.1c-0.6,1.7-1,3.4-1.1,5.2
			c-0.1,0.8-0.1,1.5,0,2.3c0,0.5,0.2,1,0.6,1.3c0.1,0.1,0.2,0.1,0.2,0c0.7-1.2,1.4-2.5,2.1-3.7l-0.4-0.2c0.1,0.6,0.2,1.2,0.5,1.8
			c0.1,0.1,0.3,0.3,0.3,0.1c0.2-0.7,0.5-1.3,0.9-1.9l-0.3,0c0.2,0.4,0.4,0.9,0.5,1.4c0,0.2,0.3,0.4,0.4,0.1c0.2-1.6,0.9-3,2.1-4.1
			l-0.3-0.4c-0.4,0.8,0,1.7,0.7,2.1c0,0,0.1,0,0.1,0.1c1.2,0.4,2-1,2.5-1.9c0.1-0.1-0.1-0.5-0.3-0.3c-0.3,0.6-0.7,1.2-1.3,1.6
			c-0.8,0.5-2-0.2-1.5-1.2c0.1-0.1-0.1-0.6-0.3-0.4c-1.2,1.2-2,2.7-2.2,4.4l0.4,0.1c-0.1-0.6-0.3-1.1-0.6-1.6
			c-0.1-0.1-0.2-0.2-0.3,0c-0.4,0.6-0.7,1.3-1,2l0.4,0.1c-0.2-0.5-0.4-1.1-0.4-1.6c0-0.1-0.2-0.4-0.4-0.2c-0.6,1.3-1.3,2.5-2,3.7
			h0.2c-0.6-0.4-0.4-1.4-0.4-2c0-2.1,0.4-4.1,1.1-6.1l-0.4-0.1c0.1,1.9-0.3,3.8-1.2,5.5c-0.8,1.6-1.7,3.1-2.8,4.5
			c-0.5,0.6-1,0-1.1-0.5c-0.1-0.5-0.1-1,0-1.5c0-0.5,0.1-1,0.3-1.5c0-0.1,0.1-0.2,0.1-0.3c0-0.2,0.1-0.3,0.2-0.1s0.3,0.5,0.3,0.7
			c-0.2,0.9-0.6,1.8-1.1,2.6c-0.2,0.4-0.5,0.7-0.8,1c-0.2,0.2-0.4,0.4-0.6,0.6c-0.2,0.1-1.1,0.2-0.9-0.4c0.1-0.2-0.2-0.6-0.3-0.3
			c-0.3,0.6-0.5,1.1-0.8,1.7l0.3,0.2c0-0.4-0.2-1.4-0.8-1.1c-0.3,0.3-0.6,0.6-0.7,1c-0.2,0.5-0.4,1-0.4,1.5c0,0.3,0.4,0.6,0.4,0.2
			c0.1-0.8-0.1-1.5-0.6-2.1c-0.1-0.1-0.2-0.1-0.3-0.1c-1.4,1-2.4,2.5-2.6,4.3c0,0.3,0.4,0.6,0.5,0.2c0.2-0.9,0.3-1.9,0.2-2.9
			c0-0.6,0-1.5-0.5-1.9c-1-1-2.5,1.3-2.9,2C150.2,265.6,150.4,266,150.6,265.8L150.6,265.8z"/>
		<path class="st18" d="M184,242.6c-1.8,1-2,3.6-2.6,5.4c-0.4,1.2-1,2.4-1.7,3.5c-0.6,1.1-1.5,1.9-2.5,2.5l0.4,0.2
			c-0.3-1.2,1.6-2,2.5-2.4c1.1-0.5,2.3-0.9,3.5-1.1c0.2,0,0.1-0.5-0.1-0.5c-1.5,0.2-3,0.7-4.3,1.4c-1,0.5-2.3,1.4-2,2.7
			c0,0.1,0.2,0.3,0.4,0.2c1-0.5,1.8-1.2,2.3-2.1c0.7-1,1.3-2.1,1.7-3.2c0.8-2,0.9-4.6,2.6-6.1C184.2,242.9,184.1,242.5,184,242.6
			L184,242.6z"/>
		<path class="st18" d="M179.1,247.2c0.3-1.6,2.1-2.1,3.5-2.3c0.8-0.1,2.1-0.2,2,1c-0.2,0.7-0.6,1.3-1.3,1.8l0.3,0.4
			c0.5-0.6,1.2-1.1,1.9-1.5c0.1-0.1,0.3-0.2,0.5-0.2c0.1-0.1,0.3-0.1,0.4,0.1c0.2,0.1,0.3,0.2,0.2,0.4c0.1,0.5,0.1,1.1,0,1.6
			c0,0.3,0.4,0.6,0.4,0.2c0.1-1,0.7-2,1.6-2.5l-0.3-0.1l0.5,0.8c0.1,0.1,0.3,0.2,0.4,0c0.1-0.5,0.2-0.9,0.5-1.3c0.3-0.3,1-0.5,1.2,0
			c0,0.1,0.3,0.4,0.4,0.1c0.1-0.7,0.5-1.4,1-1.9h-0.2c1.1,1.2,3.1-1.1,3.6-2c0.4-0.7,0.6-1.5,0.4-2.2c-0.1-0.5-0.5-1-1-0.5
			c-0.5,0.8-0.7,1.7-0.6,2.5c0,0.6,0,1.4,0.6,1.8s1.2-0.3,1.6-0.8c0.6-0.8,1.2-1.7,1.6-2.6c0.9-1.9,1.2-4.1,1.1-6.2
			c0-0.2-0.3-0.4-0.3-0.1c-0.3,1.3-0.4,2.5-0.5,3.8c0,0.6,0,1.3,0.1,1.9c0,0.4,0.2,0.7,0.4,1c0.7,0.6,1.4-0.5,1.8-0.9
			c0.7-0.8,1.3-1.8,1.8-2.8l-0.4-0.2c0,0.6,0.2,1.1,0.4,1.6c0.1,0.2,0.4,0.3,0.4,0c0-0.3,0.1-0.7,0.3-1c0.1-0.2,0.2-0.4,0.4-0.5
			c0.3-0.3,0.3-0.4,0.7-0.2s0.3,0.3,0.4,0.7c0.1,0.2,0.1,0.3,0.2,0.5c0.1,0.1,0.3,0.2,0.3,0c0.5-1.6,1.3-3.1,2.4-4.3l-0.3-0.1
			c0.3,0.7,0.1,1.5,0.8,2s1.3-0.2,1.7-0.6c0.6-0.6,1.1-1.3,1.4-2.1c0.4-0.6,0.5-1.4,0.4-2.1c-0.1-0.2-0.2-0.4-0.4-0.5
			c-0.3-0.1-0.5,0.2-0.6,0.4c-0.4,0.6-0.4,1.3-0.2,1.9c0.3,1.1,1.5,1.7,2.6,1.4c0.2-0.1,0.5-0.2,0.7-0.4c0.2-0.2-0.1-0.6-0.3-0.4
			c-0.6,0.6-1.6,0.7-2.2,0.1s-0.7-1.6-0.1-2.2c0.5-0.4,0.1,1.1,0,1.3c-0.3,0.9-0.9,1.7-1.5,2.4c-0.5,0.5-1.2,1.1-1.5,0
			c-0.1-0.4-0.2-0.8-0.3-1.2c-0.1-0.1-0.2-0.3-0.3-0.1c-1.2,1.3-2,2.7-2.5,4.4h0.3c-0.3-0.5-0.2-1.6-1-1.7c-1-0.1-1.6,1.4-1.7,2.2
			h0.4c-0.2-0.4-0.3-0.8-0.3-1.3c0-0.2-0.3-0.5-0.4-0.2c-0.4,0.7-0.8,1.4-1.3,2.1c-0.3,0.3-0.5,0.7-0.8,1c-0.1,0.1-0.2,0.3-0.4,0.4
			c-0.5,0.3-0.6-0.1-0.7-0.5c-0.2-1.8-0.2-3.7,0.2-5.5l-0.3-0.1c0.2,3.1-0.7,6.1-2.6,8.5c-0.2,0.2-0.3,0.4-0.5,0.6
			c-0.3,0.2-0.5,0.3-0.8-0.1c-0.3-0.4-0.4-0.9-0.3-1.4c0-0.5,0.1-1.1,0.3-1.6c0-0.2,0.2-0.3,0.3-0.3c0,0,0,0,0,0
			c0.3-0.2,0.4-0.1,0.4,0.3c0,0.2,0,0.5,0,0.7c-0.2,0.8-0.7,1.5-1.4,2.1c-0.4,0.4-1.5,1.5-2.1,0.9c-0.1-0.1-0.2-0.1-0.2,0
			c-0.5,0.6-0.9,1.3-1.1,2.1l0.4,0.1c-0.2-0.6-0.7-0.9-1.3-0.7c0,0,0,0,0,0c-0.8,0.2-1,1.1-1.2,1.8c0.1,0,0.2,0,0.4,0l-0.5-0.8
			c-0.1-0.1-0.2-0.1-0.3-0.1c-1,0.6-1.6,1.6-1.7,2.8l0.4,0.2c0.1-0.7,0-1.5-0.1-2.2c-0.1-0.4-0.2-0.7-0.6-0.8
			c-0.6,0.1-1.1,0.3-1.6,0.6c-0.5,0.3-1,0.8-1.5,1.3c-0.2,0.2,0.1,0.6,0.3,0.4c0.8-0.5,1.2-1.3,1.4-2.2c0-0.7-0.5-1.4-1.2-1.5
			c-1.1-0.1-2.2,0.1-3.2,0.6C179.8,245.4,179.2,246.2,179.1,247.2c-0.1,0.1,0.1,0.3,0.1,0.1L179.1,247.2z"/>
		<path class="st18" d="M251.1,202.2c-1-0.3-2.2,0.6-3,1.2c-1.1,1-2,2.3-2.5,3.7c-0.7,1.4-1,2.9-0.8,4.4c0.1,1,1,1.7,2,1.6
			c0.1,0,0.3-0.1,0.4-0.1c0.6-0.3,1.2-0.8,1.6-1.3c0.6-0.6,1.1-1.2,1.6-1.9c1-1.2,1.5-2.6,1.6-4.2c0-0.5-0.1-0.9-0.5-1.2
			c-0.5-0.3-1.2-0.2-1.5,0.4c-0.4,0.6-0.8,1.2-1.1,1.8c-0.4,0.8-0.6,1.6-0.7,2.4c-0.1,1.2,0.8,3.3,2.4,2.7c0.7-0.2,1.1-1.1,1.4-1.6
			c0.5-0.9,0.9-1.8,1.1-2.8c0.1-0.2-0.3-0.6-0.4-0.3c-0.2,0.6-0.7,2.6,0.5,2.7c0.6,0,0.9-0.6,1.1-1.1c0.4-0.8,0.7-1.6,1-2.5
			l-0.4-0.2c0,0.4-0.3,2.5,0.7,2.3c0.4-0.1,0.7-0.9,0.8-1.2c0.3-0.7,0.6-1.3,0.7-2.1l-0.4-0.2c-0.2,0.6-0.2,1.3,0,1.9
			c0.2,0.3,0.7,0.4,1.1,0.2c0,0,0,0,0,0c1.1-0.8,1.8-1.9,2.2-3.2c0.1-0.4,0.4-1.1,0-1.5s-0.7-0.1-0.9,0.3c-0.4,0.9-0.8,2.6,0,3.4
			c1,1,2.2-0.9,2.7-1.6c0.9-1.2,1.5-2.6,1.8-4.1c0.1-0.5,0.1-1.1,0-1.6c-0.1-0.3-0.4-1-0.8-1s-0.7,1.1-0.9,1.4
			c-0.3,0.7-0.4,1.4-0.5,2.1c-0.1,1.1-0.2,2.9,1.3,3.1c1.4,0,2.7-0.9,3-2.3c0.1-0.2-0.3-0.6-0.4-0.4c-0.3,1-1.1,1.8-2.1,2.1
			c-0.7,0.2-1.4-0.1-1.5-0.9c-0.1-0.5-0.1-1.1,0-1.6c0.1-0.6,0.2-1.2,0.5-1.8c0.1-0.4,0.6-1.6,0.9-0.7s-0.2,2.3-0.6,3.3
			c-0.4,1-1,2-1.7,2.8c-0.4,0.4-1.3,1.4-1.6,0.3c-0.1-0.6,0-1.3,0.2-1.9c0-0.1,0.2-0.8,0.4-0.3c0.1,0.2-0.2,0.7-0.3,0.9
			c-0.2,0.5-0.5,1-0.8,1.5c-0.3,0.4-0.7,0.8-1.1,1.1c-0.8,0.5-0.5-0.9-0.5-1.3c0-0.3-0.3-0.6-0.4-0.2c-0.2,0.8-0.5,1.6-0.9,2.3
			c-0.1,0.2-0.2,0.4-0.3,0.6c-0.2,0.1-0.2-0.3-0.2-0.4c0-0.4,0-0.8,0-1.2c0-0.2-0.3-0.5-0.4-0.2c-0.3,0.8-0.6,1.6-1,2.4
			c-0.1,0.2-0.2,0.4-0.3,0.6c-0.1,0.1-0.1,0.2-0.2,0.3l-0.6-0.2c-0.2-0.3,0.2-1.3,0.3-1.5l-0.4-0.3c-0.3,1.1-0.8,2.1-1.4,3.1
			c-0.4,0.5-0.8,1.2-1.5,1c-0.7-0.2-1.1-0.9-1.1-1.6c0.1-1.3,0.5-2.5,1.2-3.6c0.1-0.2,0.3-0.5,0.4-0.7c0.1-0.1,0.2-0.3,0.3-0.4
			l0.1-0.1l0.7,0.4c0.1,0.1-0.1,0.7-0.1,0.9c-0.1,0.3-0.1,0.6-0.2,0.9c-0.4,1.1-1,2-1.7,2.9c-0.7,1-1.5,1.8-2.4,2.4
			c-0.5,0.4-1.2,0.2-1.6-0.3c0,0-0.1-0.1-0.1-0.1c-0.2-0.5-0.2-1-0.1-1.6c0.2-1.2,0.5-2.4,1.1-3.6c0.5-1.1,1.2-2.1,2.1-2.9
			c0.6-0.4,1.7-1.4,2.5-1.2c0.3,0.1,0.2-0.4,0-0.5L251.1,202.2z"/>
		<path class="st18" d="M124.9,294.8c0-0.7-0.5-1.2-1.2-1.2c-0.1,0-0.1,0-0.2,0c-1.2,0.2-2.3,1.3-3,2.1c-1.7,1.9-2.6,4.3-2.7,6.8
			c0,1,0.1,2.1,1.2,2.4c1,0.1,2.1-0.1,3-0.7c2.1-1.1,3.6-3.1,4.1-5.4c0.2-0.8,0.2-1.9-0.7-2.3c-1.1-0.5-2,0.8-2.4,1.6
			c-0.7,1-1.1,2.3-1,3.5c0.2,0.9,1.1,1.5,2,1.5c1.2-0.1,2.2-1.1,3-1.9c0.9-0.9,1.7-1.9,2.3-3.1c0.6-1.1,0.8-2.3,0.8-3.5
			c-0.1-0.9-0.9-1.5-1.7-0.9c-0.4,0.5-0.7,1.2-0.9,1.8c-0.2,0.7-0.3,1.4-0.2,2.1c0.1,1.1,0.9,1.9,2,2c1.4,0,2.4-1.5,3.1-2.5
			c0.8-1.2,1.4-2.6,1.8-4.1l-0.5-0.2c-0.3,1.3-0.5,2.7,0.4,3.8c0.1,0.1,0.3,0.1,0.4,0c0.4-1.5,1.2-2.8,2.4-3.8l-0.4-0.1
			c0.4,0.7,0.6,1.5,0.6,2.4c0,0.2,0.4,0.5,0.4,0.2c0.1-1.3,0.7-2.4,1.7-3.2l-0.4-0.1c0.2,0.5,0.4,1,0.4,1.5c0,0.2,0.4,0.5,0.4,0.2
			c0.2-1.7,1.1-3.3,2.5-4.4L142,289c0.4,0.7-0.3,2.8,1.1,3c0.5,0.1,1-0.5,1.4-0.8c0.5-0.5,1-1.1,1.4-1.6c1.6-2.3,2.2-5.1,1.9-7.9
			c0-0.1-0.2-0.4-0.4-0.3c-1,0.7-1.6,1.7-1.6,2.9c-0.2,1.2-0.4,3,0.4,4.1c2.1,2.9,4.7-2.7,5.1-4.3c0.1-0.3-0.4-0.7-0.5-0.3
			c-0.2,0.6-0.3,1.3-0.2,2c0.1,0.4,0.2,1,0.6,1.2s1-0.6,1.3-1c0.4-0.6,0.8-1.3,1.1-2l-0.5-0.2c0,0.4,0.2,0.8,0.6,1
			c0.3,0.2,0.6,0.1,0.8-0.2c0,0,0-0.1,0.1-0.1c0.1-0.3-0.4-0.7-0.4-0.4c-0.3,0.1-0.5,0-0.5-0.3s-0.3-0.5-0.5-0.2
			c-0.3,0.8-0.8,1.5-1.3,2.2c-0.1,0.1-0.2,0.4-0.4,0.4c-0.4,0.1-0.4-0.4-0.4-0.6c0-0.5,0-1,0.2-1.5l-0.5-0.3
			c-0.3,1.1-0.8,2.2-1.5,3.1c-0.6,0.9-2.2,2.7-3,0.9c-0.3-1.1-0.4-2.3-0.1-3.4c0.1-1,0.6-1.9,1.4-2.5l-0.4-0.3
			c0.3,2.3-0.2,4.6-1.3,6.6c-0.5,1-1.2,1.9-2.1,2.6c-0.3,0.3-0.6,0.7-1,0.5s-0.4-0.8-0.4-1.3c0-0.4,0-0.9-0.3-1.3
			c0-0.1-0.2-0.3-0.3-0.2c-1.5,1.1-2.5,2.8-2.7,4.7l0.4,0.2c0-0.6-0.2-1.2-0.4-1.8c-0.1-0.1-0.2-0.3-0.4-0.1c-1,0.9-1.7,2.1-1.8,3.4
			l0.4,0.2c0-0.9-0.3-1.8-0.7-2.6c-0.1-0.1-0.2-0.2-0.4-0.1c-1.2,1-2.1,2.4-2.5,4l0.4,0c-0.8-0.9-0.5-2.2-0.2-3.2
			c0.1-0.3-0.4-0.6-0.5-0.2c-0.4,1.8-1.3,3.5-2.5,4.9c-0.6,0.7-1.6,1.7-2.6,1.2s-1-2-0.7-3c0.1-0.4,0.3-0.8,0.4-1.3
			c0.2-0.5,0.9-1.2,1.1-0.3c0.1,0.9-0.1,1.9-0.5,2.7c-0.8,1.6-1.9,3.1-3.3,4.2c-0.6,0.7-1.6,1.1-2.6,0.9c-1.2-0.4-0.6-1.9-0.3-2.7
			c0.3-0.9,0.8-1.7,1.5-2.3c0.4-0.4,1-0.4,1.1,0.2c0,0.4,0,0.9-0.1,1.3c-0.4,1.5-1.3,2.9-2.5,3.9c-0.7,0.6-4,2.6-4.5,0.9
			c-0.2-1-0.1-2,0.2-3c0.2-0.9,0.5-1.8,1-2.7c0.5-0.8,1-1.6,1.7-2.3c0.3-0.3,0.7-0.6,1.1-0.9c0.2-0.2,0.4-0.3,0.6-0.4
			c0.4-0.3,1.5-0.5,1.6,0.4C124.7,295,124.9,295,124.9,294.8z"/>
		<path class="st18" d="M152.8,279.4c-0.5,0.1-1,0.4-1.4,0.8c-0.2,0.2-0.4,0.4-0.5,0.6c-0.2,0.2-0.3,0.5-0.3,0.8
			c0,0.8,1,0.8,1.5,0.5c0.5-0.3,0.9-0.7,1.2-1.1c0.2-0.2,0.3-0.5,0.4-0.8c0-0.4-0.2-0.7-0.6-0.8c-0.2-0.1-0.4,0-0.5,0.2c0,0,0,0,0,0
			c0,0.1-0.1,0.3,0,0.4s0.1,0,0.1-0.1l0,0c0,0,0,0,0,0h0.1h0.2c0.1,0,0,0,0,0l0,0l0,0c0,0,0,0,0,0s0,0,0,0v0.1
			c-0.1,0.2-0.2,0.4-0.4,0.6c-0.3,0.4-0.7,0.7-1.2,0.9c-0.1,0-0.2,0-0.4,0H151c0.1,0,0.2,0.1,0.1,0.2c0-0.1,0-0.1,0.1-0.2
			c0.1-0.2,0.2-0.5,0.4-0.7c0.4-0.4,0.9-0.7,1.4-0.8C153.3,279.9,153.1,279.4,152.8,279.4L152.8,279.4z"/>
		<path class="st18" d="M174.4,266.4c1.5-0.1,3-0.5,4.4-1.2c1.4-0.5,2.8-1.2,4-2.1c0.9-0.6,2.3-1.7,2.3-3c0-0.4-0.2-0.8-0.5-1
			c-0.6-0.3-1.3,0.2-1.8,0.5c-2.2,1.6-3,4.4-3.9,6.9c-0.4,1.3-0.9,2.5-1.6,3.7c-0.7,1.1-1.8,2.5-3.1,2.7s0-1.6,0.4-2
			c0.6-0.6,1.3-1,2.1-1.3c1.8-0.6,3.8-0.7,5.7-0.4c0.2,0,0.1-0.4,0-0.4c-2.7-0.7-6.4-0.3-8.3,1.9c-0.6,0.6-1.5,2.2-0.5,2.9
			s2.4-0.7,3.1-1.3c1.9-2,2.6-4.7,3.5-7.2c0.4-1.3,1.1-2.5,1.9-3.6c0.4-0.5,0.9-1,1.5-1.4c0.2-0.1,0.4-0.3,0.6-0.3
			c0.6,0,0.5,0.3,0.4,0.6c-0.2,0.4-0.4,0.7-0.7,1c-1.2,1.2-2.6,2.2-4.2,2.9c-1.6,0.9-3.4,1.5-5.2,1.8
			C174.2,266.1,174.3,266.5,174.4,266.4L174.4,266.4z"/>
		<path class="st18" d="M184.1,265.9c0.4-0.9,0.8-2,1.9-2.2c1.6-0.2,1.1,1.6,1.2,2.5c0,0.2,0.3,0.5,0.4,0.2c0.3-1.1,0.9-2.1,1.6-3
			c0.2-0.2,0.5-0.6,0.8-0.4c0.1,0.1,0.2,0.4,0.2,0.6c0.1,0.3,0.2,0.6,0.4,0.9c0.1,0.1,0.3,0.2,0.4,0c0.2-1.4,0.9-2.6,2-3.4l-0.2,0
			c0.3,0.3,0.6,0.8,0.7,1.2c0,0.2,0.3,0.4,0.4,0.1l1.3-2.4l-0.4-0.3c-0.1,0.6,0.3,1.1,0.8,1.3c0.7,0.2,1.4-0.1,1.8-0.7
			c0.6-0.7,1.2-1.5,1.7-2.4c0.3-0.6,1.1-1.5,0.8-2.2c-0.2-0.5-0.7-0.7-1.1-0.6c0,0,0,0-0.1,0c-0.7,0.3-0.9,1.2-0.9,1.9
			c-0.1,1,0.3,3.7,2,3c0.9-0.5,1.6-1.3,2.1-2.2c0.6-0.9,1.1-1.9,1.4-2.9l-0.4-0.3c-0.2,0.8,0,1.7,0.5,2.3c0.1,0.1,0.3,0.2,0.4,0
			c0.5-1.5,1.4-2.9,2.5-4l-0.3-0.1c0.4,0.5,0.6,1.1,0.7,1.7c0,0.1,0.3,0.5,0.4,0.2c0.3-0.7,0.6-1.3,1.1-1.9c0.2-0.2,0.4-0.6,0.6-0.7
			c0.6-0.4,0.7,0.3,0.7,0.7c0,0.2,0.3,0.5,0.4,0.2c0.4-1.5,1.2-2.9,2.3-4l-0.4-0.3c0,1,0.4,1.9,1.1,2.6c0.1,0.1,0.2,0.1,0.3,0
			c1.8-1.7,3.2-3.7,4.2-5.9c0.5-1.2,2-4.3,0.2-5.1c-0.1,0-0.2,0-0.2,0.1c-0.9,1.5-1.4,3.2-1.4,4.9c0,1.2,0.5,2.6,1.9,2.8
			c1.6,0.1,2.9-1.3,3.8-2.4c1-1.3,1.6-2.8,1.8-4.5c0-0.2-0.3-0.6-0.4-0.3c-0.5,1.1-0.5,2.3,0,3.3c0,0.1,0.2,0.2,0.3,0.2
			c1.1-0.8,1.9-2,2.2-3.3c0.2-0.6,0.6-2.3-0.6-2.3c-0.1,0-0.1,0-0.1,0.1c-0.4,0.9-0.4,1.9,0,2.8c0.3,0.9,1.1,1.5,2,1.5
			c0.9-0.1,1.7-1.1,2.2-1.8c0.7-0.9,1.1-2,1.3-3.1c0-0.2-0.3-0.6-0.4-0.3c-0.2,0.5,0.1,1.1,0.6,1.3c0.1,0,0.2,0.1,0.3,0.1
			c1,0.1,1.3-1,1.5-1.8l-0.2,0.1c1.3,0.8,3,0.5,3.9-0.8c0.1-0.2-0.1-0.6-0.3-0.3c-0.8,1.1-2.3,1.4-3.5,0.7c-0.1-0.1-0.2,0-0.2,0.1
			c-0.1,0.4-0.2,0.7-0.4,1.1c-0.1,0.2-0.4,0.4-0.6,0.4c-0.2,0-0.8-0.1-0.6-0.5l-0.4-0.3c-0.2,1.3-0.8,2.5-1.6,3.4
			c-0.4,0.5-0.8,0.9-1.4,1.1c-0.9,0.3-1.5-0.5-1.8-1.2c-0.1-0.4-0.5-1.9,0.1-2s0,1.2-0.1,1.4c-0.3,1.2-1,2.3-2,3l0.3,0.2
			c-0.4-0.9-0.4-1.9,0-2.8l-0.4-0.3c-0.2,1.3-0.6,2.5-1.3,3.6c-0.7,1.2-1.7,2.2-3,2.8c-0.7,0.3-1.5,0.1-2-0.5
			c-0.3-0.6-0.4-1.3-0.3-2c0.1-1.5,0.6-2.9,1.4-4.1l-0.2,0.1c1,0.4,0.4,2,0.1,2.7c-0.3,0.9-0.7,1.8-1.1,2.6
			c-0.9,1.7-2.1,3.3-3.6,4.7h0.3c-0.5-0.6-0.8-1.3-0.9-2.1c0-0.2-0.2-0.4-0.4-0.3c-1.2,1.1-2,2.6-2.4,4.1l0.4,0.2
			c0-0.6-0.3-1.7-1.1-1.5c-0.5,0.1-0.9,0.8-1.1,1.2c-0.4,0.5-0.7,1.1-1,1.7l0.4,0.2c-0.1-0.8-0.4-1.5-0.8-2.1
			c-0.1-0.1-0.2-0.2-0.3-0.1c-1.1,1.2-2,2.6-2.6,4.1h0.4c-0.4-0.5-0.5-1.2-0.4-1.8c0-0.2-0.4-0.6-0.4-0.3c-0.4,1.3-1,2.5-1.9,3.6
			c-0.4,0.5-1.2,1.6-1.9,1.4s-0.9-1.7-0.8-2.3c0-0.3,0.1-0.7,0.2-1c0.1-0.2,0.9-1.1,1-0.3c0,0.2-0.3,0.6-0.4,0.9s-0.4,0.7-0.6,1
			c-0.4,0.6-0.8,1.2-1.2,1.7c-0.2,0.3-0.5,0.5-0.8,0.7c-0.3,0.2-1.3,0.4-1.3-0.4c0-0.2-0.3-0.6-0.4-0.3l-1.2,2.4l0.4,0.1
			c-0.2-0.6-0.5-1.2-0.9-1.6c-0.1-0.1-0.2-0.1-0.2,0c-1.2,0.9-2,2.2-2.2,3.7h0.4c-0.4-0.5-0.5-2.2-1.6-1.6c-0.5,0.4-1,0.9-1.3,1.5
			c-0.4,0.6-0.7,1.3-0.9,2.1l0.4,0.2c-0.1-1.1,0.3-2.8-1.2-3.1s-2.3,1.2-2.7,2.3C183.6,265.8,184,266.2,184.1,265.9L184.1,265.9z"/>
		<path class="st18" d="M240.5,231.1c2.3-0.6,4.3-2,5.6-4.1c0.5-0.6,0.7-1.4,0.6-2.3c-0.1-0.6-0.7-1-1.3-0.9c-0.2,0-0.3,0.1-0.5,0.2
			c-1.9,1.3-3.3,3.3-4,5.5c-0.4,1.1-0.5,2.2-0.6,3.3c0,0.9,0,2.2,1,2.5c1.3,0.4,2.1-1,2.7-1.9c1-1.4,2-2.8,3-4.1l-0.5-0.1
			c0.5,0.9,0.8,1.8,0.9,2.8c0,0.2,0.5,0.6,0.6,0.2c0.5-1.8,1.4-3.4,2.6-4.9h-0.4c0.6,0.6,1,1.3,1,2.2c0,0.2,0.4,0.6,0.6,0.2
			c0.5-1.5,1.3-2.9,2.3-4l-0.4-0.2l0.5,0.9c0.1,0.2,0.4,0.4,0.5,0.1c0.5-1.2,1.2-2.2,2.1-3.1l-0.5-0.4c0,0.7,0.5,1.3,1.1,1.6
			c0.9,0.3,1.8,0.1,2.4-0.6c1.7-1.2,2.9-3,3.5-5.1c0.1-0.7,0.3-1.7-0.3-2.2s-1.2-0.2-1.6,0.3c-0.5,0.7-0.8,1.6-0.8,2.4
			c-0.1,0.8,0,1.6,0.4,2.3c1.3,1.9,3.6,0.8,5-0.4c0.2-0.2-0.1-0.6-0.3-0.4c-1.1,0.8-3.6,2.2-4.4,0.3c-0.2-0.8-0.2-1.6,0-2.4
			c0.1-0.5,0.4-1.8,1.1-1.9c1-0.1,0.3,2.2,0.1,2.6c-0.3,0.8-0.8,1.5-1.4,2.1c-0.5,0.7-1.2,1.3-1.8,1.8c-0.4,0.3-0.9,0.5-1.4,0.5
			c-0.5,0-1-0.4-1-0.9c0-0.2-0.3-0.6-0.5-0.4c-1,1-1.7,2.1-2.3,3.4l0.5,0.1c-0.1-0.3-0.3-0.6-0.5-0.9c-0.1-0.1-0.3-0.4-0.5-0.2
			c-1.1,1.2-2,2.6-2.5,4.2l0.6,0.3c-0.1-1.1-0.5-2.1-1.3-2.8c-0.1-0.1-0.3-0.1-0.4,0c0,0,0,0,0,0c-1.2,1.5-2.1,3.2-2.6,5l0.6,0.2
			c-0.1-1.1-0.5-2.2-1-3.1c-0.1-0.2-0.4-0.4-0.5-0.1c-0.6,0.9-1.3,1.8-1.9,2.7c-0.6,0.9-1.2,1.8-1.9,2.6c-0.3,0.3-0.9,0.8-1.3,0.5
			s-0.4-1.2-0.4-1.7c0-0.9,0.1-1.8,0.4-2.6c0.5-1.7,1.4-3.3,2.6-4.6c0.4-0.4,2.3-2.2,2.3-0.8c-0.1,0.8-0.4,1.6-1,2.3
			c-1.2,1.6-2.9,2.8-4.8,3.4C240.2,230.7,240.3,231.1,240.5,231.1L240.5,231.1z"/>
		<path class="st18" d="M120.1,338c0.8-1.7,2.2-3.1,3.8-4c0.4-0.2,1.5-0.8,1.6,0c0.1,0.5,0.1,1.1,0,1.6c0,1.2-0.1,2.3-0.3,3.5
			c0,0.2,0.3,0.6,0.4,0.3c0.3-0.9,0.7-1.7,1.1-2.5c0.2-0.3,0.5-1,0.8-1.1c0.7-0.3,1,1.1,1.1,1.4c0,0.2,0.3,0.4,0.4,0.1
			c0.4-1.5,1.4-2.9,2.7-3.8l-0.3-0.1c0.2,0.4,0.2,0.8,0.2,1.1c0,0.2,0.2,0.4,0.4,0.2c0.4-0.5,0.7-1,1.1-1.5l-0.4-0.2
			c0.2,0.5,0.5,1.4,1.2,1.4c0.3-0.1,0.6-0.2,0.7-0.5c0.4-0.4,0.8-0.9,1.2-1.4c0.7-0.8,1.2-1.7,1.7-2.6c0.4-0.8,1.1-1.8,0.9-2.7
			c-0.1-0.6-0.7-1.2-1.4-0.9c-0.7,0.6-1.2,1.4-1.4,2.3c-0.4,1.1-0.9,4.1,1.2,4c1-0.1,1.8-1.1,2.4-1.9c0.7-1,1.3-2.1,1.7-3.2
			l-0.4-0.2c0,0.9,0.3,1.8,0.7,2.5c0,0.1,0.2,0.1,0.2,0.1c0,0,0.1,0,0.1-0.1c0.6-0.9,1.2-1.8,1.8-2.7h-0.3l0.8,0.8
			c0.1,0.1,0.3,0.1,0.3-0.1c0.1-1,1.3-1,2.1-1.1c0.6,0,1.2-0.3,1.6-0.8c0.1-0.1-0.1-0.5-0.3-0.3c-0.8,1.2-3.5,0.1-3.8,2l0.3-0.1
			l-0.8-0.8c-0.1-0.1-0.2-0.1-0.2,0c0,0,0,0,0,0c-0.6,0.9-1.2,1.8-1.8,2.7h0.3c-0.4-0.7-0.6-1.4-0.6-2.1c0-0.1-0.3-0.5-0.4-0.2
			c-0.5,1.6-1.4,3.1-2.6,4.3c-0.8,0.7-2.1,1-2.2-0.4c0-0.9,0.2-1.8,0.6-2.6c0.2-0.4,0.4-0.8,0.7-1.2c0.3-0.3,0.3-0.4,0.7,0
			c0.3,0.1,0.4,0.3,0.3,0.6c0,0.1-0.1,0.3-0.1,0.4c-0.3,0.8-0.7,1.5-1.1,2.2c-0.5,0.8-1,1.5-1.6,2.2c-0.3,0.3-0.6,0.6-0.9,0.9
			s-0.2,0.3-0.6,0.2s-0.5-0.3-0.6-0.7c-0.1-0.2-0.2-0.4-0.4-0.2c-0.4,0.5-0.7,1-1.1,1.5l0.4,0.2c0-0.5-0.1-1-0.3-1.4
			c-0.1-0.1-0.2-0.2-0.3-0.1c-1.4,1-2.4,2.4-2.8,4l0.4,0.1c-0.1-0.6-0.8-2.6-1.8-1.9c-0.5,0.5-0.9,1-1.1,1.6
			c-0.4,0.7-0.7,1.4-0.9,2.1l0.4,0.3c0.3-1.5,0.4-3,0.3-4.6c0-0.8-0.1-2-1.2-1.8c-1.1,0.3-2.2,1-3,1.8c-0.9,0.9-1.5,1.9-2,3
			C119.7,337.9,120,338.2,120.1,338L120.1,338z"/>
		<path class="st18" d="M177.3,304.2c1.3-1.4,2.3-3,2.9-4.8c0.1-0.1-0.1-0.5-0.3-0.4c-3.2,2-5.5,5.2-6.6,8.8
			c-0.4,1.4-0.9,3.4,1.1,3.8c1.7,0.4,3.4-1.5,4.5-2.6c1.5-1.7,2.7-3.6,3.5-5.8l-0.4-0.3c-0.3,1.1-0.2,2.2,0.1,3.2
			c0,0.1,0.3,0.4,0.4,0.2c0.6-1,1.3-2.1,1.9-3.1l-0.4-0.1c0.4,0.6,0.7,1.1,1.1,1.7c0.1,0.1,0.3,0.3,0.4,0.1c0.4-0.5,0.6-1.3,1.2-1.6
			c0.4-0.2,0.7-0.1,0.8,0.4c0,0.3,0,0.5,0.1,0.8c0.1,0.2,0.4,0.3,0.4,0c0.2-1.2,0.9-2.4,1.9-3.2l-0.4-0.1c0.2,0.3,0.3,0.6,0.3,1
			c0,0.2,0.3,0.6,0.4,0.3c0.6-1.2,1.3-2.4,2.2-3.4L192,299c0.1,0.7,0.4,1.3,0.9,1.7c0.7,0.4,1.4-0.2,1.9-0.7
			c1.5-1.2,2.7-2.9,3.4-4.7c0.3-0.5,0.3-1.2,0.1-1.8c-0.5-0.6-0.9,0.1-1.1,0.5c-0.8,1.5-0.8,3.3,0.1,4.8c0.1,0.1,0.2,0.2,0.3,0.2
			c2-1.1,3-3.5,4-5.4c1.3-2.2,2-4.7,2-7.3c0-0.2-0.3-0.5-0.4-0.2c-0.4,1.5-0.7,3-0.9,4.5c-0.3,1.4-0.4,2.8-0.3,4.2
			c0.1,0.8,0.7,1.4,1.5,0.8c1.1-0.8,2-1.9,2.8-3l-0.3-0.1c0.3,0.4,0.8,0.6,1.3,0.7c0.3,0.1,0.2-0.5,0-0.5c-0.4,0-0.7-0.2-1-0.5
			c-0.1-0.1-0.2-0.2-0.3,0c-0.6,0.8-1.3,1.6-2,2.4c-0.4,0.3-1.1,1.3-1.4,0.4c-0.1-0.6-0.1-1.2,0-1.8c0.1-2.3,0.5-4.5,1.1-6.7
			l-0.4-0.2c-0.1,2.5-0.8,4.9-2,7c-0.5,1-1.1,2-1.6,3c-0.5,1-1.3,1.8-2.2,2.4l0.3,0.2c-0.7-1.1-0.8-2.4-0.4-3.5
			c0.1-0.3,0.2-0.5,0.3-0.7c0-0.1,0.2-0.5,0.3-0.5s0.2,0.2,0.2,0.4c-0.1,0.6-0.4,1.2-0.7,1.7c-0.6,1.1-1.3,2.1-2.2,2.9
			c-0.5,0.5-1,0.9-1.6,1.2c-0.8,0.3-1-0.7-1.1-1.2c0-0.1-0.3-0.4-0.4-0.2c-0.9,1.1-1.7,2.3-2.3,3.5l0.4,0.3c0-0.5-0.1-1-0.3-1.5
			c-0.1-0.1-0.2-0.3-0.4-0.1c-1,0.9-1.7,2.1-2,3.4h0.4c-0.2-0.4,0-0.9-0.3-1.3c-0.2-0.2-0.4-0.4-0.7-0.4c-1.1-0.1-1.4,1.1-1.9,1.8
			l0.4,0.1l-1-1.7c0-0.1-0.3-0.3-0.4-0.1c-0.6,1-1.3,2-1.9,3.1l0.4,0.2c-0.3-0.9-0.4-2-0.1-2.9c0-0.2-0.3-0.6-0.4-0.3
			c-0.7,2-1.9,3.9-3.3,5.5c-0.7,0.9-1.6,1.6-2.5,2.2c-1,0.6-2.9,0.8-2.7-0.9c0.5-4.1,3.3-8,6.7-10.2l-0.3-0.4
			c-0.5,1.7-1.5,3.3-2.6,4.7C177,304,177.1,304.4,177.3,304.2L177.3,304.2z"/>
		<path class="st18" d="M231.3,276.7c-0.5,0.5,0,1.5,0.7,1.6c1.1,0.2,1.8-1.2,2.3-2c1.2-2.3,1.9-4.9,2.2-7.5l-0.5-0.1
			c0.1,2.2,0.7,4.3,1.6,6.2c0.1,0.2,0.4,0.3,0.4,0c0.3-1.9,0.8-3.7,1.2-5.5c0.3-1.2,0.7-4.8,2.7-4c0.2,0.1,0.2-0.3,0.1-0.4
			c-0.6-0.4-1.3-0.3-1.8,0.2c-0.6,0.7-1,1.6-1.1,2.6c-0.6,2.3-1.1,4.6-1.6,7h0.5c-0.9-1.9-1.4-3.9-1.5-5.9c0-0.2-0.4-0.5-0.5-0.1
			c-0.2,1.7-0.6,3.4-1.1,5c-0.3,0.8-0.6,1.5-1,2.2c-0.2,0.4-0.5,0.8-0.8,1.1c-0.1,0.2-0.3,0.4-0.5,0.5c-0.1,0.1-0.2,0.2-0.4,0.2
			c-0.6,0.1-0.8-0.1-0.7-0.6C231.6,277,231.5,276.6,231.3,276.7L231.3,276.7z"/>
		<path class="st18" d="M243.2,267.3c-1.5,0.5-2.1,2.3-2.1,3.8c0,0.6,0.1,1.4,0.9,1.4s1.3-1.2,1.6-1.7c0.4-0.8,0.7-1.7,0.8-2.6
			c0.1-0.5,0.1-1.5-0.6-1.7s-0.9,1.1-1,1.5c-0.2,0.8,0,1.6,0.6,2.2c0.7,0.5,1.6,0.4,2.2-0.3c0,0,0,0,0,0c0.7-0.9,1.2-1.9,1.5-3
			l-0.4-0.2c0,0.6,0,1.3,0.1,1.9c0.1,0.3,0.2,0.6,0.5,0.6s0.6-0.7,0.6-1l0.6-2h-0.3c0.3,0.3,0.3,0.7,0.5,0.9
			c0.2,0.2,0.4,0.3,0.7,0.3c0.6,0,1.2-0.3,1.6-0.9c0.1-0.1,0-0.6-0.2-0.4c-0.4,0.4-0.9,0.7-1.5,0.7c-0.6,0-0.6-0.7-0.9-1
			c-0.1-0.1-0.3-0.1-0.3,0c-0.2,0.8-0.4,1.5-0.7,2.3c0,0.1-0.1,0.4-0.2,0.3s0-0.5,0-0.5l-0.1-1.2c0-0.2-0.4-0.5-0.4-0.2
			c-0.2,0.9-0.5,1.7-1,2.4c-0.4,0.5-1.2,1.3-1.9,0.8s-0.4-1.8-0.1-2.5c0.1-0.1,0.2-0.5,0.4-0.2c0.1,0.1,0,0.5,0,0.6
			c0,0.4-0.1,0.8-0.2,1.2c-0.2,0.7-0.6,1.4-1,2.1c-0.2,0.3-0.5,0.9-0.9,0.8c-0.2,0-0.2-0.1-0.2-0.2c0-0.1,0-0.2,0-0.3
			c0-0.2,0-0.3,0-0.5c0.1-1.3,0.7-2.4,1.8-3.1C243.5,267.6,243.4,267.2,243.2,267.3L243.2,267.3z"/>
		<g id="freepik--Clip--inject-2">
			<g id="freepik--shadow--inject-2_4_" class="st19">
				<path d="M242.1,65.7v15.2c-0.2,4.2-2.4,8.1-6,10.3l-29.5,17c-1.5,0.8-2.3,2.5-3.2,4.3c-0.6,1.3-1.4,2.6-2.3,3.7
					c-2.3,2.6-7.3,5.3-10.8,6.4c-1.1,0.4-2.3,0.7-3.5,0.8c-0.4,0.1-0.9,0.1-1.4,0.2c-3.2,0.4-7.2,1-9.6,2.3l-34.5,19.9
					c-0.9,0.6-1.9,0.9-3,0.9c-0.7,0-1.4-0.2-2-0.5c-1.5-1-2.3-2.7-2.2-4.5v-15.2c0.2-4.2,2.4-8.1,6-10.3l11.6-6.7
					c0.1,0,0.1,0,0.2-0.1c0.6-0.3,1.3,0.1,1.6,0.7c0.2,0.5,0,1.1-0.4,1.4c0,0-0.1,0.1-0.1,0.1l-11.6,6.7c-2.8,1.8-4.5,4.9-4.7,8.2
					v15.2c-0.3,1.1,0.3,2.3,1.5,2.6c0.7,0.2,1.5,0,2-0.6l34.5-19.9c2.8-1.6,7.1-2.2,10.5-2.6c0.5-0.1,1-0.1,1.4-0.2
					c1.1-0.2,2.1-0.4,3.1-0.7c3.1-1,7.8-3.5,9.7-5.7c0.8-1,1.4-2.1,1.9-3.2c1-2,2-4.1,4.1-5.3l29.5-17c2.8-1.8,4.5-4.9,4.7-8.2V65.7
					c0.3-1.1-0.3-2.2-1.4-2.6c-0.7-0.2-1.5,0-2.1,0.6l-10,5.8c-0.3-0.8-0.8-1.5-1.3-2.1l10.1-5.8c1.9-1.5,4.7-1.2,6.3,0.7
					C242,63.2,242.3,64.5,242.1,65.7L242.1,65.7z"/>
			</g>
			<g id="freepik--clip--inject-2">
				<path class="st20" d="M220.6,66L220.6,66c1-0.5,2.2-0.4,3.1,0.3c2.6,1.7,4.2,4.5,4.4,7.6c0.1,1.1-0.4,2.2-1.3,2.8l0,0
					l-69.9,40.4l-6.2-10.7L220.6,66z"/>
				<path class="st18" d="M153.8,111.7l73-42.2c-0.7-1.3-1.8-2.5-3.1-3.3c-0.1-0.1-0.3-0.1-0.4-0.2l-71.9,41.5L153.8,111.7z"/>
				<path class="st21" d="M153.8,106.6c-2.4-1.4-4.4-0.3-4.4,2.5c0.2,3.1,1.8,5.9,4.4,7.6c2.4,1.4,4.4,0.3,4.4-2.5
					C158.1,111.1,156.4,108.3,153.8,106.6z"/>
				<path class="st18" d="M243.4,66.8V82c-0.2,4.2-2.4,8.1-6,10.3l-29.5,17c-1.5,0.8-2.3,2.5-3.2,4.3c-0.6,1.3-1.4,2.6-2.3,3.7
					c-2.3,2.6-7.3,5.3-10.8,6.4c-1.2,0.4-2.3,0.6-3.5,0.8c-0.4,0.1-0.9,0.1-1.4,0.2c-3.2,0.4-7.2,1-9.6,2.3L142.7,147
					c-0.9,0.6-1.9,0.9-3,0.9c-0.7,0-1.4-0.2-2-0.5c-1.5-1-2.3-2.7-2.2-4.5v-15.2c0.2-4.2,2.4-8.1,6-10.3l11.5-6.7l0.2-0.1
					c0.6-0.3,1.3,0.1,1.6,0.7c0.2,0.5,0,1.1-0.4,1.4c0,0-0.1,0.1-0.1,0.1l-11.6,6.7c-2.8,1.8-4.5,4.9-4.7,8.2v15.2
					c-0.3,1.1,0.3,2.3,1.5,2.6c0.7,0.2,1.5,0,2-0.6l34.5-19.9c2.8-1.6,7-2.2,10.5-2.6l1.4-0.2c1.1-0.2,2.1-0.4,3.1-0.7
					c3.1-1,7.8-3.5,9.7-5.7c0.8-1,1.4-2.1,1.9-3.2c1-2,2-4.1,4.1-5.3l29.5-17c2.8-1.8,4.5-4.9,4.7-8.2V66.8c0.3-1.1-0.3-2.2-1.4-2.6
					c-0.7-0.2-1.5,0-2.1,0.6l-10,5.8c-0.3-0.8-0.8-1.5-1.3-2.1l10.1-5.8c1.9-1.5,4.7-1.2,6.3,0.7C243.2,64.3,243.6,65.5,243.4,66.8
					L243.4,66.8z"/>
			</g>
		</g>
	</g>
</g>
<g id="freepik--clip--inject-2_2_">
	<g id="freepik--clip--inject-2_1_">
		<path class="st1" d="M276.5,438.6l-3.3,2c-1.9,1.1-4.1,1.2-6.1,0.3l-36.7-17.4l0,0c-2.1-1.2-1.9-3.1-1.6-4.9s0.4-3.3-1.1-4.2
			c-4.4-2.5-13.5-1.1-18.6,1.8s-7.6,8.2-3.1,10.7c1.6,0.9,4.4,0.8,7.3,0.6c3.2-0.1,6.5-0.3,8.6,0.9l0.1,0.1l29.8,21
			c1.8,1,1.2,2.8-0.4,3.7l-3.3,1.9l-1.9-1.1l3.3-1.9c0.7-0.4,1-1.1,0.4-1.5l-0.1-0.1l-29.8-21c-1.2-0.7-3.8-0.6-6.4-0.5
			c-3.3,0.1-7,0.3-9.4-1.1c-2.6-1.5-3.6-3.8-2.8-6.4c0.7-2.4,2.9-4.8,6-6.5c3.5-1.9,7.4-3.1,11.3-3.5c4.5-0.5,8.4,0.1,11,1.6
			c2.4,1.4,2.1,3.5,1.9,5.4c-0.2,1.5-0.4,3,0.8,3.7l36.4,17h0c0.9,0.4,1.9,0.4,2.8-0.1l3.1-1.8L276.5,438.6z"/>
		<path class="st3" d="M276.5,438.6l-3.3,2c-1.9,1.1-4.1,1.2-6.1,0.3l-36.7-17.4l0,0c-2.1-1.2-1.9-3.1-1.6-4.9s0.4-3.3-1.1-4.2
			c-4.4-2.5-13.5-1.1-18.6,1.8s-7.6,8.2-3.1,10.7c1.6,0.9,4.4,0.8,7.3,0.6c3.2-0.1,6.5-0.3,8.6,0.9l0.1,0.1l29.8,21
			c1.8,1,1.2,2.8-0.4,3.7l-3.3,1.9l-1.9-1.1l3.3-1.9c0.7-0.4,1-1.1,0.4-1.5l-0.1-0.1l-29.8-21c-1.2-0.7-3.8-0.6-6.4-0.5
			c-3.3,0.1-7,0.3-9.4-1.1c-2.6-1.5-3.6-3.8-2.8-6.4c0.7-2.4,2.9-4.8,6-6.5c3.5-1.9,7.4-3.1,11.3-3.5c4.5-0.5,8.4,0.1,11,1.6
			c2.4,1.4,2.1,3.5,1.9,5.4c-0.2,1.5-0.4,3,0.8,3.7l36.4,17h0c0.9,0.4,1.9,0.4,2.8-0.1l3.1-1.8L276.5,438.6z"/>
		<path class="st20" d="M251.6,454.3c-0.1-1.4-0.8-2.7-2-3.5c-0.4-0.3-1-0.4-1.4-0.1l-7.5,4.3l2.9,5l7.6-4.4
			C251.4,455.3,251.6,454.8,251.6,454.3z"/>
		<path class="st21" d="M242,459.8c1.1,0.6,2,0.1,2-1.2c-0.1-1.4-0.8-2.7-2-3.5c-1.1-0.6-2-0.1-2,1.2
			C240.1,457.7,240.8,459,242,459.8z"/>
		<path class="st1" d="M242.2,458.1c0.4,0.2,0.7,0,0.7-0.4c0-0.5-0.3-0.9-0.7-1.2c-0.4-0.2-0.7,0-0.7,0.4
			C241.5,457.4,241.8,457.9,242.2,458.1z"/>
		<path class="st20" d="M282.3,436.5c-0.1-1.4-0.8-2.7-2-3.5c-0.4-0.3-1-0.4-1.5-0.1l-7.5,4.3l2.9,5l7.5-4.4
			C282.2,437.5,282.4,437,282.3,436.5z"/>
		<path class="st21" d="M272.8,442c1.1,0.6,2,0.1,2-1.2c-0.1-1.4-0.8-2.7-2-3.5c-1.1-0.6-2-0.1-2,1.2
			C270.8,439.9,271.6,441.2,272.8,442z"/>
		<path class="st1" d="M273.4,440.4c0.1-0.1,0.2-0.3,0.2-0.4c0-0.5-0.3-0.9-0.7-1.2c-0.1-0.1-0.3-0.1-0.5,0l0,0l-0.9,0.5
			c-0.3,0.2-0.6,0.3-1,0.3l0.2,1.9c0.7-0.1,1.3-0.3,1.9-0.6L273.4,440.4L273.4,440.4L273.4,440.4z"/>
		<path class="st3" d="M273.4,440.4c0.1-0.1,0.2-0.3,0.2-0.4c0-0.5-0.3-0.9-0.7-1.2c-0.1-0.1-0.3-0.1-0.5,0l0,0l-0.9,0.5
			c-0.3,0.2-0.6,0.3-1,0.3l0.2,1.9c0.7-0.1,1.3-0.3,1.9-0.6L273.4,440.4L273.4,440.4L273.4,440.4z"/>
		<path class="st20" d="M267.6,442.1c0-0.9-0.7-1.4-1.1-1.2l-10.8,6.2c1-0.6,1.6,0.9,1.7,1.4c0.1,0.6,0.1,1.2,0.1,1.8
			c-0.1,0.9,0.4,1.2,1.1,0.8l6.9-4c0.7-0.5,1.2-1.2,1.5-1.9C267.4,444.2,267.6,443.1,267.6,442.1z"/>
		<polygon class="st21" points="281.9,432 241.9,455.1 224.7,445.2 224.7,430.6 264.6,407.5 258.2,422.9 		"/>
		<path class="st20" d="M264.6,407.5l-39.9,23l15.7,21.5l11.6-6.7l0.8,1c0,0,2.2,1.8,3.6,1l1-0.6l10.4-6l1-0.6
			c1.4-0.8,0.4-3.3,0.4-3.3l-0.8-1l11.9-6.9L264.6,407.5z"/>
		<path class="st1" d="M276,433.9l-3.3,1.9c-1.6,0.9-4.1,1-5.2-0.5L242,407l0,0c-1.2-1.7-0.4-4,0.4-6.1s1.5-4,0.6-5.2
			c-2.6-3.6-10.3-3-15.5,0s-8.9,9-6.3,12.5c0.9,1.3,3.2,1.4,5.6,1.6c2.6,0.2,5.3,0.4,6.5,2.1l0.1,0.1l18.9,32.1c1,1.5,0,3.5-1.6,4.4
			l-3.3,1.9l-1.1-1.5l3.3-1.9c0.7-0.4,1.2-1.3,0.8-1.8v-0.1L231.5,413c-0.8-1-2.8-1.1-5-1.3c-2.7-0.2-5.7-0.4-7.1-2.4s-1.6-5,0-8
			c1.6-3,4.1-5.5,7.1-7.2c3.1-1.8,6.6-2.8,10.2-2.8c3.8,0,6.7,1.1,8.3,3.3c1.4,2,0.5,4.5-0.4,6.8c-0.7,1.8-1.4,3.5-0.7,4.5
			l25.5,28.3l0,0c0.4,0.5,1.5,0.5,2.2,0.1l3.3-1.9L276,433.9z"/>
		<path class="st18" d="M251.6,449.2c-0.1-1.4-0.8-2.7-2-3.5c-0.4-0.3-1-0.4-1.4-0.1l-7.5,4.3l2.9,5l7.6-4.4
			C251.4,450.2,251.6,449.7,251.6,449.2z"/>
		<path class="st21" d="M242,454.7c1.1,0.6,2,0.1,2-1.2c-0.1-1.4-0.8-2.7-2-3.5c-1.1-0.6-2-0.1-2,1.2
			C240.1,452.6,240.8,453.9,242,454.7z"/>
		<path class="st1" d="M242.2,453.1c0.4,0.2,0.7,0,0.7-0.4c0-0.5-0.3-0.9-0.7-1.2c-0.4-0.2-0.7,0-0.7,0.4
			C241.5,452.4,241.8,452.8,242.2,453.1z"/>
		<path class="st18" d="M282.3,431.5c-0.1-1.4-0.8-2.7-2-3.5c-0.4-0.3-1-0.4-1.5-0.1l-7.5,4.3l2.9,5l7.5-4.4
			C282.2,432.5,282.4,432,282.3,431.5z"/>
		<path class="st21" d="M272.8,437c1.1,0.6,2,0.1,2-1.2c-0.1-1.4-0.8-2.7-2-3.5c-1.1-0.6-2-0.1-2,1.2
			C270.8,434.9,271.6,436.2,272.8,437z"/>
		<path class="st1" d="M272.9,435.3c0.4,0.2,0.7,0,0.7-0.4c0-0.5-0.3-0.9-0.7-1.2c-0.4-0.2-0.7,0-0.7,0.4
			C272.3,434.6,272.5,435.1,272.9,435.3z"/>
		<path class="st1" d="M272.4,433.7l-0.9,0.5c-0.3,0.2-0.6,0.3-1,0.3l0.2,1.9c0.7-0.1,1.3-0.3,1.9-0.6l0.7-0.4L272.4,433.7z"/>
		<path class="st18" d="M268,439.6c0,0.5-0.2,1-0.6,1.3l-10.8,6.2c0.5-0.5,0.8-1.1,0.9-1.8c0.1-0.6,0.1-1.3,0.1-1.9
			c0-0.8,0.4-1.6,1.1-2l6.9-4c0.5-0.3,1.1-0.2,1.5,0.2C267.6,438.1,267.9,438.8,268,439.6z"/>
	</g>
</g>
<g id="freepik--Character--inject-2">
	<g id="freepik--character--inject-2_1_">
		<g id="freepik--Pen--inject-2">
			<path class="st1" d="M258.8,259.3l-3.4,2.5l0,0c-1.5,1.1-4.6,4.6-3.8,5.8s5.2-0.7,6.7-1.8l3.4-2.5c-0.2-0.2-0.5-0.4-0.7-0.7l0,0
				l-0.3-0.4c-0.3-0.3-0.5-0.7-0.6-0.8C259.6,260.8,259.1,260.1,258.8,259.3"/>
			<path class="st22" d="M258.8,259.3l-3.4,2.5l0,0c-1.5,1.1-4.6,4.6-3.8,5.8s5.2-0.7,6.7-1.8l3.4-2.5c-0.2-0.2-0.5-0.4-0.7-0.7l0,0
				l-0.3-0.4c-0.3-0.3-0.5-0.7-0.6-0.8C259.6,260.8,259.1,260.1,258.8,259.3"/>
			<path class="st21" d="M253.3,268c-0.8,0.1-1.4,0.1-1.7-0.3s-0.2-0.9,0.2-1.6C251.8,267,252.4,267.7,253.3,268z"/>
			<path class="st10" d="M277.4,233.2c1.5-1.1,3.8-1.3,6.4-0.1c5.3,2.3,10,8.9,10.6,14.6c0.3,2.8-0.5,4.9-2,6.1l0,0h0l0,0
				c-5.3,3.9-21.7,11.9-30.2,11.8l0,0c-0.5,0-1-0.2-1.4-0.4c-2.1-1.1-3.6-3.1-3.9-5.4c-0.1-0.4,0-0.9,0.1-1.3l0,0
				C259.5,250.3,272.2,237,277.4,233.2z"/>
			<path class="st15" d="M280.7,229.1l1.5,2c1,0.1,1.9,0.4,2.8,0.8c5.4,2.4,10.3,9.1,10.9,14.9c0.1,1,0.1,2-0.1,2.9l1.5,2l-4.3,1.8
				l0,0c-1.9,0.7-3.9,0.5-5.7-0.4c-5.4-2.4-10.3-9.1-10.9-14.9c-0.4-2,0.1-4,1.3-5.6l0,0L280.7,229.1z"/>
			<path class="st23" d="M280.7,229.1l1.5,2c1,0.1,1.9,0.4,2.8,0.8c5.4,2.4,10.3,9.1,10.9,14.9c0.1,1,0.1,2-0.1,2.9l1.5,2l-4.3,1.8
				l0,0c-1.9,0.7-3.9,0.5-5.7-0.4c-5.4-2.4-10.3-9.1-10.9-14.9c-0.4-2,0.1-4,1.3-5.6l0,0L280.7,229.1z"/>
			<path class="st15" d="M371.6,167.6c5.9,2.6,11.2,9.9,11.9,16.2c0.3,3.2-0.5,5.5-2.2,6.8l-82.9,60.6c-1.7,1.2-4.2,1.4-7.1,0.1
				c-5.9-2.6-11.2-9.9-11.9-16.2c-0.3-3.2,0.5-5.5,2.2-6.8l82.9-60.6C366.2,166.4,368.7,166.3,371.6,167.6z"/>
			<path class="st24" d="M371.6,167.6c5.9,2.6,11.2,9.9,11.9,16.2c0.3,3.2-0.5,5.5-2.2,6.8l-82.9,60.6c-1.7,1.2-4.2,1.4-7.1,0.1
				c-5.9-2.6-11.2-9.9-11.9-16.2c-0.3-3.2,0.5-5.5,2.2-6.8l82.9-60.6C366.2,166.4,368.7,166.3,371.6,167.6z"/>
			<path class="st15" d="M374.1,190.7c-5.9-2.6-11.2-9.9-11.9-16.2c-0.3-3.2,0.5-5.5,2.2-6.8s4.2-1.4,7.1-0.1
				c5.9,2.6,11.2,9.9,11.9,16.2c0.3,3.2-0.5,5.5-2.2,6.8S377,192,374.1,190.7z"/>
			<path class="st15" d="M376.7,161.9c6.8,3,12.9,11.4,13.7,18.7c0.4,3.7-0.6,6.4-2.6,7.8l-7.1,5.2c-2,1.4-4.9,1.6-8.2,0.1
				c-6.8-3-12.9-11.4-13.7-18.7c-0.4-3.7,0.6-6.4,2.6-7.8l7.1-5.2C370.5,160.6,373.4,160.4,376.7,161.9z"/>
			<path class="st25" d="M376.7,161.9c6.8,3,12.9,11.4,13.7,18.7c0.4,3.7-0.6,6.4-2.6,7.8l-7.1,5.2c-2,1.4-4.9,1.6-8.2,0.1
				c-6.8-3-12.9-11.4-13.7-18.7c-0.4-3.7,0.6-6.4,2.6-7.8l7.1-5.2C370.5,160.6,373.4,160.4,376.7,161.9z"/>
			<path class="st15" d="M379.6,188.6c-6.8-3-12.9-11.4-13.7-18.7c-0.4-3.7,0.6-6.4,2.6-7.8s4.9-1.6,8.2-0.1
				c6.8,3,12.9,11.4,13.7,18.7c0.4,3.7-0.6,6.4-2.6,7.8S383,190.1,379.6,188.6z"/>
			<path class="st15" d="M469.8,94.2c6.6,2.9,12.5,11.1,13.3,18.2c0.4,3.6-0.6,6.2-2.5,7.6l-91.9,67.2c-1.9,1.4-4.7,1.5-8,0.1
				c-6.6-2.9-12.5-11-13.3-18.2c-0.4-3.6,0.6-6.2,2.5-7.6l91.9-67.2C463.7,92.9,466.5,92.8,469.8,94.2z"/>
			<path class="st24" d="M469.8,94.2c6.6,2.9,12.5,11.1,13.3,18.2c0.4,3.6-0.6,6.2-2.5,7.6l-91.9,67.2c-1.9,1.4-4.7,1.5-8,0.1
				c-6.6-2.9-12.5-11-13.3-18.2c-0.4-3.6,0.6-6.2,2.5-7.6l91.9-67.2C463.7,92.9,466.5,92.8,469.8,94.2z"/>
			<path class="st10" d="M461.8,94.3c6.7-5.7,16.8-5,22.6,1.7c5.7,6.7,5,16.8-1.7,22.6c-0.6,0.5-1.3,1-2,1.4l0,0
				c-1.9,1.4-4.7,1.5-8,0.1c-6.6-2.9-12.5-11-13.3-18.2C458.9,98.3,459.9,95.7,461.8,94.3L461.8,94.3z"/>
			<path class="st21" d="M469.8,140.2l-0.4-3.5l-10.4-4.4l-59.2,44.9c-1.4,1.1-2,2.3-1.9,3.4c0.1,0.6,0.4,2.8,0.4,3.4
				c0.2,1.2,1.1,2.1,2.3,2.5c3.4,1.1,7.1,0.6,10-1.4L469.8,140.2z"/>
			<path class="st20" d="M400.1,180.7c-2.7,2-2.5,4.6,0.4,5.9c3.4,1.1,7.1,0.6,10-1.4l59.2-44.9l-10.5-4.4L400.1,180.7z"/>
			<polygon class="st18" points="458,124.6 459.4,135.8 469.8,140.2 468.4,129 			"/>
			<polygon class="st21" points="458,124.6 455.7,126.3 457.1,137.6 459.4,135.8 			"/>
			<path class="st18" d="M482.8,92.3c2.3-1.7,5.5-1.2,7.2,1.1c1.7,2.3,1.2,5.5-1.1,7.2l0,0l0,0l-4.2,3.1c-0.8,0.5-1.8,0.5-2.6,0
				c-2.3-1.2-3.9-3.3-4.3-5.9c-0.2-0.9,0.1-1.8,0.8-2.5L482.8,92.3L482.8,92.3z"/>
			<path class="st20" d="M477.8,97.9c-0.2-0.9,0.1-1.8,0.8-2.5l4.2-3.1l0,0c1.4-1,3.3-1.3,5-0.6l0,0c-1.4-0.3-3.4,1.1-5.7,2.8
				s-3.3,3.6-1,7.1c1.7,2.6,3.3,2.1,4.1,1.7l-0.5,0.3c-0.8,0.5-1.8,0.5-2.6,0C479.8,102.5,478.2,100.4,477.8,97.9z"/>
		</g>
		<g id="freepik--character--inject-2">
			<g id="freepik--Bottom--inject-2">
				<path class="st20" d="M321.8,432.7c-0.8-0.1-0.9,2-0.3,3c1.5,2.8,5.6,5.9,11.7,7.2s18-0.3,21.6-0.4s9.9,1.7,13.5,2.3
					c6.5,1.1,11-0.8,13.2-2.9c0.7-0.9,1-2,0.9-3.1c-0.1-2.5-0.3-3-0.6-3L321.8,432.7z"/>
				<path class="st26" d="M381.1,428.6c0.6,3,0.8,6,0.6,9c-0.8,1.9-2.8,2.9-4.4,3.4c-4.3,1.3-8.5,1.1-13.2,0.1
					c-3-0.8-6.2-1.1-9.3-1.1c-3.7,0.2-12,1-15.7,1.1c-3.5,0-7-0.6-10.2-2c-2.5-1.1-6.2-3.7-7-5.6c-0.8-4.5-0.4-7.1,2.2-8.7
					s6.6-1.9,12-2.3c1.6-0.1,3.6-0.2,4.5-0.3c3.3-0.4,6.3-0.6,8.8-0.8c2.1,0,4.2-0.4,6.1-1.3c0.9-0.4,1.6-1.1,2-2
					c0.5-1.1,0.5-2.8,1.5-2.9c0,0,18.4,3.1,19.9,3.3C380.6,418.7,379.5,421.2,381.1,428.6z"/>
				<path class="st5" d="M339.1,422c-0.6,0.4-1,1-1.4,1.6c-0.4,0.7-0.7,1.4-0.9,2.1c-0.2,0.9,0.9,1.1,1.4,0c0.3-0.9,0.8-1.8,1.3-2.6
					c0.4-0.6,1-1,1.6-1.1l0.9-0.1C341.9,421.4,339.9,421.6,339.1,422z"/>
				<path class="st5" d="M347.5,421.1c-0.6-0.1-1.3,0.1-1.7,0.5c-0.6,0.5-1.1,1.2-1.3,2c-0.3,0.9-0.6,1.8-0.7,2.8
					c-0.1,0.6,1.4,0.6,1.5-0.1c0.2-0.9,0.4-1.7,0.7-2.5c0.2-0.4,0.9-2,1.9-2.2h0.5c0-0.2-0.3-0.4-0.5-0.4
					C347.7,421.1,347.6,421.1,347.5,421.1z"/>
				<path class="st5" d="M352.3,420.9c-0.4,0.1-0.8,0.3-1.1,0.6c-0.3,0.4-0.6,0.9-0.8,1.5c-0.3,1-0.4,2-0.4,3c0,0.8,1.4,0.6,1.4,0
					c0.1-1.6,0.1-2.7,0.9-3.9c0.3-0.5,0.7-1,1.2-1.3c0-0.1-0.3-0.1-0.4-0.1C353,420.8,352.6,420.9,352.3,420.9z"/>
				<path class="st27" d="M380.7,398.7c0,0-1.6,17-2,20.9c-0.1,1.3-2.5,1.8-3.7,2.3c-1.5,0.6-2.9,1.4-4.2,2.4
					c-3.1,3.1-5.4,3.8-7.3-1.6c-0.4-1.1-1.1-1.6-2.5-1.3c-1,0.4-2.1,0.5-3.2,0.5c-0.2-0.1-0.1-0.4,0-0.5c1-1.2,1.4-2.8,1.1-4.3
					c-0.5-6.9-0.8-13.9-1.2-20.9L380.7,398.7z"/>
				<path class="st27" d="M450.5,385.1c-2.2-3.5-5.6-12.9-8.4-22.9l-20.8,9.6c0,0,12.7,23.1,14.2,25.2
					C437.9,400.4,450.5,385.1,450.5,385.1z"/>
				<path class="st26" d="M457.4,392.6c0-0.2,0.1-1.9,0-2.1c-0.5-1.8-1.6-2.3-3-3.3c-1.4-1-2.7-2.1-3.9-3.3c-0.5-0.6-0.6-1-1.3-1.3
					c-1.3-0.5-3.3-0.5-5.7,0.8c-4.1,2.1-5.3,4.7-5.1,7.5c0.2,2.1,0.4,5-1.5,6.2c-0.8,0.5-2.6-2.1-2.6-2.1c-1.1,1.9,1.1,3.8,2,7.7
					c0.5,2.2,0.5,4.4,0.1,6.6c-0.4,3.4-0.9,3.4-2.7,3.7c-1.6,0.2-6-0.1-8.7,1.8c-3.7,2.6-2.7,6.1-2.7,6.1c0.5,1.3,4.5,7.7,19.4,5.3
					c4.3-0.7,13.4-7.5,13.2-8.1c-0.1-0.6-0.1-1.3,0-1.9c0-1.5,0.1-3,0.2-4.6c-0.1-1.5,0-2.9,0.3-4.3c0.3-1.2,0.5-2.4,0.5-3.6
					c0.3-3,0.6-6.1,0.9-9.1C456.7,393.6,457.5,393.4,457.4,392.6z"/>
				<path d="M459.3,392c1.5,1.4,0.6,5.5-1.4,10.5c-0.9,2.2-2.5,6-2,10s0.6,5.9-0.5,7.8c-1.6,2.9-10.3,6.7-15.3,7.9
					c3.1-4.3,4.9-9.4,5.2-14.7c0.5-8.9,1.2-14.5,5.2-18.5C455.5,389.9,459.3,392,459.3,392z"/>
				<path class="st28" d="M422.1,420.9c0,0,3,5.6,14.5,5.4c4.5-0.1,7-2.3,7.1-9.2c0.1-8.3,0.8-16.6,3.5-20.8s7-6.1,10.3-5.8
					c0.8,0.2,1.4,0.8,1.8,1.5c0,0-3.3-1.1-8.5,3.2c-3.8,3.2-4.8,9.8-4.8,18c0,3.5,0.2,7.5-0.8,10.2c-1,2.4-3,4.2-5.5,4.8
					c-6.3,1.8-14.8-1.1-17-3.8C422,423.4,421.8,422.1,422.1,420.9z"/>
				<path class="st5" d="M435.9,411.5c-0.5,0.3-0.8,0.8-0.9,1.4c-0.1,1.4,0.6,2.8,1.8,3.6c0.7,0.4,1.3,0.3,0.2-1.2
					C436.3,414.1,435.9,412.8,435.9,411.5z"/>
				<path class="st5" d="M436.6,407.2c0,0-0.4,0.2-0.5,1.4c0,0.6,0.9,3.1,2.1,3.7s0.5-0.8,0-1.5
					C437.4,409.7,436.8,408.5,436.6,407.2z"/>
				<path class="st5" d="M436.2,402.4c0,0-0.4,0.1,0,1.7c0.6,1,1.4,1.8,2.5,2.2c0.8,0.1,1.2-0.3,0.2-1
					C438.1,404.8,436.3,403.2,436.2,402.4z"/>
				<path class="st26" d="M427,382.8c0,0-10.2-17.8-25.6-44.8c-2.4-3.8-4-8-4.8-12.4c-1-4.5-6.4-27.2-6.4-27.2l-5.7,36.9
					c0.8,3.9,2,10,2,14.5c0,6.1-0.8,15.3-2.5,27.9c-2.6,19.2-3.9,29.4-3.9,29.4c-1.4,1-3,2.3-12.5,2.2c-4.7-0.1-9.6-2.7-9.6-2.7
					s-1.7-19.9-2.4-33.8c-0.6-12.8-1.7-27.3-2.2-35.1c-1-14.5-1.4-20.8-1.5-43.7c-0.1-23.8,1.7-58.7,1.7-58.7h66.9
					c0,0,5,8.4,3.6,28.8c0.5,20,2.3,56.5,2.3,56.5c4.5,5.3,7.7,11.7,10.8,23.1c3.5,12.7,5.6,20,8.3,29.3
					C440.2,372.8,429,379,427,382.8z"/>
				<path class="st13" d="M390.2,298.6l3.7-26.4c0,0,8.7-0.7,19.3-9.4c0,0-1.4,7.8-16.3,13.2l-3.6,25.5l2.7,21.6
					C396,323.2,390.2,299.1,390.2,298.6z"/>
			</g>
			<g id="freepik--Top--inject-2">
				<polygon class="st27" points="377.9,141.1 381.7,157.6 401.9,154.6 399.4,136.8 				"/>
				<path class="st29" d="M364.6,114.5c-1.8,3.2-3.4,6.6-4.7,10l3.9,1.9L364.6,114.5z"/>
				<path class="st27" d="M374.1,95.6c-7.1,0.4-9.3,7.5-10.3,23c-0.9,15,1,19.3,2.9,21.4c4.4,2.5,8.9,3,15.1,1.4
					c4.7-1.2,16.6-4.6,21.8-12c6-8.7,7.9-20.8,1.8-25.8C396.7,96.4,377.9,95.4,374.1,95.6z"/>
				<path class="st30" d="M368.9,129.7c-0.1,0-0.2,0.1-0.2,0.1c0,0.1-0.1,0.1-0.1,0.2c-0.1,0.1-0.2,0.2-0.3,0.3
					c-0.2,0.2-0.4,0.4-0.7,0.6c-0.5,0.3-1,0.5-1.5,0.6c0,0-0.1,0-0.1,0.1c0,0,0,0.1,0,0.1c0.1,0.1,0.3,0.1,0.4,0.1
					c0.1,0,0.3,0,0.4-0.1c0.3-0.1,0.6-0.2,0.9-0.3c0.3-0.2,0.5-0.3,0.8-0.6c0.1-0.1,0.2-0.2,0.3-0.3c0-0.1,0.1-0.1,0.1-0.2
					c0.1-0.1,0.1-0.2,0.1-0.4C369,129.9,369,129.7,368.9,129.7z"/>
				<path class="st29" d="M366.7,140c1.1,1.1,7.6,3,11.5,2.7l-0.6-2.7C374,140.4,370.4,140.5,366.7,140z"/>
				<path class="st21" d="M373.5,106.2c-0.1,1.2,0.2,2.4,0.8,3.4c0.9,1.4,2.3,2.5,3.9,2.9c-1,1.9-1.6,4-1.7,6.2
					c-0.1,0.7,0.1,1.4,0.4,2c0.3,0.6,1.1,0.9,1.7,0.6c0.3-0.1,0.5-0.3,0.6-0.6c0.5-1.2,1.2-2.2,2-3.2c1-1.2,2.4-1.9,3.9-2.1
					c5.7-0.5,5.5,7.2,3.2,10.2c-3.8,5-6.8,1.7-6.8,1.7s-2.1,7.7,3.3,11.1c0,0,8.7,2.2,14.8-0.8c4-5.9,8.7-9.8,11.2-14.7
					c6-11.8,3.8-21.3-1.6-23.5c-0.6-4.8-5-7.9-9.2-9.6c-5.8-2.2-11.5-0.4-17.4-0.6c-3-0.1-6-0.8-8.7-2.3c-1.2-0.6-2.7-1.4-3.8-0.7
					c-0.4,0.3-0.8,0.8-1,1.3c-0.7,1.8-0.6,3.8,0.3,5.5c-1.5-1.2-4.3-0.7-5.9,0.5c-2.3,1.8-2.7,3.9-2,6.9
					C362,102.5,365.5,108.4,373.5,106.2z"/>
				<path class="st21" d="M408.8,100.7l5.5-3.1c-0.8-1.5-2.8-2.1-4.3-1.2S407.9,99.1,408.8,100.7L408.8,100.7z"/>
				<path class="st18" d="M406.6,147.4c9.5,0,13.1,2.1,16.1,5.6s17.1,26.1,20.8,36.9c1.7,5.1,1.3,7-3.1,12.2s-20.8,22.2-20.8,22.2
					l-8.2-12.4l10.5-15.3L408,171.7L406.6,147.4z"/>
				<path class="st31" d="M415.9,149.4c5.9,2.9,9.7,10.8,8.9,22.8c-0.7,11.1-1.4,17.9-2.9,29.6c-0.7,7.3-0.9,14.6-0.6,21.9
					c0.3,5.8,1,11.6,1.9,17.3c0,0-6.1,10.1-27,12c-25.3,2.2-43.1-6-43.1-6s0.5-7.1,0.4-16.3c0-8.3-0.6-18.4-0.3-26.6
					c0.6-18.8,0.9-34.4,3-41.1c1.6-3.7,2.9-5.4,7.1-6.9c2.9-1.1,16.1-4.7,21.3-5.8C401.9,146.6,409.7,146.4,415.9,149.4z"/>
				<path class="st18" d="M374.4,152.9c2.6,0.7,4,2.2,8,3.1c6,1.4,12.3,0.9,18-1.3c3.7-1.6,4.7-4,4.7-4s-2.2-6.2-3-7.4
					c-0.4-0.7-1.2-1.1-2-1.1l0.2,1.6c0,0,0.6,1.2-5,2.6s-13.5,1.1-16.2,0.3l-0.3-1.5c-1.4,0.4-2.2,1.5-3.8,3.7c-1.1,1.5-2.1,3-3,4.6
					L374.4,152.9z"/>
				<path class="st27" d="M295.6,226.6c-5.7,1-8.5,2.8-11.2,3c-1.3,0.1-2.6,0.1-3.9-0.1l-3.2,3.9c0,0-1.5-8.9,0.2-12.1
					s3-1.2,4.1-3.2s1-3.5,3.3-4.2s1.9-2.8,5.4-3.2s17.1,2.5,17.1,2.5L295.6,226.6z"/>
				<path class="st18" d="M364.9,155.6c-8,1.3-12.6,3.3-19.2,15.7c-6.9,13-16.9,30.1-16.9,30.1l-30.1,7.3c-7,0.6-13.1,14-7,19.6
					c0,0,26.9-1.2,35.6-1.5c14.9-0.6,15-1.6,21-9.7s17.5-28.7,17.5-28.7S378.2,167.8,364.9,155.6z"/>
			</g>
		</g>
	</g>
</g>
<g id="freepik--speech-bubble--inject-2_2_">
	<g id="freepik--speech-bubble--inject-2_1_">
		<g id="freepik--speech-bubble--inject-2">
			<path class="st15" d="M383.9,74.4l5.5-3.2c0.1,0,0.2-0.1,0.3-0.2l1-1.8l-2.8-1.6h-0.4L383.9,74.4z"/>
			<path class="st32" d="M383.9,74.4l5.5-3.2c0.1,0,0.2-0.1,0.3-0.2l1-1.8l-2.8-1.6h-0.4L383.9,74.4z"/>
			<path class="st5" d="M414.4,45l-46.9-27.1c-0.8-0.4-1.7-0.7-2.7-0.6c-0.9,0-1.8,0.2-2.6,0.6l-0.6,0.4c-1.6,1-2.5,2.7-2.6,4.6v25
				c0,1.7,0,3.1,2.4,4.4L379,62.5l4,11.6c0.1,0.2,0.3,0.4,0.5,0.4c0.2,0,0.4-0.1,0.5-0.3l3.8-6.6l0,0l20.7,12
				c0.8,0.4,1.7,0.6,2.7,0.6c0.9,0,1.8-0.2,2.6-0.6l0.6-0.3c1.6-1,2.5-2.7,2.6-4.6v-25C417,47.8,416,46,414.4,45z"/>
			<path class="st15" d="M359.1,22.1c0.3-1.1,1.3-1.5,2.6-0.8l46.9,27.1c0.8,0.5,1.4,1.2,1.9,2l5.9-3.4c-0.4-0.8-1.1-1.5-1.9-2
				l-46.9-27.1c-1.7-0.8-3.6-0.8-5.3,0l-0.6,0.4C360.3,19.1,359.4,20.5,359.1,22.1z"/>
			<path class="st16" d="M359.1,22.1c0.3-1.1,1.3-1.5,2.6-0.8l46.9,27.1c0.8,0.5,1.4,1.2,1.9,2l5.9-3.4c-0.4-0.8-1.1-1.5-1.9-2
				l-46.9-27.1c-1.7-0.8-3.6-0.8-5.3,0l-0.6,0.4C360.3,19.1,359.4,20.5,359.1,22.1z"/>
			<path class="st15" d="M417.1,74.7c-0.1,1.9-1.1,3.6-2.6,4.6l-0.6,0.3c-1.5,0.8-3.3,0.8-4.9,0.2c1.3,0.5,2.2-0.2,2.2-1.8v-25
				c0-0.9-0.3-1.8-0.8-2.6l5.9-3.5c0.5,0.8,0.7,1.7,0.8,2.6V74.7z"/>
			<path class="st17" d="M417.1,74.7c-0.1,1.9-1.1,3.6-2.6,4.6l-0.6,0.3c-1.5,0.8-3.3,0.8-4.9,0.2c1.3,0.5,2.2-0.2,2.2-1.8v-25
				c0-0.9-0.3-1.8-0.8-2.6l5.9-3.5c0.5,0.8,0.7,1.7,0.8,2.6V74.7z"/>
			<path class="st17" d="M360.5,21.9c0.2,0,0.5,0.1,0.7,0.2l46.9,27.1c0.6,0.4,1.1,1,1.5,1.6c0.4,0.6,0.6,1.3,0.6,2.1v25
				c0,0.3-0.1,0.9-0.5,0.9c-0.1,0-0.2,0-0.3,0h-0.1l0,0l-0.3-0.2l-20.7-12l-0.9-0.5l-0.5,0.9l-3.3,5.7L380,62.2l-0.1-0.3l-0.3-0.2
				l-17.7-10.2c-1.9-1.1-1.9-2-1.9-3.5v-25c0-0.2,0-0.3,0-0.5l0,0C360.1,22,360.3,22,360.5,21.9 M360.4,21c-0.7,0-1.2,0.5-1.4,1.1
				c0-0.2,0.1-0.4,0.1-0.6c-0.1,0.4-0.2,0.9-0.2,1.3v25c0,1.7,0,3.1,2.4,4.4L379,62.5l4,11.6c0.1,0.2,0.3,0.4,0.5,0.4
				c0.2,0,0.4-0.1,0.5-0.3l3.8-6.6l20.7,12c0.1,0.1,0.3,0.2,0.5,0.2c0.1,0,0.1,0,0.2,0.1c0.2,0.1,0.4,0.1,0.5,0.1
				c0.9,0,1.5-0.7,1.5-1.9V53c-0.1-1.9-1.1-3.6-2.6-4.6l-46.9-27.1C361.3,21.1,360.9,21,360.4,21L360.4,21z"/>
		</g>
		<path class="st16" d="M402.2,61.7c-0.1,0.4-0.4,0.7-0.7,1c-0.3,0.2-0.7,0.4-1.1,0.3c-0.5,0-0.9-0.2-1.3-0.4
			c-0.5-0.3-0.9-0.7-1.3-1.1c-0.4-0.5-0.8-1-1.1-1.6c-0.3-0.6-0.5-1.2-0.7-1.8c-0.2-0.6-0.3-1.3-0.3-1.9c0-0.5,0.1-1.1,0.3-1.6
			c0.1-0.4,0.4-0.7,0.7-1c0.3-0.2,0.7-0.3,1.1-0.3c0.5,0,0.9,0.2,1.3,0.4c0.5,0.3,0.9,0.7,1.3,1.1c0.4,0.5,0.8,1,1.1,1.6
			c0.3,0.6,0.5,1.2,0.7,1.8c0.2,0.6,0.2,1.3,0.3,1.9C402.5,60.6,402.4,61.2,402.2,61.7z"/>
		<path class="st16" d="M389.2,54.1c-0.1,0.4-0.4,0.7-0.7,1c-0.3,0.2-0.7,0.3-1.1,0.3c-0.5,0-0.9-0.2-1.3-0.4
			c-0.5-0.3-0.9-0.7-1.3-1.1c-0.4-0.5-0.8-1-1.1-1.6c-0.3-0.6-0.5-1.2-0.7-1.8c-0.2-0.6-0.3-1.3-0.3-1.9c0-0.5,0.1-1.1,0.2-1.6
			c0.1-0.4,0.4-0.7,0.7-1c0.3-0.2,0.7-0.3,1.1-0.3c0.5,0,0.9,0.2,1.3,0.4c0.5,0.3,0.9,0.7,1.3,1.1c0.4,0.5,0.8,1,1.1,1.6
			c0.3,0.6,0.5,1.2,0.7,1.8c0.2,0.6,0.2,1.2,0.3,1.9C389.4,53.1,389.4,53.6,389.2,54.1z"/>
		<path class="st16" d="M376.1,46.6c-0.1,0.4-0.4,0.7-0.7,1c-0.3,0.2-0.7,0.3-1.1,0.3c-0.5,0-0.9-0.2-1.3-0.4
			c-0.5-0.3-0.9-0.7-1.3-1.1c-0.4-0.5-0.8-1-1.1-1.6c-0.3-0.6-0.5-1.2-0.7-1.8c-0.2-0.6-0.2-1.3-0.3-1.9c0-0.5,0.1-1.1,0.3-1.6
			c0.1-0.4,0.4-0.7,0.7-1c0.3-0.2,0.7-0.4,1.1-0.3c0.5,0,0.9,0.2,1.3,0.4c0.5,0.3,0.9,0.7,1.3,1.1c0.4,0.5,0.8,1,1.1,1.6
			c0.3,0.6,0.5,1.2,0.7,1.8c0.2,0.6,0.3,1.2,0.3,1.9C376.4,45.5,376.3,46.1,376.1,46.6z"/>
	</g>
</g>
</svg>
