<?xml version="1.0" encoding="utf-8"?>
<!-- Generator: Adobe Illustrator 24.1.1, SVG Export Plug-In . SVG Version: 6.00 Build 0)  -->
<svg version="1.1" id="Layer_1" xmlns="http://www.w3.org/2000/svg" xmlns:xlink="http://www.w3.org/1999/xlink" x="0px" y="0px"
	 viewBox="0 0 500 500" style="enable-background:new 0 0 500 500;" xml:space="preserve">
<style type="text/css">
	.st0{opacity:0.15;}
	.st1{fill:#801B12;}
	.st2{fill:#263238;}
	.st3{fill:none;stroke:#263238;stroke-linecap:round;stroke-linejoin:round;}
	.st4{fill:#FFFFFF;stroke:#263238;stroke-linecap:round;stroke-linejoin:round;}
	.st5{fill:#263238;stroke:#263238;stroke-linecap:round;stroke-linejoin:round;}
	.st6{fill:#B0B0B0;stroke:#263238;stroke-linecap:round;stroke-linejoin:round;}
	.st7{fill:#FFFFFF;stroke:#263238;stroke-miterlimit:10;}
	.st8{fill:#707070;stroke:#263238;stroke-linecap:round;stroke-linejoin:round;}
	.st9{fill:#263238;stroke:#263238;stroke-miterlimit:10;}
	.st10{fill:none;stroke:#263238;stroke-miterlimit:10;}
	.st11{fill:none;stroke:#263238;stroke-width:0.75;stroke-linecap:round;stroke-linejoin:round;}
	.st12{fill:#00005C;}
	.st13{fill:#DBDBDB;}
	.st14{fill:none;stroke:#FFFFFF;stroke-linecap:round;stroke-linejoin:round;}
	.st15{fill:#A1A1A1;stroke:#263238;stroke-linecap:round;stroke-linejoin:round;}
	.st16{fill:#919191;}
</style>
<g id="freepik--background-simple--inject-2" class="st0">
	<path class="st1" d="M450.8,282.7c-13.6,35.4-41.3,73.7-80.3,85c-58.9,17.1-66,63.4-171.5,59.1c-15.4-0.6-30.7-2.7-45.6-6.5
		c-7.3-1.9-14.5-4.2-21.5-7C70.3,389,38.1,335.5,35.4,279.5c-3.5-73.7,49.3-108.8,83.6-129.4s75.6-100.2,179.4-96.8
		c15.8,0.5,31.6,2.7,46.9,6.7c34.9,9.2,70.4,29.6,91.1,59.3c1.5,2.2,3,4.5,4.4,6.9C468.5,171.8,469.3,234.4,450.8,282.7z"/>
</g>
<g id="freepik--magnifying-glass--inject-2">
	<path class="st2" d="M163.7,426.4l-12.4-10.9c-0.9-0.8-2.2-1-3.3-0.5l-3.6-3.1c-0.2-0.2-0.4-0.3-0.6-0.3c5.6-6.5,4.7-16.4-1.8-21.9
		s-16.4-4.7-21.9,1.8c-5.6,6.5-4.7,16.4,1.8,21.9c5.9,5,14.5,4.9,20.3-0.2c0.1,0.3,0.2,0.5,0.4,0.7l3.6,3.1c-0.3,1.2,0.1,2.4,1,3.2
		l12.4,10.9c1.3,1.2,3.3,1,4.5-0.3C165.2,429.5,165.1,427.5,163.7,426.4L163.7,426.4z M132,415.3c-7.5,0-13.6-6.1-13.6-13.5
		c0-7.5,6.1-13.6,13.5-13.6s13.6,6.1,13.6,13.5c0,0,0,0,0,0C145.5,409.2,139.5,415.2,132,415.3z"/>
</g>
<g id="freepik--people-icons--inject-2">
	<path class="st3" d="M244.8,48.5c0,2.6-1.6,4.7-3.7,4.7s-3.7-2.1-3.7-4.7s1.6-4.7,3.7-4.7S244.8,45.8,244.8,48.5z"/>
	<path class="st3" d="M248.6,64h-15.4l0.9-6.7c0.2-1.7,1.7-3.1,3.5-3.1h6.7c1.8,0,3.2,1.3,3.5,3.1L248.6,64z"/>
	<path class="st3" d="M262,48.5c0,2.6-1.6,4.7-3.7,4.7s-3.7-2.1-3.7-4.7s1.6-4.7,3.7-4.7S262,45.8,262,48.5z"/>
	<path class="st3" d="M265.8,64h-15.4l0.9-6.7c0.2-1.7,1.7-3.1,3.5-3.1h6.7c1.8,0,3.2,1.3,3.5,3.1L265.8,64z"/>
	<path class="st1" d="M279.3,48.5c0,2.6-1.6,4.7-3.7,4.7s-3.7-2.1-3.7-4.7s1.6-4.7,3.7-4.7S279.3,45.8,279.3,48.5z"/>
	<path class="st1" d="M283,64h-15.3l0.9-6.7c0.2-1.8,1.7-3.1,3.5-3.1h6.7c1.8,0,3.3,1.3,3.5,3.1L283,64z"/>
	<path class="st3" d="M296.5,48.5c0,2.6-1.6,4.7-3.7,4.7s-3.7-2.1-3.7-4.7s1.6-4.7,3.7-4.7S296.5,45.8,296.5,48.5z"/>
	<path class="st3" d="M300.3,64h-15.4l0.9-6.7c0.2-1.8,1.7-3.1,3.5-3.1h6.7c1.8,0,3.3,1.3,3.5,3.1L300.3,64z"/>
	<path class="st3" d="M313.7,48.5c0,2.6-1.6,4.7-3.7,4.7s-3.7-2.1-3.7-4.7s1.6-4.7,3.7-4.7S313.7,45.8,313.7,48.5z"/>
	<path class="st3" d="M317.5,64h-15.4l0.9-6.7c0.2-1.7,1.7-3.1,3.5-3.1h6.7c1.8,0,3.3,1.3,3.5,3.1L317.5,64z"/>
	<path class="st3" d="M331,48.5c0,2.6-1.6,4.7-3.7,4.7s-3.7-2.1-3.7-4.7s1.6-4.7,3.7-4.7S331,45.8,331,48.5z"/>
	<path class="st3" d="M334.8,64h-15.4l0.9-6.7c0.2-1.7,1.7-3.1,3.5-3.1h6.7c1.8,0,3.2,1.3,3.5,3.1L334.8,64z"/>
</g>
<g id="freepik--Chart--inject-2">
	<path class="st1" d="M121.5,75.2c0,0.3,0,0.5,0,0.8c-0.2,10.8-9.1,19.4-19.9,19.2C90.8,94.9,82.2,86,82.4,75.2s9.1-19.4,19.9-19.2
		C112.8,56.2,121.3,64.7,121.5,75.2z"/>
	<path class="st4" d="M101.8,55.5v20.8h19.6c0-0.1,0-0.2,0-0.3s0-0.5,0-0.8C121.5,64.3,112.7,55.5,101.8,55.5z"/>
	<path class="st3" d="M147.8,51c0,2.6-1.6,4.7-3.7,4.7s-3.7-2.1-3.7-4.7s1.6-4.7,3.7-4.7S147.8,48.3,147.8,51z"/>
	<path class="st3" d="M151.6,66.4h-15.4l0.9-6.7c0.2-1.8,1.7-3.1,3.5-3.1h6.7c1.8,0,3.3,1.3,3.5,3.1L151.6,66.4z"/>
	<path class="st3" d="M74,89.2c0,2.6-1.7,4.7-3.7,4.7s-3.7-2.1-3.7-4.7s1.6-4.7,3.7-4.7S74,86.6,74,89.2z"/>
	<path class="st3" d="M77.8,104.7H62.4l0.9-6.7c0.2-1.7,1.7-3,3.5-3h6.7c1.7,0,3.2,1.3,3.5,3L77.8,104.7z"/>
	<polyline class="st3" points="117.4,63 122.2,58.3 135.4,58.3 	"/>
	<polyline class="st3" points="99.5,95 99.5,103.2 81.8,103.2 	"/>
</g>
<g id="freepik--Plant--inject-2">
	<path class="st1" d="M463.6,281.3c0,0,0.8-8.2-2.5-11.9s-8.2,0.8-7,5.7S463.6,281.3,463.6,281.3z"/>
	<path class="st1" d="M454.2,317.8c0,0,1.3-12.8-3.8-18.5s-12.8,1.3-10.9,8.9S454.2,317.8,454.2,317.8z"/>
	<path class="st1" d="M451.4,338.5c0,0-1.4-12.8-7.6-17.3s-12.2,3.9-8.8,11S451.4,338.5,451.4,338.5z"/>
	<path class="st1" d="M464.4,349.1c-7.5,1.5-14.3,12.4-14.3,12.4s11.3,6.3,17.5,1.3S472,347.7,464.4,349.1z"/>
	<path class="st1" d="M466.9,368.4c-10.8,2.1-20.5,17.7-20.5,17.7s16.2,8.9,25,1.9S477.7,366.3,466.9,368.4z"/>
	<path class="st1" d="M446.2,384.5c0.2-0.3,0.5-0.7,0.6-1.1c1.4-2.8,1.6-6.1,0.5-9c0.6-4.7,1.1-8.6,1.5-10.3
		c0.2-0.7,0.3-1.5,0.5-2.3h0.5c0,0-0.1-0.6-0.2-1.6c0.9-4.8,1.7-10.9,2.8-18.2c0.1-1,0.3-2,0.4-3c2.9,1.4,11.4,4.8,16.4,0.8
		c6.2-4.9,4.4-15.1-3.2-13.7c-5.5,1-10.5,7-12.9,10.3c0.7-4.6,1.4-9.6,2.2-14.8c0.1-0.9,0.3-1.8,0.5-2.7c2.9,2.1,10,6.6,15.5,3.9
		c7.1-3.5,7.4-13.9-0.3-14.1c-5.5-0.1-11.7,4.7-14.7,7.4c1.1-5.5,2.6-11.8,4.3-18c1.8,1.3,6.5,4.4,10.1,2.6c4.5-2.3,4.8-8.9-0.2-9
		c-3.6-0.1-7.6,3-9.5,4.8c1.3-5,2.7-9.8,3.9-14.1c2,1.4,6.3,3.9,9.6,2.3c4.5-2.3,4.8-8.9-0.2-9c-3.1-0.1-6.6,2.3-8.7,4.1
		c1.8-6.2,3.2-10.8,3.6-12c1.8-1.2,7.4-5,8.3-7.3c1.2-2.7,0.1-5.9-2.6-7.1s-5.9-0.1-7.1,2.6c-0.1,0.2-0.1,0.3-0.2,0.5
		c-0.9,2.2,0.3,8.3,0.8,10.7l-0.3-0.1c0,0.1-1.9,6.1-4.3,14.3l-0.1,0.1l0.1,0.1c-1.3,4.5-2.7,9.5-4.1,14.8c0.1-2.5-0.1-7.8-2.5-10.5
		c-3.3-3.7-8.2,0.8-7,5.7c1.1,4.4,7.8,5.8,9.2,6.1c-1.8,7-3.6,14.2-4.7,20.1l-0.3,0.3l0.2,0.1c-0.2,1.2-0.4,2.3-0.6,3.4
		c-1.2,7.4-2.2,14.3-3,20.4c-0.8,5.7-1.5,10.7-2.2,14.9c-1-4.1-3-9.6-6.6-12.3c-1.3-1.1-3.1-1.5-4.8-1.1c0.3-4.9-3.8-9.1-8-6
		c-5.1,3.7-6.3,14.2-6.3,14.2c3.2,0.1,6.3-0.4,9.3-1.5c-0.2,1.8,0.1,3.7,1,5.3c-1,0.1-1.9,0.4-2.7,1c-1.3,1-2.3,2.3-3.1,3.7
		c-1.2,0.4-2.2,1.1-3.1,2c-0.4-2.4-0.7-5-1.1-7.9c-0.7-5-1.5-10.7-2.5-16.8c-0.1-0.9-0.3-1.8-0.5-2.8l0.1-0.1l-0.2-0.2
		c-0.9-4.9-2.4-10.8-3.9-16.5c1.1-0.2,6.6-1.4,7.5-5c1-4-3-7.7-5.7-4.7c-2,2.3-2.1,6.6-2.1,8.7c-1.1-4.3-2.3-8.5-3.4-12.1l0.1-0.1
		l-0.1-0.1c-2-6.8-3.5-11.7-3.5-11.8l-0.3,0.1c0.4-2,1.4-7,0.7-8.8c-0.9-2.2-3.5-3.3-5.7-2.4s-3.3,3.5-2.4,5.7l0,0
		c0.8,1.9,5.3,5,6.8,6c0.3,1,1.5,4.8,2.9,9.9c-1.7-1.4-4.5-3.4-7.1-3.3c-4,0.1-3.9,5.6-0.1,7.4c2.7,1.4,6.2-0.7,7.9-1.9
		c1,3.5,2.1,7.5,3.2,11.6c-1.6-1.4-4.8-4-7.8-3.9c-4,0.1-3.9,5.5-0.1,7.4c3,1.5,6.8-1,8.3-2.1c1.3,5.1,2.6,10.3,3.5,14.8
		c-2.5-2.2-7.5-6.1-12.1-6c-6.3,0.1-6,8.7-0.2,11.6c4.5,2.3,10.4-1.5,12.7-3.2c0.1,0.8,0.3,1.5,0.4,2.3c0.7,4.3,1.3,8.4,1.8,12.1
		c-2-2.7-6.1-7.6-10.6-8.5c-6.2-1.2-7.7,7.2-2.6,11.3c4.1,3.3,11.1,0.5,13.5-0.7c0.1,0.8,0.2,1.7,0.4,2.5c0.5,3.2,0.9,6.2,1.3,8.8
		c-0.9,1.2-1.6,2.5-2,3.9c-2.2-2.7-5.6-6-9.3-6.7c-6.2-1.2-7.7,7.2-2.6,11.3c3.2,2.6,8.1,1.4,11.3,0.3c0.1,1.9,0.6,3.7,1.4,5.4
		c0.9,1.8,2.3,3.4,4,4.6c0.8,6.7,1.7,15.4,2.3,21.3h-9.5v40.2h37.4v-40.3h-12.4C444.8,398.3,445.5,391.3,446.2,384.5z M448,361.7
		c-0.1,0.7-0.3,1.4-0.4,2.1c-0.3,1.5-0.8,4.6-1.2,8.5c-1.2-1.9-3.1-3.1-5.3-3.3c-0.8-1.5-1.7-3-2.7-4.4c0.6-1.5,0.7-3.2,0.3-4.8
		C441.5,361.1,444.8,361.7,448,361.7z M427.8,382.6c0.5,0.3,0.9,0.5,1.4,0.8c-0.4,1.3-0.7,2.5-0.9,3.6
		C428.1,385.5,428,384,427.8,382.6z M428.7,390.8c2.9,0,11.3-0.3,15.9-4.5h0.1c-0.7,6.2-1.3,12.4-1.7,16.8h-13
		C429.6,399.7,429.2,395.3,428.7,390.8z"/>
	<path class="st1" d="M420.9,299.4c1-4-3-7.8-5.7-4.7s-2,9.8-2,9.8S419.9,303.5,420.9,299.4z"/>
	<path class="st1" d="M420.9,334.5c0,0,10.5-1.6,12.1-7.9s-4.7-12.1-8.9-7.4S420.9,334.5,420.9,334.5z"/>
	<path class="st1" d="M410.5,376.1c-8.9-1.7-11,10.3-3.7,16.1s20.6-1.6,20.6-1.6S419.3,377.8,410.5,376.1z"/>
</g>
<g id="freepik--Device--inject-2">
	<path class="st5" d="M130.2,114h304.6c5.2,0,9.5,4.3,9.5,9.5v240.2c0,5.2-4.3,9.5-9.5,9.5H130.2c-5.2,0-9.5-4.3-9.5-9.5V123.5
		C120.7,118.3,124.9,114,130.2,114z"/>
	<rect x="225" y="188.2" class="st6" width="97" height="255.1"/>
	<rect x="225" y="184.9" class="st5" width="97" height="199.7"/>
	<rect x="198.1" y="433.5" class="st6" width="150.8" height="9.8"/>
	<path class="st6" d="M120.4,114h306.2c5.2,0,9.5,4.3,9.5,9.5v240.2c0,5.2-4.3,9.5-9.5,9.5H120.4c-5.2,0-9.5-4.3-9.5-9.5V123.5
		C110.9,118.3,115.2,114,120.4,114z"/>
	<rect x="121.9" y="122.8" class="st7" width="303.2" height="241.7"/>
	<rect x="121.9" y="352.9" class="st8" width="303.2" height="11.6"/>
	<rect x="121.9" y="122.8" class="st1" width="303.2" height="16.9"/>
</g>
<g id="freepik--Floor--inject-2">
	<line class="st3" x1="381.2" y1="443.3" x2="479.1" y2="443.3"/>
	<line class="st3" x1="31.8" y1="443.3" x2="377.3" y2="443.3"/>
</g>
<g id="freepik--Character--inject-2">
	<path class="st7" d="M88.3,443.3H51.9c0,0-0.1-1.2-0.2-3.1c-0.3-4.5-0.4-12.7,1.9-15.9c3.2-4.5,18.1,3.5,18.1,3.5s6.8,6.2,10.6,7.8
		s4.9,0.5,5.4,3.3c0.1,0.5,0.2,0.9,0.2,1.3C88.2,441.3,88.3,442.3,88.3,443.3z"/>
	<path class="st7" d="M88.3,443.3H51.9c0,0-0.1-1.2-0.2-3.1H88C88.2,441.3,88.3,442.3,88.3,443.3z"/>
	<path class="st9" d="M55.3,292.9l2.2,57c0,0-7,15.8-5.1,28.2s-0.6,52.5-0.6,52.5s0.6,1.9,8.2,1.9s8.9-5.4,8.9-5.4s6.3-72.1,7-77.5
		s7.9-55.1,7.9-55.1L55.3,292.9z"/>
	<path class="st7" d="M98.1,443.3H61.7c0,0-0.1-1.2-0.2-3.1c-0.3-4.5-0.4-12.7,1.9-15.9c3.2-4.5,18.1,3.5,18.1,3.5s6.8,6.2,10.6,7.8
		s4.9,0.5,5.4,3.3c0.1,0.5,0.2,0.9,0.2,1.3C98,441.3,98.1,442.3,98.1,443.3z"/>
	<path class="st7" d="M98.1,443.3H61.7c0,0-0.1-1.2-0.2-3.1h36.3C98,441.3,98.1,442.3,98.1,443.3z"/>
	<path class="st9" d="M86.2,291.1c0,0,3.3,22.4,2.2,32.7s-2.7,46.2-4.9,60.9s-3.8,37.6-3.8,37.6l1.7,1.3v4.4c0,0-7.4,1.7-10.4,2.2
		c-2.1,0.3-5.9,0.7-8.3,0.9c-0.7,0.1-1.4-0.5-1.5-1.2c0-0.1,0-0.3,0-0.4l1-4.9l1.1-5.9c0,0-6.1-37.7-5-44.2s4.9-21.7,4.9-23.4
		s-5.4-29.9-6.5-34.8s-5.4-17.9-5.4-25S86.2,291.1,86.2,291.1z"/>
	<path class="st7" d="M78.6,217c0,0,7.9,11.1,10.3,13.3s10.3,6.5,10.1,10s-1.1,7.6-5.4,9.5S80,245.5,80,245.5L78.6,217z"/>
	<path class="st7" d="M90.6,231.1c0,0-2.7,7.1-3,9.8s-0.6,7.3,1.6,9.2c2.1,1.7,4.6,2.8,7.3,3c1.6,0,2.2-10.9,2.4-12.8s1.9-6,0.3-7.9
		S92.8,230.3,90.6,231.1z"/>
	<path class="st7" d="M96.3,206.5c-1.9,0.8-4-0.8-5.1-2.5s-2-3.8-3.8-4.8c-0.6-0.3-1.3-0.6-1.5-1.1c-0.5-1,0.7-2.1,1.8-2.1
		s4.3,2.6,5.4,3c3.6,1.2,5.3-2.9,9-2.6c0.5,0,0.9,0.1,1.3,0.4c0.4,0.4,0.6,4.2,0.7,4.7c0.7,6.6-0.1,10.1-0.1,22.7
		c0,4.8,0.3,13,0.2,20.7c0,3.1-0.3,4.9-4.9,7.4s-8.8-5.2-8.9-7.3c-0.2-3.3,1.2-7.1,1.9-10.2C93.7,227.8,96.2,213.5,96.3,206.5z"/>
	<path class="st7" d="M94.5,195.5c0,0-0.2-0.3-0.5-0.7c-0.7-0.9-2-2.4-3-2.4c-1.4,0.1-5.9,3.1-4.9,4.4s4.8-1.6,4.8-1.6l2.4,4.4
		l3.7-0.5L94.5,195.5z"/>
	<path class="st7" d="M95.1,195c0,0-2.2,1-2,4.7s1.9,4.1,2.6,3.7c1.7-0.5,3.4-0.9,5.1-1.1c0.7-0.1,1.3-0.7,1.5-1.4
		c0.2-0.8,0.5-2.1,1-4.2C104.6,192,95.1,195,95.1,195z"/>
	<path class="st10" d="M96.7,194.8c-1.1,2.6-1.1,5.5-0.1,8.1"/>
	<path class="st10" d="M100.1,194.2c0,0-1.7,5.1-0.4,8.2"/>
	<path class="st10" d="M97.6,204.8c0,0,0.1,0.6,1.8,1.5s3.4-0.4,3.8-0.4"/>
	<path class="st7" d="M64.2,188.5l-0.7,13.4l14.4,9l4.1-17.9l-11.5-25c0,0-3.2-1.9-5.8,3.6s0.2,10.9,0.2,10.9L64.2,188.5z"/>
	<path class="st9" d="M88.7,165.5l4.2,10.9l-2.8,1.9c0,0,2.6,11.9,1,14.3S79.5,194.3,78,194s-8.3-20.7-8.3-20.7s-0.4-3.2-2.8-0.4
		s2.4,8.3,2.4,8.3l-5.1,7.3c0,0-14.8-12.1-14.2-19.1s8-15.9,23.5-18.5S95,160,93.5,162.7C92.4,164.3,90.6,165.4,88.7,165.5z"/>
	<path class="st7" d="M88.3,182.7c-1.8,0.5-1.7,4.4-1.7,4.4c0.9,0.3,1.8,0.2,2.6-0.2c0.7-0.3,1.4-0.8,2.1-1.3
		c-0.2-1.3-0.3-2.5-0.6-3.7C90,182.2,89.1,182.5,88.3,182.7z"/>
	<path class="st7" d="M77.2,169.6c-0.5,1.9-5.4,3.7-5.4,3.7l1.3,2.8c0,0,4,8.9,5.7,10.5s4.1,0.9,3.4,0.1s0.6-4,3.4-5.9
		c1.4-1,3-1.7,4.6-2.3c0-0.3-0.1-0.4-0.1-0.4l2.8-1.9l-4.2-10.9l-11.1-1.7C77.6,165.7,77.5,167.7,77.2,169.6z"/>
	<path class="st2" d="M87,172.1c0.2,1.1,0,2-0.5,2.1s-0.9-0.8-1-1.9s0-2,0.5-2.1S86.8,171.1,87,172.1z"/>
	<path class="st11" d="M86.9,167.8c0,0-1.6-1.5-2.9-0.1c-0.7,0.6-0.9,1.7-0.5,2.6"/>
	<path class="st7" d="M64.6,197.7c0,0-10.7,10.3-12.6,15.9s-4.3,54.4-3.3,62.6s2.1,18.3,2.1,18.3s2.8,3.2,9.3,3.6
		c27.7,2.1,26.3-6.9,26.3-6.9s-0.2-57.9-1.1-64.6s-8.8-19.6-12.3-22.8C70.3,201.5,67.5,199.5,64.6,197.7z"/>
	<path class="st12" d="M77.5,213.4l6.2,11.1c0,0,2.6-2.9,1.6-5.2S77.5,213.4,77.5,213.4z"/>
	<polygon class="st12" points="83.7,224.5 81.3,275 86.5,285.8 89.8,272.6 85,223.5 	"/>
	<polygon class="st7" points="61.8,193.3 82.4,211.2 81.7,217.4 59.5,201.1 	"/>
	<path class="st7" d="M58.6,261.6l25.4,43.2c0,0,3.8,9.6,4.7,9.9s6.5,0.9,6.5,0.9l2.8,1.1c0,0,1.9,0.8,2.1-0.4s-1.6-10.6-2.5-10.9
		s-7.3-3-7.3-3L72.5,256L58.6,261.6z"/>
	<path class="st7" d="M60.4,212.9c0,0-7.1,4.6-7.4,12.6c-0.2,5.5,0.6,10.9,2.3,16.1c0.7,1.8-1.6,5,0.3,7.6s3.9,10.8,3.9,10.8
		l12.5-2.7c0,0-2.4-5.7-1-7.3s3.2-2.9,3.1-6.6c-0.2-3,0.1-6,0.8-8.9C75.4,233,75.7,212.1,60.4,212.9z"/>
	<path class="st7" d="M56.3,256.5l2.4,6l15.1-3.5l-1.6-7.6C72.3,251.4,59.2,253.6,56.3,256.5z"/>
</g>
<g id="freepik--profile-3--inject-2">
	<rect x="290.8" y="207.9" class="st12" width="124.3" height="138.9"/>
	<rect x="285.8" y="201.3" class="st4" width="126.3" height="142.1"/>
	<rect x="314.2" y="201.3" class="st4" width="97.9" height="142.1"/>
	<rect x="285.8" y="201.3" class="st12" width="126.3" height="9.6"/>
	<rect x="319.6" y="215.7" class="st1" width="24.8" height="30.3"/>
	<path class="st5" d="M324.6,224.8c0,0,0.5,8.3-0.5,8.8c-0.6,0.3-1.3,0.5-2,0.4c0.8,1.5,2.1,2.7,3.7,3.3c2.6,0.9,4.6-1.5,4.6-1.5
		l-2.8-11.4L324.6,224.8z"/>
	<polygon class="st4" points="319.6,246 323.3,238.1 334.2,236.5 341.8,240.4 344.5,246 	"/>
	<polygon class="st4" points="325.4,238.1 327,243.8 335.5,237.9 332.5,235.5 	"/>
	<polygon class="st4" points="334.8,232.8 334.2,236.5 327.6,241.2 326.8,236.7 	"/>
	<path class="st4" d="M324.7,227c0,0-0.4,8.5,2.4,10.1s8.5-3.6,9.1-4.2s4.1-1.5,4.1-4.3s-2.1-2.1-2.1-2.1s1.3-3.7,0.6-5.2
		s-9.5-2-12.3-0.3S324.7,227,324.7,227z"/>
	<path class="st5" d="M333.4,224.8c-0.9,0.9-0.9,2.4,0,3.3c1.1,1.7,1.6,3.7,1.3,5.7c-0.2,1.3-2.2,1.6-2.2,1.6s0.5,1.1,2.9,1.8
		s6.2,0.3,7.5-3.4s-1.8-11.3-2.9-13.3s-7.5-3.7-11.7-2.8s-5.9,3.5-5.5,5.1s1.5,2.6,4.2,2.6C329.1,225.5,331.3,225.3,333.4,224.8z"/>
	<path class="st3" d="M325.7,227.1c0.6-0.3,1.3-0.1,1.8,0.3"/>
	<polyline class="st3" points="327.6,228.9 327,231.8 328.9,231.6 	"/>
	<path class="st2" d="M330.8,229.2c0,0.4-0.2,0.8-0.5,0.8s-0.4-0.3-0.4-0.8s0.2-0.8,0.4-0.8S330.8,228.8,330.8,229.2z"/>
	<path class="st2" d="M326.9,228.9c0,0.4-0.2,0.8-0.4,0.8s-0.4-0.3-0.4-0.8s0.2-0.8,0.4-0.8S326.9,228.5,326.9,228.9z"/>
	<path class="st3" d="M329.4,227.4c0.8-0.1,1.7,0,2.4,0.4"/>
	<path class="st3" d="M327,234.1c1.3,0.3,2.6,0,3.7-0.7"/>
	<rect x="350.5" y="215.5" class="st4" width="56" height="11.1"/>
	<polygon class="st1" points="360,216.6 360.9,219.4 363.8,219.4 361.5,221.1 362.4,223.8 360,222.1 357.7,223.8 358.6,221.1 
		356.3,219.4 359.1,219.4 	"/>
	<polygon class="st1" points="370.1,216.6 371,219.4 373.8,219.4 371.5,221.1 372.4,223.8 370.1,222.1 367.7,223.8 368.6,221.1 
		366.3,219.4 369.2,219.4 	"/>
	<polygon class="st1" points="380.1,216.6 381,219.4 383.9,219.4 381.5,221.1 382.4,223.8 380.1,222.1 377.8,223.8 378.7,221.1 
		376.3,219.4 379.2,219.4 	"/>
	<polygon class="st13" points="390.1,216.6 391,219.4 393.9,219.4 391.6,221.1 392.5,223.8 390.1,222.1 387.8,223.8 388.7,221.1 
		386.4,219.4 389.3,219.4 	"/>
	<polygon class="st13" points="400.2,216.6 401.1,219.4 404,219.4 401.6,221.1 402.5,223.8 400.2,222.1 397.9,223.8 398.7,221.1 
		396.4,219.4 399.3,219.4 	"/>
	<rect x="350.5" y="232.1" class="st4" width="56" height="61.6"/>
	<rect x="350.5" y="298.4" class="st4" width="56" height="41"/>
	<line class="st3" x1="320.6" y1="253.7" x2="342.4" y2="253.7"/>
	<line class="st3" x1="320.6" y1="278.9" x2="342.4" y2="278.9"/>
	<line class="st3" x1="288.2" y1="252.6" x2="309.9" y2="252.6"/>
	<line class="st3" x1="288.2" y1="227.7" x2="309.9" y2="227.7"/>
	<line class="st3" x1="288.2" y1="219" x2="309.9" y2="219"/>
	<line class="st3" x1="320.6" y1="286.3" x2="342.4" y2="286.3"/>
	<line class="st3" x1="320.6" y1="293.6" x2="342.4" y2="293.6"/>
	<line class="st3" x1="320.6" y1="301" x2="342.4" y2="301"/>
	<line class="st3" x1="320.6" y1="308.4" x2="342.4" y2="308.4"/>
	<line class="st3" x1="320.6" y1="315.8" x2="342.4" y2="315.8"/>
	<line class="st3" x1="320.6" y1="323.1" x2="342.4" y2="323.1"/>
	<line class="st3" x1="320.6" y1="330.5" x2="342.4" y2="330.5"/>
	<line class="st3" x1="320.6" y1="256.6" x2="335" y2="256.6"/>
	<rect x="314.7" y="264.2" class="st1" width="35.8" height="9.5"/>
	<rect x="286.3" y="234.7" class="st1" width="28" height="9.5"/>
	<line class="st3" x1="354.2" y1="237.4" x2="381.5" y2="237.4"/>
	<line class="st3" x1="354.2" y1="306.8" x2="381.5" y2="306.8"/>
	<line class="st3" x1="354.2" y1="247.9" x2="369.4" y2="247.9"/>
	<line class="st3" x1="354.2" y1="255.2" x2="369.4" y2="255.2"/>
	<line class="st3" x1="354.2" y1="262.6" x2="369.4" y2="262.6"/>
	<line class="st3" x1="354.2" y1="270" x2="369.4" y2="270"/>
	<line class="st3" x1="354.2" y1="277.3" x2="369.4" y2="277.3"/>
	<line class="st3" x1="354.2" y1="284.7" x2="369.4" y2="284.7"/>
	<line class="st3" x1="376.3" y1="247.9" x2="391.5" y2="247.9"/>
	<line class="st3" x1="376.3" y1="255.2" x2="391.5" y2="255.2"/>
	<line class="st3" x1="376.3" y1="262.6" x2="391.5" y2="262.6"/>
	<line class="st3" x1="376.3" y1="270" x2="391.5" y2="270"/>
	<line class="st3" x1="376.3" y1="277.3" x2="391.5" y2="277.3"/>
	<line class="st3" x1="376.3" y1="284.7" x2="391.5" y2="284.7"/>
	<line class="st3" x1="354.2" y1="240.5" x2="393.1" y2="240.5"/>
	<rect x="350.5" y="312.1" class="st12" width="55.8" height="3.2"/>
	<line class="st14" x1="305.8" y1="203.7" x2="305.8" y2="208.4"/>
	<line class="st14" x1="335.4" y1="203.7" x2="335.4" y2="208.4"/>
	<line class="st14" x1="365.1" y1="203.7" x2="365.1" y2="208.4"/>
	<line class="st14" x1="394.7" y1="203.7" x2="394.7" y2="208.4"/>
</g>
<g id="freepik--profile-1--inject-2">
	<rect x="139.5" y="165.2" class="st12" width="124.3" height="138.9"/>
	<rect x="134.4" y="158.1" class="st4" width="126.3" height="142.1"/>
	<rect x="162.8" y="158.1" class="st4" width="97.9" height="142.1"/>
	<rect x="134.4" y="158.1" class="st12" width="126.3" height="9.6"/>
	<rect x="168.3" y="172.6" class="st1" width="24.8" height="30.3"/>
	<polygon class="st4" points="168.3,202.8 172,194.9 182.9,193.3 190.4,197.2 193.1,202.8 	"/>
	<polygon class="st4" points="174,194.9 175.6,200.6 184.2,194.7 181.1,192.3 	"/>
	<polygon class="st15" points="183.5,189.6 182.9,193.3 176.3,198 175.5,193.5 	"/>
	<path class="st2" d="M173.4,183.1c-1-1.3-1.3-2.9-0.9-4.5c0.8-2.5,4.2-4.5,8.9-4.5c3.8-0.2,7.1,2.4,7.8,6.1
		c0.7,3.1-2.2,7.4-3.1,7.7s-1.2,0.8-2,0.3s-1-7.2-2.7-7.6s-6.3,0.3-6.3,0.3L173.4,183.1z"/>
	<path class="st15" d="M173.4,183.8c0,0-0.4,8.5,2.4,10s8.5-3.6,9.1-4.2s2.6-0.5,2.6-3.3s-2.9-1.5-2.9-1.5s-1.9-0.6-2.1-1.5
		s1.2-2.1,0.9-2.9c-0.6-1.5-4.9-3.7-7.7-2S173.4,183.8,173.4,183.8z"/>
	<path class="st3" d="M174.4,183.9c0.6-0.3,1.3-0.1,1.8,0.3"/>
	<polyline class="st3" points="176.3,185.7 175.7,188.6 177.6,188.4 	"/>
	<path class="st2" d="M179.4,186.1c0,0.4-0.2,0.8-0.4,0.8s-0.4-0.3-0.4-0.8s0.2-0.8,0.4-0.8S179.4,185.7,179.4,186.1z"/>
	<path class="st2" d="M175.6,185.7c0,0.4-0.2,0.8-0.4,0.8s-0.4-0.3-0.4-0.8s0.2-0.8,0.4-0.8S175.6,185.3,175.6,185.7z"/>
	<path class="st3" d="M178.1,184.3c0.8-0.1,1.7,0,2.4,0.4"/>
	<path class="st3" d="M175.7,190.9c0,0,2.3,0.5,3.7-0.7"/>
	<rect x="199.2" y="172.4" class="st4" width="56" height="11.1"/>
	<polygon class="st1" points="205.7,174 206.6,176.8 209.5,176.8 207.2,178.5 208.1,181.2 205.7,179.5 203.4,181.2 204.3,178.5 
		202,176.8 204.8,176.8 	"/>
	<polygon class="st16" points="215.8,174 216.7,176.8 219.5,176.8 217.2,178.5 218.1,181.2 215.8,179.5 213.4,181.2 214.3,178.5 
		212,176.8 214.9,176.8 	"/>
	<polygon class="st16" points="225.8,174 226.7,176.8 229.6,176.8 227.3,178.5 228.1,181.2 225.8,179.5 223.5,181.2 224.4,178.5 
		222,176.8 224.9,176.8 	"/>
	<polygon class="st16" points="235.9,174 236.7,176.8 239.6,176.8 237.3,178.5 238.2,181.2 235.9,179.5 233.5,181.2 234.4,178.5 
		232.1,176.8 235,176.8 	"/>
	<polygon class="st16" points="245.9,174 246.8,176.8 249.7,176.8 247.3,178.5 248.2,181.2 245.9,179.5 243.6,181.2 244.4,178.5 
		242.1,176.8 245,176.8 	"/>
	<rect x="199.2" y="188.9" class="st4" width="56" height="61.6"/>
	<rect x="199.2" y="255.2" class="st4" width="56" height="41"/>
	<line class="st3" x1="169.3" y1="210.5" x2="191.1" y2="210.5"/>
	<line class="st3" x1="169.3" y1="235.8" x2="191.1" y2="235.8"/>
	<line class="st3" x1="136.8" y1="209.4" x2="158.6" y2="209.4"/>
	<line class="st3" x1="136.8" y1="184.5" x2="158.6" y2="184.5"/>
	<line class="st3" x1="136.8" y1="175.9" x2="158.6" y2="175.9"/>
	<line class="st3" x1="169.3" y1="243.1" x2="191.1" y2="243.1"/>
	<line class="st3" x1="169.3" y1="250.5" x2="191.1" y2="250.5"/>
	<line class="st3" x1="169.3" y1="257.9" x2="191.1" y2="257.9"/>
	<line class="st3" x1="169.3" y1="265.2" x2="191.1" y2="265.2"/>
	<line class="st3" x1="169.3" y1="272.6" x2="191.1" y2="272.6"/>
	<line class="st3" x1="169.3" y1="280" x2="191.1" y2="280"/>
	<line class="st3" x1="169.3" y1="287.3" x2="191.1" y2="287.3"/>
	<line class="st3" x1="169.3" y1="213.5" x2="183.7" y2="213.5"/>
	<rect x="163.4" y="221" class="st1" width="35.8" height="9.5"/>
	<rect x="135" y="191.6" class="st1" width="28.1" height="9.5"/>
	<line class="st3" x1="202.8" y1="194.2" x2="230.2" y2="194.2"/>
	<line class="st3" x1="202.8" y1="263.6" x2="230.2" y2="263.6"/>
	<line class="st3" x1="202.8" y1="204.7" x2="218.1" y2="204.7"/>
	<line class="st3" x1="202.8" y1="212.1" x2="218.1" y2="212.1"/>
	<line class="st3" x1="202.8" y1="219.4" x2="218.1" y2="219.4"/>
	<line class="st3" x1="202.8" y1="226.8" x2="218.1" y2="226.8"/>
	<line class="st3" x1="202.8" y1="234.2" x2="218.1" y2="234.2"/>
	<line class="st3" x1="202.8" y1="241.6" x2="218.1" y2="241.6"/>
	<line class="st3" x1="224.9" y1="204.7" x2="240.2" y2="204.7"/>
	<line class="st3" x1="224.9" y1="212.1" x2="240.2" y2="212.1"/>
	<line class="st3" x1="224.9" y1="219.4" x2="240.2" y2="219.4"/>
	<line class="st3" x1="224.9" y1="226.8" x2="240.2" y2="226.8"/>
	<line class="st3" x1="224.9" y1="234.2" x2="240.2" y2="234.2"/>
	<line class="st3" x1="224.9" y1="241.6" x2="240.2" y2="241.6"/>
	<line class="st3" x1="202.8" y1="197.4" x2="241.8" y2="197.4"/>
	<rect x="199.2" y="268.9" class="st12" width="55.8" height="3.2"/>
	<line class="st14" x1="154.4" y1="160.5" x2="154.4" y2="165.3"/>
	<line class="st14" x1="184.1" y1="160.5" x2="184.1" y2="165.3"/>
	<line class="st14" x1="213.7" y1="160.5" x2="213.7" y2="165.3"/>
	<line class="st14" x1="243.4" y1="160.5" x2="243.4" y2="165.3"/>
</g>
<g id="freepik--profile-2--inject-2">
	<rect x="223.3" y="114.8" class="st5" width="122.5" height="113.7"/>
	<rect x="217.1" y="84.3" class="st4" width="126.3" height="142.1"/>
	<rect x="245.5" y="84.3" class="st4" width="97.9" height="142.1"/>
	<rect x="217.1" y="84.3" class="st12" width="126.3" height="9.6"/>
	<rect x="250.9" y="98.8" class="st1" width="24.8" height="30.3"/>
	<polygon class="st5" points="250.9,129 255.1,122 267.1,120.2 275.6,124.5 275.8,129 	"/>
	<polygon class="st4" points="267.8,116.1 267.1,120.2 259.9,125.4 259,120.4 	"/>
	<path class="st4" d="M257.4,109.3c0,0-1.8,10.5,1.1,12.1s10.5-5.2,11.2-5.9s4.3-1.6,4.3-4.6s-2.3-2.3-2.3-2.3s1.4-3.9,0.7-5.5
		s-13-2.7-16-0.9S257.4,109.3,257.4,109.3z"/>
	<path class="st5" d="M272.4,103.1c-0.7-1.6-13-2.7-16-0.9s0.9,7.1,0.9,7.1s1.4,0.9,5,0s6.1-1.8,6.1-1.8s-3,3.4-1.6,3.7l1.4,0.2
		l0.5,2.5l3-5.2C271.7,108.6,273.1,104.7,272.4,103.1z"/>
	<polyline class="st3" points="259.9,111.8 258.9,116.6 260.9,116.4 	"/>
	<path class="st2" d="M263.3,112.2c0,0.5-0.2,0.8-0.5,0.8s-0.5-0.4-0.5-0.8s0.2-0.8,0.5-0.8S263.3,111.7,263.3,112.2z"/>
	<path class="st2" d="M259.1,111.8c0,0.5-0.2,0.8-0.5,0.8s-0.5-0.4-0.5-0.8s0.2-0.8,0.5-0.8S259.1,111.3,259.1,111.8z"/>
	<path class="st3" d="M261.9,110.1c0.9-0.1,1.9,0,2.7,0.5"/>
	<path class="st3" d="M259.2,117.6c0,0,2.6,0.6,4.2-0.8"/>
	<rect x="281.8" y="98.6" class="st4" width="56" height="11.1"/>
	<polygon class="st1" points="289.8,100.2 290.7,102.9 293.6,102.9 291.2,104.6 292.1,107.3 289.8,105.6 287.5,107.3 288.4,104.6 
		286,102.9 288.9,102.9 	"/>
	<polygon class="st1" points="299.8,100.2 300.7,102.9 303.6,102.9 301.3,104.6 302.2,107.3 299.8,105.6 297.5,107.3 298.4,104.6 
		296.1,102.9 299,102.9 	"/>
	<polygon class="st1" points="309.9,100.2 310.8,102.9 313.6,102.9 311.3,104.6 312.2,107.3 309.9,105.6 307.5,107.3 308.4,104.6 
		306.1,102.9 309,102.9 	"/>
	<polygon class="st1" points="319.9,100.2 320.8,102.9 323.7,102.9 321.4,104.6 322.3,107.3 319.9,105.6 317.6,107.3 318.5,104.6 
		316.1,102.9 319,102.9 	"/>
	<polygon class="st13" points="330,100.2 330.9,102.9 333.7,102.9 331.4,104.6 332.3,107.3 330,105.6 327.6,107.3 328.5,104.6 
		326.2,102.9 329.1,102.9 	"/>
	<rect x="281.8" y="115.1" class="st4" width="56" height="61.6"/>
	<rect x="281.8" y="181.4" class="st4" width="56" height="41"/>
	<line class="st3" x1="251.9" y1="136.7" x2="273.7" y2="136.7"/>
	<line class="st3" x1="251.9" y1="162" x2="273.7" y2="162"/>
	<line class="st3" x1="219.5" y1="135.6" x2="241.3" y2="135.6"/>
	<line class="st3" x1="219.5" y1="110.7" x2="241.3" y2="110.7"/>
	<line class="st3" x1="219.5" y1="102.1" x2="241.3" y2="102.1"/>
	<line class="st3" x1="251.9" y1="169.3" x2="273.7" y2="169.3"/>
	<line class="st3" x1="251.9" y1="176.7" x2="273.7" y2="176.7"/>
	<line class="st3" x1="251.9" y1="184.1" x2="273.7" y2="184.1"/>
	<line class="st3" x1="251.9" y1="191.4" x2="273.7" y2="191.4"/>
	<line class="st3" x1="251.9" y1="198.8" x2="273.7" y2="198.8"/>
	<line class="st3" x1="251.9" y1="206.1" x2="273.7" y2="206.1"/>
	<line class="st3" x1="251.9" y1="213.5" x2="273.7" y2="213.5"/>
	<line class="st3" x1="251.9" y1="139.7" x2="266.4" y2="139.7"/>
	<rect x="246" y="147.2" class="st1" width="35.8" height="9.5"/>
	<rect x="217.6" y="117.8" class="st1" width="28.1" height="9.5"/>
	<line class="st3" x1="285.5" y1="120.4" x2="312.9" y2="120.4"/>
	<line class="st3" x1="285.5" y1="189.8" x2="312.9" y2="189.8"/>
	<line class="st3" x1="285.5" y1="130.9" x2="300.8" y2="130.9"/>
	<line class="st3" x1="285.5" y1="138.3" x2="300.8" y2="138.3"/>
	<line class="st3" x1="285.5" y1="145.6" x2="300.8" y2="145.6"/>
	<line class="st3" x1="285.5" y1="153" x2="300.8" y2="153"/>
	<line class="st3" x1="285.5" y1="160.4" x2="300.8" y2="160.4"/>
	<line class="st3" x1="285.5" y1="167.7" x2="300.8" y2="167.7"/>
	<line class="st3" x1="307.6" y1="130.9" x2="322.9" y2="130.9"/>
	<line class="st3" x1="307.6" y1="138.3" x2="322.9" y2="138.3"/>
	<line class="st3" x1="307.6" y1="145.6" x2="322.9" y2="145.6"/>
	<line class="st3" x1="307.6" y1="153" x2="322.9" y2="153"/>
	<line class="st3" x1="307.6" y1="160.4" x2="322.9" y2="160.4"/>
	<line class="st3" x1="307.6" y1="167.7" x2="322.9" y2="167.7"/>
	<line class="st3" x1="285.5" y1="123.6" x2="324.4" y2="123.6"/>
	<rect x="281.8" y="195.1" class="st5" width="55.8" height="3.2"/>
	<line class="st14" x1="237.1" y1="86.7" x2="237.1" y2="91.4"/>
	<line class="st14" x1="266.7" y1="86.7" x2="266.7" y2="91.4"/>
	<line class="st14" x1="296.4" y1="86.7" x2="296.4" y2="91.4"/>
	<line class="st14" x1="326" y1="86.7" x2="326" y2="91.4"/>
</g>
</svg>
