<?xml version="1.0" encoding="utf-8"?>
<!-- Generator: Adobe Illustrator 24.1.1, SVG Export Plug-In . SVG Version: 6.00 Build 0)  -->
<svg version="1.1" id="Layer_1" xmlns="http://www.w3.org/2000/svg" xmlns:xlink="http://www.w3.org/1999/xlink" x="0px" y="0px"
	 viewBox="0 0 500 500" style="enable-background:new 0 0 500 500;" xml:space="preserve">
<style type="text/css">
	.st0{fill:#FAFAFA;}
	.st1{fill:#EBEBEB;}
	.st2{fill:#E6E6E6;}
	.st3{fill:#E0E0E0;}
	.st4{fill:#F0F0F0;}
	.st5{fill:#455A64;}
	.st6{fill:#37474F;}
	.st7{fill:#801B12;}
	.st8{opacity:0.2;enable-background:new    ;}
	.st9{opacity:0.15;enable-background:new    ;}
	.st10{opacity:0.25;fill:#FFFFFF;enable-background:new    ;}
	.st11{fill:#BA68C8;}
	.st12{fill:#A33D38;}
	.st13{opacity:0.55;fill:#FFFFFF;enable-background:new    ;}
	.st14{fill:#00005C;}
	.st15{display:none;opacity:0.2;fill:#FFFFFF;enable-background:new    ;}
	.st16{opacity:0.1;enable-background:new    ;}
	.st17{fill:#5A5AAF;}
	.st18{opacity:0.55;}
	.st19{fill:#FFFFFF;}
	.st20{opacity:0.3;enable-background:new    ;}
	.st21{opacity:0.5;}
	.st22{opacity:0.5;fill:#801B12;}
	.st23{fill:#263238;}
	.st24{fill:#FFC4C3;}
	.st25{fill:#FFA8A7;}
	.st26{fill:#B16668;}
	.st27{fill:#F28F8F;}
	.st28{fill:#965D4A;}
	.st29{fill:#2A2A2A;}
	.st30{fill:#783F2D;}
	.st31{fill:#F0997A;}
	.st32{fill:#9A4A4D;}
	.st33{fill:#FFBDA7;}
	.st34{fill:#C8856A;}
	.st35{fill:#AF6152;}
</style>
<g id="freepik--Floor--inject-5">
	<path id="freepik--floor--inject-5" class="st0" d="M85,447.4C-6.1,394.8-6.1,309.5,85,257s238.8-52.6,329.9,0s91.1,137.9,0,190.5
		S176.1,500,85,447.4z"/>
</g>
<g id="freepik--Clouds--inject-5">
	<g id="freepik--clouds--inject-5">
		<path class="st1" d="M364.1,30l8.2,4.7c0-0.4-0.1-0.7-0.1-1.1v-2.4c0-4.2,3-6,6.6-3.8c1.6,1,3,2.3,4,3.8c0.6-5.3,4.8-7.3,9.9-4.4
			c5.5,3.2,9.9,10.9,9.9,17.2v3.6c0,1.4-0.2,2.8-0.8,4.1l6.8,3.9c2.2,1.4,3.5,3.8,3.7,6.4c0,2.4-1.6,3.3-3.7,2.1l-44.6-25.7
			c-2.2-1.4-3.5-3.8-3.7-6.4C360.4,29.8,362.1,28.9,364.1,30z"/>
		<path class="st1" d="M476.2,64.9l-4.4-3.4v-9.8c0-7.7-6.2-16.7-12.9-20.5l0,0c-6.7-3.9-12.1-0.7-12.1,7v1.4
			c-1.4-2.3-3.3-4.2-5.6-5.6l0,0c-4.8-2.8-8.7-0.5-8.7,5v0.6l-6.2-3.6c-3.2-1.8-5.7-0.3-5.7,3.3c0.2,4,2.4,7.7,5.7,9.9l49.9,28.8
			c3.2,1.8,5.7,0.3,5.7-3.3C481.7,70.8,479.6,67.1,476.2,64.9z"/>
	</g>
</g>
<g id="freepik--Shadows--inject-5">
	<path id="freepik--Shadow--inject-5" class="st2" d="M245.8,350.9l-11.5-6.6c-2.7-1.4-5.8-1.3-8.4,0.2l-59.3,38.2
		c-11.6-6.8-27.6-10.9-45.2-10.9c-35.3,0-64,16.7-64,37.3s28.6,37.4,64,37.4s64-16.7,64-37.4c0-6.6-2.9-12.8-8.1-18.2l68.4-35.3
		C248.1,354.4,248.2,352.2,245.8,350.9z"/>
	<ellipse id="freepik--shadow--inject-5" class="st2" cx="290.3" cy="430.7" rx="80.1" ry="46.3"/>
</g>
<g id="freepik--speech-bubble--inject-5_1_">
	<g id="freepik--speech-bubble--inject-5">
		<g id="freepik--Bubble--inject-5">
			<path class="st1" d="M218.9,21.8c-3.5-2-8.4-1.7-13.7,1.4c-10.7,6.2-19.4,21.3-19.4,33.7c0,6.2,2.2,10.5,5.7,12.6l6.6,3.8
				c3.5,2,8.4,1.7,13.7-1.4c10.7-6.2,19.4-21.3,19.4-33.7c0-6.2-2.2-10.5-5.7-12.6C224.1,24.8,220.4,22.6,218.9,21.8z"/>
			<path class="st3" d="M201,73.5c-1.2,2-2.9,3.6-4.9,4.8c-2.2,1.3-4.7,1.9-7.3,1.8c-0.1,0-0.2,0-0.3-0.1l-6.6-3.8
				c-0.3-0.2-0.4-0.6-0.2-0.9c0.1-0.1,0.1-0.2,0.2-0.2c3.4-1.8,5.7-5.3,6.1-9.1L201,73.5z"/>
			<path class="st0" d="M188.9,79.7c-0.1,0-0.2-0.1-0.2-0.1c0-0.1,0-0.2,0.1-0.2c3.5-1.9,5.9-5.5,6.3-9.5v-0.2l-0.1-0.1
				c-1.5-2.7-2.3-5.8-2.1-8.9c0-12.2,8.6-27.2,19.2-33.3c2.5-1.6,5.5-2.5,8.4-2.6c6.3,0,10.3,5.1,10.3,13.4
				c0,12.2-8.6,27.2-19.2,33.3c-2.5,1.6-5.4,2.5-8.4,2.6c-0.8,0-1.7-0.1-2.5-0.3l-0.3-0.1l-0.2,0.3c-1.1,1.6-2.6,3-4.3,4
				c-2.1,1.2-4.5,1.8-6.9,1.8H188.9z"/>
			<path class="st3" d="M220.5,25.3c6.1,0,9.8,5,9.8,12.9c0,12.1-8.5,26.8-19,32.9c-2.5,1.5-5.3,2.4-8.2,2.5c-0.8,0-1.6-0.1-2.4-0.3
				l-0.6-0.2l-0.4,0.5c-1.1,1.5-2.5,2.9-4.1,3.8c-1.8,1-3.8,1.6-5.8,1.7c3.2-2.1,5.3-5.5,5.7-9.3v-0.3l-0.2-0.3
				c-1.5-2.6-2.2-5.6-2.1-8.6c0-12.1,8.5-26.8,19-32.9C214.8,26.2,217.6,25.4,220.5,25.3 M220.5,24.3c-3.1,0.1-6.1,1.1-8.7,2.7
				c-10.7,6.2-19.4,21.2-19.4,33.7c-0.1,3.2,0.6,6.4,2.2,9.1c-0.4,3.9-2.7,7.3-6.1,9.2c-0.3,0.2-0.4,0.6-0.2,0.9
				c0.1,0.2,0.3,0.3,0.5,0.3h0.1c2.5,0.1,5-0.6,7.2-1.8c1.7-1.1,3.2-2.5,4.4-4.1c0.9,0.2,1.7,0.3,2.6,0.3c3.1-0.1,6.1-1,8.7-2.7
				c10.7-6.2,19.4-21.3,19.4-33.7C231.3,29.4,226.9,24.3,220.5,24.3z"/>
		</g>
		<path class="st3" d="M200.9,55.1c0-0.1,0-0.2,0.1-0.3c0,0,1.6-3.2,2.4-5c0.7-1.5,1.4-2.7,2.2-2.5c0.4,0.1,0.5,0.5,0.6,1
			c0.1,0.5,0.3,1,0.8,1.4c0.9,0.5,2.1-1,2.8-2.3s1.3-3.3,0.5-4c-0.4-0.3-0.9-0.4-1.4-0.2c-0.4,0.1-0.8,0.1-1-0.2
			c-0.5-0.8,0.1-2.1,0.9-3.5c0.9-1.7,2.6-4.7,2.7-4.8c0-0.1,0.1-0.2,0.2-0.2c0.1,0,0.1,0,0.2,0.1c0,0,0,0,0,0
			c0.5,0.9,1.1,1.8,1.7,2.7c1.5,2.1,2.3,1,2.8,0.3c0.2-0.4,0.4-0.8,0.4-1.2c0.1-0.8,0.4-1.5,0.7-2.2c0.6-1.2,1.9-2.1,3-1.3
			c0.5,0.4,0.8,1.1,0.9,1.7c0,0.7-0.2,1.4-0.5,2.1c-0.3,0.7-0.8,1.2-1.4,1.7c-0.3,0.2-0.6,0.6-0.7,0.9c-0.3,1-0.8,2.2,1.4,3
			c0.9,0.3,1.8,0.6,2.8,0.7c0.1,0,0.1,0.1,0.1,0.2c0,0.1,0,0.2-0.1,0.3c0,0-1.6,3.2-2.4,5c-0.7,1.5-1.4,2.7-2.2,2.5
			c-0.4-0.1-0.5-0.5-0.6-1c-0.1-0.5-0.3-1-0.8-1.4c-0.9-0.5-2,0.8-2.8,2.3s-1.3,3.2-0.5,4c0.4,0.3,0.9,0.4,1.4,0.2
			c0.4-0.1,0.8-0.1,1,0.2c0.5,0.8-0.1,2.1-0.9,3.5c-0.9,1.7-2.6,4.7-2.7,4.8c0,0.1-0.1,0.2-0.2,0.2c-0.1,0-0.1,0-0.2-0.1
			c0,0,0,0,0,0c-0.5-0.9-1.1-1.8-1.7-2.7c-1.5-2.1-2.3-1-2.8-0.3c-0.2,0.4-0.3,0.8-0.4,1.2c-0.1,0.8-0.4,1.5-0.7,2.2
			c-0.6,1.2-1.9,2.1-3,1.3s-1-2.6-0.4-3.8c0.3-0.7,0.8-1.2,1.4-1.7c0.3-0.2,0.6-0.6,0.7-0.9c0.3-1,0.8-2.2-1.4-3
			c-0.9-0.3-1.8-0.6-2.8-0.7C201,55.2,200.9,55.2,200.9,55.1L200.9,55.1z"/>
	</g>
</g>
<g id="freepik--Icon--inject-5">
	<path id="freepik--team-icon--inject-5" class="st4" d="M66.5,57.9c4.5-2.6,8.2-9.6,8.2-15.6S71,33.4,66.5,36s-8.2,9.6-8.2,15.7
		S62,60.5,66.5,57.9z M80.7,63.4c-0.8-4.7-4.3-6.4-8.2-4.1l-11.9,6.9c-4,2.3-7.4,8-8.2,13.7l-1.5,10c-0.3,2,0.8,3.1,2.1,2.3
		l27.1-15.7c1.5-1.1,2.3-2.9,2.1-4.7L80.7,63.4z M85,40.4c3.3-1.9,5.9-6.9,5.9-11.2s-2.6-6.3-5.9-4.4s-5.9,6.9-5.9,11.2
		S81.8,42.3,85,40.4L85,40.4z M95.2,43.4c-0.6-3.3-3.1-4.6-5.9-2.9l-8.6,5c-2.4,1.4-4.6,4.5-5.5,7.9c4.2-1.3,7.6,0.9,8.9,5.6l10.4-6
		c1.6-0.9,1.9-1.6,1.5-3.6L95.2,43.4z M53.9,50.6c0-4.3-2.6-6.3-5.9-4.5s-5.9,6.9-5.9,11.2s2.6,6.3,5.9,4.5S53.9,54.9,53.9,50.6z
		 M37,83.5c-0.3,2.3-0.1,2.8,1.5,1.8l10.4-6c1.2-6.2,4.7-12.3,8.9-15.9c-1-2.3-3.1-3-5.5-1.6l-8.6,5c-2.9,1.7-5.3,5.8-5.9,9.8
		L37,83.5z"/>
</g>
<g id="freepik--magnifying-glass--inject-5">
	<g id="freepik--Glass--inject-5">
		<path class="st5" d="M176.9,383.8L176.9,383.8c-1.1,0.5-2.4,0.4-3.4-0.3c-2.8-1.8-4.6-4.9-4.8-8.2c-0.1-1.2,0.4-2.4,1.4-3.1l0,0
			l59.3-37.5l0,0c1.2-0.8,2.9-0.8,4.9,0.3c4,2.5,6.5,6.8,6.8,11.5c0,2.2-0.8,3.8-2.1,4.4l0,0L176.9,383.8z"/>
		<path class="st6" d="M168.7,375.2c0-3,2.1-4.3,4.8-2.8c2.8,1.8,4.6,4.9,4.8,8.2c0,3-2.1,4.3-4.8,2.8
			C170.7,381.6,168.9,378.6,168.7,375.2z"/>
		<path class="st7" d="M161.7,388.1c-1.7-1.1-2.8-3-2.9-5c-0.1-0.7,0.2-1.4,0.8-1.9l0,0l11.8-6.9l0,0c0.7-0.3,1.4-0.2,2,0.2
			c1.7,1.1,2.8,3,2.9,5c0.1,0.7-0.2,1.4-0.8,1.9l-11.8,6.9l0,0C163.1,388.6,162.3,388.6,161.7,388.1z"/>
		<path class="st8" d="M161.7,388.1c-1.7-1.1-2.8-3-2.9-5c-0.1-0.7,0.2-1.4,0.8-1.9l0,0l11.8-6.9l0,0c0.7-0.3,1.4-0.2,2,0.2
			c1.7,1.1,2.8,3,2.9,5c0.1,0.7-0.2,1.4-0.8,1.9l-11.8,6.9l0,0C163.1,388.6,162.3,388.6,161.7,388.1z"/>
		<path class="st8" d="M167.3,378.7c-0.4-0.3-0.9-0.7-1.3-1l-6.2,3.6c2.5,1.5,4.8,3.3,6.9,5.4l5.7-3.3c-0.1-0.2-0.3-0.4-0.4-0.5
			C170.4,381.3,168.9,379.9,167.3,378.7z"/>
		<path class="st9" d="M175.7,374.4l61-37.5c-0.7-0.8-1.5-1.4-2.4-1.9c-1.9-1.1-3.7-1.1-4.9-0.3l0,0l-59.3,37.5
			c1.1-0.5,2.4-0.4,3.4,0.3C174.3,373,175.1,373.6,175.7,374.4z"/>
		<path class="st7" d="M175.1,398.8c0-0.2,0-0.4,0-0.6s0-0.5,0-0.7c0-0.6-0.1-1.1-0.2-1.7c0-0.2-0.1-0.4-0.1-0.6
			c-0.1-0.8-0.3-1.5-0.6-2.3c-0.1-0.2-0.1-0.4-0.2-0.6c-0.2-0.5-0.4-1.1-0.7-1.6c-0.1-0.2-0.2-0.4-0.3-0.6l-0.3-0.5
			c-0.1-0.3-0.3-0.5-0.4-0.7s-0.3-0.5-0.4-0.7l-0.5-0.7c-0.8-1.2-1.7-2.4-2.8-3.5c-1.3-1.5-2.8-2.8-4.4-4c-1.7-1.3-3.6-2.5-5.5-3.6
			c-21.4-12.2-55.9-12.2-77.1,0c-0.5,0.3-1,0.6-1.6,0.9c-1.9,1.2-3.7,2.5-5.4,4c-0.5,0.4-0.9,0.9-1.4,1.3c-1.1,1.1-2.1,2.2-3.1,3.5
			c-0.2,0.2-0.3,0.4-0.5,0.7s-0.4,0.6-0.6,0.9s-0.5,0.8-0.8,1.2s-0.5,0.9-0.7,1.4c-0.1,0.2-0.2,0.4-0.3,0.6
			c-0.1,0.3-0.2,0.6-0.3,0.9c-0.1,0.2-0.2,0.4-0.2,0.6c-0.5,1.5-0.9,3-1,4.5c0,0.2,0,0.3,0,0.5c0,0.4,0,0.7,0,1.1c0,1.3,0,7.3,0,8.4
			c0,8.1,5.3,16.2,16,22.4c21.3,12.3,55.8,12.3,77.1,0c10.8-6.2,16-14.3,15.9-22.4C175,405.8,175.1,400.7,175.1,398.8z M84.9,381.6
			c9.3-5.4,21.9-8.3,35.4-8.3s26.1,3,35.6,8.4c8.4,4.8,13,10.8,13,16.9s-4.5,12-12.8,16.8c-9.4,5.4-22,8.4-35.5,8.4
			s-26.1-3-35.5-8.4c-8.4-4.8-13-10.9-13-17S76.7,386.3,84.9,381.6z"/>
		<path class="st10" d="M175.1,398.8c0-0.2,0-0.4,0-0.6s0-0.5,0-0.7c0-0.6-0.1-1.1-0.2-1.7c0-0.2-0.1-0.4-0.1-0.6
			c-0.1-0.8-0.3-1.5-0.6-2.3c-0.1-0.2-0.1-0.4-0.2-0.6c-0.2-0.5-0.4-1.1-0.7-1.6c-0.1-0.2-0.2-0.4-0.3-0.6l-0.3-0.5
			c-0.1-0.3-0.3-0.5-0.4-0.7s-0.3-0.5-0.4-0.7l-0.5-0.7c-0.8-1.2-1.7-2.4-2.8-3.5c-1.3-1.5-2.8-2.8-4.4-4c-1.7-1.3-3.6-2.5-5.5-3.6
			c-21.4-12.2-55.9-12.2-77.1,0c-0.5,0.3-1,0.6-1.6,0.9c-1.9,1.2-3.7,2.5-5.4,4c-0.5,0.4-0.9,0.9-1.4,1.3c-1.1,1.1-2.1,2.2-3.1,3.5
			c-0.2,0.2-0.3,0.4-0.5,0.7s-0.4,0.6-0.6,0.9s-0.5,0.8-0.8,1.2s-0.5,0.9-0.7,1.4c-0.1,0.2-0.2,0.4-0.3,0.6
			c-0.1,0.3-0.2,0.6-0.3,0.9c-0.1,0.2-0.2,0.4-0.2,0.6c-0.5,1.5-0.9,3-1,4.5c0,0.2,0,0.3,0,0.5c0,0.4,0,0.7,0,1.1c0,1.3,0,7.3,0,8.4
			c0,8.1,5.3,16.2,16,22.4c21.3,12.3,55.8,12.3,77.1,0c10.8-6.2,16-14.3,15.9-22.4C175,405.8,175.1,400.7,175.1,398.8z M84.9,381.6
			c9.3-5.4,21.9-8.3,35.4-8.3s26.1,3,35.6,8.4c8.4,4.8,13,10.8,13,16.9s-4.5,12-12.8,16.8c-9.4,5.4-22,8.4-35.5,8.4
			s-26.1-3-35.5-8.4c-8.4-4.8-13-10.9-13-17S76.7,386.3,84.9,381.6z"/>
		<path class="st7" d="M175.1,398.8h-6.1c0,6.1-4.5,11.8-12.8,16.6c-9.1,5.3-21.2,8.2-34.3,8.4v14.6c13.5-0.2,27-3.2,37.3-9.2
			c10.8-6.2,16-14.3,15.9-22.4C175,405.8,175.1,400.7,175.1,398.8z"/>
		<path class="st11" d="M175.1,398.2c0-0.2,0-0.5,0-0.7c0-0.6-0.1-1.1-0.2-1.7c0-0.2-0.1-0.4-0.1-0.6c-0.1-0.8-0.3-1.5-0.6-2.3
			c-0.1-0.2-0.1-0.4-0.2-0.6c-0.2-0.5-0.4-1.1-0.7-1.6c-0.1-0.2-0.2-0.4-0.3-0.6l-0.3-0.5c-0.1-0.3-0.3-0.5-0.4-0.7
			s-0.3-0.5-0.4-0.7l-0.5-0.7c-0.8-1.2-1.7-2.4-2.8-3.5c-1.3-1.5-2.8-2.8-4.4-4c-1.7-1.3-3.6-2.5-5.5-3.6
			c-21.4-12.2-55.9-12.2-77.1,0c-0.5,0.3-1,0.6-1.6,0.9c-1.9,1.2-3.7,2.5-5.4,4c-0.5,0.4-0.9,0.9-1.4,1.3c-1.1,1.1-2.1,2.2-3.1,3.5
			c-0.2,0.2-0.3,0.4-0.5,0.7s-0.4,0.6-0.6,0.9s-0.5,0.8-0.8,1.2s-0.5,0.9-0.7,1.4c-0.1,0.2-0.2,0.4-0.3,0.6
			c-0.1,0.3-0.2,0.6-0.3,0.9c-0.1,0.2-0.2,0.4-0.2,0.6c-0.5,1.5-0.9,3-1,4.5c0,0.2,0,0.3,0,0.5c0,0.4,0,0.7,0,1.1
			c0,8.1,5.3,16.1,16,22.3c21.3,12.3,55.8,12.3,77.1,0c10.5-6,15.8-14,15.9-21.9C175.1,398.5,175.1,398.3,175.1,398.2z M156.1,415.3
			c-9.4,5.4-22,8.4-35.5,8.4s-26.1-3-35.5-8.4c-8.4-4.8-13-10.9-13-17s4.5-12,12.7-16.7c9.3-5.4,21.9-8.3,35.4-8.3s26.1,3,35.6,8.4
			c8.4,4.8,13,10.8,13,16.9S164.4,410.5,156.1,415.3L156.1,415.3z"/>
		<path class="st12" d="M175.1,398.2c0-0.2,0-0.5,0-0.7c0-0.6-0.1-1.1-0.2-1.7c0-0.2-0.1-0.4-0.1-0.6c-0.1-0.8-0.3-1.5-0.6-2.3
			c-0.1-0.2-0.1-0.4-0.2-0.6c-0.2-0.5-0.4-1.1-0.7-1.6c-0.1-0.2-0.2-0.4-0.3-0.6l-0.3-0.5c-0.1-0.3-0.3-0.5-0.4-0.7
			s-0.3-0.5-0.4-0.7l-0.5-0.7c-0.8-1.2-1.7-2.4-2.8-3.5c-1.3-1.5-2.8-2.8-4.4-4c-1.7-1.3-3.6-2.5-5.5-3.6
			c-21.4-12.2-55.9-12.2-77.1,0c-0.5,0.3-1,0.6-1.6,0.9c-1.9,1.2-3.7,2.5-5.4,4c-0.5,0.4-0.9,0.9-1.4,1.3c-1.1,1.1-2.1,2.2-3.1,3.5
			c-0.2,0.2-0.3,0.4-0.5,0.7s-0.4,0.6-0.6,0.9s-0.5,0.8-0.8,1.2s-0.5,0.9-0.7,1.4c-0.1,0.2-0.2,0.4-0.3,0.6
			c-0.1,0.3-0.2,0.6-0.3,0.9c-0.1,0.2-0.2,0.4-0.2,0.6c-0.5,1.5-0.9,3-1,4.5c0,0.2,0,0.3,0,0.5c0,0.4,0,0.7,0,1.1
			c0,8.1,5.3,16.1,16,22.3c21.3,12.3,55.8,12.3,77.1,0c10.5-6,15.8-14,15.9-21.9C175.1,398.5,175.1,398.3,175.1,398.2z M156.1,415.3
			c-9.4,5.4-22,8.4-35.5,8.4s-26.1-3-35.5-8.4c-8.4-4.8-13-10.9-13-17s4.5-12,12.7-16.7c9.3-5.4,21.9-8.3,35.4-8.3s26.1,3,35.6,8.4
			c8.4,4.8,13,10.8,13,16.9S164.4,410.5,156.1,415.3L156.1,415.3z"/>
		<path class="st12" d="M168.9,398.5c0,1-0.1,2.1-0.4,3.1c-1.3-5-5.6-9.9-12.6-13.9c-9.4-5.4-22.1-8.4-35.6-8.4s-26,3-35.4,8.3
			c-6.8,3.9-11.1,8.7-12.3,13.7c-0.3-1-0.4-2-0.4-3c0-6.1,4.5-12,12.7-16.7c9.3-5.4,21.9-8.3,35.4-8.3s26.1,3,35.6,8.4
			C164.3,386.4,168.9,392.4,168.9,398.5z"/>
		<path class="st10" d="M168.9,398.5c0,1-0.1,2.1-0.4,3.1c-1.3-5-5.6-9.9-12.6-13.9c-9.4-5.4-22.1-8.4-35.6-8.4s-26,3-35.4,8.3
			c-6.8,3.9-11.1,8.7-12.3,13.7c-0.3-1-0.4-2-0.4-3c0-6.1,4.5-12,12.7-16.7c9.3-5.4,21.9-8.3,35.4-8.3s26.1,3,35.6,8.4
			C164.3,386.4,168.9,392.4,168.9,398.5z"/>
		<path class="st13" d="M168.8,400.1c-0.7,5.5-5.2,10.9-12.7,15.2c-9.4,5.4-22,8.4-35.5,8.4s-26.1-3-35.5-8.4
			c-7.7-4.4-12.2-9.9-12.9-15.4c0.7-5.5,5.1-10.9,12.6-15.2c9.3-5.4,21.9-8.3,35.4-8.3s26.1,3,35.6,8.4
			C163.6,389.1,168.1,394.5,168.8,400.1z"/>
	</g>
</g>
<g id="freepik--Gears--inject-5">
	<g id="freepik--gears--inject-5">
		<path id="freepik--shadow--inject-5_1_" class="st2" d="M422,416.1c-1.9,0-3.6-1.4-4-3.3l-0.7-3.6c-1.5-0.3-3.1-0.7-4.5-1.1
			l-6.9,3.2c-0.6,0.3-1.3,0.4-2,0.4c-0.8,0-1.7-0.2-2.4-0.6l-7.1-4.1c-1.7-0.9-2.3-3.1-1.4-4.8c0.3-0.5,0.6-0.9,1.1-1.2l3.7-2.7
			c-0.2-0.3-0.4-0.5-0.5-0.8l-8.7-0.5c-2.1-0.2-3.7-1.9-3.7-3.9v-5.3c0-2.1,1.6-3.8,3.7-3.9l8.7-0.5c0.1-0.3,0.3-0.5,0.5-0.8
			l-3.7-2.7c-1-0.7-1.6-1.9-1.5-3.1c0.1-1.2,0.8-2.3,1.8-2.9l7.1-4.1c0.7-0.4,1.5-0.6,2.4-0.6c0.7,0,1.4,0.1,2,0.4l6.9,3.2
			c1.5-0.5,3-0.8,4.5-1.1l0.7-3.6c0.4-1.9,2.1-3.3,4-3.3h10.4c1.9,0,3.6,1.4,4,3.3l0.7,3.6c1.5,0.3,3,0.7,4.5,1.1l6.9-3.2
			c0.6-0.3,1.3-0.4,2-0.4c0.8,0,1.7,0.2,2.4,0.6l7.1,4.1c1.7,0.9,2.3,3,1.4,4.8c-0.3,0.5-0.7,0.9-1.1,1.2l-3.7,2.7
			c0.2,0.3,0.3,0.5,0.5,0.8l8.7,0.5c2.1,0.2,3.7,1.9,3.7,3.9v5.3c0,2.1-1.6,3.8-3.7,3.9l-8.7,0.5c-0.2,0.3-0.3,0.5-0.5,0.8l3.7,2.7
			c1.6,1.1,2,3.3,0.9,4.9c-0.3,0.5-0.7,0.8-1.2,1.1l-7.1,4.1c-0.7,0.4-1.5,0.6-2.4,0.6l0,0c-0.7,0-1.4-0.1-2-0.4l-6.9-3.2
			c-1.5,0.5-3,0.8-4.5,1.1l-0.7,3.6c-0.4,1.9-2.1,3.3-4,3.3L422,416.1z M427.2,383.7c-3.6-0.1-7.3,0.8-10.5,2.5
			c-2.2,1.3-3.5,2.9-3.5,4.3s1.3,3,3.5,4.3c6.6,3.3,14.4,3.3,21,0c2.2-1.3,3.5-2.8,3.5-4.3s-1.3-3-3.5-4.3
			C434.5,384.5,430.8,383.6,427.2,383.7L427.2,383.7z"/>
		<path class="st14" d="M458.5,370.4l-7.1-4.1c-0.5-0.3-1.1-0.3-1.6-0.1l-7.2,3.3c-0.5,0.2-1.1,0.2-1.6,0.1c-1.8-0.6-3.7-1-5.6-1.3
			c-0.5-0.1-0.9-0.5-1-1l-0.9-4.7c-0.1-0.5-0.5-0.9-1-0.9H422c-0.5,0-0.9,0.4-1,0.9l-0.9,4.7c-0.1,0.5-0.5,0.9-1,1
			c-1.9,0.3-3.8,0.8-5.6,1.3c-0.5,0.1-1.1,0.1-1.6-0.1l-7.2-3.3c-0.5-0.2-1.1-0.2-1.6,0.1l-7.1,4.1c-0.2,0.1-0.3,0.3-0.3,0.5l0,0
			v6.1l0,0c0,0.2,0.1,0.4,0.3,0.5l3.3,2.4c-0.2,0.2-0.5,0.3-0.8,0.3l-9.5,0.6c-0.5,0.1-0.9,0.5-0.9,0.9v4l0,0v7.4
			c0,0.5,0.4,0.9,0.9,0.9l9.5,0.6c0.3,0,0.6,0.2,0.8,0.4l-3.3,2.3c-0.2,0.1-0.3,0.3-0.3,0.5l0,0v6.2l0,0c0,0.2,0.1,0.4,0.3,0.5
			l7.1,4.1c0.5,0.3,1.1,0.3,1.6,0.1l7.2-3.3c0.5-0.2,1.1-0.2,1.6-0.1c1.8,0.6,3.7,1,5.6,1.3c0.5,0.1,0.9,0.5,1,1l0.9,4.7
			c0.1,0.5,0.5,0.9,1,0.9h10.4c0.5,0,0.9-0.4,1-0.9l0.9-4.7c0.1-0.5,0.5-0.9,1-1c1.9-0.3,3.8-0.8,5.6-1.3c0.5-0.1,1.1-0.1,1.6,0.1
			l7.2,3.3c0.5,0.2,1.1,0.2,1.6-0.1l7.1-4.1c0.2-0.1,0.3-0.3,0.3-0.5l0,0v-6.2l0,0c0-0.2-0.1-0.4-0.3-0.5l-3.3-2.3
			c0.2-0.2,0.5-0.3,0.8-0.3l9.5-0.6c0.5-0.1,0.9-0.5,0.9-0.9v-11.4c0-0.5-0.4-0.9-0.9-0.9l-9.5-0.6c-0.3,0-0.6-0.1-0.8-0.3l3.2-2.3
			c0.2-0.1,0.3-0.3,0.3-0.5l0,0v-6.2l0,0C458.7,370.6,458.6,370.5,458.5,370.4z M410.6,386.3c0.5-1.7,2-3.4,4.6-4.9
			c6.6-3.8,17.4-3.8,24,0c2,1,3.6,2.6,4.7,4.5c-0.6,1.9-2.1,3.8-4.7,5.3c-6.6,3.8-17.4,3.8-24,0
			C413.1,390.2,411.5,388.5,410.6,386.3z"/>
		<path class="st15" d="M458.5,370.4l-7.1-4.1c-0.5-0.3-1.1-0.3-1.6-0.1l-7.2,3.3c-0.5,0.2-1.1,0.2-1.6,0.1c-1.8-0.6-3.7-1-5.6-1.3
			c-0.5-0.1-0.9-0.5-1-1l-0.9-4.7c-0.1-0.5-0.5-0.9-1-0.9H422c-0.5,0-0.9,0.4-1,0.9l-0.9,4.7c-0.1,0.5-0.5,0.9-1,1
			c-1.9,0.3-3.8,0.8-5.6,1.3c-0.5,0.1-1.1,0.1-1.6-0.1l-7.2-3.3c-0.5-0.2-1.1-0.2-1.6,0.1l-7.1,4.1c-0.2,0.1-0.3,0.3-0.3,0.5l0,0
			v6.1l0,0c0,0.2,0.1,0.4,0.3,0.5l3.3,2.4c-0.2,0.2-0.5,0.3-0.8,0.3l-9.5,0.6c-0.5,0.1-0.9,0.5-0.9,0.9v4l0,0v7.4
			c0,0.5,0.4,0.9,0.9,0.9l9.5,0.6c0.3,0,0.6,0.2,0.8,0.4l-3.3,2.3c-0.2,0.1-0.3,0.3-0.3,0.5l0,0v6.2l0,0c0,0.2,0.1,0.4,0.3,0.5
			l7.1,4.1c0.5,0.3,1.1,0.3,1.6,0.1l7.2-3.3c0.5-0.2,1.1-0.2,1.6-0.1c1.8,0.6,3.7,1,5.6,1.3c0.5,0.1,0.9,0.5,1,1l0.9,4.7
			c0.1,0.5,0.5,0.9,1,0.9h10.4c0.5,0,0.9-0.4,1-0.9l0.9-4.7c0.1-0.5,0.5-0.9,1-1c1.9-0.3,3.8-0.8,5.6-1.3c0.5-0.1,1.1-0.1,1.6,0.1
			l7.2,3.3c0.5,0.2,1.1,0.2,1.6-0.1l7.1-4.1c0.2-0.1,0.3-0.3,0.3-0.5l0,0v-6.2l0,0c0-0.2-0.1-0.4-0.3-0.5l-3.3-2.3
			c0.2-0.2,0.5-0.3,0.8-0.3l9.5-0.6c0.5-0.1,0.9-0.5,0.9-0.9v-11.4c0-0.5-0.4-0.9-0.9-0.9l-9.5-0.6c-0.3,0-0.6-0.1-0.8-0.3l3.2-2.3
			c0.2-0.1,0.3-0.3,0.3-0.5l0,0v-6.2l0,0C458.7,370.6,458.6,370.5,458.5,370.4z M410.6,386.3c0.5-1.7,2-3.4,4.6-4.9
			c6.6-3.8,17.4-3.8,24,0c2,1,3.6,2.6,4.7,4.5c-0.6,1.9-2.1,3.8-4.7,5.3c-6.6,3.8-17.4,3.8-24,0
			C413.1,390.2,411.5,388.5,410.6,386.3z"/>
		<path class="st16" d="M399.5,389.4c-0.3-0.5-0.7-0.8-1.3-0.9l-9.5-0.6c-0.5-0.1-0.9-0.5-0.9-0.9v6.1c0,0.5,0.4,0.9,0.9,1l9.5,0.6
			c0.3,0,0.6,0.2,0.8,0.4l2.4-1.7c0.3-0.2,0.4-0.7,0.2-1c0,0-0.1-0.1-0.1-0.1C400.8,391.3,400.1,390.4,399.5,389.4z M395.5,377
			L395.5,377c0,0.2,0.1,0.4,0.3,0.5l3.3,2.4c0.2-0.1,0.3-0.3,0.5-0.5c0.6-1,1.2-1.9,2-2.8c0.3-0.3,0.3-0.8,0-1c0,0-0.1-0.1-0.1-0.1
			l-5.6-4c-0.1-0.1-0.2-0.2-0.3-0.4V377z"/>
		<path class="st16" d="M439.1,377.4c-6.6-3.8-17.4-3.8-24,0c-4.2,2.4-5.7,5.8-4.6,8.9c0.5-1.7,2-3.4,4.6-4.9c6.6-3.8,17.4-3.8,24,0
			c2.4,1.4,4,2.9,4.7,4.5C444.8,383,443.2,379.8,439.1,377.4z"/>
		<path class="st11" d="M466.4,387.1c-0.1,0.4-0.4,0.8-0.9,0.8l-9.5,0.6c-0.2,0-0.3,0.1-0.5,0.1v6.2c0.1-0.1,0.3-0.1,0.5-0.1
			l9.5-0.6c0.5-0.1,0.9-0.4,0.9-0.9V387.1z M458.8,370.9L458.8,370.9c0,0.1,0,0.1,0,0.2c0,0.1-0.1,0.1-0.1,0.2c0,0-0.1,0.1-0.1,0.1
			l-5.6,4c-0.1,0-0.1,0.1-0.1,0.1c-0.1,0.1-0.1,0.2-0.2,0.4c0,0.1,0,0.2,0,0.2c0,0,0,0.1,0,0.1c0,0.1,0.1,0.2,0.2,0.3l0.1,0.1
			c0.7,0.8,1.4,1.7,1.9,2.7c0.1,0.2,0.3,0.4,0.5,0.5l3.3-2.3c0.2-0.1,0.3-0.3,0.3-0.5l0,0V370.9z M458.8,397.9
			c0,0.2-0.2,0.4-0.3,0.4l-7.1,4.1c-0.3,0.2-0.7,0.2-1.1,0.2v6.1c0.4,0,0.8,0,1.1-0.2l7.1-4.1c0.2-0.1,0.3-0.3,0.3-0.5L458.8,397.9z
			 M412.4,399c-0.2,0-0.5,0.1-0.7,0.2l-7.2,3.3c-0.2,0.1-0.4,0.1-0.6,0.1v6.1c0.2,0,0.4,0,0.6-0.1l7.2-3.3c0.2-0.1,0.5-0.1,0.7-0.2
			L412.4,399z M433.3,406.5c-0.2,0.3-0.5,0.5-0.9,0.5H422c-0.2,0-0.5-0.1-0.6-0.2v6.1c0.2,0.1,0.4,0.2,0.6,0.2h10.4
			c0.4,0,0.7-0.2,0.9-0.5L433.3,406.5z"/>
		<path class="st17" d="M466.4,387.1c-0.1,0.4-0.4,0.8-0.9,0.8l-9.5,0.6c-0.2,0-0.3,0.1-0.5,0.1v6.2c0.1-0.1,0.3-0.1,0.5-0.1
			l9.5-0.6c0.5-0.1,0.9-0.4,0.9-0.9V387.1z M458.8,370.9L458.8,370.9c0,0.1,0,0.1,0,0.2c0,0.1-0.1,0.1-0.1,0.2c0,0-0.1,0.1-0.1,0.1
			l-5.6,4c-0.1,0-0.1,0.1-0.1,0.1c-0.1,0.1-0.1,0.2-0.2,0.4c0,0.1,0,0.2,0,0.2c0,0,0,0.1,0,0.1c0,0.1,0.1,0.2,0.2,0.3l0.1,0.1
			c0.7,0.8,1.4,1.7,1.9,2.7c0.1,0.2,0.3,0.4,0.5,0.5l3.3-2.3c0.2-0.1,0.3-0.3,0.3-0.5l0,0V370.9z M458.8,397.9
			c0,0.2-0.2,0.4-0.3,0.4l-7.1,4.1c-0.3,0.2-0.7,0.2-1.1,0.2v6.1c0.4,0,0.8,0,1.1-0.2l7.1-4.1c0.2-0.1,0.3-0.3,0.3-0.5L458.8,397.9z
			 M412.4,399c-0.2,0-0.5,0.1-0.7,0.2l-7.2,3.3c-0.2,0.1-0.4,0.1-0.6,0.1v6.1c0.2,0,0.4,0,0.6-0.1l7.2-3.3c0.2-0.1,0.5-0.1,0.7-0.2
			L412.4,399z M433.3,406.5c-0.2,0.3-0.5,0.5-0.9,0.5H422c-0.2,0-0.5-0.1-0.6-0.2v6.1c0.2,0.1,0.4,0.2,0.6,0.2h10.4
			c0.4,0,0.7-0.2,0.9-0.5L433.3,406.5z"/>
		<path class="st14" d="M449.8,366.2l-7.2,3.3c-0.5,0.2-1.1,0.2-1.6,0.1c-1.8-0.6-3.7-1-5.6-1.3c-0.5-0.1-0.9-0.5-1-1l-0.9-4.7
			c-0.1-0.5-0.5-0.9-1-0.9H422c-0.5,0-0.9,0.4-1,0.9l-0.9,4.7c-0.1,0.5-0.5,0.9-1,1c-1.9,0.3-3.8,0.8-5.6,1.3
			c-0.5,0.1-1.1,0.1-1.6-0.1l-7.2-3.3c-0.5-0.2-1.1-0.2-1.6,0.1l-7.1,4.1c-0.3,0.1-0.4,0.4-0.4,0.7c0,0.2,0.2,0.3,0.3,0.3l5.6,4
			c0.3,0.2,0.4,0.7,0.2,1c0,0-0.1,0.1-0.1,0.1c-0.8,0.8-1.4,1.8-2,2.8c-0.3,0.5-0.7,0.8-1.3,0.8l-9.5,0.6c-0.5,0.1-0.9,0.5-0.9,0.9
			v5.3c0,0.5,0.4,0.9,0.9,0.9l9.5,0.6c0.5,0.1,1,0.4,1.3,0.8c0.6,1,1.2,1.9,2,2.8c0.3,0.3,0.3,0.8,0,1c0,0-0.1,0.1-0.1,0.1l-5.6,4
			c-0.3,0.1-0.4,0.4-0.3,0.7c0.1,0.2,0.2,0.3,0.3,0.3l7,4c0.5,0.3,1.1,0.3,1.6,0.1l7.2-3.3c0.5-0.2,1.1-0.2,1.6-0.1
			c1.8,0.6,3.7,1,5.6,1.3c0.5,0.1,0.9,0.5,1,1l0.9,4.7c0.1,0.5,0.6,0.9,1.1,0.9h10.4c0.5,0,0.9-0.4,1-0.9l0.9-4.7
			c0.1-0.5,0.5-0.9,1-1c1.9-0.3,3.8-0.8,5.6-1.4c0.5-0.1,1.1-0.1,1.6,0.1l7.2,3.3c0.5,0.2,1.1,0.2,1.6-0.1l7.1-4.1
			c0.3-0.1,0.4-0.4,0.4-0.7c0-0.2-0.2-0.3-0.3-0.3l-5.6-4c-0.3-0.2-0.4-0.7-0.2-1c0,0,0.1-0.1,0.1-0.1c0.8-0.8,1.4-1.8,2-2.8
			c0.3-0.5,0.7-0.8,1.3-0.8l9.5-0.6c0.5-0.1,0.9-0.5,0.9-0.9v-5.2c0-0.5-0.4-0.9-0.9-0.9l-9.5-0.6c-0.5-0.1-1-0.4-1.3-0.8
			c-0.6-1-1.2-1.9-2-2.8c-0.3-0.3-0.3-0.8,0-1c0,0,0.1-0.1,0.1-0.1l5.6-4c0.3-0.1,0.4-0.4,0.3-0.7c-0.1-0.2-0.2-0.3-0.3-0.3
			l-7.1-4.1C450.9,366,450.3,366,449.8,366.2z M439.1,377.4c6.6,3.8,6.6,10,0,13.8s-17.4,3.8-24,0s-6.6-10,0-13.8
			S432.5,373.6,439.1,377.4L439.1,377.4z"/>
		<g class="st18">
			<path class="st19" d="M449.8,366.2l-7.2,3.3c-0.5,0.2-1.1,0.2-1.6,0.1c-1.8-0.6-3.7-1-5.6-1.3c-0.5-0.1-0.9-0.5-1-1l-0.9-4.7
				c-0.1-0.5-0.5-0.9-1-0.9H422c-0.5,0-0.9,0.4-1,0.9l-0.9,4.7c-0.1,0.5-0.5,0.9-1,1c-1.9,0.3-3.8,0.8-5.6,1.3
				c-0.5,0.1-1.1,0.1-1.6-0.1l-7.2-3.3c-0.5-0.2-1.1-0.2-1.6,0.1l-7.1,4.1c-0.3,0.1-0.4,0.4-0.4,0.7c0,0.2,0.2,0.3,0.3,0.3l5.6,4
				c0.3,0.2,0.4,0.7,0.2,1c0,0-0.1,0.1-0.1,0.1c-0.8,0.8-1.4,1.8-2,2.8c-0.3,0.5-0.7,0.8-1.3,0.8l-9.5,0.6c-0.5,0.1-0.9,0.5-0.9,0.9
				v5.3c0,0.5,0.4,0.9,0.9,0.9l9.5,0.6c0.5,0.1,1,0.4,1.3,0.8c0.6,1,1.2,1.9,2,2.8c0.3,0.3,0.3,0.8,0,1c0,0-0.1,0.1-0.1,0.1l-5.6,4
				c-0.3,0.1-0.4,0.4-0.3,0.7c0.1,0.2,0.2,0.3,0.3,0.3l7,4c0.5,0.3,1.1,0.3,1.6,0.1l7.2-3.3c0.5-0.2,1.1-0.2,1.6-0.1
				c1.8,0.6,3.7,1,5.6,1.3c0.5,0.1,0.9,0.5,1,1l0.9,4.7c0.1,0.5,0.6,0.9,1.1,0.9h10.4c0.5,0,0.9-0.4,1-0.9l0.9-4.7
				c0.1-0.5,0.5-0.9,1-1c1.9-0.3,3.8-0.8,5.6-1.4c0.5-0.1,1.1-0.1,1.6,0.1l7.2,3.3c0.5,0.2,1.1,0.2,1.6-0.1l7.1-4.1
				c0.3-0.1,0.4-0.4,0.4-0.7c0-0.2-0.2-0.3-0.3-0.3l-5.6-4c-0.3-0.2-0.4-0.7-0.2-1c0,0,0.1-0.1,0.1-0.1c0.8-0.8,1.4-1.8,2-2.8
				c0.3-0.5,0.7-0.8,1.3-0.8l9.5-0.6c0.5-0.1,0.9-0.5,0.9-0.9v-5.2c0-0.5-0.4-0.9-0.9-0.9l-9.5-0.6c-0.5-0.1-1-0.4-1.3-0.8
				c-0.6-1-1.2-1.9-2-2.8c-0.3-0.3-0.3-0.8,0-1c0,0,0.1-0.1,0.1-0.1l5.6-4c0.3-0.1,0.4-0.4,0.3-0.7c-0.1-0.2-0.2-0.3-0.3-0.3
				l-7.1-4.1C450.9,366,450.3,366,449.8,366.2z M439.1,377.4c6.6,3.8,6.6,10,0,13.8s-17.4,3.8-24,0s-6.6-10,0-13.8
				S432.5,373.6,439.1,377.4L439.1,377.4z"/>
			<path class="st17" d="M432.4,407.3H422c-0.7,0-1.3-0.5-1.4-1.2l-0.9-4.7c-0.1-0.4-0.4-0.7-0.8-0.7c-1.9-0.3-3.8-0.8-5.6-1.3
				c-0.5-0.1-0.9-0.1-1.4,0.1l-7.2,3.3c-0.6,0.2-1.3,0.2-1.9-0.1l-7.1-4.1c-0.3-0.1-0.5-0.4-0.5-0.8c0-0.3,0.2-0.6,0.4-0.8l5.6-4
				c0.1-0.1,0.2-0.2,0.2-0.3c0-0.1,0-0.3-0.1-0.4c-0.8-0.9-1.5-1.8-2.1-2.9c-0.2-0.4-0.6-0.6-1-0.7l-9.5-0.6
				c-0.7-0.1-1.2-0.6-1.2-1.3v-5.3c0-0.7,0.5-1.2,1.2-1.3l9.5-0.6c0.4-0.1,0.8-0.3,1-0.7c0.6-1,1.3-2,2.1-2.9
				c0.1-0.1,0.1-0.2,0.1-0.4c0-0.1-0.1-0.2-0.2-0.3l-5.6-4c-0.4-0.3-0.6-0.8-0.3-1.2c0.1-0.1,0.2-0.3,0.4-0.3l7-4.1
				c0.6-0.3,1.3-0.3,1.9-0.1l7.2,3.3c0.4,0.2,0.9,0.2,1.4,0.1c1.8-0.6,3.7-1,5.6-1.3c0.4-0.1,0.7-0.4,0.8-0.7l0.9-4.7
				c0.1-0.7,0.7-1.1,1.4-1.2h10.4c0.7,0,1.3,0.5,1.4,1.2l0.9,4.7c0.1,0.4,0.4,0.7,0.8,0.7c1.9,0.3,3.8,0.8,5.6,1.3
				c0.5,0.1,1,0.1,1.4-0.1l7.2-3.3c0.6-0.2,1.3-0.2,1.9,0.1l7.1,4.1c0.3,0.2,0.5,0.4,0.5,0.8c0,0.3-0.2,0.6-0.4,0.8l-5.6,4
				c-0.1,0.1-0.2,0.2-0.2,0.3c0,0.1,0,0.3,0.1,0.4c0.8,0.9,1.5,1.8,2,2.9c0.2,0.4,0.6,0.6,1,0.7l9.5,0.6c0.7,0.1,1.2,0.6,1.2,1.3
				v5.3c0,0.7-0.5,1.2-1.2,1.3l-9.5,0.6c-0.4,0.1-0.8,0.3-1,0.7c-0.6,1-1.2,2-2,2.9c-0.1,0.1-0.1,0.2-0.1,0.4c0,0.1,0.1,0.2,0.2,0.3
				l5.6,4c0.4,0.3,0.6,0.8,0.3,1.2c-0.1,0.1-0.2,0.3-0.4,0.3l-7.1,4.1c-0.6,0.3-1.3,0.3-1.9,0.1l-7.2-3.3c-0.4-0.2-0.9-0.2-1.4-0.1
				c-1.8,0.6-3.7,1-5.6,1.3c-0.4,0.1-0.7,0.4-0.8,0.7l-0.9,4.7C433.6,406.8,433.1,407.3,432.4,407.3z M412.7,398.6
				c0.3,0,0.5,0,0.8,0.1c1.8,0.6,3.7,1,5.5,1.3c0.7,0.1,1.2,0.6,1.3,1.3l0.9,4.7c0.1,0.3,0.4,0.6,0.7,0.6h10.4
				c0.3,0,0.6-0.3,0.7-0.6l0.9-4.7c0.1-0.7,0.7-1.2,1.3-1.3c1.9-0.3,3.7-0.8,5.5-1.3c0.6-0.2,1.3-0.1,1.9,0.1l7.2,3.3
				c0.4,0.2,0.9,0.1,1.3-0.1l7.1-4.1c0.1-0.1,0.1-0.1,0.1-0.2s0-0.1-0.1-0.2l-5.6-4c-0.3-0.2-0.4-0.5-0.5-0.8c0-0.3,0.1-0.7,0.3-0.9
				c0.8-0.8,1.4-1.7,2-2.7c0.3-0.6,0.9-0.9,1.6-1l9.5-0.6c0.3-0.1,0.5-0.3,0.5-0.6v-5.3c0-0.3-0.2-0.6-0.5-0.6l-9.5-0.6
				c-0.6-0.1-1.2-0.4-1.6-1c-0.6-1-1.2-1.9-2-2.7c-0.2-0.2-0.3-0.6-0.3-0.9c0-0.3,0.2-0.6,0.5-0.8l5.6-4c0.1-0.1,0.1-0.1,0.1-0.2
				s-0.1-0.1-0.1-0.2l-7.1-4.1c-0.4-0.2-0.8-0.2-1.3-0.1l-7.2,3.3c-0.6,0.2-1.3,0.3-1.9,0.1c-1.8-0.6-3.7-1-5.5-1.3
				c-0.7-0.1-1.2-0.6-1.3-1.3l-0.9-4.7c-0.1-0.3-0.4-0.6-0.7-0.6H422c-0.3,0-0.6,0.3-0.7,0.6l-0.9,4.7c-0.2,0.7-0.7,1.2-1.3,1.3
				c-1.9,0.3-3.7,0.8-5.5,1.3c-0.6,0.2-1.3,0.1-1.9-0.1l-7.2-3.3c-0.4-0.2-0.9-0.1-1.3,0.1l-7.1,4.1c-0.1,0.1-0.1,0.1-0.1,0.2
				s0,0.1,0.1,0.2l5.6,4c0.3,0.2,0.4,0.5,0.5,0.8c0,0.3-0.1,0.7-0.3,0.9c-0.8,0.8-1.4,1.7-2,2.7c-0.3,0.6-0.9,0.9-1.6,1l-9.5,0.6
				c-0.3,0-0.6,0.3-0.6,0.6v5.3c0,0.3,0.3,0.6,0.6,0.6l9.5,0.6c0.7,0.1,1.2,0.4,1.6,1c0.5,1,1.2,1.9,2,2.7c0.4,0.4,0.4,1.1,0,1.6
				c0,0-0.1,0.1-0.1,0.1l-5.7,4.1c-0.1,0.1-0.1,0.1-0.1,0.2s0.1,0.1,0.1,0.2l7.1,4.1c0.4,0.2,0.8,0.2,1.3,0.1l7.2-3.3
				C411.9,398.7,412.3,398.6,412.7,398.6z M427.2,394.5c-4.2,0.1-8.4-0.9-12.1-2.9c-3.3-1.9-5.1-4.5-5.1-7.2s1.8-5.3,5.1-7.2
				c6.7-3.9,17.6-3.9,24.3,0l0,0c3.3,1.9,5.1,4.5,5.1,7.2s-1.8,5.3-5.1,7.2C435.6,393.5,431.4,394.5,427.2,394.5z M427.2,374.9
				c-4.1-0.1-8.2,0.9-11.8,2.8c-3.1,1.8-4.8,4.1-4.8,6.6s1.7,4.8,4.8,6.6c6.5,3.8,17.1,3.8,23.6,0c3.1-1.8,4.8-4.1,4.8-6.6
				s-1.7-4.8-4.8-6.6C435.3,375.8,431.3,374.8,427.2,374.9z"/>
		</g>
		<path class="st16" d="M357,348.6c-4.6,1.8-6.2,5.2-4.2,8.1c1.1-1.4,2.5-2.5,4.2-3c5.3-2.1,12.7-1.4,16.4,1.7
			c0.5,0.4,0.9,0.8,1.3,1.3c1.4-2,1.1-4.5-1.2-6.4C369.7,347.2,362.4,346.4,357,348.6z"/>
	</g>
</g>
<g id="freepik--Box--inject-5">
	<g id="freepik--Title--inject-5">
		<path class="st3" d="M34,116.2l117.7-67.9c1.4-0.8,2.5-0.2,2.5,1.4v36.5c-0.1,1.7-1,3.3-2.5,4.3L34,158.4
			c-1.4,0.8-2.5,0.1-2.5-1.4v-36.5C31.6,118.8,32.5,117.2,34,116.2z"/>
		<g id="freepik--box--inject-5">
			<path class="st14" d="M46.5,123.3l117.7-67.9c1.4-0.8,2.5-0.2,2.5,1.4v36.5c-0.1,1.7-1,3.3-2.5,4.3L46.5,165.5
				c-1.4,0.8-2.5,0.1-2.5-1.4v-36.5C44.1,125.8,45,124.3,46.5,123.3z"/>
			<path class="st17" d="M44.7,125.2l-6.3-3.7c-0.5,0.8-0.7,1.6-0.7,2.5v36.5c-0.1,0.6,0.2,1.2,0.7,1.6c0.5,0.3,5.8,3.4,6.3,3.6
				c-0.5-0.4-0.7-1-0.7-1.6v-36.6C44,126.7,44.3,125.9,44.7,125.2z"/>
			<path class="st20" d="M44.7,125.2l-6.3-3.7c-0.5,0.8-0.7,1.6-0.7,2.5v36.5c-0.1,0.6,0.2,1.2,0.7,1.6c0.5,0.3,5.8,3.4,6.3,3.6
				c-0.5-0.4-0.7-1-0.7-1.6v-36.6C44,126.7,44.3,125.9,44.7,125.2z"/>
			<path class="st11" d="M165.8,55.2c-0.9-0.5-5.8-3.3-6.2-3.6c-0.6-0.3-1.2-0.2-1.8,0.2L40.2,119.7c-0.7,0.5-1.3,1.1-1.7,1.8
				l6.3,3.7c0.4-0.8,1-1.4,1.7-1.8l117.7-67.9C164.6,55.1,165.2,55,165.8,55.2z"/>
			<path class="st17" d="M165.8,55.2c-0.9-0.5-5.8-3.3-6.2-3.6c-0.6-0.3-1.2-0.2-1.8,0.2L40.2,119.7c-0.7,0.5-1.3,1.1-1.7,1.8
				l6.3,3.7c0.4-0.8,1-1.4,1.7-1.8l117.7-67.9C164.6,55.1,165.2,55,165.8,55.2z"/>
		</g>
	</g>
</g>
<g id="freepik--Text--inject-5">
	<path class="st3" d="M66.2,134l4-13l0.3-0.7c0.1-0.3,0.3-0.5,0.6-0.7l1.4-0.8c0.1-0.1,0.3-0.1,0.4,0c0.1,0.1,0.2,0.3,0.2,0.5v20.8
		c0,0.2-0.1,0.5-0.2,0.7c-0.1,0.2-0.2,0.4-0.4,0.5l-1.7,1c-0.1,0.1-0.3,0.1-0.4,0c-0.1-0.1-0.2-0.3-0.2-0.5v-12.6l-2.7,8.8
		c-0.1,0.2-0.2,0.5-0.3,0.7c-0.1,0.2-0.3,0.4-0.5,0.6l-1.1,0.6c-0.1,0.1-0.3,0.1-0.5,0c-0.1-0.1-0.2-0.2-0.3-0.4l-2.7-5.7v12.6
		c0,0.2-0.1,0.5-0.2,0.7c-0.1,0.2-0.2,0.4-0.4,0.5l-1.7,1c-0.1,0.1-0.3,0.1-0.4,0c-0.1-0.1-0.2-0.3-0.2-0.5v-20.9
		c0-0.2,0.1-0.5,0.2-0.7c0.1-0.2,0.2-0.4,0.4-0.5l1.4-0.8c0.3-0.2,0.5-0.2,0.6,0s0.2,0.3,0.3,0.3L66.2,134z"/>
	<path class="st3" d="M88,109.9c0.1-0.1,0.3-0.1,0.4,0c0.1,0.1,0.2,0.3,0.2,0.5c0,0.1,0,0.2,0,0.3l-5,16.3v7.1
		c0,0.2-0.1,0.5-0.2,0.7c-0.1,0.2-0.2,0.4-0.4,0.5l-1.7,1c-0.1,0.1-0.3,0.1-0.4,0c-0.1-0.1-0.2-0.3-0.2-0.5v-7.1l-5-10.6
		c0-0.1,0-0.2,0-0.3c0-0.2,0.1-0.5,0.2-0.7c0.1-0.2,0.2-0.4,0.4-0.5l1.6-0.9c0.3-0.2,0.5-0.2,0.6,0c0.1,0.1,0.2,0.2,0.3,0.3l3.4,7.2
		l3.4-11.1c0.1-0.2,0.1-0.4,0.3-0.6c0.1-0.3,0.4-0.5,0.6-0.7L88,109.9z"/>
	<path class="st3" d="M105.2,100c0.1-0.1,0.3-0.1,0.4,0c0.1,0.1,0.2,0.3,0.2,0.5v2.3c0,0.2-0.1,0.5-0.2,0.7
		c-0.1,0.2-0.2,0.4-0.4,0.5l-3.8,2.2v17.7c0,0.2-0.1,0.5-0.2,0.7c-0.1,0.2-0.2,0.4-0.4,0.5l-1.7,1c-0.1,0.1-0.3,0.1-0.4,0
		c-0.1-0.1-0.2-0.3-0.2-0.5v-17.8l-3.8,2.2c-0.1,0.1-0.3,0.1-0.4,0c-0.1-0.1-0.2-0.3-0.2-0.5v-2.3c0-0.2,0.1-0.5,0.2-0.7
		c0.1-0.2,0.2-0.4,0.4-0.5L105.2,100z"/>
	<path class="st3" d="M118.1,111c0.1-0.1,0.3-0.1,0.4,0c0.1,0.1,0.2,0.3,0.2,0.5v2.3c0,0.2-0.1,0.5-0.2,0.7
		c-0.1,0.2-0.2,0.4-0.4,0.5l-9.2,5.3c-0.1,0.1-0.3,0.1-0.4,0c-0.1-0.1-0.2-0.3-0.2-0.5V99c0-0.2,0.1-0.5,0.2-0.7
		c0.1-0.2,0.2-0.4,0.4-0.5l9-5.2c0.1-0.1,0.3-0.1,0.4,0c0.1,0.1,0.2,0.3,0.2,0.5v2.3c0,0.2-0.1,0.5-0.2,0.7
		c-0.1,0.2-0.2,0.4-0.4,0.5l-6.8,3.9v5.1l6.3-3.6c0.1-0.1,0.3-0.1,0.4,0c0.1,0.1,0.2,0.3,0.2,0.5v2.3c0,0.2-0.1,0.5-0.2,0.7
		c-0.1,0.2-0.2,0.4-0.4,0.5l-6.3,3.7v5.3L118.1,111z"/>
	<path class="st3" d="M128.7,86.4c0.2-0.1,0.4-0.1,0.5,0c0.1,0.2,0.3,0.4,0.3,0.7l5.1,17.4c0,0.1,0,0.1,0,0.2c0,0.2-0.1,0.5-0.2,0.7
		c-0.1,0.2-0.2,0.4-0.4,0.5l-1.5,0.9c-0.3,0.2-0.5,0.2-0.6,0.1c-0.1-0.1-0.2-0.3-0.2-0.4l-0.9-3.1l-6.6,3.8l-0.9,4.1
		c-0.1,0.2-0.1,0.5-0.2,0.7c-0.1,0.3-0.3,0.5-0.6,0.6l-1.5,0.9c-0.1,0.1-0.3,0.1-0.4,0c-0.1-0.1-0.2-0.3-0.2-0.5c0-0.1,0-0.2,0-0.2
		l5.1-23.4c0.1-0.3,0.2-0.7,0.3-1c0.1-0.2,0.3-0.4,0.5-0.6L128.7,86.4z M129.9,99.9l-2.3-7.9l-2.3,10.5L129.9,99.9z"/>
	<path class="st3" d="M144,89.1l4-12.9c0.1-0.1,0.1-0.4,0.3-0.7c0.1-0.3,0.3-0.5,0.6-0.7l1.4-0.8c0.1-0.1,0.3-0.1,0.4,0
		c0.1,0.1,0.2,0.3,0.2,0.5v20.9c0,0.2-0.1,0.5-0.2,0.7c-0.1,0.2-0.2,0.4-0.4,0.5l-1.7,1c-0.1,0.1-0.3,0.1-0.4,0
		c-0.1-0.1-0.2-0.3-0.2-0.5V84.3l-2.7,8.8c-0.1,0.2-0.2,0.5-0.3,0.7c-0.1,0.2-0.3,0.4-0.5,0.6l-1.1,0.6c-0.2,0.1-0.4,0.1-0.5,0
		c-0.1-0.1-0.2-0.2-0.3-0.4L140,89v12.6c0,0.2-0.1,0.5-0.2,0.7c-0.1,0.2-0.2,0.4-0.4,0.5l-1.7,1c-0.1,0.1-0.3,0.1-0.4,0
		c-0.1-0.1-0.2-0.3-0.2-0.5V82.4c0-0.2,0.1-0.5,0.2-0.7c0.1-0.2,0.2-0.4,0.4-0.5l1.4-0.8c0.3-0.2,0.5-0.2,0.6,0l0.3,0.4L144,89.1z"
		/>
</g>
<g id="freepik--Team--inject-5">
	<g id="freepik--team-box--inject-5">
		<path class="st3" d="M268.5,167.9L268.5,167.9c0.1,0,0.4,0,0.5,0.5v0.1l0,0c0,0.1,0,0.3,0,0.4v60.6c-0.1,1.7-1,3.3-2.4,4.2
			l-102.8,59.3c-0.2,0.1-0.3,0.2-0.5,0.2l0,0c-0.1,0-0.2,0-0.3,0c-0.5,0-0.6-0.7-0.6-1v-60.6c0-0.9,0.3-1.7,0.7-2.4
			c0.4-0.7,1-1.4,1.7-1.8l102.9-59.4C268,168,268.2,167.9,268.5,167.9 M268.5,166.8c-0.5,0-0.9,0.2-1.3,0.4l-102.9,59.3
			c-0.9,0.5-1.6,1.3-2.1,2.2c-0.5,0.9-0.8,1.9-0.9,2.9v60.6c0,1.4,0.7,2.1,1.6,2.1c0.2,0,0.4,0,0.6-0.1l-0.3,0.1
			c0.4-0.1,0.7-0.2,1.1-0.4l102.9-59.4c1.8-1.1,2.9-3.1,3-5.2v-60.6c0-0.3,0-0.6-0.1-0.9C270,167.3,269.3,166.8,268.5,166.8
			L268.5,166.8z"/>
		<g id="freepik--Carrot--inject-5">
			<g id="freepik--box--inject-5_1_">
				<path class="st0" d="M285.5,177.8c-0.1-2.1-1.2-4-3-5.2l-2.4-1.4c-1.9-0.9-4.1-0.9-6,0l-102.9,59.3c-1.8,1.1-2.9,3.1-3,5.2v60.6
					c0.1,2.1,1.2,4,3,5.2l2.4,1.4c1.9,1,4.1,1,6,0l102.9-59.4c1.8-1.1,2.9-3.1,3-5.2L285.5,177.8z"/>
				<path class="st3" d="M277.1,171.6c0.8,0,1.7,0.2,2.4,0.6l2.4,1.4c1.4,0.9,2.3,2.5,2.4,4.2v60.6c-0.1,1.7-1,3.3-2.4,4.2
					L179.1,302c-0.8,0.4-1.6,0.6-2.4,0.6c-0.8,0-1.7-0.2-2.4-0.6l-2.4-1.4c-1.4-1-2.3-2.5-2.4-4.2v-60.6c0.1-1.7,1-3.3,2.4-4.2
					l102.9-59.3C275.4,171.8,276.3,171.6,277.1,171.6 M277.1,170.6c-1,0-2.1,0.2-3,0.7l-102.9,59.3c-1.8,1.1-2.9,3.1-3,5.2v60.6
					c0.1,2.1,1.2,4,3,5.2l2.4,1.4c1.9,1,4.1,1,6,0l102.9-59.4c1.8-1.1,2.9-3.1,3-5.2v-60.6c-0.1-2.1-1.2-4-3-5.2l-2.4-1.4
					C279.2,170.8,278.2,170.5,277.1,170.6L277.1,170.6z"/>
				<path class="st3" d="M168.3,296.4c0.1,2.1,1.2,4,3,5.2l2.4,1.4c1.7,0.8,3.7,0.9,5.4,0.2c-1.4,0.5-2.5-0.3-2.5-2v-60.6
					c0-1,0.3-2.1,0.9-2.9l-8.4-4.8c-0.5,0.9-0.8,1.9-0.9,2.9L168.3,296.4z"/>
				<path class="st4" d="M285.4,177c-0.3-1.3-1.5-1.7-2.9-0.9l-102.9,59.3c-0.9,0.5-1.6,1.3-2.1,2.2l-8.4-4.8
					c0.5-0.9,1.2-1.7,2.1-2.2l102.9-59.3c1.9-1,4.1-1,6,0l2.4,1.4C284.1,173.7,285.1,175.2,285.4,177z"/>
			</g>
		</g>
		<path class="st3" d="M203.8,231.6c11.2-6.4,20.2-1.2,20.2,11.7s-9,28.5-20.2,34.9s-20.2,1.2-20.2-11.6S192.7,238.1,203.8,231.6z"
			/>
		<path class="st0" d="M217.8,246.9c-0.7-1.2-2.2-1.6-3.4-0.9c0,0,0,0,0,0l-8,4.6v-11.4c0-1.4-1.1-2.5-2.5-2.5s-2.5,1.1-2.5,2.5l0,0
			v14.3l-10.5,6.1c-1.2,0.7-1.6,2.2-0.9,3.4c0.4,0.8,1.3,1.2,2.1,1.2c0.4,0,0.9-0.1,1.2-0.3l8.1-4.6v11.4c0,1.4,1.1,2.5,2.5,2.5
			s2.5-1.1,2.5-2.5v-14.3l10.5-6.1C218.1,249.6,218.5,248.1,217.8,246.9C217.8,246.9,217.8,246.9,217.8,246.9z"/>
	</g>
	<g id="freepik--team-box--inject-5_1_">
		<path class="st12" d="M268.5,62.9L268.5,62.9c0.1,0,0.4,0,0.5,0.5v0.1l0,0c0,0.1,0,0.3,0,0.4v60.6c-0.1,1.7-1,3.3-2.4,4.2
			l-102.8,59.3c-0.2,0.1-0.3,0.2-0.5,0.2l0,0c-0.1,0-0.2,0.1-0.3,0.1c-0.5,0-0.6-0.6-0.6-1v-60.6c0-0.9,0.3-1.7,0.7-2.4
			c0.4-0.7,1-1.4,1.7-1.8l102.9-59.4C268,63,268.2,62.9,268.5,62.9 M268.5,61.8c-0.5,0-0.9,0.2-1.3,0.4l-102.9,59.3
			c-0.9,0.5-1.6,1.3-2.1,2.2c-0.5,0.9-0.8,1.9-0.9,2.9v60.6c0,1.3,0.7,2.1,1.6,2.1c0.2,0,0.4,0,0.6-0.1l-0.3,0.1
			c0.4-0.1,0.7-0.2,1.1-0.4l102.9-59.4c1.8-1.1,2.9-3.1,3-5.2V63.9c0-0.3,0-0.6-0.1-0.8C270,62.3,269.3,61.8,268.5,61.8L268.5,61.8z
			"/>
		<g class="st21">
			<path class="st22" d="M268.5,62.9L268.5,62.9c0.1,0,0.4,0,0.5,0.5v0.1l0,0c0,0.1,0,0.3,0,0.4v60.6c-0.1,1.7-1,3.3-2.4,4.2
				l-102.8,59.3c-0.2,0.1-0.3,0.2-0.5,0.2l0,0c-0.1,0-0.2,0.1-0.3,0.1c-0.5,0-0.6-0.6-0.6-1v-60.6c0-0.9,0.3-1.7,0.7-2.4
				c0.4-0.7,1-1.4,1.7-1.8l102.9-59.4C268,63,268.2,62.9,268.5,62.9 M268.5,61.8c-0.5,0-0.9,0.2-1.3,0.4l-102.9,59.3
				c-0.9,0.5-1.6,1.3-2.1,2.2c-0.5,0.9-0.8,1.9-0.9,2.9v60.6c0,1.3,0.7,2.1,1.6,2.1c0.2,0,0.4,0,0.6-0.1l-0.3,0.1
				c0.4-0.1,0.7-0.2,1.1-0.4l102.9-59.4c1.8-1.1,2.9-3.1,3-5.2V63.9c0-0.3,0-0.6-0.1-0.8C270,62.3,269.3,61.8,268.5,61.8L268.5,61.8
				z"/>
		</g>
		<g id="freepik--carrot--inject-5">
			<g id="freepik--box--inject-5_2_">
				<path class="st0" d="M176.7,198.1c-0.9,0-1.9-0.2-2.7-0.6l-2.4-1.4c-1.6-1.1-2.6-2.8-2.7-4.7v-60.6c0.1-1.9,1.1-3.6,2.7-4.7
					l102.9-59.3c1.7-0.9,3.7-0.9,5.4,0l2.4,1.4c1.6,1.1,2.6,2.8,2.7,4.7v60.6c-0.1,1.9-1.1,3.6-2.7,4.7l-102.9,59.3
					C178.6,197.9,177.6,198.1,176.7,198.1z"/>
				<path class="st7" d="M277.1,66.6c0.8,0,1.7,0.2,2.4,0.6l2.4,1.4c1.4,0.9,2.3,2.5,2.4,4.2v60.6c-0.1,1.7-1,3.3-2.5,4.2L179.1,197
					c-0.8,0.4-1.6,0.6-2.4,0.6c-0.8,0-1.7-0.2-2.4-0.6l-2.4-1.4c-1.4-1-2.3-2.5-2.4-4.2v-60.6c0.1-1.7,1-3.3,2.4-4.2l102.9-59.4
					C275.5,66.8,276.3,66.6,277.1,66.6 M277.1,65.5c-1,0-2.1,0.2-3,0.7l-102.8,59.3c-1.8,1.1-2.9,3.1-3,5.2v60.6
					c0.1,2.1,1.2,4,3,5.2l2.4,1.4c1.9,1,4.1,1,6,0l102.9-59.3c1.8-1.1,2.9-3.1,3-5.2V72.8c-0.1-2.1-1.2-4-3-5.2l-2.4-1.4
					C279.2,65.8,278.2,65.5,277.1,65.5L277.1,65.5z"/>
				<path class="st7" d="M168.3,191.4c0.1,2.1,1.2,4,3,5.2l2.4,1.4c1.7,0.9,3.7,0.9,5.4,0.2c-1.4,0.5-2.5-0.3-2.5-2v-60.6
					c0-1,0.3-2,0.9-2.9l-8.4-4.8c-0.5,0.9-0.8,1.9-0.9,2.9L168.3,191.4z"/>
				<path class="st11" d="M285.4,72c-0.3-1.3-1.5-1.7-2.9-0.9l-102.9,59.3c-0.9,0.5-1.6,1.3-2.1,2.2l-8.4-4.8
					c0.5-0.9,1.2-1.7,2.1-2.2l102.9-59.3c1.9-1,4.1-1,6,0l2.4,1.4C284.1,68.7,285.1,70.2,285.4,72z"/>
				<path class="st12" d="M285.4,72c-0.3-1.3-1.5-1.7-2.9-0.9l-102.9,59.3c-0.9,0.5-1.6,1.3-2.1,2.2l-8.4-4.8
					c0.5-0.9,1.2-1.7,2.1-2.2l102.9-59.3c1.9-1,4.1-1,6,0l2.4,1.4C284.1,68.7,285.1,70.2,285.4,72z"/>
			</g>
		</g>
		<g id="freepik--Character--inject-5">
			<path class="st0" d="M227.5,136.4c0,7.1-2.5,14.9-6.5,21.9c-0.6,1.1-1.3,2.2-2,3.3s-1.4,2.1-2.2,3.1s-1.4,1.7-2.1,2.6
				c-0.3,0.4-0.7,0.8-1,1.1c-2.5,2.7-5.4,5-8.5,6.9c-1.5,0.9-3.1,1.6-4.7,2.1c-0.5,0.2-1,0.3-1.5,0.4c-2.6,0.7-5.4,0.6-8-0.2
				c-5-1.9-8.2-7.2-8.2-15.3c0-14.3,10-31.7,22.4-38.8S227.5,122.1,227.5,136.4z"/>
			<g id="freepik--character--inject-5">
				<g id="freepik--Chest--inject-5">
					<path class="st23" d="M221.5,157.4c-0.2,0.3-0.3,0.6-0.5,0.9c-0.4,0.6-0.7,1.2-1.1,1.8s-0.6,1-0.9,1.5
						c-0.7,1.1-1.4,2.1-2.2,3.1l-0.2,0.3l-1.2-6.7C217.4,157.6,219.5,157.3,221.5,157.4z"/>
					<g id="freepik--chest--inject-5">
						<path class="st6" d="M220,160.1c-0.3,0.5-0.6,1-0.9,1.5c-0.7,1.1-1.4,2.1-2.2,3.1l-0.2,0.3c-0.6,0.8-1.3,1.6-1.9,2.3l-1,1.1
							c-2.5,2.7-5.4,5-8.5,6.9c-1.5,0.9-3,1.6-4.7,2.1c-0.5,0.2-1,0.3-1.6,0.4c-1.9,0.5-3.9,0.6-5.9,0.3c-1.7-0.2-3.3-0.9-4.6-1.9
							c0.3-1.9,0.8-3.3,1.6-4c3-2.3,4.6-3.8,6.1-4.9c2.9-3.4,6.7-5.8,11-7c2.7-0.7,5.4-1.5,8.4-2.1C217.3,157.9,219,158.7,220,160.1
							z"/>
					</g>
					<g id="freepik--Head--inject-5">
						<path class="st3" d="M196.5,135.7c-2.9,4.8-1.8,10.3-0.5,14.7c1.5,5,2.1,6.9,3.9,7.6c-1.3-16.7,4.5,1.7,15.8-14.6
							c2-2.9,2.4-10.6-0.3-13.3C211.5,126.4,202.3,126.5,196.5,135.7z"/>
						<path class="st24" d="M195.8,155.2c1.7,0.8,3.1-1.5,3.1-1.5l0.8,11.1c0,0,0,1.4,2.9,2.4c1.9,0.7,5.9,0.3,8.2,2.2
							c1-2.1,1.7-5.8-0.4-8.1l-0.2-3.4c1.1-0.3,2.2-0.7,3.3-1.2c1.6-0.9,2.6-2.4,3.1-5.1c0.9-4.4,0.4-10.4-1.2-18
							c-2.4-1.5-9.9,0.1-14.6,4.9c0.4,4.6-0.7,7-0.6,8.7c-0.2,0.6-0.5,1.1-0.8,1.6c-0.7,0.9-1.4-0.8-2.1-1.4s-2.8-1.1-3.7,1.6
							S194.4,154.6,195.8,155.2z"/>
						<path class="st25" d="M210.3,158c-2,0.5-5.8,0.3-7.3-0.9c-1-0.8-1.8-1.8-2.5-2.9c0.3,1.6,1,3,2.2,4.1c3.1,2.4,7.7,1.4,7.7,1.4
							L210.3,158z"/>
						<path class="st3" d="M206.3,141.2l-2,1.9c-0.3-0.7-0.2-1.5,0.3-2c0.3-0.5,0.9-0.6,1.4-0.2C206.1,141,206.2,141.1,206.3,141.2z
							"/>
						<path class="st3" d="M215.1,138.8l-2.4-0.1c0.1-0.7,0.7-1.3,1.4-1.3c0.6,0.1,1.1,0.7,1,1.3
							C215.2,138.7,215.2,138.8,215.1,138.8z"/>
						<path class="st5" d="M205.5,144.6c0,0.4,0.3,0.8,0.8,0.8c0.1,0,0.2,0,0.2,0c0.6-0.2,0.9-0.8,0.9-1.4c0-0.4-0.3-0.8-0.8-0.8
							c-0.1,0-0.2,0-0.2,0C205.8,143.5,205.4,144,205.5,144.6z"/>
						<path class="st5" d="M213,142.1c0,0.4,0.3,0.8,0.8,0.8c0.1,0,0.2,0,0.2,0c0.6-0.2,0.9-0.8,0.9-1.4c0-0.4-0.3-0.8-0.8-0.8
							c-0.1,0-0.2,0-0.2,0C213.3,140.9,213,141.5,213,142.1z"/>
						<path class="st25" d="M209.3,142.3l1.4,6.5l3.2-2.3C212.6,144.6,210.6,142.7,209.3,142.3z"/>
						<path class="st26" d="M208.1,151l3.5,0.2c0,0.9-0.8,1.6-1.7,1.6c0,0,0,0,0,0C208.9,152.8,208.1,152,208.1,151z"/>
						<path class="st27" d="M209.9,152.8c0.3,0,0.6-0.1,0.9-0.2c-0.3-0.7-1.1-1.2-1.9-1.2c-0.2,0-0.4,0-0.6,0.1
							C208.4,152.2,209.1,152.7,209.9,152.8z"/>
					</g>
					<g id="freepik--head--inject-5">
						<path class="st23" d="M210.9,169.5c-1.3-0.5-4.6-1.2-4.8-0.2c-0.2,0.7-0.7,3.3-1.6,3.5c-2.5,0.2-5.1-0.7-6.8-2.6
							c-0.8-0.8-1.3-1.7-1.5-2.8c0,0,1.1-2.9,1.8-4.2s0.9-2.1,1.6-2.4l0.2,2.3c0.6,0.9,1.3,1.6,2.3,2.1
							C204.2,166.4,208.6,167.1,210.9,169.5z"/>
						<path class="st23" d="M210.9,169.5c0.7-1,1.8-4.4,2.4-4.5c1.2-0.1,2.1,0.7,2.1,0s-0.9-2-2-3.9c-0.8-1.4-2.2-2.4-3-2.3l0.2,3.2
							c0.4,0.8,0.6,1.7,0.6,2.6C211.4,166.3,211.3,168,210.9,169.5z"/>
					</g>
					<path class="st23" d="M193,178.1c-2.4-0.3-4.5-1.5-6.2-3.2c1-1,2-1.8,3.1-2.6C191.4,173.9,192.4,175.9,193,178.1z"/>
				</g>
			</g>
			<path class="st7" d="M215.1,121.6L215.1,121.6c6.9,0,11.2,5.7,11.2,14.8c0,6.6-2.2,14.2-6.3,21.3c-0.6,1.1-1.3,2.1-2,3.2
				s-1.4,2-2.2,3s-1.4,1.7-2.1,2.5l-1,1.1c-2.4,2.6-5.2,4.8-8.3,6.6c-1.4,0.8-2.9,1.5-4.4,2c-0.5,0.2-1,0.3-1.5,0.4
				c-1.1,0.3-2.3,0.4-3.5,0.4c-1.3,0-2.6-0.2-3.8-0.6c-4.7-1.7-7.4-6.9-7.4-14.1c0-13.9,9.8-30.8,21.8-37.7
				C208.5,122.7,211.8,121.7,215.1,121.6 M215.1,120.4c-3.5,0.1-7,1.2-10,3.1c-12.4,7.1-22.4,24.5-22.4,38.8
				c0,8.1,3.2,13.4,8.2,15.3c1.3,0.5,2.8,0.7,4.2,0.7c1.3,0,2.6-0.2,3.8-0.5c0.5-0.1,1-0.3,1.5-0.4c1.6-0.6,3.2-1.3,4.7-2.1
				c3.2-1.9,6-4.2,8.5-6.9c0.4-0.4,0.7-0.8,1-1.1c0.7-0.8,1.4-1.7,2.1-2.6s1.5-2,2.2-3.1s1.4-2.1,2-3.3c4-7,6.5-14.8,6.5-21.9
				C227.4,126.2,222.4,120.4,215.1,120.4L215.1,120.4z"/>
		</g>
		<path class="st14" d="M248.8,115L275,99.8c0.6-0.3,1.1-0.1,1.1,0.6c-0.1,0.7-0.5,1.4-1.1,1.8l-26.3,15.2c-0.6,0.3-1.1,0.1-1.1-0.5
			C247.7,116.1,248.1,115.4,248.8,115z"/>
		<path class="st3" d="M243.6,125.5c-0.2,0-0.3-0.1-0.4-0.3c-0.1-0.2,0-0.5,0.2-0.7l36.6-21.1c0.2-0.1,0.5-0.1,0.7,0.2
			c0.1,0.2,0.1,0.5-0.2,0.7l-36.6,21.1C243.8,125.5,243.7,125.5,243.6,125.5z"/>
		<path class="st3" d="M243.6,130.2c-0.2,0-0.3-0.1-0.4-0.3c-0.1-0.2,0-0.5,0.2-0.7l36.6-21.1c0.2-0.1,0.5,0,0.7,0.2
			c0.1,0.2,0.1,0.5-0.2,0.7l-36.6,21.1C243.8,130.2,243.7,130.2,243.6,130.2z"/>
		<path class="st3" d="M243.6,134.9c-0.2,0-0.3-0.1-0.4-0.3c-0.1-0.2,0-0.5,0.2-0.7l36.6-21.1c0.2-0.1,0.5,0,0.7,0.2
			c0.1,0.2,0.1,0.5-0.2,0.7l-36.6,21.1C243.8,134.9,243.7,134.9,243.6,134.9z"/>
		<path class="st3" d="M243.6,139.6c-0.2,0-0.3-0.1-0.4-0.3c-0.1-0.2,0-0.5,0.2-0.7l36.6-21.1c0.2-0.1,0.5-0.1,0.7,0.2
			c0.1,0.2,0.1,0.5-0.2,0.7l-36.6,21.1C243.8,139.6,243.7,139.6,243.6,139.6z"/>
	</g>
	<g id="freepik--team-box--inject-5_2_">
		<path class="st12" d="M138.7,137.8L138.7,137.8c0.1,0,0.4,0,0.5,0.5v0.1l0,0c0,0.1,0,0.3,0,0.4v60.6c-0.1,1.7-1,3.3-2.4,4.2
			L34,263c-0.2,0.1-0.3,0.2-0.5,0.2l0,0c-0.1,0-0.2,0.1-0.3,0c-0.5,0-0.6-0.6-0.6-1v-60.6c0-0.9,0.3-1.7,0.7-2.4
			c0.4-0.7,1-1.4,1.7-1.8L137.9,138C138.2,137.8,138.4,137.8,138.7,137.8 M138.7,136.7c-0.5,0-0.9,0.2-1.3,0.4L34.5,196.4
			c-0.9,0.5-1.6,1.3-2.1,2.2c-0.5,0.9-0.8,1.9-0.9,2.9v60.6c0,1.3,0.7,2.1,1.6,2.1c0.2,0,0.4,0,0.6-0.1l-0.3,0.1
			c0.4-0.1,0.7-0.2,1.1-0.4l102.9-59.4c1.8-1.1,2.9-3.1,3-5.2v-60.6c0-0.3,0-0.6-0.1-0.9C140.1,137.2,139.5,136.7,138.7,136.7
			L138.7,136.7z"/>
		<g class="st21">
			<path class="st22" d="M138.7,137.8L138.7,137.8c0.1,0,0.4,0,0.5,0.5v0.1l0,0c0,0.1,0,0.3,0,0.4v60.6c-0.1,1.7-1,3.3-2.4,4.2
				L34,263c-0.2,0.1-0.3,0.2-0.5,0.2l0,0c-0.1,0-0.2,0.1-0.3,0c-0.5,0-0.6-0.6-0.6-1v-60.6c0-0.9,0.3-1.7,0.7-2.4
				c0.4-0.7,1-1.4,1.7-1.8L137.9,138C138.2,137.8,138.4,137.8,138.7,137.8 M138.7,136.7c-0.5,0-0.9,0.2-1.3,0.4L34.5,196.4
				c-0.9,0.5-1.6,1.3-2.1,2.2c-0.5,0.9-0.8,1.9-0.9,2.9v60.6c0,1.3,0.7,2.1,1.6,2.1c0.2,0,0.4,0,0.6-0.1l-0.3,0.1
				c0.4-0.1,0.7-0.2,1.1-0.4l102.9-59.4c1.8-1.1,2.9-3.1,3-5.2v-60.6c0-0.3,0-0.6-0.1-0.9C140.1,137.2,139.5,136.7,138.7,136.7
				L138.7,136.7z"/>
		</g>
		<g id="freepik--carrot--inject-5_1_">
			<g id="freepik--box--inject-5_3_">
				<path class="st0" d="M46.9,273c-0.9,0-1.9-0.2-2.7-0.6l-2.4-1.4c-1.6-1.1-2.6-2.8-2.7-4.7v-60.6c0.1-1.9,1.1-3.6,2.7-4.7
					l102.9-59.4c0.8-0.4,1.8-0.7,2.7-0.6c0.9,0,1.9,0.2,2.7,0.6l2.4,1.4c1.6,1.1,2.6,2.8,2.7,4.7v60.6c-0.1,1.9-1.1,3.6-2.7,4.7
					L49.6,272.3C48.8,272.8,47.8,273,46.9,273z"/>
				<path class="st7" d="M147.3,141.5c0.8,0,1.7,0.2,2.4,0.6l2.4,1.4c1.4,0.9,2.3,2.5,2.4,4.2v60.6c-0.1,1.7-1,3.3-2.4,4.2
					L49.3,271.9c-1.5,0.8-3.3,0.8-4.9,0l-2.5-1.4c-1.4-1-2.3-2.5-2.4-4.2v-60.6c0.1-1.7,1-3.3,2.4-4.2l102.9-59.3
					C145.7,141.7,146.5,141.5,147.3,141.5 M147.3,140.4c-1,0-2.1,0.2-3,0.7L41.5,200.5c-1.8,1.1-2.9,3.1-3,5.2v60.6
					c0.1,2.1,1.2,4,3,5.2l2.4,1.4c1.9,1,4.1,1,6,0l102.9-59.3c1.8-1.1,2.9-3.1,3-5.2v-60.6c-0.1-2.1-1.2-4-3-5.2l-2.4-1.4
					C149.4,140.6,148.4,140.4,147.3,140.4L147.3,140.4z"/>
				<path class="st7" d="M38.5,266.2c0.1,2.1,1.2,4,3,5.2l2.4,1.4c1.7,0.9,3.7,0.9,5.5,0.2c-1.4,0.5-2.5-0.3-2.5-2v-60.6
					c0-1,0.3-2,0.9-2.9l-8.4-4.8c-0.5,0.9-0.8,1.9-0.9,2.9L38.5,266.2z"/>
				<path class="st11" d="M155.6,146.8c-0.3-1.3-1.5-1.7-2.9-0.9L49.9,205.3c-0.9,0.5-1.6,1.3-2.1,2.2l-8.4-4.8
					c0.5-0.9,1.2-1.7,2.1-2.2l102.9-59.4c1.9-1,4.1-1,6,0l2.4,1.4C154.3,143.5,155.3,145.1,155.6,146.8z"/>
				<path class="st12" d="M155.6,146.8c-0.3-1.3-1.5-1.7-2.9-0.9L49.9,205.3c-0.9,0.5-1.6,1.3-2.1,2.2l-8.4-4.8
					c0.5-0.9,1.2-1.7,2.1-2.2l102.9-59.4c1.9-1,4.1-1,6,0l2.4,1.4C154.3,143.5,155.3,145.1,155.6,146.8z"/>
			</g>
		</g>
		<g id="freepik--character--inject-5_2_">
			<path class="st0" d="M97.7,211.3c0,7.1-2.5,14.9-6.5,21.9c-0.6,1.1-1.3,2.2-2,3.3c-0.7,1.1-1.5,2.1-2.2,3.1s-1.4,1.7-2.1,2.5
				c-0.3,0.4-0.7,0.8-1.1,1.1c-2.5,2.7-5.4,5-8.5,6.9c-1.5,0.9-3,1.6-4.7,2.1c-0.5,0.2-1,0.3-1.6,0.4c-2.6,0.7-5.4,0.6-8-0.3
				c-5-1.9-8.2-7.2-8.2-15.3c0-14.3,10-31.7,22.4-38.8S97.7,197,97.7,211.3z"/>
			<g id="freepik--character--inject-5_1_">
				<g id="freepik--Arm--inject-5">
					<path class="st28" d="M91.3,233.3c-0.6,1.1-1.3,2.2-2,3.3c-0.7,1.1-1.5,2.1-2.2,3.1l-2-5.7l0,0C87.7,233,89.5,232.6,91.3,233.3
						z"/>
				</g>
				<g id="freepik--chest--inject-5_1_">
					<g>
						<path class="st14" d="M89.1,235.6c-0.7,1.1-1.5,2.1-2.2,3.1s-1.4,1.7-2.1,2.6c-0.3,0.4-0.7,0.8-1,1.1c-2.5,2.7-5.4,5-8.5,6.9
							c-1.5,0.9-3,1.6-4.7,2.1c-0.5,0.2-1,0.3-1.6,0.4c0-3.7-0.9-7.3-2.4-10.6c0,0,1.9-1,5.4-2.9l0.1-0.1c2.8-1.9,4.7-1.6,9.9-3.8
							c0.1-0.1-0.6-0.4-0.6-0.4l3.4-1l0,0C86.4,233.8,87.8,234.7,89.1,235.6z"/>
					</g>
				</g>
				<g id="freepik--head--inject-5_1_">
					<path class="st29" d="M88.7,207.4c-3.2-4-10.4-6-18.6,1.3s-9.8,23.2-1.3,26.9c6.4,2.8,16.5,2.2,19.8-4.4c-4,1-1.4-7.5,0.7-11.8
						C91.6,214.4,90.6,209.7,88.7,207.4z"/>
					<path class="st28" d="M87.7,226.3c-0.2,1.2-0.7,2.3-1.4,3.4c-0.9,1.1-2.2,1.7-4.3,2.4l0.1,1.4v0.9v1v1.6c0,0,2.5,3,2.7,5.2
						c-0.3,0.4-0.7,0.8-1.1,1.1c-4.2-0.2-8.2-1.6-11.8-3.8v-0.2l0-2.4l-0.3-5.8v-1.6c0,0.2-0.1,0.4-0.3,0.6
						c-0.2,0.3-0.5,0.6-0.9,0.7c-0.7,0.3-1.4,0.4-2.1,0.1c-0.1,0-0.1,0-0.2-0.1c-0.1,0-0.2-0.1-0.2-0.1c-0.1,0-0.1-0.1-0.2-0.1
						c-0.1,0-0.1-0.1-0.1-0.1l0,0c-0.1,0-0.1-0.1-0.2-0.1c-1.5-1.2-2-3.2-1.3-4.9c0.5-1.2,1.9-2.3,3-1.9s1.2,1.1,1.7,1.8
						s2.6-1.5,1.1-5.4c1.8-1.4,3.2-4.3,2.8-5.9c0.8-2.8,5.4-3.5,6.4-2.4c0.8-1.8,2.3-2.8,3.7-2.4s2.8,1.4,3.3,7.6
						c0.1,1,0.1,2.1,0.1,2.6C88.4,221.6,88.2,224,87.7,226.3z"/>
					<path class="st30" d="M78.6,225.9l3.1,0.1c-0.1,1-1,1.8-2,1.8C78.8,227.8,78.4,227,78.6,225.9z"/>
					<path class="st27" d="M80.6,227.6c-0.1-0.7-0.8-1.3-1.5-1.2c-0.1,0-0.2,0-0.3,0.1l-0.2,0.1c0,0.6,0.5,1.2,1.1,1.2
						C80,227.8,80.3,227.8,80.6,227.6z"/>
					<polygon class="st30" points="81.5,217.7 82.2,223.8 85.2,221.8 					"/>
					<path class="st30" d="M82,232c-2.3,0.4-4.6,0.5-6.8,0.1c-0.7-0.1-1.8-1.2-2.7-2.6c0,0,0.8,2.9,2.4,3.5c2.4,0.9,7.2,0.3,7.2,0.3
						L82,232z"/>
					<path class="st23" d="M86.6,214.9l-2.2,0.1c0.2-0.7,0.8-1.2,1.5-1.3C86.4,213.7,86.8,214.3,86.6,214.9z"/>
					<path class="st23" d="M79.2,216.9l-2.4,1.6c-0.1-0.7,0.2-1.5,0.8-1.8C78.3,216.3,79,216.4,79.2,216.9z"/>
					<path class="st23" d="M86.2,217.5c0.1,0.4-0.2,0.7-0.7,1s-0.9,0.5-1,0.1c-0.1-0.5,0.2-1.1,0.6-1.3
						C85.6,216.9,86.1,217,86.2,217.5z"/>
					<path class="st23" d="M84.7,217.6c0.2-0.2,0.4-0.3,0.7-0.4c0.2-0.1,0.5-0.2,0.7-0.3c0.2,0,0.5,0,0.7,0c0,0,0,0,0,0.1
						c-0.2,0-0.4,0.1-0.6,0.1c-0.3,0.1-0.5,0.2-0.8,0.3c-0.3,0.2-0.6,0.4-0.9,0.6l-0.3,0.3c0,0,0,0,0-0.1
						C84.3,217.9,84.5,217.7,84.7,217.6z"/>
					<path class="st23" d="M77.3,220.1c-0.2,0.5,0.2,0.5,0.7,0.5s0.9-0.1,1-0.7s-0.1-0.9-0.6-0.9C77.9,219.2,77.5,219.6,77.3,220.1z
						"/>
					<path class="st23" d="M78.9,219.1c-0.2,0-0.5,0-0.7,0.1c-0.2,0-0.5,0.1-0.7,0.3c-0.3,0.1-0.5,0.3-0.7,0.5c0,0,0,0.1,0,0.1
						c0.2-0.1,0.3-0.2,0.6-0.3c0.2-0.1,0.5-0.2,0.8-0.2c0.3-0.1,0.6-0.1,0.9-0.1h0.3c0,0,0-0.1,0-0.1
						C79.3,219.1,79.1,219.1,78.9,219.1z"/>
				</g>
				<g id="freepik--arm--inject-5">
					<path class="st28" d="M70.7,252.3c-0.5,0.2-1,0.3-1.6,0.4c-2.6,0.7-5.4,0.6-8-0.3c-0.9-0.5-1.8-1.2-2.5-2
						c2.8-6.5,4.2-7.7,7.9-9.3l0,0C69.1,243.1,70.2,249.4,70.7,252.3z"/>
				</g>
			</g>
			<path class="st7" d="M85.3,196.6L85.3,196.6c6.9,0,11.2,5.7,11.2,14.8c0,6.6-2.2,14.2-6.3,21.3c-0.6,1.1-1.3,2.1-2,3.2
				s-1.4,2-2.2,3s-1.4,1.7-2.1,2.5c-0.3,0.4-0.7,0.8-1,1.1c-2.4,2.6-5.2,4.8-8.3,6.6c-1.4,0.8-2.9,1.5-4.4,2c-0.5,0.2-1,0.3-1.4,0.4
				c-1.1,0.3-2.3,0.4-3.5,0.4c-1.3,0-2.6-0.2-3.8-0.6c-4.7-1.7-7.4-6.9-7.4-14.1c0-13.9,9.8-30.8,21.8-37.8
				C78.8,197.7,82,196.7,85.3,196.6 M85.3,195.3c-3.5,0.1-7,1.2-10,3.1c-12.4,7.1-22.4,24.5-22.4,38.8c0,8.1,3.2,13.4,8.2,15.3
				c1.3,0.5,2.8,0.7,4.2,0.7c1.3,0,2.6-0.2,3.8-0.5c0.5-0.1,1-0.3,1.6-0.4c1.6-0.6,3.2-1.3,4.7-2.1c3.2-1.9,6-4.2,8.5-6.9
				c0.3-0.4,0.7-0.8,1.1-1.1c0.7-0.8,1.4-1.7,2.1-2.5s1.5-2,2.2-3.1s1.4-2.1,2-3.3c4-7,6.5-14.8,6.5-21.9
				C97.7,201.1,92.7,195.3,85.3,195.3L85.3,195.3z"/>
		</g>
		<path class="st14" d="M111.9,194.1l26.3-15.1c0.6-0.3,1.1-0.1,1.1,0.6c-0.1,0.7-0.5,1.4-1.1,1.8l-26.3,15.2
			c-0.6,0.4-1.1,0.1-1.1-0.5C110.8,195.2,111.2,194.5,111.9,194.1z"/>
		<path class="st3" d="M106.7,204.6c-0.3,0-0.5-0.2-0.5-0.5c0-0.2,0.1-0.3,0.2-0.4l36.5-21.1c0.2-0.1,0.5-0.1,0.7,0.2
			s0.1,0.5-0.2,0.7L107,204.6C106.9,204.6,106.8,204.6,106.7,204.6z"/>
		<path class="st3" d="M106.7,209.3c-0.2,0-0.3-0.1-0.4-0.3c-0.1-0.2-0.1-0.5,0.2-0.7l36.5-21.1c0.2-0.1,0.5,0,0.7,0.2
			c0.1,0.2,0,0.5-0.2,0.7L107,209.3C106.9,209.3,106.8,209.3,106.7,209.3z"/>
		<path class="st3" d="M106.7,214c-0.2,0-0.3-0.1-0.4-0.3c-0.1-0.2-0.1-0.5,0.2-0.7L143,192c0.2-0.2,0.5-0.1,0.7,0.1
			s0.1,0.5-0.1,0.7c0,0-0.1,0-0.1,0.1L107,214C106.9,214,106.8,214,106.7,214z"/>
		<path class="st3" d="M106.7,218.7c-0.2,0-0.3-0.1-0.4-0.3c-0.1-0.2-0.1-0.5,0.2-0.7l36.5-21.1c0.2-0.2,0.5-0.1,0.7,0.1
			s0.1,0.5-0.1,0.7c0,0-0.1,0-0.1,0.1L107,218.6C106.9,218.7,106.8,218.7,106.7,218.7z"/>
	</g>
	<g id="freepik--team-box--inject-5_3_">
		<path class="st12" d="M138.7,242.8L138.7,242.8c0.1,0,0.4,0,0.5,0.5v0.1l0,0c0,0.1,0,0.3,0,0.4v60.6c-0.1,1.7-1,3.3-2.4,4.2
			L34,368c-0.2,0.1-0.3,0.2-0.5,0.2l0,0c-0.1,0-0.2,0-0.3,0c-0.5,0-0.6-0.7-0.6-1v-60.6c0-0.9,0.3-1.7,0.7-2.4
			c0.4-0.7,1-1.4,1.7-1.8L137.9,243C138.2,242.8,138.4,242.8,138.7,242.8 M138.7,241.7c-0.5,0-0.9,0.2-1.3,0.4L34.5,301.4
			c-0.9,0.5-1.6,1.3-2.1,2.2c-0.5,0.9-0.8,1.9-0.9,2.9v60.6c0,1.4,0.7,2.1,1.6,2.1c0.2,0,0.4,0,0.6-0.1l-0.3,0.1
			c0.4-0.1,0.7-0.2,1.1-0.4l102.9-59.4c1.8-1.1,2.9-3.1,3-5.2v-60.6c0-0.3,0-0.6-0.1-0.9C140.1,242.2,139.5,241.7,138.7,241.7
			L138.7,241.7z"/>
		<g class="st21">
			<path class="st22" d="M138.7,242.8L138.7,242.8c0.1,0,0.4,0,0.5,0.5v0.1l0,0c0,0.1,0,0.3,0,0.4v60.6c-0.1,1.7-1,3.3-2.4,4.2
				L34,368c-0.2,0.1-0.3,0.2-0.5,0.2l0,0c-0.1,0-0.2,0-0.3,0c-0.5,0-0.6-0.7-0.6-1v-60.6c0-0.9,0.3-1.7,0.7-2.4
				c0.4-0.7,1-1.4,1.7-1.8L137.9,243C138.2,242.8,138.4,242.8,138.7,242.8 M138.7,241.7c-0.5,0-0.9,0.2-1.3,0.4L34.5,301.4
				c-0.9,0.5-1.6,1.3-2.1,2.2c-0.5,0.9-0.8,1.9-0.9,2.9v60.6c0,1.4,0.7,2.1,1.6,2.1c0.2,0,0.4,0,0.6-0.1l-0.3,0.1
				c0.4-0.1,0.7-0.2,1.1-0.4l102.9-59.4c1.8-1.1,2.9-3.1,3-5.2v-60.6c0-0.3,0-0.6-0.1-0.9C140.1,242.2,139.5,241.7,138.7,241.7
				L138.7,241.7z"/>
		</g>
		<g id="freepik--carrot--inject-5_2_">
			<g id="freepik--box--inject-5_4_">
				<path class="st0" d="M46.9,378c-0.9,0-1.9-0.2-2.7-0.6l-2.4-1.4c-1.6-1.1-2.6-2.8-2.7-4.7v-60.6c0.1-1.9,1.1-3.6,2.7-4.7
					l102.9-59.3c0.8-0.4,1.8-0.7,2.7-0.6c0.9,0,1.9,0.2,2.7,0.6l2.4,1.4c1.6,1.1,2.6,2.8,2.7,4.7v60.6c-0.1,1.9-1.1,3.6-2.7,4.7
					L49.6,377.3C48.8,377.8,47.8,378,46.9,378z"/>
				<path class="st12" d="M147.3,246.5c0.9,0,1.7,0.2,2.4,0.6l2.4,1.4c1.4,0.9,2.3,2.5,2.4,4.2v60.6c-0.1,1.7-1,3.3-2.4,4.2
					L49.3,376.9c-0.8,0.4-1.6,0.6-2.4,0.6c-0.8,0-1.7-0.2-2.4-0.6l-2.4-1.4c-1.4-1-2.3-2.5-2.4-4.2v-60.6c0.1-1.7,1-3.3,2.4-4.2
					l102.9-59.3C145.6,246.7,146.5,246.5,147.3,246.5 M147.3,245.4c-1,0-2.1,0.2-3,0.7L41.5,305.5c-1.8,1.1-2.9,3.1-3,5.2v60.6
					c0.1,2.1,1.2,4,3,5.2l2.4,1.4c1.9,1,4.1,1,6,0l102.9-59.3c1.8-1.1,2.9-3.1,3-5.2v-60.6c-0.1-2.1-1.2-4-3-5.2l-2.4-1.4
					C149.4,245.6,148.4,245.4,147.3,245.4L147.3,245.4z"/>
				<path class="st7" d="M38.5,371.2c0.1,2.1,1.2,4,3,5.2l2.4,1.4c1.7,0.9,3.7,0.9,5.5,0.2c-1.4,0.5-2.5-0.3-2.5-2v-60.6
					c0-1,0.3-2,0.9-2.9l-8.4-4.8c-0.5,0.9-0.8,1.9-0.9,2.9L38.5,371.2z"/>
				<path class="st11" d="M155.6,251.9c-0.4-1.3-1.5-1.7-2.9-0.9L49.9,310.3c-0.9,0.5-1.6,1.3-2.1,2.2l-8.4-4.8
					c0.5-0.9,1.2-1.7,2.1-2.2l102.9-59.4c1.9-1,4.1-1,6,0l2.4,1.4C154.3,248.5,155.3,250.1,155.6,251.9z"/>
				<path class="st12" d="M155.6,251.9c-0.4-1.3-1.5-1.7-2.9-0.9L49.9,310.3c-0.9,0.5-1.6,1.3-2.1,2.2l-8.4-4.8
					c0.5-0.9,1.2-1.7,2.1-2.2l102.9-59.4c1.9-1,4.1-1,6,0l2.4,1.4C154.3,248.5,155.3,250.1,155.6,251.9z"/>
			</g>
		</g>
		<g id="freepik--character--inject-5_4_">
			<path class="st0" d="M96.4,316.8c0,7.1-2.5,15-6.5,21.9c-0.6,1.1-1.3,2.2-2,3.3s-1.4,2.1-2.2,3.1s-1.4,1.7-2.1,2.5l-1,1.1
				c-2.5,2.7-5.4,5-8.6,6.9c-1.5,0.9-3,1.6-4.7,2.1c-0.5,0.2-1,0.3-1.5,0.4c-2.6,0.7-5.4,0.6-8-0.2c-5-1.9-8.2-7.2-8.2-15.3
				c0-14.3,10-31.7,22.4-38.8S96.4,302.5,96.4,316.8z"/>
			<g id="freepik--character--inject-5_3_">
				<path class="st31" d="M87.5,341.1c-0.4,0.7-0.8,1.4-1.3,2.1l-0.1,0.2c-0.3,0.5-0.6,1-0.9,1.4s-0.8,1.1-1.2,1.7
					c0,0-0.1,0.1-0.1,0.1c-0.7,0.9-1.4,1.8-2.2,2.7l-1,1.2l-0.8,0.9l0,0c-1.8,1.6-3.8,3-5.9,4.2c-1.5,0.9-3,1.6-4.7,2.1
					c-0.5,0.2-1,0.3-1.6,0.4c-0.7,0.2-1.4,0.3-2.1,0.4c-1.3,0.2-2.6,0.1-3.9-0.1c-0.7-0.1-1.4-0.3-2-0.5c-1.7-0.6-3.2-1.7-4.4-3.1
					c-1.5-1.8-2.6-4-3.1-6.3c1-1.4,2.2-2.7,3.4-4c5.6-5.7,6.8-11.3,6.2-16.8l22.5,0.8C84.7,333.5,86.3,337.4,87.5,341.1z"/>
				<path class="st25" d="M86.1,343.4c-0.3,0.5-0.6,0.9-0.9,1.4s-0.8,1.1-1.2,1.7l-2.1-6.6c4.4-1.4,5.2-0.8,6.5-0.2
					c-0.4,0.9-1.5,2.6-2.1,3.5C86.2,343.3,86.1,343.3,86.1,343.4z"/>
				<path class="st23" d="M85.1,344.8c-0.4,0.6-0.8,1.1-1.2,1.7c0,0-0.1,0.1-0.1,0.1c-0.7,0.9-1.4,1.8-2.2,2.7l-1,1.2l-0.8,0.9l0,0
					c-1.8,1.6-3.8,3-5.9,4.2c-1.5,0.9-3,1.6-4.7,2.1c-0.5,0.2-1,0.3-1.6,0.4c-0.7,0.2-1.4,0.3-2.1,0.4c-1.3,0.2-2.6,0.1-3.9-0.1
					c0-0.1,0-0.3,0-0.4c-0.4-9,2.7-11.3,2.7-11.3s1.3-0.6,2-0.9c1.4-0.7,11.9-2.6,11.9-2.6l3.4-3.4c1.8,0.5,3.4,1.4,4.8,2.7
					C86.5,342.6,85.9,343.7,85.1,344.8z"/>
				<path class="st31" d="M65.8,318.2c-3.9,1.7-4.4,8.7-3.3,12.2c2.2,6.7,7,6.1,7.3,9.1l6.7-6.5l5.2-5.1c2.3-2.2,5.8-3.8,6.4-7.6
					c0.2-1.3-0.2-2.8-1.4-3.1c1-1.2,1.5-2.9,1.2-4.5c-0.4-3.3-3.8-4.6-6.6-4.9c-3.1-0.2-6.2,0.5-8.8,2.1
					C69.6,311.7,66.5,314.5,65.8,318.2z"/>
				<path class="st24" d="M70.2,342.4l-0.8-6.6c-0.9,0.9-2.4,1.1-3.5,0.4c-1.9-1.2-2.5-3.6-1.4-5.5c0.7-1.4,2.4-2,3.9-1.3
					c0.4,0.2,0.7,0.5,1,0.8c1.7-0.1,2.2-2.8,0.8-5c0,0,3.3-3.2,2.4-6.7c3,1,9.8-0.2,11.2-3.9c1,1.2,2.5,1.3,3,9.3
					c0.4,7.3-0.9,10.2-2.8,11.7c-1.3,1.1-2.9,1.9-4.6,2.3l0.2,1.8l0,0c0.1,0.9,0.3,0.9,1.1,0.7l1.2-0.3c0,0,1.6,2.4-3.9,4.9
					c-8.2,3.8-11.4,1-11.4,1l1.9-0.9C69.5,344.6,70.3,343.6,70.2,342.4z"/>
				<path class="st26" d="M76.8,331.5l3,0.1c-0.2,0.9-0.9,1.6-1.8,1.7C77.2,333.3,76.7,332.5,76.8,331.5z"/>
				<path class="st25" d="M77.1,332.2c0.7-0.3,1.4,0,1.7,0.7c0,0.1,0,0.1,0.1,0.2c-0.3,0.2-0.6,0.3-0.9,0.3c-0.6,0-1.1-0.4-1.2-1
					L77.1,332.2z"/>
				<path class="st31" d="M85,321l-2.3-0.3c0.2-0.7,0.8-1.2,1.5-1.2c0.6,0.1,0.9,0.7,0.8,1.3C85.1,320.9,85,320.9,85,321z"/>
				<path class="st31" d="M74.4,324.6l2.1-1.9c-0.3-0.5-0.9-0.6-1.4-0.3c-0.1,0.1-0.2,0.2-0.3,0.3C74.3,323.2,74.1,324,74.4,324.6z"
					/>
				<polygon class="st25" points="79.7,323.1 80.4,329.7 83.5,327.2 				"/>
				<path class="st23" d="M82.5,323.4c0,0.4,0.3,0.8,0.7,0.9c0.1,0,0.2,0,0.3,0c0.6-0.2,1-0.7,1-1.3c0-0.4-0.3-0.8-0.7-0.9
					c-0.1,0-0.2,0-0.3,0C82.9,322.3,82.5,322.8,82.5,323.4z"/>
				<path class="st23" d="M75.2,325.9c0,0.4,0.3,0.8,0.7,0.9c0.1,0,0.2,0,0.3,0c0.6-0.2,1-0.7,1-1.3c0-0.4-0.3-0.8-0.7-0.9
					c-0.1,0-0.2,0-0.3,0C75.7,324.7,75.2,325.3,75.2,325.9z"/>
				<path class="st25" d="M79.3,337.7c-3.8,0.8-7.6,0.6-8.5-1c0,0,0.1,2,1.7,2.5c2.3,0.7,7-0.1,7-0.1L79.3,337.7z"/>
				<path class="st24" d="M65.7,358.6c-1.3,0.2-2.6,0.1-3.9-0.1c-1.7-0.3-3.4-1-4.8-2.1c2.7-7.3,3.2-7.9,7.4-9.6l0,0
					C68,350.1,66.3,356.5,65.7,358.6z"/>
			</g>
			<path class="st7" d="M84.1,302.1L84.1,302.1c6.9,0,11.2,5.6,11.2,14.8c0,6.6-2.3,14.2-6.3,21.3c-0.6,1.1-1.3,2.1-2,3.2
				s-1.4,2-2.2,3s-1.4,1.7-2.1,2.5l-1,1.1c-2.4,2.6-5.2,4.8-8.3,6.6c-1.4,0.8-2.9,1.5-4.4,2c-0.5,0.2-1,0.3-1.4,0.4
				c-1.1,0.3-2.3,0.4-3.5,0.5c-1.3,0-2.6-0.2-3.8-0.6c-4.7-1.7-7.4-6.9-7.4-14.1c0-13.9,9.8-30.8,21.8-37.7
				C77.5,303.2,80.7,302.2,84.1,302.1 M84,300.8c-3.5,0.1-7,1.2-10,3.1c-12.4,7.1-22.4,24.5-22.4,38.8c0,8.1,3.2,13.4,8.2,15.3
				c1.3,0.5,2.8,0.7,4.2,0.7c1.3,0,2.6-0.2,3.8-0.5c0.5-0.1,1-0.3,1.5-0.4c1.6-0.5,3.2-1.3,4.6-2.1c3.2-1.9,6-4.2,8.5-6.9l1-1.1
				c0.7-0.8,1.4-1.7,2.1-2.5s1.5-2,2.2-3.1s1.4-2.1,2-3.3c4-7,6.5-14.8,6.5-21.9C96.4,306.7,91.4,300.8,84,300.8L84,300.8z"/>
		</g>
		<path class="st14" d="M111.9,299.9l26.3-15.2c0.6-0.3,1.1-0.1,1.1,0.5c-0.1,0.7-0.5,1.4-1.1,1.8l-26.3,15.2
			c-0.6,0.4-1.1,0.1-1.1-0.5C110.8,301,111.2,300.3,111.9,299.9z"/>
		<path class="st3" d="M106.7,310.5c-0.2,0-0.3-0.1-0.4-0.3c-0.1-0.2-0.1-0.5,0.2-0.7l36.5-21.1c0.2-0.1,0.5,0,0.7,0.2
			c0.1,0.2,0,0.5-0.2,0.7L107,310.4C106.9,310.4,106.8,310.5,106.7,310.5z"/>
		<path class="st3" d="M106.7,315.1c-0.2,0-0.3-0.1-0.4-0.3c-0.1-0.2-0.1-0.5,0.2-0.7l36.5-21.1c0.2-0.2,0.5-0.1,0.7,0.1
			s0.1,0.5-0.1,0.7c0,0-0.1,0-0.1,0.1L107,315.1C106.9,315.1,106.8,315.1,106.7,315.1z"/>
		<path class="st3" d="M106.7,319.8c-0.2,0-0.3-0.1-0.4-0.3c-0.1-0.2-0.1-0.5,0.2-0.7l36.5-21.1c0.2-0.2,0.5-0.1,0.7,0.1
			s0.1,0.5-0.1,0.7c0,0-0.1,0-0.1,0.1L107,319.8C106.9,319.8,106.8,319.8,106.7,319.8z"/>
		<path class="st3" d="M106.7,324.5c-0.2,0-0.3-0.1-0.4-0.3c-0.1-0.2-0.1-0.5,0.2-0.7l36.5-21.1c0.2-0.2,0.5-0.1,0.7,0.1
			s0.1,0.5-0.1,0.7c0,0-0.1,0-0.1,0.1L107,324.5C106.9,324.5,106.8,324.5,106.7,324.5z"/>
	</g>
</g>
<g id="freepik--Options--inject-5">
	<g id="freepik--character--inject-5_7_">
		<g id="freepik--character--inject-5_6_">
			<path class="st0" d="M417,128.3c0,8.9,3.1,18.7,8.1,27.4c0.8,1.4,1.6,2.8,2.5,4.1s1.8,2.6,2.8,3.8s1.7,2.2,2.6,3.2
				c0.4,0.5,0.9,1,1.3,1.4c3.1,3.4,6.7,6.2,10.6,8.6c1.9,1.1,3.8,2,5.8,2.7c0.6,0.2,1.3,0.4,1.9,0.6c3.3,0.9,6.8,0.8,10-0.3
				c6.3-2.3,10.3-9,10.3-19.1c0-17.9-12.5-39.6-28-48.5S417,110.4,417,128.3z"/>
			<g id="freepik--character--inject-5_5_">
				<path class="st26" d="M429.9,161.5c0.4,0.6,0.8,1.2,1.2,1.8s1,1.4,1.5,2.1l2.6-8.3c-5.5-1.7-6.5-1-8.1-0.3
					c0.5,1.1,1.9,3.3,2.6,4.4C429.8,161.3,429.9,161.4,429.9,161.5z"/>
				<path class="st23" d="M431.1,163.2c0.5,0.7,1,1.4,1.5,2.1l0.1,0.1c0.9,1.2,1.8,2.3,2.7,3.4c0.4,0.5,0.9,1,1.3,1.5l1,1.1l0,0
					c2.2,2,4.6,3.7,7.2,5.2c1.9,1.1,3.8,2,5.8,2.7c0.6,0.2,1.3,0.4,1.9,0.5c0.9,0.2,1.8,0.4,2.7,0.5c1.6,0.2,3.2,0.2,4.9-0.1
					c0-0.2,0-0.3,0-0.5c0.5-11.2-3.3-14.1-3.4-14.1s-1.6-0.8-2.5-1.2c-1.8-0.8-14.9-3.2-14.9-3.2l-4.2-4.2c0,0-3.9,1.1-6,3.4
					C429.3,160.5,430.1,161.8,431.1,163.2z"/>
				<path class="st23" d="M455.3,130c4.8,2.1,5.5,10.9,4,15.2c-2.8,8.4-8.7,7.6-9.1,11.4c-6-6.1-12.7-11.9-18.5-18.1
					c-1.8-2.1-6.9-3.9-4.5-7.3c-1.2,0.5-2.7,0-3.2-1.2c-0.3-0.8-0.3-1.7,0.2-2.4c0.8,3.4,4.2,0.7,2.1-1.8c-2.8-5.7,5.1-8.3,9.5-8.6
					C443.8,116.2,453.2,121.8,455.3,130z"/>
				<path class="st26" d="M449.8,160.2l1-8.3c0,0,2.1,2.1,4.4,0.5c2.3-1.5,3.1-4.5,1.8-6.9c-0.9-1.8-3-2.6-4.8-1.7
					c-0.5,0.2-0.9,0.6-1.3,1c-2.1-0.1-2.8-3.6-1-6.3c0,0-4.1-4-3-8.4c-3.7,1.2-12.2-0.3-14-4.9c-1.1,1.3-3.1,3.6-2.6,9.1
					c-0.1,1.2-0.4,2.3-0.8,3.4c-1.2,5.5,0.9,11.8,3.1,13.6c1.7,1.4,3.6,2.4,5.8,2.9l-0.3,2.3l0,0c-0.1,1.2-0.4,1.1-1.4,0.9l-1.5-0.4
					c0,0-2,3,4.9,6.1c10.2,4.7,14.2,1.3,14.2,1.3s-0.6-0.3-2.4-1.1C450.6,163,449.7,161.7,449.8,160.2z"/>
				<path class="st32" d="M441.5,146.6l-3.8,0.1c0.2,1.2,1.2,2.1,2.4,2.2c0.9-0.1,1.6-0.9,1.5-1.9
					C441.5,146.9,441.5,146.8,441.5,146.6z"/>
				<path class="st25" d="M441.2,147.5c-0.8-0.4-1.8,0-2.2,0.9c0,0.1-0.1,0.1-0.1,0.2c0.3,0.2,0.7,0.3,1.1,0.3
					c0.7,0,1.3-0.6,1.5-1.3C441.4,147.6,441.3,147.5,441.2,147.5z"/>
				<path class="st23" d="M431.3,133.5l2.8-0.4c-0.2-0.9-1-1.5-1.9-1.4c-0.7,0.2-1.2,0.9-1,1.7C431.2,133.4,431.2,133.4,431.3,133.5
					z"/>
				<path class="st23" d="M444.5,138l-2.6-2.4c0.4-0.6,1.3-0.7,1.8-0.2c0.1,0.1,0.2,0.1,0.2,0.2C444.6,136.2,444.8,137.2,444.5,138z
					"/>
				<polygon class="st32" points="438,136.1 437.1,144.3 433.1,141.3 				"/>
				<path class="st23" d="M434.4,136.5c0.1,0.5-0.3,1-0.9,1.1c-0.1,0-0.2,0-0.4,0c-0.7-0.2-1.3-0.8-1.3-1.6c-0.1-0.5,0.3-1,0.9-1.1
					c0.1,0,0.2,0,0.4,0C433.8,135.1,434.4,135.7,434.4,136.5z"/>
				<path class="st23" d="M443.5,139.5c0.1,0.5-0.3,1-0.9,1.1c-0.1,0-0.2,0-0.3,0c-0.7-0.2-1.2-0.9-1.2-1.6c0-0.6,0.4-1,1-1
					c0.1,0,0.1,0,0.2,0C442.9,138.2,443.4,138.8,443.5,139.5z"/>
				<path class="st32" d="M438.4,154.3c4.8,1,9.5,0.8,10.7-1.2c0,0-0.1,2.5-2.1,3.1c-2.8,0.8-8.7-0.2-8.7-0.2L438.4,154.3z"/>
				<path class="st26" d="M455.4,180.5c1.6,0.2,3.2,0.2,4.9-0.1c2.2-0.4,4.2-1.3,5.9-2.6c-3.4-9.2-4-9.9-9.3-12c0,0,0.1,0,0,0
					C452.6,169.9,454.6,177.9,455.4,180.5z"/>
			</g>
			<path class="st7" d="M432.5,109.8c4.2,0.2,8.2,1.4,11.7,3.6c15,8.7,27.3,29.8,27.3,47.2c0,9-3.4,15.4-9.3,17.6
				c-1.5,0.6-3.1,0.8-4.7,0.8c-1.5,0-2.9-0.2-4.4-0.6c-0.6-0.1-1.2-0.3-1.8-0.5c-1.9-0.7-3.8-1.5-5.5-2.5c-3.8-2.3-7.3-5.1-10.3-8.3
				c-0.4-0.4-0.9-0.9-1.3-1.4c-0.9-1-1.7-2-2.6-3.1s-1.9-2.5-2.7-3.8s-1.7-2.6-2.5-4c-5.1-8.9-7.9-18.3-7.9-26.6
				C418.5,116.9,423.9,109.8,432.5,109.8L432.5,109.8 M432.5,108.2c-9.2,0-15.5,7.3-15.5,20c0,8.9,3.1,18.7,8.1,27.4
				c0.8,1.4,1.6,2.8,2.5,4.1s1.8,2.6,2.8,3.8s1.7,2.2,2.6,3.2c0.4,0.5,0.9,1,1.3,1.4c3.1,3.4,6.7,6.3,10.7,8.6
				c1.9,1.1,3.8,2,5.8,2.7c0.6,0.2,1.3,0.4,1.9,0.6c1.6,0.4,3.1,0.6,4.8,0.6c1.8,0,3.6-0.3,5.3-0.9c6.3-2.3,10.3-9,10.3-19.1
				c0-17.9-12.5-39.6-28-48.5C441.3,109.7,436.9,108.4,432.5,108.2L432.5,108.2z"/>
		</g>
		<path class="st7" d="M416.5,100.4c-4.4-2.5-7.9-0.5-7.9,4.6c0.3,5.6,3.2,10.6,7.9,13.7c4.4,2.5,7.9,0.5,7.9-4.6
			C424.1,108.5,421.2,103.4,416.5,100.4z"/>
		<path class="st0" d="M412,106.9c0.2-0.4,0.7-0.5,1.1-0.3c0,0,0,0,0,0l2.6,1.5v-3.7c0-0.4,0.4-0.8,0.8-0.8c0.4,0,0.8,0.4,0.8,0.8
			v4.6l3.4,2c0.4,0.2,0.5,0.7,0.3,1.1c0,0,0,0,0,0c-0.1,0.3-0.4,0.4-0.7,0.4c-0.1,0-0.3,0-0.4-0.1l-2.6-1.5v3.7
			c0,0.4-0.4,0.8-0.8,0.8c-0.4,0-0.8-0.4-0.8-0.8v-4.7l-3.4-2C411.9,107.7,411.8,107.2,412,106.9z"/>
	</g>
	<g id="freepik--character--inject-5_10_">
		<g id="freepik--character--inject-5_9_">
			<path class="st0" d="M343.8,86c0,8.9,3.1,18.7,8.1,27.4c0.8,1.4,1.6,2.7,2.5,4.1c0.9,1.3,1.8,2.6,2.8,3.8
				c0.9,1.1,1.7,2.2,2.6,3.2c0.4,0.5,0.9,1,1.3,1.4c3.1,3.4,6.7,6.2,10.7,8.6c1.9,1.1,3.8,2,5.8,2.7c0.6,0.2,1.3,0.4,1.9,0.6
				c3.3,0.9,6.8,0.8,10-0.3c6.3-2.3,10.3-9,10.3-19.1c0-17.9-12.5-39.6-28-48.5S343.8,68.2,343.8,86z"/>
			<g id="freepik--character--inject-5_8_">
				<g id="freepik--chest--inject-5_3_">
					<path class="st23" d="M351.3,112.3c0.2,0.4,0.4,0.8,0.6,1.1c0.4,0.8,0.9,1.5,1.4,2.2s0.8,1.2,1.2,1.8c0.9,1.3,1.8,2.6,2.8,3.8
						c0.1,0.1,0.2,0.2,0.3,0.3l1.5-8.3C355.7,112.4,353.2,112.1,351.3,112.3z"/>
					<g id="freepik--chest--inject-5_2_">
						<path class="st6" d="M353.3,115.7c0.4,0.6,0.8,1.2,1.2,1.8c0.9,1.3,1.8,2.6,2.8,3.8c0.1,0.1,0.2,0.2,0.3,0.3
							c0.8,1,1.6,2,2.4,2.9l1.3,1.4c3.1,3.4,6.7,6.3,10.7,8.6c1.9,1.1,3.8,2,5.8,2.7c0.6,0.2,1.3,0.4,1.9,0.5
							c2.4,0.6,4.9,0.8,7.3,0.4c0.9-0.1,1.8-0.4,2.7-0.7c1.1-0.4,2.2-1,3.1-1.7c-0.3-2.3-0.9-4.1-2-5c-3.7-2.8-12.8-12.6-21.3-14.8
							c-3.4-0.9-6.7-1.8-10.5-2.7C357,112.9,355,113.7,353.3,115.7z"/>
					</g>
					<g id="freepik--head--inject-5_2_">
						<path class="st6" d="M383.5,86.4c4.6,5.8,1.3,11.7-0.3,17.2c-1.9,6.3-2.7,8.7-4.8,9.4c1.4-16.2-2.8-5.8-11.7-10.3
							c-3.5-2.1-6.4-5.1-8.5-8.7c-0.3-0.8-0.7-1.7-1.2-2.4c-2.2-1.6-3-4.5-1.2-6.8c-1.4-0.2-2.4-1.5-2.2-3c0.2-1.2,1.1-2.1,2.3-2.2
							c-2-2.4-1.4-6,0.3-6.9c1-0.6,2-0.4,3.3,0.3c1.3,0.8,2.7,1.4,4.1,1.9c3.6,1,6.8,1.2,10.5,2.1C378.8,78.2,383.8,81,383.5,86.4z"
							/>
						<path class="st25" d="M383.4,109.6c-2.1,1-3.9-1.9-3.9-1.9l-1,13.9c0,0-1.6,3.7-12.1,2.6c-2.5-0.3-6.8-3.3-1.3-6.9l0.2-4.2
							c-1.4-0.3-2.8-0.8-4.1-1.5c-2-1.1-3.2-3-3.9-6.4c-1.1-5.4-0.6-13,1.5-22.5c3.3,3.4,10.4-1.8,16.3,4.7c-1.6,3.2,0.7,9,2.8,10.2
							c-0.7,2.7-0.3,4.1,0.5,4.3c1.4,0.5,2.3-1.4,3.2-2.1s3.4-1.4,4.6,2.1S385.3,108.7,383.4,109.6z"/>
						<path class="st27" d="M365.3,113c2.5,0.6,7.3,0.4,9.1-1.1c1.2-1,2.3-2.3,3.1-3.7c-0.3,1.9-1.3,3.7-2.7,5.1
							c-3.8,3-9.6,1.8-9.6,1.8L365.3,113z"/>
						<path class="st6" d="M370.3,92.1l2.4,2.4c0.4-0.8,0.3-1.8-0.4-2.5c-0.4-0.5-1.2-0.6-1.8-0.2C370.5,91.9,370.4,92,370.3,92.1z"
							/>
						<path class="st6" d="M359.3,89.1l3-0.2c-0.1-0.9-0.8-1.6-1.8-1.6c-0.8,0.1-1.4,0.8-1.3,1.6C359.3,88.9,359.3,89,359.3,89.1z"
							/>
						<path class="st6" d="M371.4,96.3c0,0.6-0.4,1-1,1c-0.1,0-0.2,0-0.3,0c-0.7-0.3-1.1-1-1.1-1.7c0-0.6,0.4-1,1-1
							c0.1,0,0.2,0,0.3,0C371,94.9,371.4,95.6,371.4,96.3z"/>
						<path class="st6" d="M362,93.1c0,0.6-0.4,1-1,1c-0.1,0-0.2,0-0.3,0c-0.7-0.3-1.2-1-1.1-1.7c0-0.6,0.4-1,1-1c0.1,0,0.2,0,0.3,0
							C361.6,91.7,362,92.4,362,93.1z"/>
						<path class="st27" d="M366.7,93.4l-1.8,8.1l-4-2.8C362.5,96.3,364.9,93.9,366.7,93.4z"/>
						<path class="st26" d="M368.1,104.3l-4.3,0.2c0,1.1,1,2,2.2,2c0,0,0,0,0,0C367.1,106.5,368.1,105.5,368.1,104.3
							C368.1,104.3,368.1,104.3,368.1,104.3z"/>
						<path class="st27" d="M365.9,106.5c-0.4,0-0.7-0.1-1.1-0.2c0.4-0.9,1.3-1.5,2.4-1.5c0.3,0,0.6,0,0.8,0.1
							C367.7,105.8,366.9,106.4,365.9,106.5z"/>
					</g>
					<path class="st23" d="M387,138.2c0.9-0.1,1.8-0.4,2.7-0.7c1.1-0.4,2.2-1,3.1-1.7c0.7-0.5,1.3-1,1.9-1.6
						c-1.2-1.2-2.5-2.3-3.8-3.3C389,133,387.7,135.5,387,138.2z"/>
				</g>
			</g>
			<path class="st7" d="M359.3,67.6c4.2,0.2,8.2,1.4,11.7,3.6c15,8.7,27.3,29.8,27.3,47.2c0,9-3.4,15.5-9.3,17.6
				c-1.5,0.6-3.1,0.8-4.7,0.8c-1.5,0-3-0.2-4.4-0.6c-0.6-0.1-1.2-0.3-1.8-0.5c-1.9-0.7-3.8-1.5-5.5-2.5c-3.8-2.3-7.3-5.1-10.3-8.3
				c-0.4-0.4-0.9-0.9-1.3-1.4c-0.8-1-1.7-2-2.6-3.1s-1.9-2.5-2.7-3.8s-1.7-2.6-2.5-4c-5.1-8.9-7.9-18.3-7.9-26.6
				C345.4,74.6,350.7,67.6,359.3,67.6L359.3,67.6 M359.3,66c-9.2,0-15.5,7.3-15.5,20c0,8.9,3.1,18.7,8.1,27.4
				c0.8,1.4,1.6,2.7,2.5,4.1s1.8,2.6,2.8,3.8c0.9,1.1,1.7,2.2,2.6,3.2c0.4,0.5,0.9,1,1.3,1.4c3.1,3.4,6.7,6.2,10.7,8.6
				c1.9,1.1,3.8,2,5.8,2.7c0.6,0.2,1.3,0.4,1.9,0.6c1.6,0.4,3.1,0.6,4.8,0.6c1.8,0,3.6-0.3,5.2-0.9c6.3-2.3,10.3-9,10.3-19.1
				c0-17.9-12.5-39.6-28-48.5C368.1,67.5,363.8,66.2,359.3,66L359.3,66z"/>
		</g>
		<path class="st7" d="M343.4,58.2c-4.4-2.5-7.9-0.5-7.9,4.6c0.3,5.6,3.2,10.6,7.9,13.7c4.4,2.5,7.9,0.5,7.9-4.6
			C351,66.3,348.1,61.2,343.4,58.2z"/>
		<path class="st0" d="M338.9,64.7c0.2-0.4,0.7-0.5,1.1-0.3c0,0,0,0,0,0l2.6,1.5v-3.7c0-0.4,0.3-0.8,0.7-0.9c0.4,0,0.8,0.3,0.9,0.7
			c0,0.1,0,0.1,0,0.2v4.6l3.4,2c0.4,0.2,0.5,0.7,0.3,1.1c-0.1,0.2-0.4,0.4-0.7,0.4c-0.1,0-0.3,0-0.4-0.1l-2.6-1.5v3.7
			c0,0.4-0.3,0.8-0.7,0.9s-0.8-0.3-0.9-0.7c0-0.1,0-0.1,0-0.2v-4.7l-3.4-2C338.8,65.5,338.7,65,338.9,64.7
			C338.9,64.7,338.9,64.7,338.9,64.7z"/>
	</g>
	<g id="freepik--character--inject-5_13_">
		<g id="freepik--character--inject-5_12_">
			<path class="st0" d="M343.8,251c0,8.9,3.1,18.7,8.1,27.4c0.8,1.4,1.6,2.7,2.5,4.1s1.8,2.6,2.8,3.8c0.9,1.1,1.7,2.2,2.6,3.2
				c0.4,0.5,0.9,1,1.3,1.4c3.1,3.4,6.7,6.2,10.7,8.6c1.9,1.1,3.8,2,5.8,2.7c0.6,0.2,1.3,0.4,1.9,0.5c3.3,0.9,6.8,0.8,10-0.3
				c6.3-2.3,10.3-9,10.3-19.1c0-17.9-12.5-39.6-28-48.5S343.8,233.1,343.8,251z"/>
			<g id="freepik--character--inject-5_11_">
				<path class="st5" d="M386.9,263.5c-0.1,2.1-0.8,5.8,1.6,8.9s3,6.8,0.4,9.5s-1.2,4,0.5,6.3s1.6,6.4-2.2,6.7s-26.8-10.4-29.1-13.2
					s-3.4-5.1-1.9-7.5s4-3.2,4-6.9s-3-6.4-1.7-8.8S386.9,263.5,386.9,263.5z"/>
				<path class="st14" d="M356.8,284.2c0.4,0.6,0.8,1.2,1.2,1.8s1,1.4,1.5,2.1l2.6-8.3c-5.5-1.7-6.5-1-8.1-0.3
					c0.5,1.1,1.9,3.3,2.6,4.4L356.8,284.2z"/>
				<path class="st5" d="M358,286l1.5,2.1c0,0,0.1,0.1,0.1,0.1c0.9,1.2,1.8,2.3,2.7,3.4l1.3,1.5c0.3,0.4,0.7,0.7,1,1.1l0,0
					c2.2,2,4.6,3.7,7.2,5.2c1.9,1.1,3.8,2,5.8,2.7c0.6,0.2,1.3,0.4,1.9,0.5c0.9,0.2,1.8,0.4,2.7,0.5c1.6,0.2,3.2,0.2,4.9-0.1
					c0-0.2,0-0.3,0-0.5c0.5-11.2-3.3-14.1-3.4-14.1s-1.6-0.8-2.5-1.2c-1.8-0.8-14.9-3.2-14.9-3.2l-4.2-4.2c0,0-3.9,1.1-6,3.4
					C356.2,283.3,357,284.5,358,286z"/>
				<path class="st5" d="M377.1,279.4c0.5-3.8,6.4-3,9.2-11.4c1.4-4.4,0.8-13.1-4.1-15.2c-2.2-8.3-11-13.2-19.2-12.9
					c-4.3-0.1-7.9,3.4-9.4,7.2c-3.1,8.4,1.7,13.9,3.2,16.5c0.8,1.3,1.9-6,2.5-4.6c0.4,1.1,0.8,2.2,1.1,3.4c1.1,2.1,2.6,3.9,4.5,5.3
					C368.9,271.5,373.1,275.3,377.1,279.4z"/>
				<path class="st25" d="M376.7,283l1-8.3c0,0,2.1,2.1,4.4,0.5c2.3-1.5,3.1-4.5,1.8-6.9c-0.9-1.8-3.1-2.6-4.9-1.7
					c-0.5,0.2-0.9,0.6-1.2,1c-2.1-0.1-2.8-3.5-1-6.3c0,0,0.9-5.9-3-8.4c-2.9-1.9-4.9-1.1-8.2-1.1c-2.4-0.9-2.6-4.3-5.7-3.8
					c-1.1,1.3-3.1,3.6-2.6,9.1c-0.1,1.2-0.4,2.3-0.8,3.4c-1.2,5.5,0.9,11.8,3.1,13.6c1.7,1.4,3.6,2.4,5.8,2.9l-0.3,2.3l0,0
					c-0.1,1.2-0.4,1.1-1.4,0.9l-1.5-0.4c0,0-2,3,4.9,6.2c10.2,4.7,14.2,1.3,14.2,1.3s-0.6-0.3-2.4-1.1S376.7,284.6,376.7,283z"/>
				<path class="st32" d="M368.3,269.4l-3.8,0.1c0.2,1.2,1.2,2.1,2.3,2.2c0.9-0.1,1.6-0.9,1.5-1.8
					C368.4,269.7,368.4,269.5,368.3,269.4z"/>
				<path class="st27" d="M368,270.2c-0.8-0.4-1.8,0-2.2,0.9c0,0.1-0.1,0.1-0.1,0.2c0.3,0.2,0.7,0.3,1.1,0.3c0.7,0,1.3-0.6,1.5-1.3
					L368,270.2z"/>
				<path class="st23" d="M359.3,253.9l2.8-0.4c-0.2-0.9-1-1.5-1.9-1.4c-0.7,0.2-1.2,0.9-1,1.6C359.3,253.7,359.3,253.8,359.3,253.9
					z"/>
				<path class="st23" d="M371.6,259.1l-2.6-2.4c0.4-0.6,1.2-0.7,1.8-0.3c0.1,0.1,0.2,0.1,0.2,0.2
					C371.8,257.2,372,258.2,371.6,259.1z"/>
				<path class="st23" d="M361.3,258.7c0.1,0.5-0.3,1-0.9,1.1c-0.1,0-0.2,0-0.4,0c-0.7-0.2-1.3-0.8-1.3-1.6c-0.1-0.5,0.3-1,0.9-1.1
					c0.1,0,0.2,0,0.4,0C360.7,257.3,361.3,258,361.3,258.7z"/>
				<path class="st23" d="M370.3,262.6c0.1,0.5-0.3,1-0.9,1.1c-0.1,0-0.2,0-0.4,0c-0.7-0.2-1.2-0.8-1.3-1.6c-0.1-0.5,0.3-1,0.9-1.1
					c0.1,0,0.2,0,0.3,0C369.8,261.2,370.3,261.8,370.3,262.6z"/>
				<path class="st27" d="M365.2,277.1c4.8,1,9.5,0.8,10.7-1.2c0,0-0.1,2.5-2.1,3.1c-2.8,0.8-8.7-0.2-8.7-0.2L365.2,277.1z"/>
				<path class="st23" d="M376.1,262.6l-0.7-0.6l-0.6-0.4c-2-1.2-4.1-2.1-6.3-2.7c-2-0.4-2.8-0.1-3.9-0.6s-1.6-1.4-3.5-2.8
					c-1.2-0.9-2.5-1.6-3.9-2.1c-0.7-0.3-1.4-0.6-2-0.8l-0.6-0.2c-0.3-0.1-0.7,0.2-0.7,0.7c0,0.5,0.2,1,0.5,1.4
					c0.1,0.2,0.2,0.3,0.2,0.5c0.1,1.2,0.2,2.3,0.5,3.5c0.2,0.9,0.7,1.6,1.3,2.3c0.6,0.7,1.4,1.2,2.2,1.6c0.4,0.2,0.8,0.3,1.3,0.5
					h0.1c0.3,0.1,0.7,0.1,1,0.1h0.2h0.1h0.1h0.1h0.1l0.2-0.1c0.4-0.2,0.7-0.5,0.9-0.8c0.6-0.9,0.7-2.5,1.5-2.3h0.1l0.1,0
					c1.2,0.5,0.9,2.2,1.4,3.6c0.7,2,2.2,3.5,4.1,4.3l0.3,0.1l0.3,0.1c0.2,0.1,0.4,0.1,0.6,0.2l0.2,0h0.2h0.1c0.2,0,0.5,0,0.7,0h0.3
					c0.1,0,0.3-0.1,0.4-0.1c0.4-0.2,0.7-0.4,0.9-0.8c0.4-0.9,0.8-1.8,1-2.8c0-0.1,0.1-0.3,0.2-0.4l0.3-0.2l0.2,0.1l3.1,2.5
					c0.5-0.3,1-0.4,1.5-0.4L376.1,262.6z M362.1,260.4c-0.1,0.2-0.1,0.4-0.2,0.5l0,0v0l0,0v0.1l-0.1,0.1l-0.1,0.1l0,0l-0.1,0.1
					l-0.1,0.1l0,0c-0.5,0.5-1.5,0.7-3-0.1c-0.5-0.3-1-0.6-1.4-1c-0.2-0.2-0.4-0.4-0.5-0.6c-0.6-0.9-0.9-1.8-1-2.9
					c-0.1-0.9-0.2-2.7,0.2-2.9c0.2-0.1,0.3-0.1,0.5-0.1l0,0h0.2h0.1h0.1h0.1h0.1c0.1,0,0.1,0,0.2,0.1l0.2,0.1l0.3,0.1h0.1l0.1,0.1
					l0.3,0.1l0.1,0.1h0.1c0.3,0.1,0.6,0.3,0.9,0.5c1.2,0.7,2.2,1.6,3,2.7C362.7,258.5,362.6,259.5,362.1,260.4z M373.8,265.4
					L373.8,265.4C373.8,265.5,373.8,265.5,373.8,265.4l-0.1,0.4c0,0.1-0.1,0.1-0.1,0.2l-0.2,0.3c0,0,0,0.1-0.1,0.1v0l0,0.1l-0.1,0.1
					l-0.1,0.1l-0.1,0.1l-0.1,0.1c-0.5,0.4-1.4,0.6-2.8,0c-1.1-0.5-2.1-1.2-2.7-2.3c-0.4-0.6-0.7-1.3-0.8-2.1c-0.1-1-0.2-2.2,0.3-2.5
					c0.2-0.1,0.4-0.2,0.6-0.2h0.7c0.3,0,0.6,0.1,0.9,0.1l0.3,0.1c0.3,0.1,0.6,0.2,0.9,0.3l0.2,0.1c1.3,0.4,2.5,1.2,3.5,2.2
					C374.4,263.2,374,264.7,373.8,265.4L373.8,265.4z"/>
				<path class="st27" d="M360.2,263.5l4,2.7l1.3-4.7c-0.1-0.8-0.3-1.5-1-1.9l-0.1,0h-0.1l0,0L360.2,263.5z"/>
				<path class="st14" d="M382.3,303.2c1.6,0.2,3.2,0.2,4.9-0.1c2.2-0.4,4.2-1.3,5.9-2.6c-3.4-9.2-4-9.9-9.3-12l0,0
					C379.5,292.6,381.5,300.6,382.3,303.2z"/>
			</g>
			<path class="st7" d="M359.3,232.6c4.2,0.2,8.2,1.4,11.7,3.6c15,8.7,27.3,29.8,27.3,47.2c0,9-3.4,15.5-9.3,17.6
				c-1.5,0.6-3.1,0.8-4.7,0.8c-1.5,0-3-0.2-4.4-0.5c-0.6-0.1-1.2-0.3-1.8-0.5c-1.9-0.7-3.8-1.5-5.5-2.5c-3.8-2.3-7.3-5.1-10.3-8.3
				c-0.4-0.5-0.9-0.9-1.3-1.4c-0.8-1-1.7-2-2.6-3.1s-1.9-2.5-2.7-3.8s-1.7-2.6-2.5-4c-5.1-8.9-7.9-18.3-7.9-26.6
				C345.4,239.6,350.7,232.5,359.3,232.6L359.3,232.6 M359.3,231c-9.2,0-15.5,7.3-15.5,20c0,8.9,3.1,18.7,8.1,27.4
				c0.8,1.4,1.6,2.7,2.5,4.1s1.8,2.6,2.8,3.8c0.9,1.1,1.7,2.2,2.6,3.2c0.4,0.5,0.9,1,1.3,1.4c3.1,3.4,6.7,6.2,10.7,8.6
				c1.9,1.1,3.8,2,5.8,2.7c0.6,0.2,1.3,0.4,1.9,0.5c1.6,0.4,3.1,0.6,4.8,0.6c1.8,0,3.6-0.3,5.2-0.9c6.3-2.3,10.3-9,10.3-19.1
				c0-17.9-12.5-39.6-28-48.5C368.1,232.5,363.8,231.2,359.3,231L359.3,231z"/>
		</g>
		<path class="st7" d="M343.4,223.1c-4.4-2.5-7.9-0.5-7.9,4.6c0.3,5.6,3.2,10.6,7.9,13.7c4.4,2.5,7.9,0.5,7.9-4.6
			C351,231.2,348.1,226.2,343.4,223.1z"/>
		<path class="st0" d="M338.9,229.6c0.2-0.4,0.7-0.5,1.1-0.3l2.6,1.5v-3.7c0-0.4,0.5-0.8,0.9-0.7c0.4,0,0.7,0.3,0.7,0.7v4.6l3.4,2
			c0.4,0.2,0.5,0.7,0.3,1.1c-0.1,0.2-0.4,0.4-0.7,0.4c-0.1,0-0.3,0-0.4-0.1l-2.6-1.5v3.7c0,0.4-0.3,0.8-0.7,0.9
			c-0.4,0-0.8-0.3-0.9-0.7c0-0.1,0-0.1,0-0.2v-4.7l-3.4-2C338.8,230.5,338.7,230,338.9,229.6z"/>
	</g>
	<g id="freepik--character--inject-5_16_">
		<g id="freepik--character--inject-5_15_">
			<path class="st0" d="M417,293.2c0,8.9,3.1,18.7,8.1,27.4c0.8,1.4,1.6,2.8,2.5,4.1s1.8,2.6,2.8,3.8c0.9,1.1,1.7,2.2,2.6,3.2
				c0.4,0.5,0.9,1,1.3,1.4c3.1,3.4,6.7,6.2,10.6,8.6c1.9,1.1,3.8,2,5.8,2.7c0.6,0.2,1.3,0.4,1.9,0.5c3.3,0.9,6.8,0.8,10-0.3
				c6.3-2.3,10.3-9,10.3-19.1c0-17.9-12.5-39.6-28-48.5S417,275.4,417,293.2z"/>
			<g id="freepik--character--inject-5_14_">
				<g id="freepik--chest--inject-5_6_">
					<path class="st23" d="M424.4,319.5c0.2,0.4,0.4,0.8,0.6,1.1c0.4,0.8,0.9,1.5,1.4,2.2s0.8,1.2,1.2,1.8c0.9,1.3,1.8,2.6,2.8,3.9
						c0.1,0.1,0.2,0.2,0.3,0.3l1.5-8.3C428.8,319.6,426.3,319.3,424.4,319.5z"/>
					<g id="freepik--chest--inject-5_4_">
						<path class="st11" d="M426.4,322.9c0.4,0.6,0.8,1.2,1.2,1.8c0.9,1.3,1.8,2.6,2.8,3.9c0.1,0.1,0.2,0.2,0.3,0.3
							c0.8,1,1.6,2,2.4,2.9c0.4,0.5,0.9,1,1.3,1.4c3.1,3.4,6.7,6.3,10.7,8.6c1.9,1.1,3.8,2,5.8,2.7c0.7,0.2,1.3,0.4,1.9,0.5
							c2.4,0.6,4.9,0.8,7.3,0.4c0.9-0.1,1.8-0.4,2.7-0.7c1.1-0.4,2.2-1,3.1-1.7c-0.3-2.3-0.9-4.1-2-5c-3.7-2.9-12.8-12.6-21.3-14.8
							c-3.4-0.9-6.7-1.8-10.5-2.7C430.1,320.1,428.1,320.9,426.4,322.9z"/>
					</g>
					<g id="freepik--chest--inject-5_5_">
						<g>
							<path class="st14" d="M426.4,322.9c0.4,0.6,0.8,1.2,1.2,1.8c0.9,1.3,1.8,2.6,2.8,3.9c0.1,0.1,0.2,0.2,0.3,0.3
								c0.8,1,1.6,2,2.4,2.9c0.4,0.5,0.9,1,1.3,1.4c3.1,3.4,6.7,6.3,10.7,8.6c1.9,1.1,3.8,2,5.8,2.7c0.7,0.2,1.3,0.4,1.9,0.5
								c2.4,0.6,4.9,0.8,7.3,0.4c0.9-0.1,1.8-0.4,2.7-0.7c1.1-0.4,2.2-1,3.1-1.7c-0.3-2.3-0.9-4.1-2-5c-3.7-2.9-12.8-12.6-21.3-14.8
								c-3.4-0.9-6.7-1.8-10.5-2.7C430.1,320.1,428.1,320.9,426.4,322.9z"/>
						</g>
					</g>
					<g id="freepik--head--inject-5_3_">
						<path class="st33" d="M457.8,293.7c-0.1,0.2-0.2,0.5-0.3,0.7c3.7,1.7,6.7,6.1,2.1,8.9c2.8,2.3,1.5,5.6-1.4,6.9
							c-0.5,0.6-0.1,1.5,0,2.3c0.1,1.4-0.9,2.6-2.3,2.7c-0.3,0-0.7,0-1-0.1c0.2,1.3-0.8,3.4-2.5,3.4l0.3-3.6c0,0,0.5-3.2-1.2-3.9
							c-1.4-0.3-2.9,0.3-4.3,0.3c-5.3,0.6-9.7-3.2-12.7-7.1c-0.2-0.4-0.5-0.6-0.9-0.7c-1.7-1-1.8-3.3-1.3-5c-1.4,1-3.4,0.7-4.4-0.7
							s-0.7-3.4,0.7-4.4c-1.3,0.6-2.8,0-3.3-1.2c-0.4-0.9-0.3-1.9,0.3-2.7c-0.2,0.7,0.3,1.4,1,1.6c0.4,0.1,0.9,0,1.2-0.3
							c0.7-0.7,0.5-1.8,0.2-2.8c-0.4-0.9-0.3-1.9,0.3-2.7c0.8-1.4,3.8-2.2,5.7-1.2c-0.2-2,1.1-3.8,3.1-4.3c2.6-0.9,4.8,1,7,1.8
							c3.8-1.4,8.3,0.8,8.3,5.2C456.6,287,459.2,289.5,457.8,293.7z"/>
						<path class="st25" d="M456.6,316.8c-2.1,1-3.9-1.9-3.9-1.9l-1.1,13.9c0,0-1.1,2.8-8.2,2.6c-5.5-0.1-9.5-3.3-5.2-6.9l0.2-4.2
							c-1.4-0.3-2.8-0.8-4.1-1.5c-2-1.1-3.5-4.7-4.2-8c-1.1-5.4-0.3-11.4,1.7-20.9c3.3,3.4,10.4-1.8,16.3,4.7
							c-1.6,3.1,0.7,9,2.8,10.2c-0.7,2.7-0.3,4.1,0.5,4.4c1.4,0.5,2.3-1.4,3.1-2.1s3.4-1.4,4.6,2.1S458.4,315.9,456.6,316.8z"/>
						<path class="st27" d="M438.4,320.2c1.1,0.2,5.3,0.3,6.8-0.3c2.6-0.9,4.7-2.8,5.8-5.4c-0.2,2.6-1.7,5-4.1,6.3
							c-2.6,1.5-5.7,2-8.6,1.5L438.4,320.2z"/>
						<path class="st27" d="M442.6,298.3l2.4,2.4c0.4-0.8,0.3-1.8-0.4-2.5c-0.4-0.5-1.2-0.6-1.8-0.2
							C442.8,298.1,442.7,298.2,442.6,298.3z"/>
						<path class="st27" d="M432.4,296.2l3-0.2c-0.1-0.9-0.8-1.6-1.7-1.6c-0.8,0.1-1.4,0.8-1.3,1.6
							C432.4,296.1,432.4,296.2,432.4,296.2z"/>
						<path class="st6" d="M444,303.5c0,0.6-0.4,1-1,1c-0.1,0-0.2,0-0.3,0c-0.7-0.3-1.2-1-1.1-1.7c0-0.6,0.4-1,1-1
							c0.1,0,0.2,0,0.3,0C443.6,302,444,302.7,444,303.5z"/>
						<path class="st6" d="M435.1,300.3c0,0.6-0.4,1-1,1c-0.1,0-0.2,0-0.3,0c-0.7-0.3-1.2-1-1.1-1.7c0-0.6,0.4-1,1-1
							c0.1,0,0.2,0,0.3,0C434.7,298.9,435.2,299.6,435.1,300.3z"/>
						<polygon class="st27" points="439.6,300 437.9,308.1 433.9,305.2 						"/>
						<path class="st26" d="M441.2,311.5l-4.4,0.2c0,1.1,1,2,2.2,2c0,0,0,0,0,0C440.2,313.7,441.2,312.7,441.2,311.5
							C441.2,311.5,441.2,311.5,441.2,311.5z"/>
						<path class="st27" d="M439,313.7c-0.4,0-0.7-0.1-1.1-0.2c0.4-0.9,1.3-1.5,2.4-1.5c0.3,0,0.5,0,0.8,0.1
							C440.8,313,440,313.6,439,313.7z"/>
					</g>
					<path class="st23" d="M460.1,345.4c0.9-0.1,1.8-0.4,2.7-0.7c1.1-0.4,2.2-1,3.1-1.7c0.7-0.5,1.3-1,1.9-1.6
						c-1.2-1.2-2.5-2.3-3.9-3.3C462.1,340.2,460.8,342.7,460.1,345.4z"/>
				</g>
			</g>
			<path class="st7" d="M432.5,274.8c4.2,0.2,8.2,1.4,11.7,3.6c15,8.7,27.3,29.8,27.3,47.2c0,9-3.4,15.5-9.3,17.6
				c-1.5,0.6-3.1,0.8-4.7,0.8c-1.5,0-2.9-0.2-4.4-0.6c-0.6-0.1-1.2-0.3-1.8-0.5c-1.9-0.7-3.8-1.5-5.5-2.5c-3.8-2.3-7.3-5.1-10.3-8.3
				c-0.4-0.5-0.9-0.9-1.3-1.4c-0.9-1-1.7-2-2.6-3.1s-1.9-2.5-2.7-3.8s-1.7-2.6-2.5-4c-5.1-8.9-7.9-18.3-7.9-26.6
				C418.5,281.8,423.9,274.7,432.5,274.8L432.5,274.8 M432.5,273.2c-9.2,0-15.5,7.3-15.5,20c0,8.9,3.1,18.7,8.1,27.4
				c0.8,1.4,1.6,2.8,2.5,4.1s1.8,2.6,2.8,3.8c0.9,1.1,1.7,2.2,2.6,3.2c0.4,0.5,0.9,1,1.3,1.4c3.1,3.4,6.7,6.3,10.7,8.6
				c1.9,1.1,3.8,2,5.8,2.7c0.6,0.2,1.3,0.4,1.9,0.5c1.6,0.4,3.1,0.6,4.8,0.6c1.8,0,3.6-0.3,5.3-0.9c6.3-2.3,10.3-9,10.3-19.1
				c0-17.9-12.5-39.6-28-48.5C441.3,274.7,436.9,273.4,432.5,273.2L432.5,273.2z"/>
		</g>
		<path class="st7" d="M416.5,265.3c-4.4-2.5-7.9-0.5-7.9,4.6s3.5,11.2,7.9,13.7s7.9,0.5,7.9-4.5
			C424.1,273.5,421.2,268.4,416.5,265.3z"/>
		<path class="st0" d="M412,271.8c0.2-0.4,0.7-0.5,1.1-0.3c0,0,0,0,0,0l2.6,1.5v-3.7c0-0.4,0.4-0.8,0.8-0.8c0.4,0,0.8,0.4,0.8,0.8
			v4.6l3.4,2c0.4,0.2,0.5,0.7,0.3,1.1c0,0,0,0,0,0c-0.1,0.3-0.4,0.4-0.7,0.4c-0.1,0-0.3,0-0.4-0.1l-2.6-1.5v3.7
			c0,0.4-0.4,0.8-0.8,0.8c-0.4,0-0.8-0.4-0.8-0.8V275l-3.4-2C411.9,272.7,411.8,272.2,412,271.8z"/>
	</g>
	<g id="freepik--character--inject-5_19_">
		<g id="freepik--character--inject-5_18_">
			<path class="st0" d="M343.8,170.5c0,8.9,3.1,18.7,8.1,27.4c0.8,1.4,1.6,2.8,2.5,4.1c0.9,1.3,1.8,2.6,2.8,3.8
				c0.9,1.1,1.7,2.2,2.6,3.2c0.4,0.5,0.9,1,1.3,1.4c3.1,3.3,6.7,6.2,10.7,8.6c1.9,1.1,3.8,2,5.8,2.7c0.6,0.2,1.3,0.4,1.9,0.6
				c3.3,0.9,6.8,0.8,10-0.3c6.3-2.3,10.3-9,10.3-19.1c0-17.9-12.5-39.6-28-48.5S343.8,152.6,343.8,170.5z"/>
			<g id="freepik--character--inject-5_17_">
				<g id="freepik--chest--inject-5_8_">
					<path class="st23" d="M351.3,196.8c0.2,0.4,0.4,0.8,0.6,1.1c0.4,0.8,0.9,1.5,1.4,2.2s0.8,1.2,1.2,1.8c0.9,1.3,1.8,2.6,2.8,3.9
						c0.1,0.1,0.2,0.2,0.3,0.3l1.5-8.3C355.7,196.9,353.2,196.5,351.3,196.8z"/>
					<g id="freepik--chest--inject-5_7_">
						<path class="st6" d="M353.3,200.1c0.4,0.6,0.8,1.2,1.2,1.8c0.9,1.3,1.8,2.6,2.8,3.9c0.1,0.1,0.2,0.2,0.3,0.3
							c0.8,1,1.6,1.9,2.4,2.9c0.4,0.5,0.9,1,1.3,1.4c3.1,3.4,6.7,6.3,10.7,8.6c1.9,1.1,3.8,2,5.8,2.7c0.6,0.2,1.3,0.4,1.9,0.6
							c2.4,0.6,4.9,0.8,7.3,0.4c0.9-0.1,1.8-0.4,2.7-0.7c1.1-0.4,2.2-1,3.1-1.7c-0.3-2.3-0.9-4.1-2-5c-3.7-2.9-5.8-4.8-7.6-6.1
							c-3.6-4.2-8.4-7.3-13.7-8.7c-3.4-0.9-6.7-1.9-10.5-2.7C357,197.4,355,198.1,353.3,200.1z"/>
					</g>
					<g id="freepik--head--inject-5_4_">
						<path class="st23" d="M383.5,169.1c3.7,6,2.3,13.9-0.4,19c-1.2,2.3-3,6.6-4,9.2c0,0-6.4,2.4-20.6-18
							c-2.5-3.7-1.1-12.6,2.3-15.9C365.8,158.7,376.4,157.6,383.5,169.1z"/>
						<path class="st34" d="M383.4,194c-2.1,1-3.9-1.9-3.9-1.9l-1,13.9c0,0,0,1.8-3.7,3.1c-2.4,0.8-7.4,0.4-10.3,2.8
							c-1.2-2.6-2.2-7.2,0.5-10.2l0.2-4.2c-1.4-0.3-2.8-0.8-4.1-1.5c-2.4-1.3-4.1-3.6-4.7-6.3c-0.5-2.2-0.6-4.4-0.6-6.6
							c0.3-4.3,1-8.5,1.9-12.7c0.3-1.2,1.6-4.2,2.8-4.6c2.8-1.1,2.5,3.3,5.8,4.4s12.6-1.1,10.6,2.9c-0.8,3.6-0.5,7.4,0.8,10.9
							c0.3,0.7,0.6,1.3,1,1.9c0.9,1.2,1.8-1,2.6-1.8s3.4-1.4,4.6,2.1S385.3,193.2,383.4,194z"/>
						<path class="st35" d="M365.3,197.5c2.5,0.6,7.3,0.4,9.1-1.1c1.2-1,2.3-2.3,3.1-3.7c-0.3,1.9-1.3,3.7-2.7,5.1
							c-3.8,3-9.6,1.8-9.6,1.8L365.3,197.5z"/>
						<path class="st23" d="M377.5,183.2c0.3,2.1-2,7.1-5.6,6.7s-4.2-2.7-7.4-3.5c-2.8-0.7-4.6,0.2-6-0.4s-2.7-2.8-2.7-2.8
							s-0.8,6.4,0.7,9.6c2,4.2,7.3,5.1,10.4,5.4c2.8,0.4,5.5-0.3,7.9-1.9c2-1.4,3.2-3.9,4.1-6.4s2.4-5.7,2.4-5.7l-3.8-1.2"/>
						<path class="st23" d="M370.4,176.5l2.4,2.4c0.4-0.8,0.3-1.8-0.4-2.5c-0.4-0.5-1.2-0.6-1.8-0.2
							C370.5,176.3,370.4,176.4,370.4,176.5z"/>
						<path class="st23" d="M359.3,173.5l3-0.2c-0.1-0.9-0.8-1.6-1.8-1.6c-0.8,0.1-1.4,0.8-1.3,1.6
							C359.3,173.4,359.3,173.4,359.3,173.5z"/>
						<path class="st23" d="M371.4,180.8c0,0.6-0.4,1-1,1c-0.1,0-0.2,0-0.3,0c-0.7-0.3-1.2-1-1.1-1.7c0-0.6,0.4-1,1-1
							c0.1,0,0.2,0,0.3,0C371,179.4,371.4,180.1,371.4,180.8z"/>
						<path class="st23" d="M362,177.6c0,0.6-0.4,1-1,1c-0.1,0-0.2,0-0.3,0c-0.7-0.3-1.2-1-1.1-1.7c0-0.6,0.4-1,1-1
							c0.1,0,0.2,0,0.3,0C361.6,176.1,362,176.8,362,177.6z"/>
						<path class="st35" d="M366.7,177.8l-1.8,8.1l-4-2.9C362.5,180.7,364.9,178.3,366.7,177.8z"/>
						<path class="st35" d="M367.1,189.1l-4.4,0.2c0,1.1,1,2,2.2,2c0,0,0,0,0,0C366.2,191.3,367.2,190.3,367.1,189.1
							C367.2,189.1,367.2,189.1,367.1,189.1z"/>
						<path class="st27" d="M365,191.3c-0.4,0-0.7-0.1-1.1-0.2c0.4-0.9,1.3-1.5,2.4-1.5c0.3,0,0.5,0,0.8,0.1
							C366.8,190.6,366,191.3,365,191.3z"/>
					</g>
					<g id="freepik--head--inject-5_5_">
						<path class="st23" d="M364.6,211.9c1.6-0.6,5.7-1.5,6-0.2c0.2,0.9,0.9,4.1,2.1,4.3c3.2,0.3,6.3-0.9,8.5-3.2
							c1-0.9,1.7-2.2,1.9-3.5c0,0-1.4-3.6-2.2-5.2s-1.1-2.7-2-3l-0.3,2.9c-0.7,1.1-1.7,2.1-2.9,2.7C373,208,367.4,208.8,364.6,211.9
							z"/>
						<path class="st23" d="M364.6,211.9c-0.9-1.2-2.3-5.5-3-5.6c-1.5-0.1-2.6,0.9-2.6,0s1.1-2.6,2.5-4.8c1.1-1.7,2.8-3,3.8-2.9
							l-0.2,4c-0.5,1-0.7,2.2-0.8,3.3C363.9,207.9,364,209.9,364.6,211.9z"/>
					</g>
					<path class="st23" d="M387,222.6c0.9-0.1,1.8-0.4,2.7-0.7c1.1-0.4,2.2-1,3.1-1.7c0.7-0.5,1.3-1,1.9-1.6
						c-1.2-1.2-2.5-2.3-3.8-3.3C389,217.4,387.7,219.9,387,222.6z"/>
				</g>
			</g>
			<path class="st7" d="M359.3,152.1c4.2,0.2,8.2,1.4,11.7,3.6c15,8.7,27.3,29.8,27.3,47.2c0,9-3.4,15.5-9.3,17.6
				c-1.5,0.6-3.1,0.8-4.7,0.8c-1.5,0-2.9-0.2-4.4-0.6c-0.6-0.1-1.2-0.3-1.8-0.5c-1.9-0.7-3.8-1.5-5.5-2.5c-3.8-2.3-7.3-5.1-10.3-8.3
				c-0.4-0.4-0.9-0.9-1.3-1.4c-0.8-0.9-1.7-2-2.6-3.1s-1.9-2.5-2.7-3.8s-1.7-2.6-2.5-4c-5.1-8.9-7.9-18.3-7.9-26.6
				C345.4,159.1,350.7,152,359.3,152.1L359.3,152.1 M359.3,150.5c-9.2,0-15.5,7.3-15.5,20c0,8.9,3.1,18.7,8.1,27.4
				c0.8,1.4,1.6,2.8,2.5,4.1c0.9,1.3,1.8,2.6,2.8,3.8c0.9,1.1,1.7,2.2,2.6,3.2c0.4,0.5,0.9,1,1.3,1.4c3.1,3.4,6.7,6.3,10.7,8.6
				c1.9,1.1,3.8,2,5.8,2.7c0.6,0.2,1.3,0.4,1.9,0.6c1.6,0.4,3.1,0.6,4.8,0.6c1.8,0,3.6-0.3,5.2-0.9c6.3-2.3,10.3-9,10.3-19.1
				c0-17.9-12.5-39.6-28-48.5C368.1,152,363.8,150.6,359.3,150.5L359.3,150.5z"/>
		</g>
		<path class="st7" d="M343.4,147.2c-4.4-2.5-7.9-0.5-7.9,4.6c0.3,5.6,3.2,10.6,7.9,13.7c4.4,2.5,7.9,0.5,7.9-4.6
			C351,155.4,348.1,150.3,343.4,147.2z"/>
		<path class="st0" d="M338.9,153.7c0.2-0.4,0.7-0.5,1.1-0.3c0,0,0,0,0,0l2.6,1.5v-3.7c0-0.4,0.3-0.8,0.7-0.9c0.4,0,0.8,0.3,0.9,0.7
			c0,0.1,0,0.1,0,0.2v4.6l3.4,2c0.4,0.2,0.6,0.7,0.3,1.1c0,0,0,0,0,0c-0.1,0.2-0.4,0.4-0.7,0.4c-0.1,0-0.3,0-0.4-0.1l-2.6-1.5v3.7
			c0,0.4-0.3,0.8-0.7,0.9c-0.4,0-0.8-0.3-0.9-0.7c0-0.1,0-0.1,0-0.2v-4.6l-3.4-2C338.8,154.7,338.7,154.2,338.9,153.7
			C338.9,153.8,338.9,153.8,338.9,153.7z"/>
	</g>
	<g id="freepik--character--inject-5_22_">
		<g id="freepik--character--inject-5_21_">
			<path class="st0" d="M417,212.7c0,8.9,3.1,18.7,8.1,27.4c0.8,1.4,1.6,2.8,2.5,4.1s1.8,2.6,2.8,3.8s1.7,2.2,2.6,3.2
				c0.4,0.5,0.9,1,1.3,1.4c3.1,3.4,6.7,6.2,10.6,8.6c1.9,1.1,3.8,2,5.9,2.7c0.6,0.2,1.3,0.4,1.9,0.5c3.3,0.9,6.8,0.8,10-0.3
				c6.3-2.3,10.3-9,10.3-19.1c0-17.9-12.5-39.6-28-48.5S417,194.8,417,212.7z"/>
			<g id="freepik--character--inject-5_20_">
				<path class="st6" d="M460.5,221.6c0.8,3.2,0.4,6.6-0.1,9.8s-1.1,6.6-0.8,9.9c0.1,0.6,0.1,1.4-0.4,1.8c-0.5,0.3-1.2,0.3-1.6-0.2
					c-0.4-0.4-0.7-0.9-0.9-1.5c-0.2,2.4-0.4,4.7-0.6,7.1c0,0.8-0.2,1.6-0.7,2.3c-0.8,1-2.4,1-3.7,0.6c-3-1.1-5.3-3.6-6.1-6.7
					c-0.8-3.1-0.9-6.3-0.2-9.3c0.8-4.2,2.2-8.3,4.4-12c1.3-2,2.3-4,3.2-6.2c0.2-0.9,0.6-1.7,1.1-2.4c0.3-0.4,0.6-0.2,1-0.1
					c0.4,0.2,0.7,0.3,1.1,0.6c0.7,0.4,1.3,1,1.9,1.6c0.6,0.6,1,1.3,1.4,2.1c0.4,0.7,0.7,1.5,0.9,2.4
					C460.5,221.5,460.5,221.5,460.5,221.6z"/>
				<g id="freepik--arm--inject-5_1_">
					<path class="st33" d="M425.1,240.1c0.8,1.4,1.6,2.8,2.5,4.1s1.8,2.6,2.8,3.8l2.5-7.2l0,0C429.5,239.8,427.3,239.3,425.1,240.1z
						"/>
				</g>
				<g id="freepik--chest--inject-5_9_">
					<g>
						<path class="st14" d="M427.7,243.1c0.9,1.3,1.8,2.6,2.8,3.8c0.9,1.1,1.7,2.2,2.6,3.2c0.4,0.5,0.9,1,1.3,1.4
							c3.1,3.4,6.7,6.2,10.7,8.6c1.9,1.1,3.8,2,5.9,2.7c0.6,0.2,1.3,0.4,1.9,0.5c0-4.6,1.1-9.1,3-13.2c0,0-2.3-1.2-6.8-3.6
							c0,0-0.1-0.1-0.1-0.1c-3.5-2.4-5.9-2-12.4-4.8c-0.1-0.1,0.8-0.5,0.7-0.6l-4.3-1.3l0,0C431.2,240.7,429.4,241.8,427.7,243.1z"
							/>
					</g>
				</g>
				<g id="freepik--head--inject-5_6_">
					<path class="st5" d="M449.4,239c0.5-2,3-3.4,5.3-6.9s5.3-11.1,0.6-14.7c0.9-4.6-2.8-10.3-7.9-12.6c-6.6-3-14.4-2.6-18.9,3.1
						c-5.3,6.7,0.2,13.1,0.2,13.1L449.4,239z"/>
					<path class="st33" d="M429.3,231.6c0.3,1.4,1,2.8,2,3.9c1.1,1.4,2.7,2.1,5.4,3l-0.1,1.8v1.1l0,1.2l0,2.1c0,0-3.1,3.7-3.4,6.4
						c0.4,0.5,0.9,1,1.3,1.4c5.2-0.3,10.2-1.9,14.6-4.8v-0.3l0.1-3l0.3-7.3l0.1-2.1c0,0.3,0.2,0.5,0.3,0.8c0.3,0.4,0.7,0.7,1.1,0.9
						c0.8,0.4,1.8,0.5,2.7,0.1l0.2-0.1c0.1,0,0.2-0.1,0.3-0.1c0.1,0,0.2-0.1,0.2-0.1l0.2-0.1l0,0c0.1,0,0.1-0.1,0.2-0.1
						c1.8-1.5,2.4-3.9,1.6-6.1c-0.6-1.6-2.4-2.9-3.7-2.4s-1.5,1.4-2.1,2.3s-3.3-1.9-1.4-6.8c-2.2-1.8-3.3-5.9-2.7-7.8
						c-1-3.5-7.5-4-8.7-2.6c-1-2.2-0.9-3.6-2.7-3s-5,1.8-6.1,9.5C428.2,223.5,428.4,227.6,429.3,231.6z"/>
					<path class="st26" d="M440.9,230.9L437,231c0.2,1.3,1.2,2.3,2.5,2.3C440.6,233.2,441.1,232.2,440.9,230.9z"/>
					<path class="st27" d="M438.4,233.1c0.1-0.9,1-1.6,1.9-1.5c0.1,0,0.3,0,0.4,0.1c0.1,0,0.1,0.1,0.2,0.1c0,0.8-0.6,1.5-1.4,1.5
						C439.1,233.3,438.7,233.2,438.4,233.1z"/>
					<polygon class="st31" points="437.2,220.6 436.3,228.3 432.7,225.8 					"/>
					<path class="st23" d="M433.3,221c0.1,0.5-0.3,1-0.9,1.1c-0.1,0-0.2,0-0.4,0c-0.7-0.2-1.3-0.8-1.3-1.6c-0.1-0.5,0.3-1.1,0.9-1.1
						c0.1,0,0.3,0,0.4,0C432.7,219.6,433.2,220.2,433.3,221z"/>
					<path class="st23" d="M442.3,224.1c0.1,0.5-0.3,1-0.9,1.1c-0.1,0-0.2,0-0.4,0c-0.7-0.2-1.3-0.8-1.3-1.6c-0.1-0.5,0.3-1,0.9-1.1
						c0.1,0,0.2,0,0.4,0C441.8,222.7,442.3,223.3,442.3,224.1z"/>
					<path class="st31" d="M436.6,238.6c2.6,0.5,5.3,0.3,7.8-0.4c1.5-0.6,2.8-1.6,3.7-3c0,0,0.3,2.5-3.4,4.2c-2.9,1.4-8.1,1-8.1,1
						L436.6,238.6z"/>
					<path class="st23" d="M430.9,217.2l2.8,0.2c-0.2-0.9-0.9-1.5-1.8-1.6C431.1,215.7,430.6,216.4,430.9,217.2z"/>
					<path class="st23" d="M440.1,219.7l3.1,2c0.2-0.9-0.2-1.8-1-2.3C441.3,218.9,440.4,219,440.1,219.7z"/>
					<path class="st5" d="M434.9,209.6c-0.6,3,3,10.1,7.8,13.3s7.8,2.6,7.8,2.6s0.6-9.7-4.2-13.4S434.9,209.6,434.9,209.6z"/>
				</g>
				<g id="freepik--arm--inject-5_2_">
					<path class="st33" d="M450.8,263.9c0.6,0.2,1.3,0.4,1.9,0.5c3.3,0.9,6.8,0.8,10-0.3c1.2-0.6,2.2-1.4,3.1-2.5
						c-3.4-8.1-5.3-9.7-9.9-11.6l0,0C452.8,252.4,451.3,260.3,450.8,263.9z"/>
				</g>
			</g>
			<path class="st7" d="M432.5,194.2c4.2,0.2,8.2,1.4,11.7,3.6c15,8.7,27.3,29.8,27.3,47.2c0,9-3.4,15.4-9.3,17.6
				c-1.5,0.6-3.1,0.8-4.7,0.8c-1.5,0-2.9-0.2-4.4-0.6c-0.6-0.1-1.2-0.3-1.8-0.5c-1.9-0.7-3.8-1.5-5.5-2.5c-3.8-2.3-7.3-5.1-10.3-8.3
				c-0.4-0.4-0.9-0.9-1.3-1.4c-0.9-1-1.7-2-2.6-3.1s-1.9-2.5-2.7-3.8s-1.7-2.6-2.5-4c-5.1-8.9-7.9-18.3-7.9-26.6
				C418.5,201.3,423.9,194.2,432.5,194.2L432.5,194.2 M432.5,192.7c-9.2,0-15.5,7.3-15.5,20c0,8.9,3.1,18.7,8.1,27.4
				c0.8,1.4,1.6,2.8,2.5,4.1s1.8,2.6,2.8,3.8s1.7,2.2,2.6,3.2c0.4,0.5,0.9,1,1.3,1.4c3.1,3.4,6.7,6.3,10.7,8.6
				c1.9,1.1,3.8,2,5.9,2.7c0.6,0.2,1.3,0.4,1.9,0.5c1.6,0.4,3.1,0.6,4.8,0.6c1.8,0,3.6-0.3,5.3-0.9c6.3-2.3,10.3-9,10.3-19.1
				c0-17.9-12.5-39.6-28-48.5C441.3,194.2,437,192.8,432.5,192.7L432.5,192.7z"/>
		</g>
		<path class="st7" d="M416.5,189.5c-4.4-2.5-7.9-0.5-7.9,4.6s3.5,11.2,7.9,13.7s7.9,0.5,7.9-4.6
			C424.1,197.6,421.2,192.5,416.5,189.5z"/>
		<path class="st0" d="M412,196c0.2-0.4,0.7-0.5,1.1-0.3l2.6,1.5v-3.7c0-0.4,0.3-0.8,0.7-0.9c0.4,0,0.8,0.3,0.9,0.7
			c0,0.1,0,0.1,0,0.2v4.6l3.4,2c0.4,0.2,0.5,0.7,0.3,1.1c-0.1,0.2-0.4,0.4-0.7,0.4c-0.1,0-0.3,0-0.4-0.1l-2.6-1.5v3.7
			c0,0.4-0.3,0.8-0.7,0.9c-0.4,0-0.8-0.3-0.9-0.7c0-0.1,0-0.1,0-0.2V199l-3.4-2C412,196.8,411.8,196.4,412,196z"/>
	</g>
</g>
<g id="freepik--character--inject-5_25_">
	<g id="freepik--character--inject-5_24_">
		<g id="freepik--character--inject-5_23_">
			<g id="freepik--Bottom--inject-5">
				<path class="st25" d="M307,431.9c0-0.2-1.7-12.7-1.7-12.7s3.2,1.9,10.7,1.8c3.8,0,8.6-3,8.6-3s-0.3,8.6-0.1,11.9
					c0.9-0.2,1.1,1.8,2.5,2.6c2.5,1.4,7.2,1.6,11.6,1.9c1.2,0.1,2.5,0,3.8,0.1h0.1c3.7,0.7,6.8,3.9,2.2,6s-11.2,1.7-17.3,1.3
					C320.1,441.2,306.5,439.1,307,431.9z"/>
				<path class="st23" d="M357.6,441c0.3,1.3,0.2,2.6-0.2,3.9c-0.4,1.3-4.7,5.3-11.2,7s-14,0.5-17.6,0.8s-7.2,1.7-11.5,1.9
					s-10-0.1-12.4-3.8c-0.4-1.1-0.4-2.3,0-3.4C305.4,446.9,357.6,441,357.6,441z"/>
				<path class="st6" d="M324.3,428.6c0.5-1.4,1.9,1.7,2.9,2c2.9,0.9,7.2,0.9,11.7,1.2c5.7,0.4,12.3-0.3,15.8,1.7s4,6.5-2.1,11.2
					c-1.8,1.4-3.8,3.2-5.8,3.9c-6.4,2.4-13.1,0.9-17.4,1.2c-5.6,0.3-9.4,3-14.4,2.6c-6.5-0.5-9.8-2-10.5-5.7s1.1-7.3,1.1-11.5
					c0-2.9,0.2-3.7,1.5-3.6c0,0,0.2,1,2.9,1.7c4.8,1.4,6.1-0.5,10.7,4.7c1.4,1.6,2.5,0.9,2.8,0.6c0.9-0.9,1.3-2.5,1.2-5
					C324.5,431.8,324.4,430.5,324.3,428.6z"/>
				<path class="st0" d="M346.8,448.7c0,0,2.5-14.4-5.7-16.7l-1.1-0.1c0,0,0.2-1,3.4-1.2c6.2-0.4,10.1,0.5,12.7,3.2
					c1.5,1.9,2.1,4.5,1.5,6.9C356.8,443.7,353.5,446.8,346.8,448.7z"/>
				<path class="st0" d="M342.7,440c0,0-0.4-6.7-5.1-8.2c-0.8-0.2-1.6-0.3-2.4-0.1c0,0,5.2,1.3,5.8,8.4c0,0,0.1,0.5,1,0.5
					C342.2,440.6,342.7,440.6,342.7,440z"/>
				<path class="st0" d="M331.4,431.4c0,0,0.1-0.1,1-0.1c0.4,0,0.8,0.1,1.2,0.2c3.1,1.6,4.9,5,4.5,8.5c0,0,0.1,0.5-0.8,0.4
					s-1-0.6-1-0.6S336.8,434,331.4,431.4z"/>
				<path class="st0" d="M328,430.9c0,0,0.2-0.1,1,0c1,0.2,1.1,0.4,1.1,0.4s4.4,3.1,3.5,8.2c0,0-0.1,0.5-1,0.4s-0.8-0.7-0.8-0.7
					C332.3,435.9,330.8,432.6,328,430.9z"/>
				<path class="st25" d="M237,401.4c0.7-1.3,1.4-2,2.1-3.8c1.6-3.6,2.6-7.8,6-18.9l18.7,8.8c0,0-13.9,22.2-14,24.6
					C248.6,432.6,237,401.4,237,401.4z"/>
				<path class="st6" d="M231.3,407.2c0.2-2.1,3.2-4.2,4.6-5.2s1.1-2.9,2.4-3.3c0.8-0.3,2.3-0.1,5.2,0.7c3.3,0.8,6.2,3.5,6.8,5.5
					c0.3,1.2-0.1,2.8-0.6,4.4c-0.1,0.5-0.2,1-0.1,1.5c0.2,0.5,0.5,0.5,0.7-0.1c0.4-0.8,0.8-1.6,1.3-2.5c0.2,0.6,0.4,1.3,0.4,2
					c0,0.8,0,1.5-1.2,3.1c-0.8,1-1.2,2.3-1.2,3.6c-0.1,2,0,4,0.1,6c0.1,3.6,0.5,3.5,0.5,3.5s5.8-1.5,9.9,0.8c2.1,1,3.2,3.3,2.7,5.6
					c0,0-0.7,3.9-6,5.1c0,0.1-2.9,1-2.9,1c-2.1,0.8-4.4,0.9-6.5,0.2c-0.2-0.1-0.4-0.2-0.6-0.3c-3.6-1.8-12.6-6.6-12.5-7.2
					c0-0.6,0-1.2-0.1-1.8c-0.1-1.4-0.2-2.8-0.3-4.2S231.3,407.4,231.3,407.2z"/>
				<path d="M230.3,408.3c-1.6,0.7-1,5.3,0.3,9.8s1.9,5.9,1.5,9.7s-0.6,5.4,0.9,6.7s13.3,6.4,13.3,6.4c-1.8-4.4-2.9-9.1-3.2-13.8
					c-0.7-8.2-1.4-13.5-5.3-17S230.3,408.3,230.3,408.3z"/>
				<path class="st23" d="M262.9,432.8c0,0-2.1,4.8-11.6,5.7c-5.2,0.5-6.3-1.9-6.9-8.3c-0.6-6.5-1.3-15.1-3.9-18.9s-7-4.9-8.6-4.5
					c-0.7,0.3-1.3,0.8-1.6,1.5c2.6-0.2,5.1,0.7,6.9,2.5c3.4,3.1,4.3,10,4.7,16.3s1,13.5,5.9,14.1s11.3-1.7,14.3-4.6
					C263.2,435.6,263.5,434.1,262.9,432.8z"/>
				<path class="st0" d="M249.8,426.3c3.7,1.5,5.1,6.8,4.8,9.7c0,0.7-0.2,1.4-0.5,2c2,0,3.9-0.6,5.7-1.6c3-1.7,3.8-3.2,3.7-4.8
					s-1.7-5.1-6.4-5.7S249.8,426.3,249.8,426.3z"/>
				<path class="st0" d="M249.8,424.1c0.3,0.4,0.5,0.9,0.6,1.4c0.2,1.3-0.5,2.5-1.8,2.9c-0.7,0.2-0.9-1.1-0.2-1.5
					C249.4,426.3,249.9,425.2,249.8,424.1z"/>
				<path class="st0" d="M249.6,419.7c0.2,0.4,0.3,0.9,0.3,1.4c-0.1,1.1-0.9,2-2,2.3c-0.5,0.1-0.4-1.1,0-1.3
					C248.7,421.4,249.3,420.6,249.6,419.7z"/>
				<path class="st0" d="M250,414.7c0.1,0.7,0,1.4-0.2,2.1c-0.6,0.8-1.4,1.4-2.4,1.6c-0.7,0-0.5-1.3-0.1-1.6
					C248.1,416.3,249.8,415.4,250,414.7z"/>
				<path class="st6" d="M256.9,399.6c0,0,18.6-30.8,27.3-46.7c1.8-3.3,2.3-6.2,3.2-10.2c0.9-4.2,5.3-27.9,5.3-27.9l6.1,36.6
					c-0.9,4.5-1.4,9-1.5,13.6c-0.1,8.4,0.6,16.9,2.2,25.2c3.3,17.7,5.5,30,5.5,30c1.3,0.9,5.7,2.6,11.2,1.9c3.1-0.6,6.1-1.8,8.9-3.4
					c0,0,0.9-29,1.1-39.9s0.1-27.7,0.4-34.9c0.4-13,0-13.6-0.4-34.9c-0.4-22.1-2.6-55.1-2.6-55.1l-60.2-0.6c0,0-2.1,6.7-2,30.5
					c0,18.6-1.1,56-1.1,56c-5.4,7-9.3,15-11.5,23.6c-2.2,8.8-5,20-7.3,27.5C246.4,390.5,254.9,395.5,256.9,399.6z"/>
				<path class="st23" d="M292.7,315l-4.1-24.4c0,0-8.1-0.4-18.1-8.3c0,0,1.5,7.2,15.4,11.9l3.9,23.6l-2,22.6
					C287.9,340.4,292.7,315.5,292.7,315z"/>
				<path d="M325.3,412.5c-4,2.1-17.2,3.4-21.9,0.7l1.5,9.2c0,0,2.8,1.8,9.6,1.3c7.5-0.5,10.4-2.4,10.4-2.4L325.3,412.5z"/>
				<path d="M261.1,392.9l-4.2,7.1c-2-2.8-4.6-5.1-7.8-6.6c-6.1-2.7-8.1-2.3-8.1-2.3l2.5-8.5c3.7-0.3,7.4,0.5,10.6,2.5
					C260.7,388.9,261.1,392.9,261.1,392.9z"/>
			</g>
			<g id="freepik--Top--inject-5">
				<polygon class="st25" points="300.2,172.2 298.2,187.1 277.9,186.1 280.1,169.9 				"/>
				<path class="st27" d="M308.3,144.3c1.6,2,6.4,8,6.6,9.1l-4,2.4L308.3,144.3z"/>
				<path class="st25" d="M297,129.3c6.3-0.7,10.3,3.8,12.1,17.1c0.5,1.1,1,2.2,1.4,3.3c2.5,8.6,1.1,16.7-0.3,18.9
					c-3.6,2.9-7.7,4-13.5,3.5c-4.5-0.4-15.8-1.7-21.6-7.7c-6.8-7.1-10.2-17.7-5.4-23.3C276.6,133.3,293.6,129.6,297,129.3z"/>
				<path class="st27" d="M310.3,168.6c-0.8,1.2-6.5,4.1-10.1,4.4v-2.8C303.6,170.1,307,169.5,310.3,168.6z"/>
				<path class="st23" d="M298.3,152.6c-0.2,0.6-0.8,1-1.4,0.8c-0.3-0.1-0.5-0.2-0.6-0.5c-0.7-1-1.4-1.9-2.3-2.6
					c-1.1-0.9-2.5-1.4-3.9-1.3c-5.3,0.4-4,7.3-1.4,9.7c4.2,4,6.5,0.5,6.5,0.5s3,6.7-1.4,10.6c0,0-7.6,3.3-13.6,1.4
					c-4.5-4.8-7.5-7.9-10.5-12c-7.1-9.9-7.2-19.6-2.6-22.4c-0.3-3.5,1.6-8.8,8.8-11.8c6.8-2.9,11.4-2.6,16.4-2.3s11,2.5,15.6-1.3
					c1.1,2.8,0.9,6-0.8,8.6c1.6-0.6,3.4,0.1,4.1,1.7c0.6,1.5,0,3.1-1.4,3.9c1,0.6,1.5,1.8,1.1,2.9c-0.4,1.1-1.4,1.8-2.6,1.9
					c-1,0.1-2.1,0-3.1-0.2c-1.4,4-6,5.4-8.7,5.3c0.1,0,0.4,0.6,0.5,0.6c0.2,0.2,0.3,0.5,0.4,0.7c0.8,1.5,1.1,3.1,1,4.8
					C298.4,152,298.3,152.3,298.3,152.6z"/>
				<path class="st5" d="M275.1,178.2c-7.5-0.4-15,1.9-19.6,12.4c-4.3,9.9-10.4,24.2-12.6,31.4c-1.1,3.5-3.1,6.7,3.5,12.9
					c6.1,5.6,12.8,10.4,20.1,14.3l6.6-14.1l-10.3-9.9l4.5-9.4L275.1,178.2z"/>
				<path class="st23" d="M262.7,225.2c-1.5,2.3-3.6,4.1-6.1,5.1c2.9,0.7,6.1-2.4,7-4.3L262.7,225.2z"/>
				<path class="st11" d="M269.7,180.5c-5.3,2.9-9.3,12.8-8.9,21c0.2,5.2,2.1,18.6,3.6,30.4c0.5,3.7-1,10-1.7,17.6
					c-0.5,5.6-1.1,11.6-1.1,11.6s7.6,8.8,27,9.9c24.7,1.5,36.6-5,36.6-5s-0.9-19.7-1.5-35.6c-0.9-23.6-0.9-30.5-4.6-38.6
					c-1.2-2.4-2.5-7.7-6.5-8.7c-3.2-0.8-10.5-2.6-13.5-3c-4.8,1.2-17.2,1.3-20.2-1.3l0-0.7C273.7,178,272.9,178.6,269.7,180.5z"/>
				<g>
					<path class="st29" d="M269.7,180.5c-5.3,2.9-9.3,12.8-8.9,21c0.2,5.2,2.1,18.6,3.6,30.4c0.5,3.7-1,10-1.7,17.6
						c-0.5,5.6-1.1,11.6-1.1,11.6s7.6,8.8,27,9.9c24.7,1.5,36.6-5,36.6-5s-0.9-19.7-1.5-35.6c-0.9-23.6-0.9-30.5-4.6-38.6
						c-1.2-2.4-2.5-7.7-6.5-8.7c-3.2-0.8-10.5-2.6-13.5-3c-4.8,1.2-17.2,1.3-20.2-1.3l0-0.7C273.7,178,272.9,178.6,269.7,180.5z"/>
				</g>
				<g id="freepik--arm--inject-5_3_">
					<path class="st27" d="M391.6,163.6c2.7-3.4,4.2-4.8,5.6-5.7s6.4-4.6,8.4-5.7c1.3-0.7,2.4,1.3,1,3.2c-1,1.5-4,3.9-5.3,5.1
						s-3.3,5.6-3.3,5.6L391.6,163.6z"/>
					<path class="st25" d="M362.7,208.9c-2.9,1.6-5.7,1.2-15.4,0.7c-6.9-0.4-16.5-0.6-32.7-2.2c-6.1-6.1-7.5-16.7-1.5-23.2
						c6.3-1.5,25.5,6.2,45.9,5.8c0,0,20.1-9.2,22.4-10.9s6.3-10.3,7.8-12.8c2.1-3.4,3.6-3.4,5-3.6c4.8-0.5,6-0.4,7.1,0
						c0.7,0.3,1.2,0.8,1.4,1.6c1.3-0.2,3.1-0.7,3.9,1.3c0.2,0.5,0.4,1,0.5,1.6c0.3,0,0.7,0.1,0.9,0.3c1.3,0.9,0.7,5.5-0.2,6.8
						c-0.6,0.9-1.7,1.3-3.2,1.5c-1.3,0.1-1-1.3-1-1.3L402,175c-3.1,3.7-1.9,9.1-6.6,11.6c-2,0.8-4,1.7-5.8,2.8
						C378.1,198.5,366.4,206.8,362.7,208.9z"/>
					<path class="st27" d="M402.8,164.3l-5.8,0.3l5.5-1.1C402.6,163.8,402.8,164,402.8,164.3z"/>
					<path class="st27" d="M407.2,167.1l-6.6,0.9l6.4-1.6C407.1,166.6,407.2,166.9,407.2,167.1z"/>
					<path class="st27" d="M407.1,170.2c-0.1,0.4-0.3,0.7-0.7,1c-0.3,0.3-0.6,0.5-1,0.7l0.1-0.1c-0.1,0.4-0.2,0.8-0.3,1.1l-0.2-0.1
						c0.3-0.2,0.7-0.2,1.1,0c0.3,0.1,0.6,0.4,0.8,0.7c-0.2-0.2-0.5-0.4-0.8-0.5c-0.3-0.1-0.6-0.1-0.9,0.1l-0.2,0l0-0.3
						c0.1-0.4,0.2-0.8,0.3-1.1v-0.1h0.1c0.3-0.2,0.7-0.4,1-0.6C406.7,170.8,406.9,170.5,407.1,170.2z"/>
					<path class="st27" d="M405.6,171.4c-0.7,0.3-1.5,0.6-2.3,0.8c0,0.5-0.2,1-0.5,1.4c-0.3,0.5-0.6,0.9-1,1.4l1.7-0.6
						c0,0,0.2-0.9,1.7-1.6L405.6,171.4z"/>
					<path class="st5" d="M312,182.9c4.2,0.1,8.4,0.7,12.4,1.8c3.8,1,17.5,3.6,21.5,4s13.2,0.9,13.2,0.9l12.2-5.3
						c0,0,2.1,0.7,4.3,5.3s0.7,10.5,0.7,10.5s-10.8,7.4-13.1,8.9s-3.7,1.9-7.3,1.6s-27.6-1.8-30.4-1.4s-3.5,1.3-5,2.2
						s-5.6-0.6-8.3-4.6S304.2,188.7,312,182.9z"/>
				</g>
			</g>
		</g>
	</g>
</g>
</svg>
